<svg width="519" height="504" viewBox="0 0 519 504" fill="none" xmlns="http://www.w3.org/2000/svg">
<circle cx="261.36" cy="260.36" r="213.36" fill="#1B669F"/>
<circle cx="259.5" cy="267.5" r="179.5" fill="white"/>
<circle cx="258.92" cy="268.64" r="111.72" fill="#BED558"/>
<circle cx="259.34" cy="268.22" r="101.22" fill="white"/>
<circle cx="158.2" cy="436.2" r="67.2" fill="#8DBDE2"/>
<circle cx="158.2" cy="436.2" r="59.64" fill="white"/>
<path d="M133.416 462.07L131.115 470.377C131.063 470.576 130.959 470.737 130.803 470.858C130.656 470.979 130.478 471.04 130.27 471.04H128.099C127.882 471.04 127.696 470.979 127.54 470.858C127.393 470.737 127.297 470.576 127.254 470.377L124.94 462.07H127.449L128.827 468.193C128.862 468.358 128.892 468.531 128.918 468.713C128.953 468.886 128.987 469.051 129.022 469.207H129.334C129.36 469.051 129.39 468.886 129.425 468.713C129.46 468.531 129.494 468.358 129.529 468.193L130.907 462.07H133.416ZM136.876 464.397C138.037 464.397 138.865 464.588 139.359 464.969C139.853 465.35 140.1 465.914 140.1 466.659C140.109 467.257 139.944 467.695 139.606 467.972C139.268 468.249 138.67 468.388 137.812 468.388H135.875C135.936 468.761 136.061 469.016 136.252 469.155C136.451 469.294 136.759 469.363 137.175 469.363C137.452 469.363 137.816 469.354 138.267 469.337C138.726 469.311 139.207 469.272 139.71 469.22L139.931 470.65C139.506 470.858 139.03 471.001 138.501 471.079C137.981 471.157 137.452 471.196 136.915 471.196C135.615 471.196 134.696 470.923 134.159 470.377C133.63 469.822 133.366 468.977 133.366 467.842C133.366 466.993 133.479 466.317 133.704 465.814C133.938 465.311 134.311 464.952 134.822 464.735C135.342 464.51 136.027 464.397 136.876 464.397ZM136.954 465.97C136.685 465.97 136.473 466 136.317 466.061C136.161 466.113 136.044 466.23 135.966 466.412C135.897 466.585 135.853 466.85 135.836 467.205H137.149C137.444 467.205 137.63 467.162 137.708 467.075C137.795 466.988 137.838 466.832 137.838 466.607C137.838 466.356 137.769 466.187 137.63 466.1C137.491 466.013 137.266 465.97 136.954 465.97ZM142.975 464.579L143.183 465.541C143.607 465.16 144.036 464.874 144.47 464.683C144.912 464.492 145.341 464.397 145.757 464.397H146.121L145.913 466.568H145.289C145.046 466.568 144.786 466.59 144.509 466.633C144.24 466.676 143.902 466.746 143.495 466.841V471.04H141.129V464.579H142.975ZM148.583 461.667C149.043 461.667 149.272 461.901 149.272 462.369V463.045C149.272 463.513 149.043 463.747 148.583 463.747H147.569C147.11 463.747 146.88 463.513 146.88 463.045V462.369C146.88 461.901 147.11 461.667 147.569 461.667H148.583ZM149.259 464.579V471.04H146.906V464.579H149.259ZM157.671 461.563C158.139 461.563 158.373 461.797 158.373 462.265V462.941C158.373 463.409 158.139 463.643 157.671 463.643H156.683C156.215 463.643 155.981 463.409 155.981 462.941V462.265C155.981 461.797 156.215 461.563 156.683 461.563H157.671ZM153.485 461.654C153.719 461.654 154.018 461.667 154.382 461.693C154.746 461.71 155.066 461.749 155.344 461.81V463.266H154.33C154.052 463.266 153.862 463.327 153.758 463.448C153.654 463.561 153.602 463.764 153.602 464.059V464.579H158.36V471.04H155.981V466.048H153.602V471.04H151.236V466.048H150.144V464.644L151.236 464.579V463.734C151.236 463.119 151.4 462.62 151.73 462.239C152.068 461.849 152.653 461.654 153.485 461.654ZM162.106 461.94V465.554C162.106 465.97 162.071 466.377 162.002 466.776H162.509L163.9 464.579H166.5L164.992 466.75C164.905 466.906 164.793 467.049 164.654 467.179C164.515 467.309 164.403 467.4 164.316 467.452V467.504C164.403 467.556 164.515 467.66 164.654 467.816C164.793 467.972 164.905 468.128 164.992 468.284L166.734 471.04H164.121L162.496 468.154H162.015C162.041 468.319 162.063 468.483 162.08 468.648C162.097 468.813 162.106 468.969 162.106 469.116V471.04H159.74V461.94H162.106ZM170.945 464.397C171.526 464.397 172.016 464.475 172.414 464.631C172.822 464.787 173.129 465.047 173.337 465.411C173.545 465.775 173.649 466.278 173.649 466.919V471.04H171.764L171.543 470.078C171.309 470.355 171.002 470.615 170.62 470.858C170.248 471.092 169.78 471.209 169.216 471.209C168.818 471.209 168.454 471.14 168.124 471.001C167.804 470.862 167.544 470.659 167.344 470.39C167.154 470.121 167.058 469.783 167.058 469.376V468.726C167.058 468.206 167.24 467.803 167.604 467.517C167.968 467.222 168.471 467.075 169.112 467.075H171.283V466.906C171.275 466.637 171.205 466.447 171.075 466.334C170.954 466.213 170.729 466.152 170.399 466.152C170.061 466.152 169.645 466.161 169.151 466.178C168.657 466.187 168.142 466.208 167.604 466.243L167.396 464.722C167.717 464.661 168.09 464.609 168.514 464.566C168.948 464.514 169.381 464.475 169.814 464.449C170.248 464.414 170.625 464.397 170.945 464.397ZM169.359 469.038C169.359 469.385 169.576 469.558 170.009 469.558C170.2 469.567 170.404 469.532 170.62 469.454C170.846 469.367 171.067 469.255 171.283 469.116V468.271H169.931C169.732 468.28 169.585 468.332 169.489 468.427C169.403 468.514 169.359 468.635 169.359 468.791V469.038ZM172.154 460.965L173.09 462.486L169.97 463.877L169.307 462.902L172.154 460.965ZM178.044 464.397C178.417 464.397 178.841 464.427 179.318 464.488C179.803 464.549 180.232 464.666 180.605 464.839L180.371 466.308C179.591 466.299 178.95 466.295 178.447 466.295C177.953 466.295 177.611 466.399 177.42 466.607C177.238 466.806 177.147 467.205 177.147 467.803C177.147 468.401 177.238 468.804 177.42 469.012C177.611 469.211 177.953 469.311 178.447 469.311C178.664 469.311 178.958 469.307 179.331 469.298C179.712 469.289 180.098 469.263 180.488 469.22L180.709 470.702C180.336 470.884 179.912 471.01 179.435 471.079C178.967 471.157 178.495 471.196 178.018 471.196C177.203 471.196 176.549 471.088 176.055 470.871C175.561 470.646 175.206 470.286 174.989 469.792C174.772 469.298 174.664 468.635 174.664 467.803C174.664 466.971 174.772 466.308 174.989 465.814C175.214 465.311 175.574 464.952 176.068 464.735C176.562 464.51 177.221 464.397 178.044 464.397ZM183.381 461.667C183.84 461.667 184.07 461.901 184.07 462.369V463.045C184.07 463.513 183.84 463.747 183.381 463.747H182.367C181.908 463.747 181.678 463.513 181.678 463.045V462.369C181.678 461.901 181.908 461.667 182.367 461.667H183.381ZM184.057 464.579V471.04H181.704V464.579H184.057ZM189.023 464.397C189.604 464.397 190.094 464.475 190.492 464.631C190.9 464.787 191.207 465.047 191.415 465.411C191.623 465.775 191.727 466.278 191.727 466.919V471.04H189.842L189.621 470.078C189.387 470.355 189.08 470.615 188.698 470.858C188.326 471.092 187.858 471.209 187.294 471.209C186.896 471.209 186.532 471.14 186.202 471.001C185.882 470.862 185.622 470.659 185.422 470.39C185.232 470.121 185.136 469.783 185.136 469.376V468.726C185.136 468.206 185.318 467.803 185.682 467.517C186.046 467.222 186.549 467.075 187.19 467.075H189.361V466.906C189.353 466.637 189.283 466.447 189.153 466.334C189.032 466.213 188.807 466.152 188.477 466.152C188.139 466.152 187.723 466.161 187.229 466.178C186.735 466.187 186.22 466.208 185.682 466.243L185.474 464.722C185.795 464.661 186.168 464.609 186.592 464.566C187.026 464.514 187.459 464.475 187.892 464.449C188.326 464.414 188.703 464.397 189.023 464.397ZM187.437 469.038C187.437 469.385 187.654 469.558 188.087 469.558C188.278 469.567 188.482 469.532 188.698 469.454C188.924 469.367 189.145 469.255 189.361 469.116V468.271H188.009C187.81 468.28 187.663 468.332 187.567 468.427C187.481 468.514 187.437 468.635 187.437 468.791V469.038Z" fill="#265375"/>
<g clip-path="url(#clip0_47:21)">
<path d="M158.2 425.28C155.418 425.28 153.16 427.536 153.16 430.32C153.16 432.512 154.568 434.358 156.52 435.052V440.4C156.52 441.329 157.272 442.08 158.2 442.08C159.129 442.08 159.88 441.329 159.88 440.4V435.052C161.832 434.358 163.24 432.512 163.24 430.32C163.24 427.536 160.983 425.28 158.2 425.28Z" fill="#BED558"/>
<path d="M176.68 415.2H173.32V411.84C173.32 404.418 167.302 398.4 159.88 398.4H156.52C149.098 398.4 143.08 404.418 143.08 411.84V415.2H139.72C136.009 415.2 133 418.209 133 421.92V445.44C133 449.153 136.009 452.16 139.72 452.16H176.68C180.391 452.16 183.4 449.153 183.4 445.44V421.92C183.4 418.209 180.391 415.2 176.68 415.2ZM146.44 411.84C146.44 406.282 150.962 401.76 156.52 401.76H159.88C165.438 401.76 169.96 406.282 169.96 411.84V415.2H166.6V411.84C166.6 408.134 163.584 405.12 159.88 405.12H156.52C152.816 405.12 149.8 408.134 149.8 411.84V415.2H146.44V411.84ZM163.24 415.2H153.16V411.84C153.16 409.985 154.663 408.48 156.52 408.48H159.88C161.737 408.48 163.24 409.985 163.24 411.84V415.2ZM180.04 445.44C180.04 447.292 178.534 448.8 176.68 448.8H139.72C137.866 448.8 136.36 447.292 136.36 445.44V421.92C136.36 420.068 137.866 418.56 139.72 418.56H176.68C178.534 418.56 180.04 420.068 180.04 421.92V445.44Z" fill="#265375"/>
</g>
<circle cx="67.2" cy="218.2" r="67.2" fill="#8DBDE2"/>
<circle cx="67.2001" cy="218.2" r="59.64" fill="white"/>
<path d="M52.1542 244.79V252.902C52.1542 253.474 51.8725 253.76 51.3092 253.76H50.2172C49.9572 253.76 49.7622 253.699 49.6322 253.578C49.5108 253.457 49.3852 253.279 49.2552 253.045L47.0582 249.223C46.9455 249.015 46.8372 248.785 46.7332 248.534C46.6378 248.274 46.5555 248.018 46.4862 247.767H46.3692C46.4038 248.018 46.4298 248.278 46.4472 248.547C46.4732 248.807 46.4862 249.058 46.4862 249.301V253.76H44.2112V245.648C44.2112 245.076 44.4972 244.79 45.0692 244.79H46.1482C46.3995 244.79 46.5858 244.851 46.7072 244.972C46.8372 245.093 46.9715 245.271 47.1102 245.505L49.2162 249.184C49.3375 249.392 49.4545 249.626 49.5672 249.886C49.6798 250.137 49.7882 250.397 49.8922 250.666H50.0092C49.9832 250.397 49.9615 250.137 49.9442 249.886C49.9268 249.626 49.9182 249.362 49.9182 249.093L49.9052 244.79H52.1542ZM55.7222 244.751C56.1989 244.751 56.6929 244.755 57.2042 244.764C57.7242 244.764 58.2269 244.777 58.7122 244.803C59.1976 244.82 59.6439 244.855 60.0512 244.907L59.9342 246.636H56.7492C56.3332 246.636 56.1252 246.822 56.1252 247.195V248.482H59.4532V250.133H56.1252V253.76H53.6812V246.688C53.6812 246.107 53.8676 245.639 54.2402 245.284C54.6216 244.929 55.1156 244.751 55.7222 244.751ZM64.7111 244.634C65.1618 244.634 65.5431 244.647 65.8551 244.673C66.1758 244.69 66.4661 244.725 66.7261 244.777C66.9861 244.82 67.2591 244.881 67.5451 244.959L67.3631 246.753C67.0685 246.744 66.7955 246.736 66.5441 246.727C66.2928 246.718 66.0241 246.714 65.7381 246.714C65.4521 246.705 65.1098 246.701 64.7111 246.701C64.3471 246.701 64.0655 246.775 63.8661 246.922C63.6668 247.069 63.5281 247.329 63.4501 247.702C63.3721 248.075 63.3331 248.599 63.3331 249.275C63.3331 249.951 63.3721 250.475 63.4501 250.848C63.5281 251.221 63.6668 251.481 63.8661 251.628C64.0655 251.775 64.3471 251.849 64.7111 251.849C65.3438 251.849 65.8681 251.845 66.2841 251.836C66.7088 251.819 67.1335 251.784 67.5581 251.732L67.7401 253.513C67.3068 253.66 66.8605 253.764 66.4011 253.825C65.9505 253.886 65.3871 253.916 64.7111 253.916C63.7491 253.916 62.9778 253.769 62.3971 253.474C61.8251 253.171 61.4091 252.681 61.1491 252.005C60.8978 251.329 60.7721 250.419 60.7721 249.275C60.7721 248.131 60.8978 247.221 61.1491 246.545C61.4091 245.869 61.8251 245.384 62.3971 245.089C62.9778 244.786 63.7491 244.634 64.7111 244.634ZM75.9037 247.299V248.768H74.2267V251.537C74.2267 251.736 74.2744 251.879 74.3697 251.966C74.4651 252.044 74.6254 252.083 74.8507 252.083H75.6047L75.8647 253.63C75.6914 253.699 75.4791 253.756 75.2277 253.799C74.9851 253.842 74.7381 253.873 74.4867 253.89C74.2354 253.916 74.0187 253.929 73.8367 253.929C73.2301 253.929 72.7491 253.773 72.3937 253.461C72.0471 253.14 71.8737 252.698 71.8737 252.135L71.8607 248.768H70.7557V247.364L71.8607 247.312V245.557H74.2267V247.299H75.9037ZM80.3472 247.117C80.9279 247.117 81.4175 247.195 81.8162 247.351C82.2235 247.507 82.5312 247.767 82.7392 248.131C82.9472 248.495 83.0512 248.998 83.0512 249.639V253.76H81.1662L80.9452 252.798C80.7112 253.075 80.4035 253.335 80.0222 253.578C79.6495 253.812 79.1815 253.929 78.6182 253.929C78.2195 253.929 77.8555 253.86 77.5262 253.721C77.2055 253.582 76.9455 253.379 76.7462 253.11C76.5555 252.841 76.4602 252.503 76.4602 252.096V251.446C76.4602 250.926 76.6422 250.523 77.0062 250.237C77.3702 249.942 77.8729 249.795 78.5142 249.795H80.6852V249.626C80.6765 249.357 80.6072 249.167 80.4772 249.054C80.3559 248.933 80.1305 248.872 79.8012 248.872C79.4632 248.872 79.0472 248.881 78.5532 248.898C78.0592 248.907 77.5435 248.928 77.0062 248.963L76.7982 247.442C77.1189 247.381 77.4915 247.329 77.9162 247.286C78.3495 247.234 78.7829 247.195 79.2162 247.169C79.6495 247.134 80.0265 247.117 80.3472 247.117ZM78.7612 251.758C78.7612 252.105 78.9779 252.278 79.4112 252.278C79.6019 252.287 79.8055 252.252 80.0222 252.174C80.2475 252.087 80.4685 251.975 80.6852 251.836V250.991H79.3332C79.1339 251 78.9865 251.052 78.8912 251.147C78.8045 251.234 78.7612 251.355 78.7612 251.511V251.758ZM87.3419 247.117C88.0786 247.117 88.6722 247.178 89.1229 247.299H91.2679L91.1509 248.209L90.4099 248.326C90.4879 248.56 90.5269 248.842 90.5269 249.171C90.5269 249.665 90.4229 250.064 90.2149 250.367C90.0156 250.662 89.6819 250.878 89.2139 251.017C88.7459 251.147 88.1176 251.212 87.3289 251.212C86.9389 251.212 86.5879 251.195 86.2759 251.16C86.1979 251.281 86.1806 251.424 86.2239 251.589C86.2672 251.745 86.4146 251.832 86.6659 251.849L89.0319 252.057C89.7426 252.118 90.2496 252.308 90.5529 252.629C90.8562 252.95 91.0079 253.422 91.0079 254.046C91.0079 254.627 90.8866 255.069 90.6439 255.372C90.4012 255.684 90.0156 255.896 89.4869 256.009C88.9582 256.122 88.2692 256.178 87.4199 256.178C86.4492 256.178 85.7039 256.117 85.1839 255.996C84.6726 255.875 84.3216 255.675 84.1309 255.398C83.9402 255.129 83.8449 254.765 83.8449 254.306C83.8449 253.994 83.9142 253.725 84.0529 253.5C84.2002 253.275 84.4689 253.08 84.8589 252.915C84.6596 252.716 84.5426 252.482 84.5079 252.213C84.4819 251.944 84.5252 251.689 84.6379 251.446C84.7506 251.203 84.9239 251.026 85.1579 250.913C84.7852 250.757 84.5166 250.536 84.3519 250.25C84.1959 249.964 84.1179 249.604 84.1179 249.171C84.1179 248.677 84.2219 248.283 84.4299 247.988C84.6466 247.685 84.9889 247.464 85.4569 247.325C85.9249 247.186 86.5532 247.117 87.3419 247.117ZM87.3289 248.469C86.9389 248.469 86.6702 248.517 86.5229 248.612C86.3842 248.707 86.3149 248.894 86.3149 249.171C86.3149 249.44 86.3842 249.626 86.5229 249.73C86.6702 249.825 86.9389 249.873 87.3289 249.873C87.7189 249.873 87.9832 249.825 88.1219 249.73C88.2692 249.626 88.3429 249.44 88.3429 249.171C88.3429 248.894 88.2692 248.707 88.1219 248.612C87.9832 248.517 87.7189 248.469 87.3289 248.469ZM86.0549 253.968C86.0549 254.202 86.1459 254.354 86.3279 254.423C86.5099 254.501 86.8609 254.54 87.3809 254.54C87.9442 254.54 88.3212 254.505 88.5119 254.436C88.7026 254.367 88.7979 254.228 88.7979 254.02C88.7979 253.821 88.7156 253.695 88.5509 253.643C88.3949 253.582 88.1306 253.535 87.7579 253.5L86.3929 253.383C86.2716 253.47 86.1849 253.556 86.1329 253.643C86.0809 253.721 86.0549 253.829 86.0549 253.968Z" fill="#265375"/>
<g clip-path="url(#clip1_47:21)">
<path d="M85.2598 188.358H49.9798C47.5433 188.358 45.5698 190.331 45.5698 192.768V228.048C45.5698 230.484 47.5433 232.458 49.9798 232.458H85.2598C87.6963 232.458 89.6698 230.484 89.6698 228.048V192.768C89.6698 190.331 87.6963 188.358 85.2598 188.358ZM85.2598 228.048H49.9798V192.768H85.2598V228.048ZM80.8498 197.178H69.8248C67.3883 197.178 65.4148 199.151 65.4148 201.588V206.604C64.1028 207.365 63.2098 208.776 63.2098 210.408C63.2098 212.844 65.1833 214.818 67.6198 214.818C70.0563 214.818 72.0298 212.844 72.0298 210.408C72.0298 208.776 71.1368 207.376 69.8248 206.604V201.588H76.4398V219.228H58.7998V201.588H63.2098V197.178H54.3898V223.638H80.8498V197.178Z" fill="#265375"/>
<circle cx="67.5" cy="210.5" r="4.5" fill="#BED558"/>
</g>
<circle cx="260.2" cy="67.2" r="67.2" fill="#8DBDE2"/>
<circle cx="260.2" cy="67.1999" r="59.64" fill="white"/>
<path d="M230.341 91.07V94.398H233.032V91.07H235.476V100.04H233.032V96.153H230.341V100.04H227.91V91.07H230.341ZM239.3 90.94V97.817C239.3 98.181 239.529 98.363 239.989 98.363H240.47L240.73 99.91C240.617 99.9794 240.452 100.036 240.236 100.079C240.019 100.122 239.794 100.153 239.56 100.17C239.334 100.196 239.148 100.209 239.001 100.209C238.359 100.209 237.857 100.053 237.493 99.741C237.129 99.429 236.947 98.9914 236.947 98.428V90.94H239.3ZM244.991 93.397C245.571 93.397 246.061 93.475 246.46 93.631C246.867 93.787 247.175 94.047 247.383 94.411C247.591 94.775 247.695 95.2777 247.695 95.919V100.04H245.81L245.589 99.078C245.355 99.3554 245.047 99.6154 244.666 99.858C244.293 100.092 243.825 100.209 243.262 100.209C242.863 100.209 242.499 100.14 242.17 100.001C241.849 99.8624 241.589 99.6587 241.39 99.39C241.199 99.1214 241.104 98.7834 241.104 98.376V97.726C241.104 97.206 241.286 96.803 241.65 96.517C242.014 96.2224 242.516 96.075 243.158 96.075H245.329V95.906C245.32 95.6374 245.251 95.4467 245.121 95.334C244.999 95.2127 244.774 95.152 244.445 95.152C244.107 95.152 243.691 95.1607 243.197 95.178C242.703 95.1867 242.187 95.2084 241.65 95.243L241.442 93.722C241.762 93.6614 242.135 93.6094 242.56 93.566C242.993 93.514 243.426 93.475 243.86 93.449C244.293 93.4144 244.67 93.397 244.991 93.397ZM243.405 98.038C243.405 98.3847 243.621 98.558 244.055 98.558C244.245 98.5667 244.449 98.532 244.666 98.454C244.891 98.3674 245.112 98.2547 245.329 98.116V97.271H243.977C243.777 97.2797 243.63 97.3317 243.535 97.427C243.448 97.5137 243.405 97.635 243.405 97.791V98.038ZM251.569 93.397C251.907 93.4057 252.267 93.423 252.648 93.449C253.038 93.4664 253.42 93.4967 253.792 93.54C254.165 93.5747 254.486 93.618 254.754 93.67L254.598 95.074C254.174 95.074 253.745 95.074 253.311 95.074C252.887 95.0654 252.475 95.061 252.076 95.061C251.608 95.061 251.305 95.074 251.166 95.1C251.036 95.126 250.971 95.2127 250.971 95.36C250.971 95.49 251.028 95.5767 251.14 95.62C251.253 95.6634 251.461 95.7284 251.764 95.815L253.35 96.205C253.905 96.3524 254.317 96.569 254.585 96.855C254.863 97.1324 255.001 97.5527 255.001 98.116C255.001 98.6534 254.897 99.0737 254.689 99.377C254.481 99.6804 254.152 99.8927 253.701 100.014C253.259 100.127 252.679 100.183 251.959 100.183C251.665 100.183 251.227 100.17 250.646 100.144C250.074 100.118 249.455 100.049 248.787 99.936L248.93 98.519C249.13 98.5277 249.446 98.532 249.879 98.532C250.321 98.532 250.768 98.532 251.218 98.532C251.643 98.532 251.964 98.5277 252.18 98.519C252.397 98.5017 252.54 98.467 252.609 98.415C252.687 98.363 252.726 98.285 252.726 98.181C252.726 98.051 252.661 97.9644 252.531 97.921C252.401 97.869 252.172 97.7997 251.842 97.713L250.321 97.31C249.879 97.1887 249.537 97.0327 249.294 96.842C249.06 96.6514 248.9 96.426 248.813 96.166C248.727 95.906 248.683 95.607 248.683 95.269C248.683 94.645 248.896 94.177 249.32 93.865C249.745 93.553 250.495 93.397 251.569 93.397ZM259.265 93.397C260.114 93.397 260.79 93.5097 261.293 93.735C261.804 93.9517 262.172 94.3114 262.398 94.814C262.632 95.3167 262.749 95.984 262.749 96.816C262.749 97.648 262.632 98.311 262.398 98.805C262.172 99.299 261.804 99.6544 261.293 99.871C260.79 100.088 260.114 100.196 259.265 100.196C258.415 100.196 257.735 100.088 257.224 99.871C256.712 99.6544 256.344 99.299 256.119 98.805C255.893 98.311 255.781 97.648 255.781 96.816C255.781 95.984 255.893 95.3167 256.119 94.814C256.344 94.3114 256.712 93.9517 257.224 93.735C257.735 93.5097 258.415 93.397 259.265 93.397ZM259.265 95.048C258.996 95.048 258.788 95.0957 258.641 95.191C258.493 95.2777 258.389 95.451 258.329 95.711C258.277 95.9624 258.251 96.3307 258.251 96.816C258.251 97.2927 258.277 97.6567 258.329 97.908C258.389 98.1594 258.493 98.3327 258.641 98.428C258.788 98.5147 258.996 98.558 259.265 98.558C259.533 98.558 259.737 98.5147 259.876 98.428C260.023 98.3327 260.127 98.1594 260.188 97.908C260.248 97.6567 260.279 97.2927 260.279 96.816C260.279 96.3307 260.248 95.9624 260.188 95.711C260.127 95.451 260.023 95.2777 259.876 95.191C259.737 95.0957 259.533 95.048 259.265 95.048ZM270.599 93.579L268.584 99.481C268.532 99.6544 268.436 99.793 268.298 99.897C268.168 99.9924 268.012 100.04 267.83 100.04H265.802C265.62 100.04 265.464 99.9924 265.334 99.897C265.204 99.793 265.113 99.6544 265.061 99.481L263.046 93.579H265.542L266.504 97.362C266.556 97.5527 266.599 97.752 266.634 97.96C266.668 98.1594 266.703 98.3587 266.738 98.558H266.907C266.941 98.3587 266.98 98.1594 267.024 97.96C267.067 97.752 267.106 97.5527 267.141 97.362L268.103 93.579H270.599ZM274.761 93.397C275.342 93.397 275.831 93.475 276.23 93.631C276.637 93.787 276.945 94.047 277.153 94.411C277.361 94.775 277.465 95.2777 277.465 95.919V100.04H275.58L275.359 99.078C275.125 99.3554 274.817 99.6154 274.436 99.858C274.063 100.092 273.595 100.209 273.032 100.209C272.633 100.209 272.269 100.14 271.94 100.001C271.619 99.8624 271.359 99.6587 271.16 99.39C270.969 99.1214 270.874 98.7834 270.874 98.376V97.726C270.874 97.206 271.056 96.803 271.42 96.517C271.784 96.2224 272.287 96.075 272.928 96.075H275.099V95.906C275.09 95.6374 275.021 95.4467 274.891 95.334C274.77 95.2127 274.544 95.152 274.215 95.152C273.877 95.152 273.461 95.1607 272.967 95.178C272.473 95.1867 271.957 95.2084 271.42 95.243L271.212 93.722C271.533 93.6614 271.905 93.6094 272.33 93.566C272.763 93.514 273.197 93.475 273.63 93.449C274.063 93.4144 274.44 93.397 274.761 93.397ZM273.175 98.038C273.175 98.3847 273.392 98.558 273.825 98.558C274.016 98.5667 274.219 98.532 274.436 98.454C274.661 98.3674 274.882 98.2547 275.099 98.116V97.271H273.747C273.548 97.2797 273.4 97.3317 273.305 97.427C273.218 97.5137 273.175 97.635 273.175 97.791V98.038ZM280.599 93.579L280.807 94.541C281.24 94.1597 281.691 93.8737 282.159 93.683C282.627 93.4924 283.082 93.397 283.524 93.397C284.772 93.397 285.396 93.9994 285.396 95.204V100.04H283.03V95.945C283.03 95.737 282.986 95.594 282.9 95.516C282.813 95.438 282.67 95.399 282.471 95.399C282.271 95.399 282.068 95.425 281.86 95.477C281.652 95.5204 281.396 95.6027 281.093 95.724V100.04H278.727V93.579H280.599ZM288.416 90.667C288.875 90.667 289.105 90.901 289.105 91.369V92.045C289.105 92.513 288.875 92.747 288.416 92.747H287.402C286.942 92.747 286.713 92.513 286.713 92.045V91.369C286.713 90.901 286.942 90.667 287.402 90.667H288.416ZM289.092 93.579V100.04H286.739V93.579H289.092ZM293.733 93.397C294.894 93.397 295.722 93.5877 296.216 93.969C296.71 94.3504 296.957 94.9137 296.957 95.659C296.966 96.257 296.801 96.6947 296.463 96.972C296.125 97.2494 295.527 97.388 294.669 97.388H292.732C292.793 97.7607 292.918 98.0164 293.109 98.155C293.308 98.2937 293.616 98.363 294.032 98.363C294.309 98.363 294.673 98.3544 295.124 98.337C295.583 98.311 296.064 98.272 296.567 98.22L296.788 99.65C296.363 99.858 295.887 100.001 295.358 100.079C294.838 100.157 294.309 100.196 293.772 100.196C292.472 100.196 291.553 99.923 291.016 99.377C290.487 98.8224 290.223 97.9774 290.223 96.842C290.223 95.9927 290.336 95.3167 290.561 94.814C290.795 94.3114 291.168 93.9517 291.679 93.735C292.199 93.5097 292.884 93.397 293.733 93.397ZM293.811 94.97C293.542 94.97 293.33 95.0004 293.174 95.061C293.018 95.113 292.901 95.23 292.823 95.412C292.754 95.5854 292.71 95.8497 292.693 96.205H294.006C294.301 96.205 294.487 96.1617 294.565 96.075C294.652 95.9884 294.695 95.8324 294.695 95.607C294.695 95.3557 294.626 95.1867 294.487 95.1C294.348 95.0134 294.123 94.97 293.811 94.97Z" fill="#265375"/>
<path d="M279 44.9995H241C238.243 44.9995 236 47.2425 236 49.9995V75.9995C236 78.7565 238.243 80.9995 241 80.9995H279C281.757 80.9995 284 78.7565 284 75.9995V49.9995C284 47.2425 281.757 44.9995 279 44.9995ZM274 46.9995V78.9995H246V46.9995H274ZM238 75.9995V49.9995C238 48.3455 239.346 46.9995 241 46.9995H244V78.9995H241C239.346 78.9995 238 77.6535 238 75.9995ZM282 75.9995C282 77.6535 280.654 78.9995 279 78.9995H276V46.9995H279C280.654 46.9995 282 48.3455 282 49.9995V75.9995Z" fill="#265375"/>
<path d="M280 61.9995H278V63.9995H280V61.9995Z" fill="#BED558"/>
<path d="M255.292 56.2929L249.292 62.2926L250.707 63.7068L256.706 57.7071L255.292 56.2929Z" fill="#265375"/>
<path d="M259.292 52.2927L257.293 54.2924L258.707 55.7066L260.707 53.7069L259.292 52.2927Z" fill="#265375"/>
<path d="M269.292 62.2929L263.292 68.2926L264.706 69.7068L270.706 63.7071L269.292 62.2929Z" fill="#265375"/>
<path d="M261.292 70.2924L259.293 72.2921L260.707 73.7063L262.706 71.7066L261.292 70.2924Z" fill="#265375"/>
<path d="M267.292 54.2929L251.292 70.2925L252.707 71.7067L268.706 55.7071L267.292 54.2929Z" fill="#BED558"/>
<circle cx="451.2" cy="221.2" r="67.2" fill="#8DBDE2"/>
<circle cx="451.2" cy="221.2" r="59.64" fill="white"/>
<path d="M430.962 241.72L428.838 249.388C428.79 249.572 428.694 249.72 428.55 249.832C428.414 249.944 428.25 250 428.058 250H426.054C425.854 250 425.682 249.944 425.538 249.832C425.402 249.72 425.314 249.572 425.274 249.388L423.138 241.72H425.454L426.726 247.372C426.758 247.524 426.786 247.684 426.81 247.852C426.842 248.012 426.874 248.164 426.906 248.308H427.194C427.218 248.164 427.246 248.012 427.278 247.852C427.31 247.684 427.342 247.524 427.374 247.372L428.646 241.72H430.962ZM436.029 243.868C437.181 243.868 437.757 244.424 437.757 245.536V250H435.573V246.22C435.573 246.028 435.533 245.896 435.453 245.824C435.373 245.752 435.241 245.716 435.057 245.716C434.873 245.716 434.685 245.74 434.493 245.788C434.301 245.828 434.065 245.904 433.785 246.016V250H431.601V241.6H433.785L433.797 243.508C433.797 243.74 433.785 243.968 433.761 244.192C433.737 244.416 433.709 244.62 433.677 244.804C434.061 244.492 434.453 244.26 434.853 244.108C435.253 243.948 435.645 243.868 436.029 243.868ZM441.949 243.868C442.733 243.868 443.357 243.972 443.821 244.18C444.293 244.38 444.633 244.712 444.841 245.176C445.057 245.64 445.165 246.256 445.165 247.024C445.165 247.792 445.057 248.404 444.841 248.86C444.633 249.316 444.293 249.644 443.821 249.844C443.357 250.044 442.733 250.144 441.949 250.144C441.165 250.144 440.537 250.044 440.065 249.844C439.593 249.644 439.253 249.316 439.045 248.86C438.837 248.404 438.733 247.792 438.733 247.024C438.733 246.256 438.837 245.64 439.045 245.176C439.253 244.712 439.593 244.38 440.065 244.18C440.537 243.972 441.165 243.868 441.949 243.868ZM441.949 245.392C441.701 245.392 441.509 245.436 441.373 245.524C441.237 245.604 441.141 245.764 441.085 246.004C441.037 246.236 441.013 246.576 441.013 247.024C441.013 247.464 441.037 247.8 441.085 248.032C441.141 248.264 441.237 248.424 441.373 248.512C441.509 248.592 441.701 248.632 441.949 248.632C442.197 248.632 442.385 248.592 442.513 248.512C442.649 248.424 442.745 248.264 442.801 248.032C442.857 247.8 442.885 247.464 442.885 247.024C442.885 246.576 442.857 246.236 442.801 246.004C442.745 245.764 442.649 245.604 442.513 245.524C442.385 245.436 442.197 245.392 441.949 245.392ZM448.22 243.868C448.572 243.868 448.908 243.912 449.228 244C449.556 244.08 449.848 244.212 450.104 244.396C450.096 244.188 450.088 243.976 450.08 243.76C450.072 243.544 450.068 243.328 450.068 243.112V241.6H452.24V250H450.512L450.332 249.04C450.124 249.36 449.84 249.624 449.48 249.832C449.12 250.04 448.66 250.144 448.1 250.144C447.324 250.144 446.772 249.868 446.444 249.316C446.116 248.764 445.952 247.976 445.952 246.952C445.952 246.152 446.036 245.528 446.204 245.08C446.38 244.632 446.636 244.32 446.972 244.144C447.308 243.96 447.724 243.868 448.22 243.868ZM448.196 246.94C448.196 247.356 448.224 247.668 448.28 247.876C448.336 248.076 448.424 248.212 448.544 248.284C448.664 248.348 448.82 248.38 449.012 248.38C449.244 248.38 449.436 248.356 449.588 248.308C449.74 248.252 449.9 248.176 450.068 248.08V245.548C449.908 245.492 449.752 245.444 449.6 245.404C449.448 245.364 449.264 245.344 449.048 245.344C448.848 245.344 448.684 245.38 448.556 245.452C448.428 245.524 448.336 245.676 448.28 245.908C448.224 246.132 448.196 246.476 448.196 246.94ZM456.48 243.868C457.552 243.868 458.316 244.044 458.772 244.396C459.228 244.748 459.456 245.268 459.456 245.956C459.464 246.508 459.312 246.912 459 247.168C458.688 247.424 458.136 247.552 457.344 247.552H455.556C455.612 247.896 455.728 248.132 455.904 248.26C456.088 248.388 456.372 248.452 456.756 248.452C457.012 248.452 457.348 248.444 457.764 248.428C458.188 248.404 458.632 248.368 459.096 248.32L459.3 249.64C458.908 249.832 458.468 249.964 457.98 250.036C457.5 250.108 457.012 250.144 456.516 250.144C455.316 250.144 454.468 249.892 453.972 249.388C453.484 248.876 453.24 248.096 453.24 247.048C453.24 246.264 453.344 245.64 453.552 245.176C453.768 244.712 454.112 244.38 454.584 244.18C455.064 243.972 455.696 243.868 456.48 243.868ZM456.552 245.32C456.304 245.32 456.108 245.348 455.964 245.404C455.82 245.452 455.712 245.56 455.64 245.728C455.576 245.888 455.536 246.132 455.52 246.46H456.732C457.004 246.46 457.176 246.42 457.248 246.34C457.328 246.26 457.368 246.116 457.368 245.908C457.368 245.676 457.304 245.52 457.176 245.44C457.048 245.36 456.84 245.32 456.552 245.32ZM462.134 244.036L462.326 244.924C462.726 244.572 463.142 244.308 463.574 244.132C464.006 243.956 464.426 243.868 464.834 243.868C465.986 243.868 466.562 244.424 466.562 245.536V250H464.378V246.22C464.378 246.028 464.338 245.896 464.258 245.824C464.178 245.752 464.046 245.716 463.862 245.716C463.678 245.716 463.49 245.74 463.298 245.788C463.106 245.828 462.87 245.904 462.59 246.016V250H460.406V244.036H462.134ZM469.35 241.348C469.774 241.348 469.986 241.564 469.986 241.996V242.62C469.986 243.052 469.774 243.268 469.35 243.268H468.414C467.99 243.268 467.778 243.052 467.778 242.62V241.996C467.778 241.564 467.99 241.348 468.414 241.348H469.35ZM469.974 244.036V250H467.802V244.036H469.974ZM474.258 243.868C475.33 243.868 476.094 244.044 476.55 244.396C477.006 244.748 477.234 245.268 477.234 245.956C477.242 246.508 477.09 246.912 476.778 247.168C476.466 247.424 475.914 247.552 475.122 247.552H473.334C473.39 247.896 473.506 248.132 473.682 248.26C473.866 248.388 474.15 248.452 474.534 248.452C474.79 248.452 475.126 248.444 475.542 248.428C475.966 248.404 476.41 248.368 476.874 248.32L477.078 249.64C476.686 249.832 476.246 249.964 475.758 250.036C475.278 250.108 474.79 250.144 474.294 250.144C473.094 250.144 472.246 249.892 471.75 249.388C471.262 248.876 471.018 248.096 471.018 247.048C471.018 246.264 471.122 245.64 471.33 245.176C471.546 244.712 471.89 244.38 472.362 244.18C472.842 243.972 473.474 243.868 474.258 243.868ZM474.33 245.32C474.082 245.32 473.886 245.348 473.742 245.404C473.598 245.452 473.49 245.56 473.418 245.728C473.354 245.888 473.314 246.132 473.298 246.46H474.51C474.782 246.46 474.954 246.42 475.026 246.34C475.106 246.26 475.146 246.116 475.146 245.908C475.146 245.676 475.082 245.52 474.954 245.44C474.826 245.36 474.618 245.32 474.33 245.32ZM432.3 257.868C432.652 257.868 432.988 257.912 433.308 258C433.636 258.08 433.928 258.212 434.184 258.396C434.176 258.188 434.168 257.976 434.16 257.76C434.152 257.544 434.148 257.328 434.148 257.112V255.6H436.32V264H434.592L434.412 263.04C434.204 263.36 433.92 263.624 433.56 263.832C433.2 264.04 432.74 264.144 432.18 264.144C431.404 264.144 430.852 263.868 430.524 263.316C430.196 262.764 430.032 261.976 430.032 260.952C430.032 260.152 430.116 259.528 430.284 259.08C430.46 258.632 430.716 258.32 431.052 258.144C431.388 257.96 431.804 257.868 432.3 257.868ZM432.276 260.94C432.276 261.356 432.304 261.668 432.36 261.876C432.416 262.076 432.504 262.212 432.624 262.284C432.744 262.348 432.9 262.38 433.092 262.38C433.324 262.38 433.516 262.356 433.668 262.308C433.82 262.252 433.98 262.176 434.148 262.08V259.548C433.988 259.492 433.832 259.444 433.68 259.404C433.528 259.364 433.344 259.344 433.128 259.344C432.928 259.344 432.764 259.38 432.636 259.452C432.508 259.524 432.416 259.676 432.36 259.908C432.304 260.132 432.276 260.476 432.276 260.94ZM440.548 257.868C441.332 257.868 441.956 257.972 442.42 258.18C442.892 258.38 443.232 258.712 443.44 259.176C443.656 259.64 443.764 260.256 443.764 261.024C443.764 261.792 443.656 262.404 443.44 262.86C443.232 263.316 442.892 263.644 442.42 263.844C441.956 264.044 441.332 264.144 440.548 264.144C439.764 264.144 439.136 264.044 438.664 263.844C438.192 263.644 437.852 263.316 437.644 262.86C437.436 262.404 437.332 261.792 437.332 261.024C437.332 260.256 437.436 259.64 437.644 259.176C437.852 258.712 438.192 258.38 438.664 258.18C439.136 257.972 439.764 257.868 440.548 257.868ZM440.548 259.392C440.3 259.392 440.108 259.436 439.972 259.524C439.836 259.604 439.74 259.764 439.684 260.004C439.636 260.236 439.612 260.576 439.612 261.024C439.612 261.464 439.636 261.8 439.684 262.032C439.74 262.264 439.836 262.424 439.972 262.512C440.108 262.592 440.3 262.632 440.548 262.632C440.796 262.632 440.984 262.592 441.112 262.512C441.248 262.424 441.344 262.264 441.4 262.032C441.456 261.8 441.484 261.464 441.484 261.024C441.484 260.576 441.456 260.236 441.4 260.004C441.344 259.764 441.248 259.604 441.112 259.524C440.984 259.436 440.796 259.392 440.548 259.392ZM449.458 258.036V261.816C449.45 262 449.49 262.132 449.578 262.212C449.666 262.292 449.81 262.332 450.01 262.332C450.178 262.332 450.346 262.312 450.514 262.272C450.69 262.224 450.902 262.148 451.15 262.044V258.036H453.346V264H451.63L451.438 263.136C451.038 263.48 450.638 263.74 450.238 263.916C449.846 264.084 449.438 264.168 449.014 264.168C447.854 264.168 447.274 263.612 447.274 262.5V258.036H449.458ZM456.28 258.036L456.472 258.924C456.864 258.572 457.26 258.308 457.66 258.132C458.068 257.956 458.464 257.868 458.848 257.868H459.184L458.992 259.872H458.416C458.192 259.872 457.952 259.892 457.696 259.932C457.448 259.972 457.136 260.036 456.76 260.124V264H454.576V258.036H456.28ZM461.589 258.036L461.781 258.924C462.181 258.572 462.597 258.308 463.029 258.132C463.461 257.956 463.881 257.868 464.289 257.868C465.441 257.868 466.017 258.424 466.017 259.536V264H463.833V260.22C463.833 260.028 463.793 259.896 463.713 259.824C463.633 259.752 463.501 259.716 463.317 259.716C463.133 259.716 462.945 259.74 462.753 259.788C462.561 259.828 462.325 259.904 462.045 260.016V264H459.861V258.036H461.589ZM468.937 258.036L469.837 261.588C469.869 261.756 469.897 261.928 469.921 262.104C469.953 262.272 469.981 262.444 470.005 262.62H470.125C470.181 262.444 470.229 262.264 470.269 262.08C470.309 261.888 470.345 261.724 470.377 261.588L471.265 258.036H473.593L471.589 263.94C471.485 264.252 471.341 264.572 471.157 264.9C470.973 265.228 470.733 265.52 470.437 265.776C470.149 266.04 469.797 266.232 469.381 266.352C468.965 266.472 468.477 266.484 467.917 266.388L467.761 265.188C468.233 265.076 468.609 264.928 468.889 264.744C469.169 264.568 469.389 264.32 469.549 264H469.165C468.997 264 468.849 263.956 468.721 263.868C468.601 263.772 468.517 263.644 468.469 263.484L466.621 258.036H468.937Z" fill="#265375"/>
<path d="M460.65 188.874C460.939 188.334 461.001 187.701 460.824 187.115C460.647 186.529 460.245 186.037 459.706 185.747L449.581 180.313C449.041 180.024 448.409 179.962 447.823 180.139C447.237 180.316 446.744 180.718 446.454 181.257L438.734 195.642C438.591 195.909 438.501 196.202 438.471 196.504C438.441 196.806 438.47 197.111 438.558 197.401C438.646 197.692 438.79 197.962 438.982 198.197C439.174 198.431 439.411 198.626 439.679 198.769L449.803 204.199C450.343 204.485 450.975 204.547 451.561 204.37C452.146 204.193 452.638 203.793 452.93 203.255L460.65 188.874ZM452.087 192.923C450.776 193.918 449.547 195.017 448.411 196.208C448.28 196.36 448.111 196.477 447.922 196.545C447.733 196.614 447.529 196.633 447.33 196.6C447.131 196.568 446.944 196.485 446.787 196.359C446.63 196.233 446.507 196.069 446.431 195.883C446.114 195.159 445.038 193.093 444.64 192.335C444.592 192.241 444.58 192.133 444.607 192.031C444.634 191.93 444.698 191.842 444.787 191.785C445.867 191.103 447.324 192.971 447.773 193.606C448.709 192.692 449.697 191.834 450.732 191.034C453.432 188.985 455.352 188.961 456.365 189.193C456.446 189.211 456.519 189.253 456.576 189.313C456.633 189.373 456.671 189.449 456.685 189.53C456.7 189.611 456.689 189.695 456.656 189.771C456.623 189.847 456.568 189.911 456.499 189.956C455.341 190.702 453.035 192.203 452.087 192.923Z" fill="#BED558"/>
<path d="M456.387 201.927L467.704 206.667L449.692 214.209L431.68 206.667L441.558 202.53" stroke="#265375" stroke-width="1.5" stroke-linecap="round" stroke-linejoin="round"/>
<path d="M453.517 208.268L445.868 205.065" stroke="#265375" stroke-width="1.5" stroke-linecap="round" stroke-linejoin="round"/>
<path d="M431.68 206.667V219.984C431.68 220.334 431.784 220.677 431.978 220.968C432.172 221.26 432.449 221.487 432.772 221.622L449.008 228.421C449.226 228.512 449.459 228.559 449.695 228.559C449.93 228.559 450.164 228.512 450.381 228.421L466.617 221.622C466.94 221.487 467.217 221.26 467.411 220.968C467.605 220.677 467.709 220.334 467.709 219.984V206.667" stroke="#265375" stroke-width="1.5" stroke-linecap="round" stroke-linejoin="round"/>
<path d="M449.692 214.209V228.559" stroke="#265375" stroke-width="1.5" stroke-linecap="round" stroke-linejoin="round"/>
<circle cx="361.2" cy="436.2" r="67.2" fill="#8DBDE2"/>
<circle cx="361.2" cy="436.2" r="59.64" fill="white"/>
<path d="M340.993 462.07L338.692 470.377C338.64 470.576 338.536 470.737 338.38 470.858C338.232 470.979 338.055 471.04 337.847 471.04H335.676C335.459 471.04 335.273 470.979 335.117 470.858C334.969 470.737 334.874 470.576 334.831 470.377L332.517 462.07H335.026L336.404 468.193C336.438 468.358 336.469 468.531 336.495 468.713C336.529 468.886 336.564 469.051 336.599 469.207H336.911C336.937 469.051 336.967 468.886 337.002 468.713C337.036 468.531 337.071 468.358 337.106 468.193L338.484 462.07H340.993ZM343.557 464.579L344.532 468.427C344.567 468.609 344.597 468.795 344.623 468.986C344.658 469.168 344.688 469.354 344.714 469.545H344.844C344.905 469.354 344.957 469.159 345 468.96C345.043 468.752 345.082 468.574 345.117 468.427L346.079 464.579H348.601L346.43 470.975C346.317 471.313 346.161 471.66 345.962 472.015C345.763 472.37 345.503 472.687 345.182 472.964C344.87 473.25 344.489 473.458 344.038 473.588C343.587 473.718 343.059 473.731 342.452 473.627L342.283 472.327C342.794 472.206 343.202 472.045 343.505 471.846C343.808 471.655 344.047 471.387 344.22 471.04H343.804C343.622 471.04 343.462 470.992 343.323 470.897C343.193 470.793 343.102 470.654 343.05 470.481L341.048 464.579H343.557ZM346.495 461.043L347.431 462.564L344.311 463.955L343.648 462.98L346.495 461.043ZM351.839 464.397C352.177 464.406 352.537 464.423 352.918 464.449C353.308 464.466 353.689 464.497 354.062 464.54C354.435 464.575 354.755 464.618 355.024 464.67L354.868 466.074C354.443 466.074 354.014 466.074 353.581 466.074C353.156 466.065 352.745 466.061 352.346 466.061C351.878 466.061 351.575 466.074 351.436 466.1C351.306 466.126 351.241 466.213 351.241 466.36C351.241 466.49 351.297 466.577 351.41 466.62C351.523 466.663 351.731 466.728 352.034 466.815L353.62 467.205C354.175 467.352 354.586 467.569 354.855 467.855C355.132 468.132 355.271 468.553 355.271 469.116C355.271 469.653 355.167 470.074 354.959 470.377C354.751 470.68 354.422 470.893 353.971 471.014C353.529 471.127 352.948 471.183 352.229 471.183C351.934 471.183 351.497 471.17 350.916 471.144C350.344 471.118 349.724 471.049 349.057 470.936L349.2 469.519C349.399 469.528 349.716 469.532 350.149 469.532C350.591 469.532 351.037 469.532 351.488 469.532C351.913 469.532 352.233 469.528 352.45 469.519C352.667 469.502 352.81 469.467 352.879 469.415C352.957 469.363 352.996 469.285 352.996 469.181C352.996 469.051 352.931 468.964 352.801 468.921C352.671 468.869 352.441 468.8 352.112 468.713L350.591 468.31C350.149 468.189 349.807 468.033 349.564 467.842C349.33 467.651 349.17 467.426 349.083 467.166C348.996 466.906 348.953 466.607 348.953 466.269C348.953 465.645 349.165 465.177 349.59 464.865C350.015 464.553 350.764 464.397 351.839 464.397ZM358.65 461.94V468.817C358.65 469.181 358.88 469.363 359.339 469.363H359.82L360.08 470.91C359.968 470.979 359.803 471.036 359.586 471.079C359.37 471.122 359.144 471.153 358.91 471.17C358.685 471.196 358.499 471.209 358.351 471.209C357.71 471.209 357.207 471.053 356.843 470.741C356.479 470.429 356.297 469.991 356.297 469.428V461.94H358.65ZM364.016 464.397C365.178 464.397 366.005 464.588 366.499 464.969C366.993 465.35 367.24 465.914 367.24 466.659C367.249 467.257 367.084 467.695 366.746 467.972C366.408 468.249 365.81 468.388 364.952 468.388H363.015C363.076 468.761 363.202 469.016 363.392 469.155C363.592 469.294 363.899 469.363 364.315 469.363C364.593 469.363 364.957 469.354 365.407 469.337C365.867 469.311 366.348 469.272 366.85 469.22L367.071 470.65C366.647 470.858 366.17 471.001 365.641 471.079C365.121 471.157 364.593 471.196 364.055 471.196C362.755 471.196 361.837 470.923 361.299 470.377C360.771 469.822 360.506 468.977 360.506 467.842C360.506 466.993 360.619 466.317 360.844 465.814C361.078 465.311 361.451 464.952 361.962 464.735C362.482 464.51 363.167 464.397 364.016 464.397ZM364.094 465.97C363.826 465.97 363.613 466 363.457 466.061C363.301 466.113 363.184 466.23 363.106 466.412C363.037 466.585 362.994 466.85 362.976 467.205H364.289C364.584 467.205 364.77 467.162 364.848 467.075C364.935 466.988 364.978 466.832 364.978 466.607C364.978 466.356 364.909 466.187 364.77 466.1C364.632 466.013 364.406 465.97 364.094 465.97ZM370.505 464.397C370.886 464.397 371.25 464.445 371.597 464.54C371.952 464.627 372.269 464.77 372.546 464.969C372.537 464.744 372.529 464.514 372.52 464.28C372.511 464.046 372.507 463.812 372.507 463.578V461.94H374.86V471.04H372.988L372.793 470C372.568 470.347 372.26 470.633 371.87 470.858C371.48 471.083 370.982 471.196 370.375 471.196C369.534 471.196 368.936 470.897 368.581 470.299C368.226 469.701 368.048 468.847 368.048 467.738C368.048 466.871 368.139 466.195 368.321 465.71C368.512 465.225 368.789 464.887 369.153 464.696C369.517 464.497 369.968 464.397 370.505 464.397ZM370.479 467.725C370.479 468.176 370.509 468.514 370.57 468.739C370.631 468.956 370.726 469.103 370.856 469.181C370.986 469.25 371.155 469.285 371.363 469.285C371.614 469.285 371.822 469.259 371.987 469.207C372.152 469.146 372.325 469.064 372.507 468.96V466.217C372.334 466.156 372.165 466.104 372 466.061C371.835 466.018 371.636 465.996 371.402 465.996C371.185 465.996 371.008 466.035 370.869 466.113C370.73 466.191 370.631 466.356 370.57 466.607C370.509 466.85 370.479 467.222 370.479 467.725ZM378.557 461.94V465.554C378.557 465.97 378.522 466.377 378.453 466.776H378.96L380.351 464.579H382.951L381.443 466.75C381.356 466.906 381.243 467.049 381.105 467.179C380.966 467.309 380.853 467.4 380.767 467.452V467.504C380.853 467.556 380.966 467.66 381.105 467.816C381.243 467.972 381.356 468.128 381.443 468.284L383.185 471.04H380.572L378.947 468.154H378.466C378.492 468.319 378.513 468.483 378.531 468.648C378.548 468.813 378.557 468.969 378.557 469.116V471.04H376.191V461.94H378.557ZM385.68 464.579L386.655 468.427C386.69 468.609 386.72 468.795 386.746 468.986C386.781 469.168 386.811 469.354 386.837 469.545H386.967C387.028 469.354 387.08 469.159 387.123 468.96C387.166 468.752 387.205 468.574 387.24 468.427L388.202 464.579H390.724L388.553 470.975C388.44 471.313 388.284 471.66 388.085 472.015C387.886 472.37 387.626 472.687 387.305 472.964C386.993 473.25 386.612 473.458 386.161 473.588C385.71 473.718 385.182 473.731 384.575 473.627L384.406 472.327C384.917 472.206 385.325 472.045 385.628 471.846C385.931 471.655 386.17 471.387 386.343 471.04H385.927C385.745 471.04 385.585 470.992 385.446 470.897C385.316 470.793 385.225 470.654 385.173 470.481L383.171 464.579H385.68Z" fill="#265375"/>
<path d="M385.56 451.32H383.88V440.4V438.72V412.68H375.48V438.72V440.4V451.32H374.64V440.4V438.72V430.32H366.24V438.72V440.4V451.32H365.4V440.4V438.72V421.08H357V438.72V440.4V451.32H356.16V440.4V438.72V426.12H347.76V438.72V440.4V451.32H346.92V440.4V438.72V434.52H338.52V438.72V440.4V451.32H336.84C336.376 451.32 336 451.696 336 452.16C336 452.625 336.376 453 336.84 453H338.52H346.92H347.76H356.16H357H365.4H366.24H374.64H375.48H383.88H385.56C386.025 453 386.4 452.625 386.4 452.16C386.4 451.696 386.025 451.32 385.56 451.32ZM340.2 436.2H345.24V438.72H340.2V436.2ZM340.2 451.32V440.4H345.24V451.32H340.2ZM349.44 427.8H354.48V438.72H349.44V427.8ZM349.44 451.32V440.4H354.48V451.32H349.44ZM358.68 422.76H363.72V438.72H358.68V422.76ZM358.68 451.32V440.4H363.72V451.32H358.68ZM367.92 432H372.96V438.72H367.92V432ZM367.92 451.32V440.4H372.96V451.32H367.92ZM377.16 414.36H382.2V438.72H377.16V414.36ZM377.16 451.32V440.4H382.2V451.32H377.16Z" fill="#265375"/>
<path d="M342.72 413.52H349.44C349.904 413.52 350.28 413.145 350.28 412.68C350.28 412.216 349.904 411.84 349.44 411.84H342.72C342.256 411.84 341.88 412.216 341.88 412.68C341.88 413.145 342.256 413.52 342.72 413.52Z" fill="#BED558"/>
<path d="M337.924 412.084C337.772 412.235 337.68 412.453 337.68 412.68C337.68 412.907 337.772 413.117 337.924 413.277C338.083 413.428 338.302 413.52 338.52 413.52C338.738 413.52 338.957 413.428 339.116 413.277C339.268 413.117 339.36 412.899 339.36 412.68C339.36 412.453 339.268 412.243 339.116 412.084C338.797 411.773 338.234 411.773 337.924 412.084Z" fill="#265375"/>
<path d="M341.88 408.48C341.88 408.016 341.504 407.64 341.04 407.64H338.52C338.056 407.64 337.68 408.016 337.68 408.48C337.68 408.945 338.056 409.32 338.52 409.32H341.04C341.504 409.32 341.88 408.945 341.88 408.48Z" fill="#BED558"/>
<path d="M349.44 407.64H347.76C347.296 407.64 346.92 408.016 346.92 408.48C346.92 408.945 347.296 409.32 347.76 409.32H349.44C349.904 409.32 350.28 408.945 350.28 408.48C350.28 408.016 349.904 407.64 349.44 407.64Z" fill="#265375"/>
<path d="M344.996 409.077C345.148 408.917 345.24 408.699 345.24 408.48C345.24 408.262 345.148 408.042 344.996 407.884C344.677 407.573 344.123 407.573 343.804 407.884C343.652 408.042 343.56 408.262 343.56 408.48C343.56 408.699 343.652 408.917 343.804 409.077C343.963 409.228 344.182 409.32 344.4 409.32C344.618 409.32 344.837 409.228 344.996 409.077Z" fill="#265375"/>
<path d="M213.063 221.313C214.152 221.313 215.28 221.326 216.445 221.351C217.623 221.364 218.681 221.421 219.618 221.522L219.447 224.068H214.545C213.962 224.068 213.671 224.34 213.671 224.885V226.519H218.763V228.932H213.671V230.965C213.671 231.51 213.962 231.782 214.545 231.782H219.447L219.618 234.328C218.681 234.429 217.623 234.486 216.445 234.499C215.28 234.524 214.152 234.537 213.063 234.537C212.189 234.537 211.48 234.277 210.935 233.758C210.39 233.239 210.118 232.561 210.118 231.725V224.125C210.118 223.289 210.39 222.611 210.935 222.092C211.48 221.573 212.189 221.313 213.063 221.313ZM224.67 221.18V226.462C224.67 227.07 224.619 227.665 224.518 228.248H225.259L227.292 225.037H231.092L228.888 228.21C228.761 228.438 228.596 228.647 228.394 228.837C228.191 229.027 228.026 229.16 227.9 229.236V229.312C228.026 229.388 228.191 229.54 228.394 229.768C228.596 229.996 228.761 230.224 228.888 230.452L231.434 234.48H227.615L225.24 230.262H224.537C224.575 230.503 224.606 230.743 224.632 230.984C224.657 231.225 224.67 231.453 224.67 231.668V234.48H221.212V221.18H224.67ZM236.723 224.771C237.965 224.771 238.953 224.936 239.687 225.265C240.435 225.582 240.973 226.107 241.302 226.842C241.644 227.577 241.815 228.552 241.815 229.768C241.815 230.984 241.644 231.953 241.302 232.675C240.973 233.397 240.435 233.916 239.687 234.233C238.953 234.55 237.965 234.708 236.723 234.708C235.482 234.708 234.488 234.55 233.74 234.233C232.993 233.916 232.455 233.397 232.125 232.675C231.796 231.953 231.631 230.984 231.631 229.768C231.631 228.552 231.796 227.577 232.125 226.842C232.455 226.107 232.993 225.582 233.74 225.265C234.488 224.936 235.482 224.771 236.723 224.771ZM236.723 227.184C236.331 227.184 236.027 227.254 235.811 227.393C235.596 227.52 235.444 227.773 235.355 228.153C235.279 228.52 235.241 229.059 235.241 229.768C235.241 230.465 235.279 230.997 235.355 231.364C235.444 231.731 235.596 231.985 235.811 232.124C236.027 232.251 236.331 232.314 236.723 232.314C237.116 232.314 237.414 232.251 237.616 232.124C237.832 231.985 237.984 231.731 238.072 231.364C238.161 230.997 238.205 230.465 238.205 229.768C238.205 229.059 238.161 228.52 238.072 228.153C237.984 227.773 237.832 227.52 237.616 227.393C237.414 227.254 237.116 227.184 236.723 227.184ZM246.843 221.18V231.231C246.843 231.763 247.178 232.029 247.85 232.029H248.553L248.933 234.29C248.768 234.391 248.527 234.474 248.211 234.537C247.894 234.6 247.565 234.645 247.223 234.67C246.893 234.708 246.621 234.727 246.406 234.727C245.468 234.727 244.734 234.499 244.202 234.043C243.67 233.587 243.404 232.947 243.404 232.124V221.18H246.843ZM254.666 224.771C255.907 224.771 256.895 224.936 257.63 225.265C258.377 225.582 258.916 226.107 259.245 226.842C259.587 227.577 259.758 228.552 259.758 229.768C259.758 230.984 259.587 231.953 259.245 232.675C258.916 233.397 258.377 233.916 257.63 234.233C256.895 234.55 255.907 234.708 254.666 234.708C253.425 234.708 252.43 234.55 251.683 234.233C250.936 233.916 250.397 233.397 250.068 232.675C249.739 231.953 249.574 230.984 249.574 229.768C249.574 228.552 249.739 227.577 250.068 226.842C250.397 226.107 250.936 225.582 251.683 225.265C252.43 224.936 253.425 224.771 254.666 224.771ZM254.666 227.184C254.273 227.184 253.969 227.254 253.754 227.393C253.539 227.52 253.387 227.773 253.298 228.153C253.222 228.52 253.184 229.059 253.184 229.768C253.184 230.465 253.222 230.997 253.298 231.364C253.387 231.731 253.539 231.985 253.754 232.124C253.969 232.251 254.273 232.314 254.666 232.314C255.059 232.314 255.356 232.251 255.559 232.124C255.774 231.985 255.926 231.731 256.015 231.364C256.104 230.997 256.148 230.465 256.148 229.768C256.148 229.059 256.104 228.52 256.015 228.153C255.926 227.773 255.774 227.52 255.559 227.393C255.356 227.254 255.059 227.184 254.666 227.184ZM265.754 224.771C266.831 224.771 267.698 224.86 268.357 225.037H271.492L271.321 226.367L270.238 226.538C270.352 226.88 270.409 227.292 270.409 227.773C270.409 228.495 270.257 229.078 269.953 229.521C269.662 229.952 269.174 230.268 268.49 230.471C267.806 230.661 266.888 230.756 265.735 230.756C265.165 230.756 264.652 230.731 264.196 230.68C264.082 230.857 264.057 231.066 264.12 231.307C264.183 231.535 264.399 231.662 264.766 231.687L268.224 231.991C269.263 232.08 270.004 232.358 270.447 232.827C270.89 233.296 271.112 233.986 271.112 234.898C271.112 235.747 270.935 236.393 270.58 236.836C270.225 237.292 269.662 237.602 268.889 237.767C268.116 237.932 267.109 238.014 265.868 238.014C264.449 238.014 263.36 237.925 262.6 237.748C261.853 237.571 261.34 237.279 261.061 236.874C260.782 236.481 260.643 235.949 260.643 235.278C260.643 234.822 260.744 234.429 260.947 234.1C261.162 233.771 261.555 233.486 262.125 233.245C261.834 232.954 261.663 232.612 261.612 232.219C261.574 231.826 261.637 231.453 261.802 231.098C261.967 230.743 262.22 230.484 262.562 230.319C262.017 230.091 261.625 229.768 261.384 229.35C261.156 228.932 261.042 228.406 261.042 227.773C261.042 227.051 261.194 226.475 261.498 226.044C261.815 225.601 262.315 225.278 262.999 225.075C263.683 224.872 264.601 224.771 265.754 224.771ZM265.735 226.747C265.165 226.747 264.772 226.817 264.557 226.956C264.354 227.095 264.253 227.368 264.253 227.773C264.253 228.166 264.354 228.438 264.557 228.59C264.772 228.729 265.165 228.799 265.735 228.799C266.305 228.799 266.691 228.729 266.894 228.59C267.109 228.438 267.217 228.166 267.217 227.773C267.217 227.368 267.109 227.095 266.894 226.956C266.691 226.817 266.305 226.747 265.735 226.747ZM263.873 234.784C263.873 235.126 264.006 235.348 264.272 235.449C264.538 235.563 265.051 235.62 265.811 235.62C266.634 235.62 267.185 235.569 267.464 235.468C267.743 235.367 267.882 235.164 267.882 234.86C267.882 234.569 267.762 234.385 267.521 234.309C267.293 234.22 266.907 234.151 266.362 234.1L264.367 233.929C264.19 234.056 264.063 234.182 263.987 234.309C263.911 234.423 263.873 234.581 263.873 234.784ZM275.135 220.781C275.807 220.781 276.142 221.123 276.142 221.807V222.795C276.142 223.479 275.807 223.821 275.135 223.821H273.653C272.982 223.821 272.646 223.479 272.646 222.795V221.807C272.646 221.123 272.982 220.781 273.653 220.781H275.135ZM276.123 225.037V234.48H272.684V225.037H276.123ZM282.717 224.771C283.261 224.771 283.882 224.815 284.579 224.904C285.288 224.993 285.915 225.164 286.46 225.417L286.118 227.564C284.978 227.551 284.04 227.545 283.306 227.545C282.584 227.545 282.083 227.697 281.805 228.001C281.539 228.292 281.406 228.875 281.406 229.749C281.406 230.623 281.539 231.212 281.805 231.516C282.083 231.807 282.584 231.953 283.306 231.953C283.622 231.953 284.053 231.947 284.598 231.934C285.155 231.921 285.719 231.883 286.289 231.82L286.612 233.986C286.067 234.252 285.446 234.436 284.75 234.537C284.066 234.651 283.375 234.708 282.679 234.708C281.488 234.708 280.532 234.55 279.81 234.233C279.088 233.904 278.568 233.378 278.252 232.656C277.935 231.934 277.777 230.965 277.777 229.749C277.777 228.533 277.935 227.564 278.252 226.842C278.581 226.107 279.107 225.582 279.829 225.265C280.551 224.936 281.513 224.771 282.717 224.771ZM291.448 221.18V226.462C291.448 227.07 291.397 227.665 291.296 228.248H292.037L294.07 225.037H297.87L295.666 228.21C295.539 228.438 295.375 228.647 295.172 228.837C294.969 229.027 294.805 229.16 294.678 229.236V229.312C294.805 229.388 294.969 229.54 295.172 229.768C295.375 229.996 295.539 230.224 295.666 230.452L298.212 234.48H294.393L292.018 230.262H291.315C291.353 230.503 291.385 230.743 291.41 230.984C291.435 231.225 291.448 231.453 291.448 231.668V234.48H287.99V221.18H291.448ZM303.521 224.771C305.218 224.771 306.428 225.05 307.15 225.607C307.872 226.164 308.233 226.988 308.233 228.077C308.245 228.951 308.005 229.591 307.511 229.996C307.017 230.401 306.143 230.604 304.889 230.604H302.058C302.146 231.149 302.33 231.522 302.609 231.725C302.9 231.928 303.35 232.029 303.958 232.029C304.363 232.029 304.895 232.016 305.554 231.991C306.225 231.953 306.928 231.896 307.663 231.82L307.986 233.91C307.365 234.214 306.668 234.423 305.896 234.537C305.136 234.651 304.363 234.708 303.578 234.708C301.678 234.708 300.335 234.309 299.55 233.511C298.777 232.7 298.391 231.465 298.391 229.806C298.391 228.565 298.555 227.577 298.885 226.842C299.227 226.107 299.771 225.582 300.519 225.265C301.279 224.936 302.279 224.771 303.521 224.771ZM303.635 227.07C303.242 227.07 302.932 227.114 302.704 227.203C302.476 227.279 302.305 227.45 302.191 227.716C302.089 227.969 302.026 228.356 302.001 228.875H303.92C304.35 228.875 304.623 228.812 304.737 228.685C304.863 228.558 304.927 228.33 304.927 228.001C304.927 227.634 304.825 227.387 304.623 227.26C304.42 227.133 304.091 227.07 303.635 227.07ZM305.934 219.869L307.302 222.092L302.742 224.125L301.773 222.7L305.934 219.869ZM194.477 247.771C195.034 247.771 195.566 247.841 196.073 247.98C196.592 248.107 197.055 248.316 197.46 248.607C197.447 248.278 197.435 247.942 197.422 247.6C197.409 247.258 197.403 246.916 197.403 246.574V244.18H200.842V257.48H198.106L197.821 255.96C197.492 256.467 197.042 256.885 196.472 257.214C195.902 257.543 195.174 257.708 194.287 257.708C193.058 257.708 192.184 257.271 191.665 256.397C191.146 255.523 190.886 254.275 190.886 252.654C190.886 251.387 191.019 250.399 191.285 249.69C191.564 248.981 191.969 248.487 192.501 248.208C193.033 247.917 193.692 247.771 194.477 247.771ZM194.439 252.635C194.439 253.294 194.483 253.788 194.572 254.117C194.661 254.434 194.8 254.649 194.99 254.763C195.18 254.864 195.427 254.915 195.731 254.915C196.098 254.915 196.402 254.877 196.643 254.801C196.884 254.712 197.137 254.592 197.403 254.44V250.431C197.15 250.342 196.903 250.266 196.662 250.203C196.421 250.14 196.13 250.108 195.788 250.108C195.471 250.108 195.212 250.165 195.009 250.279C194.806 250.393 194.661 250.634 194.572 251.001C194.483 251.356 194.439 251.9 194.439 252.635ZM205.314 243.781C205.985 243.781 206.321 244.123 206.321 244.807V245.795C206.321 246.479 205.985 246.821 205.314 246.821H203.832C203.161 246.821 202.825 246.479 202.825 245.795V244.807C202.825 244.123 203.161 243.781 203.832 243.781H205.314ZM206.302 248.037V257.48H202.863V248.037H206.302ZM212.743 247.771C213.82 247.771 214.688 247.86 215.346 248.037H218.481L218.31 249.367L217.227 249.538C217.341 249.88 217.398 250.292 217.398 250.773C217.398 251.495 217.246 252.078 216.942 252.521C216.651 252.952 216.163 253.268 215.479 253.471C214.795 253.661 213.877 253.756 212.724 253.756C212.154 253.756 211.641 253.731 211.185 253.68C211.071 253.857 211.046 254.066 211.109 254.307C211.173 254.535 211.388 254.662 211.755 254.687L215.213 254.991C216.252 255.08 216.993 255.358 217.436 255.827C217.88 256.296 218.101 256.986 218.101 257.898C218.101 258.747 217.924 259.393 217.569 259.836C217.215 260.292 216.651 260.602 215.878 260.767C215.106 260.932 214.099 261.014 212.857 261.014C211.439 261.014 210.349 260.925 209.589 260.748C208.842 260.571 208.329 260.279 208.05 259.874C207.772 259.481 207.632 258.949 207.632 258.278C207.632 257.822 207.734 257.429 207.936 257.1C208.152 256.771 208.544 256.486 209.114 256.245C208.823 255.954 208.652 255.612 208.601 255.219C208.563 254.826 208.627 254.453 208.791 254.098C208.956 253.743 209.209 253.484 209.551 253.319C209.007 253.091 208.614 252.768 208.373 252.35C208.145 251.932 208.031 251.406 208.031 250.773C208.031 250.051 208.183 249.475 208.487 249.044C208.804 248.601 209.304 248.278 209.988 248.075C210.672 247.872 211.591 247.771 212.743 247.771ZM212.724 249.747C212.154 249.747 211.762 249.817 211.546 249.956C211.344 250.095 211.242 250.368 211.242 250.773C211.242 251.166 211.344 251.438 211.546 251.59C211.762 251.729 212.154 251.799 212.724 251.799C213.294 251.799 213.681 251.729 213.883 251.59C214.099 251.438 214.206 251.166 214.206 250.773C214.206 250.368 214.099 250.095 213.883 249.956C213.681 249.817 213.294 249.747 212.724 249.747ZM210.862 257.784C210.862 258.126 210.995 258.348 211.261 258.449C211.527 258.563 212.04 258.62 212.8 258.62C213.624 258.62 214.175 258.569 214.453 258.468C214.732 258.367 214.871 258.164 214.871 257.86C214.871 257.569 214.751 257.385 214.51 257.309C214.282 257.22 213.896 257.151 213.351 257.1L211.356 256.929C211.179 257.056 211.052 257.182 210.976 257.309C210.9 257.423 210.862 257.581 210.862 257.784ZM222.125 243.781C222.796 243.781 223.132 244.123 223.132 244.807V245.795C223.132 246.479 222.796 246.821 222.125 246.821H220.643C219.971 246.821 219.636 246.479 219.636 245.795V244.807C219.636 244.123 219.971 243.781 220.643 243.781H222.125ZM223.113 248.037V257.48H219.674V248.037H223.113ZM231.948 248.037V250.184H229.497V254.231C229.497 254.522 229.566 254.731 229.706 254.858C229.845 254.972 230.079 255.029 230.409 255.029H231.511L231.891 257.29C231.637 257.391 231.327 257.474 230.96 257.537C230.605 257.6 230.244 257.645 229.877 257.67C229.509 257.708 229.193 257.727 228.927 257.727C228.04 257.727 227.337 257.499 226.818 257.043C226.311 256.574 226.058 255.928 226.058 255.105L226.039 250.184H224.424V248.132L226.039 248.056V245.491H229.497V248.037H231.948ZM238.442 247.771C239.291 247.771 240.006 247.885 240.589 248.113C241.184 248.341 241.634 248.721 241.938 249.253C242.242 249.785 242.394 250.52 242.394 251.457V257.48H239.639L239.316 256.074C238.974 256.479 238.524 256.859 237.967 257.214C237.422 257.556 236.738 257.727 235.915 257.727C235.332 257.727 234.8 257.626 234.319 257.423C233.85 257.22 233.47 256.923 233.179 256.53C232.9 256.137 232.761 255.643 232.761 255.048V254.098C232.761 253.338 233.027 252.749 233.559 252.331C234.091 251.9 234.826 251.685 235.763 251.685H238.936V251.438C238.923 251.045 238.822 250.767 238.632 250.602C238.455 250.425 238.125 250.336 237.644 250.336C237.15 250.336 236.542 250.349 235.82 250.374C235.098 250.387 234.344 250.418 233.559 250.469L233.255 248.246C233.724 248.157 234.268 248.081 234.889 248.018C235.522 247.942 236.156 247.885 236.789 247.847C237.422 247.796 237.973 247.771 238.442 247.771ZM236.124 254.554C236.124 255.061 236.441 255.314 237.074 255.314C237.353 255.327 237.65 255.276 237.967 255.162C238.296 255.035 238.619 254.871 238.936 254.668V253.433H236.96C236.669 253.446 236.453 253.522 236.314 253.661C236.187 253.788 236.124 253.965 236.124 254.193V254.554ZM240.209 242.755L241.577 244.978L237.017 247.011L236.048 245.586L240.209 242.755ZM247.696 244.18V254.231C247.696 254.763 248.032 255.029 248.703 255.029H249.406L249.786 257.29C249.621 257.391 249.381 257.474 249.064 257.537C248.747 257.6 248.418 257.645 248.076 257.67C247.747 257.708 247.474 257.727 247.259 257.727C246.322 257.727 245.587 257.499 245.055 257.043C244.523 256.587 244.257 255.947 244.257 255.124V244.18H247.696ZM253.505 248.037L253.809 249.443C254.443 248.886 255.101 248.468 255.785 248.189C256.469 247.91 257.134 247.771 257.78 247.771C259.604 247.771 260.516 248.651 260.516 250.412V257.48H257.058V251.495C257.058 251.191 256.995 250.982 256.868 250.868C256.742 250.754 256.533 250.697 256.241 250.697C255.95 250.697 255.652 250.735 255.348 250.811C255.044 250.874 254.671 250.995 254.227 251.172V257.48H250.769V248.037H253.505ZM267.172 247.771C268.87 247.771 270.079 248.05 270.801 248.607C271.523 249.164 271.884 249.988 271.884 251.077C271.897 251.951 271.656 252.591 271.162 252.996C270.668 253.401 269.794 253.604 268.54 253.604H265.709C265.798 254.149 265.982 254.522 266.26 254.725C266.552 254.928 267.001 255.029 267.609 255.029C268.015 255.029 268.547 255.016 269.205 254.991C269.877 254.953 270.58 254.896 271.314 254.82L271.637 256.91C271.017 257.214 270.32 257.423 269.547 257.537C268.787 257.651 268.015 257.708 267.229 257.708C265.329 257.708 263.987 257.309 263.201 256.511C262.429 255.7 262.042 254.465 262.042 252.806C262.042 251.565 262.207 250.577 262.536 249.842C262.878 249.107 263.423 248.582 264.17 248.265C264.93 247.936 265.931 247.771 267.172 247.771ZM267.286 250.07C266.894 250.07 266.583 250.114 266.355 250.203C266.127 250.279 265.956 250.45 265.842 250.716C265.741 250.969 265.678 251.356 265.652 251.875H267.571C268.002 251.875 268.274 251.812 268.388 251.685C268.515 251.558 268.578 251.33 268.578 251.001C268.578 250.634 268.477 250.387 268.274 250.26C268.072 250.133 267.742 250.07 267.286 250.07ZM287.095 248.037L284.15 256.663C284.074 256.916 283.935 257.119 283.732 257.271C283.542 257.41 283.314 257.48 283.048 257.48H280.084C279.818 257.48 279.59 257.41 279.4 257.271C279.21 257.119 279.077 256.916 279.001 256.663L276.056 248.037H279.704L281.11 253.566C281.186 253.845 281.249 254.136 281.3 254.44C281.351 254.731 281.401 255.023 281.452 255.314H281.699C281.75 255.023 281.807 254.731 281.87 254.44C281.933 254.136 281.99 253.845 282.041 253.566L283.447 248.037H287.095ZM292.647 247.771C293.889 247.771 294.877 247.936 295.611 248.265C296.359 248.582 296.897 249.107 297.226 249.842C297.568 250.577 297.739 251.552 297.739 252.768C297.739 253.984 297.568 254.953 297.226 255.675C296.897 256.397 296.359 256.916 295.611 257.233C294.877 257.55 293.889 257.708 292.647 257.708C291.406 257.708 290.412 257.55 289.664 257.233C288.917 256.916 288.379 256.397 288.049 255.675C287.72 254.953 287.555 253.984 287.555 252.768C287.555 251.552 287.72 250.577 288.049 249.842C288.379 249.107 288.917 248.582 289.664 248.265C290.412 247.936 291.406 247.771 292.647 247.771ZM292.647 250.184C292.255 250.184 291.951 250.254 291.735 250.393C291.52 250.52 291.368 250.773 291.279 251.153C291.203 251.52 291.165 252.059 291.165 252.768C291.165 253.465 291.203 253.997 291.279 254.364C291.368 254.731 291.52 254.985 291.735 255.124C291.951 255.251 292.255 255.314 292.647 255.314C293.04 255.314 293.338 255.251 293.54 255.124C293.756 254.985 293.908 254.731 293.996 254.364C294.085 253.997 294.129 253.465 294.129 252.768C294.129 252.059 294.085 251.52 293.996 251.153C293.908 250.773 293.756 250.52 293.54 250.393C293.338 250.254 293.04 250.184 292.647 250.184ZM302.766 244.18V254.231C302.766 254.763 303.102 255.029 303.773 255.029H304.476L304.856 257.29C304.692 257.391 304.451 257.474 304.134 257.537C303.818 257.6 303.488 257.645 303.146 257.67C302.817 257.708 302.545 257.727 302.329 257.727C301.392 257.727 300.657 257.499 300.125 257.043C299.593 256.587 299.327 255.947 299.327 255.124V244.18H302.766ZM305.16 244.123C305.515 244.123 305.762 244.193 305.901 244.332C306.041 244.471 306.11 244.731 306.11 245.111V246.118C306.11 246.84 306.028 247.435 305.863 247.904C305.711 248.36 305.496 248.803 305.217 249.234L304.134 248.892C304.236 248.537 304.299 248.189 304.324 247.847C304.362 247.505 304.388 247.15 304.4 246.783C303.843 246.783 303.577 246.492 303.602 245.909L303.621 245.111C303.647 244.731 303.723 244.471 303.849 244.332C303.989 244.193 304.236 244.123 304.59 244.123H305.16ZM312.911 247.771C314.203 247.771 315.115 248.151 315.647 248.911C316.179 249.671 316.445 250.919 316.445 252.654C316.445 253.338 316.375 253.984 316.236 254.592C316.109 255.2 315.868 255.738 315.514 256.207C315.172 256.676 314.678 257.043 314.032 257.309C313.398 257.575 312.575 257.708 311.562 257.708C311.22 257.708 310.814 257.689 310.346 257.651C309.89 257.626 309.415 257.581 308.921 257.518C308.439 257.467 307.983 257.391 307.553 257.29C307.122 257.189 306.767 257.075 306.489 256.948V244.18H309.928L309.966 247.011C309.966 247.391 309.947 247.771 309.909 248.151C309.871 248.531 309.801 248.898 309.7 249.253C310.118 248.848 310.599 248.499 311.144 248.208C311.701 247.917 312.29 247.771 312.911 247.771ZM311.486 250.412C311.182 250.412 310.909 250.456 310.669 250.545C310.428 250.634 310.181 250.741 309.928 250.868V255.2C310.194 255.251 310.466 255.289 310.745 255.314C311.036 255.339 311.283 255.346 311.486 255.333C311.84 255.308 312.119 255.225 312.322 255.086C312.524 254.934 312.67 254.668 312.759 254.288C312.847 253.908 312.892 253.37 312.892 252.673C312.892 252.065 312.847 251.596 312.759 251.267C312.683 250.938 312.543 250.716 312.341 250.602C312.138 250.475 311.853 250.412 311.486 250.412ZM320.618 248.037L322.043 253.661C322.093 253.927 322.138 254.199 322.176 254.478C322.226 254.744 322.271 255.016 322.309 255.295H322.499C322.587 255.016 322.663 254.731 322.727 254.44C322.79 254.136 322.847 253.876 322.898 253.661L324.304 248.037H327.99L324.817 257.385C324.652 257.879 324.424 258.386 324.133 258.905C323.841 259.424 323.461 259.887 322.993 260.292C322.537 260.71 321.979 261.014 321.321 261.204C320.662 261.394 319.889 261.413 319.003 261.261L318.756 259.361C319.503 259.184 320.098 258.949 320.542 258.658C320.985 258.379 321.333 257.987 321.587 257.48H320.979C320.713 257.48 320.478 257.41 320.276 257.271C320.086 257.119 319.953 256.916 319.877 256.663L316.951 248.037H320.618ZM211.527 270.771C213.224 270.771 214.434 271.05 215.156 271.607C215.878 272.164 216.239 272.988 216.239 274.077C216.251 274.951 216.011 275.591 215.517 275.996C215.023 276.401 214.149 276.604 212.895 276.604H210.064C210.152 277.149 210.336 277.522 210.615 277.725C210.906 277.928 211.356 278.029 211.964 278.029C212.369 278.029 212.901 278.016 213.56 277.991C214.231 277.953 214.934 277.896 215.669 277.82L215.992 279.91C215.371 280.214 214.674 280.423 213.902 280.537C213.142 280.651 212.369 280.708 211.584 280.708C209.684 280.708 208.341 280.309 207.556 279.511C206.783 278.7 206.397 277.465 206.397 275.806C206.397 274.565 206.561 273.577 206.891 272.842C207.233 272.107 207.777 271.582 208.525 271.265C209.285 270.936 210.285 270.771 211.527 270.771ZM211.641 273.07C211.248 273.07 210.938 273.114 210.71 273.203C210.482 273.279 210.311 273.45 210.197 273.716C210.095 273.969 210.032 274.356 210.007 274.875H211.926C212.356 274.875 212.629 274.812 212.743 274.685C212.869 274.558 212.933 274.33 212.933 274.001C212.933 273.634 212.831 273.387 212.629 273.26C212.426 273.133 212.097 273.07 211.641 273.07ZM221.2 267.18V277.231C221.2 277.763 221.536 278.029 222.207 278.029H222.91L223.29 280.29C223.125 280.391 222.885 280.474 222.568 280.537C222.251 280.6 221.922 280.645 221.58 280.67C221.251 280.708 220.978 280.727 220.763 280.727C219.826 280.727 219.091 280.499 218.559 280.043C218.027 279.587 217.761 278.947 217.761 278.124V267.18H221.2ZM226.8 266.781C227.472 266.781 227.807 267.123 227.807 267.807V268.795C227.807 269.479 227.472 269.821 226.8 269.821H225.318C224.647 269.821 224.311 269.479 224.311 268.795V267.807C224.311 267.123 224.647 266.781 225.318 266.781H226.8ZM227.788 271.037V280.48H224.349V271.037H227.788ZM232.52 271.037L232.805 272.424C233.362 271.867 233.907 271.455 234.439 271.189C234.983 270.91 235.598 270.771 236.282 270.771C237.574 270.771 238.391 271.265 238.733 272.253C239.252 271.759 239.771 271.392 240.291 271.151C240.81 270.898 241.386 270.771 242.02 270.771C243.806 270.771 244.699 271.651 244.699 273.412V280.48H241.26V274.495C241.26 274.204 241.196 274.001 241.07 273.887C240.956 273.76 240.753 273.697 240.462 273.697C240.246 273.697 240.025 273.729 239.797 273.792C239.581 273.855 239.29 273.982 238.923 274.172V280.48H235.598V274.495C235.598 274.204 235.528 274.001 235.389 273.887C235.262 273.76 235.053 273.697 234.762 273.697C234.546 273.697 234.331 273.729 234.116 273.792C233.9 273.843 233.609 273.957 233.242 274.134V280.48H229.803V271.037H232.52ZM249.103 266.781C249.774 266.781 250.11 267.123 250.11 267.807V268.795C250.11 269.479 249.774 269.821 249.103 269.821H247.621C246.95 269.821 246.614 269.479 246.614 268.795V267.807C246.614 267.123 246.95 266.781 247.621 266.781H249.103ZM250.091 271.037V280.48H246.652V271.037H250.091ZM254.841 271.037L255.145 272.443C255.779 271.886 256.437 271.468 257.121 271.189C257.805 270.91 258.47 270.771 259.116 270.771C260.94 270.771 261.852 271.651 261.852 273.412V280.48H258.394V274.495C258.394 274.191 258.331 273.982 258.204 273.868C258.078 273.754 257.869 273.697 257.577 273.697C257.286 273.697 256.988 273.735 256.684 273.811C256.38 273.874 256.007 273.995 255.563 274.172V280.48H252.105V271.037H254.841ZM267.14 271.037V277.022C267.127 277.313 267.191 277.522 267.33 277.649C267.469 277.776 267.697 277.839 268.014 277.839C268.28 277.839 268.546 277.807 268.812 277.744C269.091 277.668 269.426 277.548 269.819 277.383V271.037H273.296V280.48H270.579L270.275 279.112C269.642 279.657 269.008 280.068 268.375 280.347C267.754 280.613 267.108 280.746 266.437 280.746C264.6 280.746 263.682 279.866 263.682 278.105V271.037H267.14ZM277.751 266.629C278.422 266.629 278.758 266.971 278.758 267.655V268.643C278.758 269.327 278.422 269.669 277.751 269.669H276.269C275.598 269.669 275.262 269.327 275.262 268.643V267.655C275.262 266.971 275.598 266.629 276.269 266.629H277.751ZM278.777 271.037V279.682C278.777 280.303 278.663 280.904 278.435 281.487C278.22 282.07 277.903 282.589 277.485 283.045C277.067 283.514 276.567 283.881 275.984 284.147L274.084 282.627C274.553 282.146 274.876 281.671 275.053 281.202C275.243 280.746 275.338 280.239 275.338 279.682V271.037H278.777ZM284.192 271.037V277.022C284.179 277.313 284.243 277.522 284.382 277.649C284.521 277.776 284.749 277.839 285.066 277.839C285.332 277.839 285.598 277.807 285.864 277.744C286.143 277.668 286.478 277.548 286.871 277.383V271.037H290.348V280.48H287.631L287.327 279.112C286.694 279.657 286.06 280.068 285.427 280.347C284.806 280.613 284.16 280.746 283.489 280.746C281.652 280.746 280.734 279.866 280.734 278.105V271.037H284.192ZM287.897 265.85L289.265 268.073L284.705 270.106L283.736 268.681L287.897 265.85ZM296.874 270.771C297.418 270.771 298.039 270.815 298.736 270.904C299.445 270.993 300.072 271.164 300.617 271.417L300.275 273.564C299.135 273.551 298.197 273.545 297.463 273.545C296.741 273.545 296.24 273.697 295.962 274.001C295.696 274.292 295.563 274.875 295.563 275.749C295.563 276.623 295.696 277.212 295.962 277.516C296.24 277.807 296.741 277.953 297.463 277.953C297.779 277.953 298.21 277.947 298.755 277.934C299.312 277.921 299.876 277.883 300.446 277.82L300.769 279.986C300.224 280.252 299.603 280.436 298.907 280.537C298.223 280.651 297.532 280.708 296.836 280.708C295.645 280.708 294.689 280.55 293.967 280.233C293.245 279.904 292.725 279.378 292.409 278.656C292.092 277.934 291.934 276.965 291.934 275.749C291.934 274.533 292.092 273.564 292.409 272.842C292.738 272.107 293.264 271.582 293.986 271.265C294.708 270.936 295.67 270.771 296.874 270.771ZM306.805 270.771C308.502 270.771 309.712 271.05 310.434 271.607C311.156 272.164 311.517 272.988 311.517 274.077C311.53 274.951 311.289 275.591 310.795 275.996C310.301 276.401 309.427 276.604 308.173 276.604H305.342C305.431 277.149 305.614 277.522 305.893 277.725C306.184 277.928 306.634 278.029 307.242 278.029C307.647 278.029 308.179 278.016 308.838 277.991C309.509 277.953 310.212 277.896 310.947 277.82L311.27 279.91C310.649 280.214 309.953 280.423 309.18 280.537C308.42 280.651 307.647 280.708 306.862 280.708C304.962 280.708 303.619 280.309 302.834 279.511C302.061 278.7 301.675 277.465 301.675 275.806C301.675 274.565 301.84 273.577 302.169 272.842C302.511 272.107 303.056 271.582 303.803 271.265C304.563 270.936 305.564 270.771 306.805 270.771ZM306.919 273.07C306.526 273.07 306.216 273.114 305.988 273.203C305.76 273.279 305.589 273.45 305.475 273.716C305.374 273.969 305.31 274.356 305.285 274.875H307.204C307.635 274.875 307.907 274.812 308.021 274.685C308.148 274.558 308.211 274.33 308.211 274.001C308.211 273.634 308.11 273.387 307.907 273.26C307.704 273.133 307.375 273.07 306.919 273.07ZM188.194 294.037L188.46 295.386C188.802 294.943 189.296 294.569 189.942 294.265C190.6 293.961 191.303 293.809 192.051 293.809C193.254 293.809 194.115 294.246 194.635 295.12C195.154 295.994 195.414 297.242 195.414 298.863C195.414 300.142 195.274 301.137 194.996 301.846C194.73 302.543 194.331 303.037 193.799 303.328C193.279 303.607 192.627 303.746 191.842 303.746C191.272 303.746 190.721 303.676 190.189 303.537C189.669 303.398 189.207 303.176 188.802 302.872C188.827 303.201 188.846 303.543 188.859 303.898C188.871 304.253 188.878 304.595 188.878 304.924V306.995H185.42V294.037H188.194ZM190.607 296.336C190.227 296.336 189.91 296.393 189.657 296.507C189.403 296.621 189.144 296.76 188.878 296.925V301.086C189.131 301.162 189.378 301.238 189.619 301.314C189.872 301.377 190.17 301.409 190.512 301.409C190.828 301.409 191.088 301.352 191.291 301.238C191.493 301.124 191.639 300.89 191.728 300.535C191.816 300.168 191.861 299.617 191.861 298.882C191.861 298.16 191.816 297.622 191.728 297.267C191.639 296.9 191.5 296.653 191.31 296.526C191.132 296.399 190.898 296.336 190.607 296.336ZM201.785 293.771C203.026 293.771 204.014 293.936 204.749 294.265C205.496 294.582 206.035 295.107 206.364 295.842C206.706 296.577 206.877 297.552 206.877 298.768C206.877 299.984 206.706 300.953 206.364 301.675C206.035 302.397 205.496 302.916 204.749 303.233C204.014 303.55 203.026 303.708 201.785 303.708C200.544 303.708 199.549 303.55 198.802 303.233C198.055 302.916 197.516 302.397 197.187 301.675C196.858 300.953 196.693 299.984 196.693 298.768C196.693 297.552 196.858 296.577 197.187 295.842C197.516 295.107 198.055 294.582 198.802 294.265C199.549 293.936 200.544 293.771 201.785 293.771ZM201.785 296.184C201.392 296.184 201.088 296.254 200.873 296.393C200.658 296.52 200.506 296.773 200.417 297.153C200.341 297.52 200.303 298.059 200.303 298.768C200.303 299.465 200.341 299.997 200.417 300.364C200.506 300.731 200.658 300.985 200.873 301.124C201.088 301.251 201.392 301.314 201.785 301.314C202.178 301.314 202.475 301.251 202.678 301.124C202.893 300.985 203.045 300.731 203.134 300.364C203.223 299.997 203.267 299.465 203.267 298.768C203.267 298.059 203.223 297.52 203.134 297.153C203.045 296.773 202.893 296.52 202.678 296.393C202.475 296.254 202.178 296.184 201.785 296.184ZM211.847 294.037V300.022C211.834 300.313 211.898 300.522 212.037 300.649C212.176 300.776 212.404 300.839 212.721 300.839C212.987 300.839 213.253 300.807 213.519 300.744C213.798 300.668 214.133 300.548 214.526 300.383V294.037H218.003V303.48H215.286L214.982 302.112C214.349 302.657 213.715 303.068 213.082 303.347C212.461 303.613 211.815 303.746 211.144 303.746C209.307 303.746 208.389 302.866 208.389 301.105V294.037H211.847ZM228.481 301.2V303.48H219.627V301.2L224.377 296.317H219.722V294.037H228.386V296.317L223.636 301.2H228.481ZM227.094 289.078L227.93 290.37L224.928 292.84H223.541L220.52 290.37L221.375 289.078L224.149 290.56H224.301L227.094 289.078ZM232.626 289.781C233.298 289.781 233.633 290.123 233.633 290.807V291.795C233.633 292.479 233.298 292.821 232.626 292.821H231.144C230.473 292.821 230.137 292.479 230.137 291.795V290.807C230.137 290.123 230.473 289.781 231.144 289.781H232.626ZM233.614 294.037V303.48H230.175V294.037H233.614ZM242.45 294.037V296.184H239.999V300.231C239.999 300.522 240.068 300.731 240.208 300.858C240.347 300.972 240.581 301.029 240.911 301.029H242.013L242.393 303.29C242.139 303.391 241.829 303.474 241.462 303.537C241.107 303.6 240.746 303.645 240.379 303.67C240.011 303.708 239.695 303.727 239.429 303.727C238.542 303.727 237.839 303.499 237.32 303.043C236.813 302.574 236.56 301.928 236.56 301.105L236.541 296.184H234.926V294.132L236.541 294.056V291.491H239.999V294.037H242.45ZM246.227 289.781C246.898 289.781 247.234 290.123 247.234 290.807V291.795C247.234 292.479 246.898 292.821 246.227 292.821H244.745C244.074 292.821 243.738 292.479 243.738 291.795V290.807C243.738 290.123 244.074 289.781 244.745 289.781H246.227ZM247.215 294.037V303.48H243.776V294.037H247.215ZM253.998 293.771C255.696 293.771 256.905 294.05 257.627 294.607C258.349 295.164 258.71 295.988 258.71 297.077C258.723 297.951 258.482 298.591 257.988 298.996C257.494 299.401 256.62 299.604 255.366 299.604H252.535C252.624 300.149 252.808 300.522 253.086 300.725C253.378 300.928 253.827 301.029 254.435 301.029C254.841 301.029 255.373 301.016 256.031 300.991C256.703 300.953 257.406 300.896 258.14 300.82L258.463 302.91C257.843 303.214 257.146 303.423 256.373 303.537C255.613 303.651 254.841 303.708 254.055 303.708C252.155 303.708 250.813 303.309 250.027 302.511C249.255 301.7 248.868 300.465 248.868 298.806C248.868 297.565 249.033 296.577 249.362 295.842C249.704 295.107 250.249 294.582 250.996 294.265C251.756 293.936 252.757 293.771 253.998 293.771ZM254.112 296.07C253.72 296.07 253.409 296.114 253.181 296.203C252.953 296.279 252.782 296.45 252.668 296.716C252.567 296.969 252.504 297.356 252.478 297.875H254.397C254.828 297.875 255.1 297.812 255.214 297.685C255.341 297.558 255.404 297.33 255.404 297.001C255.404 296.634 255.303 296.387 255.1 296.26C254.898 296.133 254.568 296.07 254.112 296.07ZM267.033 294.037L267.299 295.386C267.641 294.943 268.135 294.569 268.781 294.265C269.439 293.961 270.142 293.809 270.89 293.809C272.093 293.809 272.954 294.246 273.474 295.12C273.993 295.994 274.253 297.242 274.253 298.863C274.253 300.142 274.113 301.137 273.835 301.846C273.569 302.543 273.17 303.037 272.638 303.328C272.118 303.607 271.466 303.746 270.681 303.746C270.111 303.746 269.56 303.676 269.028 303.537C268.508 303.398 268.046 303.176 267.641 302.872C267.666 303.201 267.685 303.543 267.698 303.898C267.71 304.253 267.717 304.595 267.717 304.924V306.995H264.259V294.037H267.033ZM269.446 296.336C269.066 296.336 268.749 296.393 268.496 296.507C268.242 296.621 267.983 296.76 267.717 296.925V301.086C267.97 301.162 268.217 301.238 268.458 301.314C268.711 301.377 269.009 301.409 269.351 301.409C269.667 301.409 269.927 301.352 270.13 301.238C270.332 301.124 270.478 300.89 270.567 300.535C270.655 300.168 270.7 299.617 270.7 298.882C270.7 298.16 270.655 297.622 270.567 297.267C270.478 296.9 270.339 296.653 270.149 296.526C269.971 296.399 269.737 296.336 269.446 296.336ZM281.118 293.771C281.967 293.771 282.682 293.885 283.265 294.113C283.86 294.341 284.31 294.721 284.614 295.253C284.918 295.785 285.07 296.52 285.07 297.457V303.48H282.315L281.992 302.074C281.65 302.479 281.2 302.859 280.643 303.214C280.098 303.556 279.414 303.727 278.591 303.727C278.008 303.727 277.476 303.626 276.995 303.423C276.526 303.22 276.146 302.923 275.855 302.53C275.576 302.137 275.437 301.643 275.437 301.048V300.098C275.437 299.338 275.703 298.749 276.235 298.331C276.767 297.9 277.502 297.685 278.439 297.685H281.612V297.438C281.599 297.045 281.498 296.767 281.308 296.602C281.131 296.425 280.801 296.336 280.32 296.336C279.826 296.336 279.218 296.349 278.496 296.374C277.774 296.387 277.02 296.418 276.235 296.469L275.931 294.246C276.4 294.157 276.944 294.081 277.565 294.018C278.198 293.942 278.832 293.885 279.465 293.847C280.098 293.796 280.649 293.771 281.118 293.771ZM278.8 300.554C278.8 301.061 279.117 301.314 279.75 301.314C280.029 301.327 280.326 301.276 280.643 301.162C280.972 301.035 281.295 300.871 281.612 300.668V299.433H279.636C279.345 299.446 279.129 299.522 278.99 299.661C278.863 299.788 278.8 299.965 278.8 300.193V300.554ZM289.688 294.037L289.954 295.386C290.296 294.943 290.79 294.569 291.436 294.265C292.095 293.961 292.798 293.809 293.545 293.809C294.748 293.809 295.61 294.246 296.129 295.12C296.648 295.994 296.908 297.242 296.908 298.863C296.908 300.142 296.769 301.137 296.49 301.846C296.224 302.543 295.825 303.037 295.293 303.328C294.774 303.607 294.121 303.746 293.336 303.746C292.766 303.746 292.215 303.676 291.683 303.537C291.164 303.398 290.701 303.176 290.296 302.872C290.321 303.201 290.34 303.543 290.353 303.898C290.366 304.253 290.372 304.595 290.372 304.924V306.995H286.914V294.037H289.688ZM292.101 296.336C291.721 296.336 291.404 296.393 291.151 296.507C290.898 296.621 290.638 296.76 290.372 296.925V301.086C290.625 301.162 290.872 301.238 291.113 301.314C291.366 301.377 291.664 301.409 292.006 301.409C292.323 301.409 292.582 301.352 292.785 301.238C292.988 301.124 293.133 300.89 293.222 300.535C293.311 300.168 293.355 299.617 293.355 298.882C293.355 298.16 293.311 297.622 293.222 297.267C293.133 296.9 292.994 296.653 292.804 296.526C292.627 296.399 292.392 296.336 292.101 296.336ZM301.056 289.781C301.727 289.781 302.063 290.123 302.063 290.807V291.795C302.063 292.479 301.727 292.821 301.056 292.821H299.574C298.903 292.821 298.567 292.479 298.567 291.795V290.807C298.567 290.123 298.903 289.781 299.574 289.781H301.056ZM302.044 294.037V303.48H298.605V294.037H302.044ZM308.827 293.771C310.525 293.771 311.734 294.05 312.456 294.607C313.178 295.164 313.539 295.988 313.539 297.077C313.552 297.951 313.311 298.591 312.817 298.996C312.323 299.401 311.449 299.604 310.195 299.604H307.364C307.453 300.149 307.637 300.522 307.915 300.725C308.207 300.928 308.656 301.029 309.264 301.029C309.67 301.029 310.202 301.016 310.86 300.991C311.532 300.953 312.235 300.896 312.969 300.82L313.292 302.91C312.672 303.214 311.975 303.423 311.202 303.537C310.442 303.651 309.67 303.708 308.884 303.708C306.984 303.708 305.642 303.309 304.856 302.511C304.084 301.7 303.697 300.465 303.697 298.806C303.697 297.565 303.862 296.577 304.191 295.842C304.533 295.107 305.078 294.582 305.825 294.265C306.585 293.936 307.586 293.771 308.827 293.771ZM308.941 296.07C308.549 296.07 308.238 296.114 308.01 296.203C307.782 296.279 307.611 296.45 307.497 296.716C307.396 296.969 307.333 297.356 307.307 297.875H309.226C309.657 297.875 309.929 297.812 310.043 297.685C310.17 297.558 310.233 297.33 310.233 297.001C310.233 296.634 310.132 296.387 309.929 296.26C309.727 296.133 309.397 296.07 308.941 296.07ZM317.741 294.037L318.045 295.443C318.665 294.886 319.292 294.468 319.926 294.189C320.572 293.91 321.199 293.771 321.807 293.771H322.339L322.035 296.944H321.123C320.768 296.944 320.388 296.976 319.983 297.039C319.59 297.102 319.096 297.204 318.501 297.343V303.48H315.043V294.037H317.741ZM328.562 293.771C329.411 293.771 330.127 293.885 330.709 294.113C331.305 294.341 331.754 294.721 332.058 295.253C332.362 295.785 332.514 296.52 332.514 297.457V303.48H329.759L329.436 302.074C329.094 302.479 328.645 302.859 328.087 303.214C327.543 303.556 326.859 303.727 326.035 303.727C325.453 303.727 324.921 303.626 324.439 303.423C323.971 303.22 323.591 302.923 323.299 302.53C323.021 302.137 322.881 301.643 322.881 301.048V300.098C322.881 299.338 323.147 298.749 323.679 298.331C324.211 297.9 324.946 297.685 325.883 297.685H329.056V297.438C329.044 297.045 328.942 296.767 328.752 296.602C328.575 296.425 328.246 296.336 327.764 296.336C327.27 296.336 326.662 296.349 325.94 296.374C325.218 296.387 324.465 296.418 323.679 296.469L323.375 294.246C323.844 294.157 324.389 294.081 325.009 294.018C325.643 293.942 326.276 293.885 326.909 293.847C327.543 293.796 328.094 293.771 328.562 293.771ZM326.244 300.554C326.244 301.061 326.561 301.314 327.194 301.314C327.473 301.327 327.771 301.276 328.087 301.162C328.417 301.035 328.74 300.871 329.056 300.668V299.433H327.08C326.789 299.446 326.574 299.522 326.434 299.661C326.308 299.788 326.244 299.965 326.244 300.193V300.554Z" fill="#265375"/>
<path d="M82.4305 316.647L68.2816 302.487L60.306 320.103" stroke="#FDFEFF" stroke-width="4"/>
<path d="M99.0439 375.385C82.985 356.855 71.4844 325.23 68.3313 305.825" stroke="white" stroke-width="4"/>
<path d="M163.488 106.389L173.453 89.0289L154.365 85.9394" stroke="#FDFEFF" stroke-width="4"/>
<path d="M110.864 140.114C124.508 118.135 152.34 98.0699 170.245 89.95" stroke="white" stroke-width="4"/>
<path d="M390.589 136.077L409.416 142.876L409.144 123.541" stroke="#FDFEFF" stroke-width="4"/>
<path d="M348.238 90.1089C372.253 99.7283 396.846 123.654 407.952 139.876" stroke="white" stroke-width="4"/>
<path d="M419.878 358.314L418.532 378.285L437.043 372.695" stroke="#FDFEFF" stroke-width="4"/>
<path d="M452.392 304.933C449.765 330.669 433.545 360.904 421.012 376.051" stroke="white" stroke-width="4"/>
<path d="M365 451H357.5V421.5H365V451Z" fill="#BED558" stroke="#BED558"/>
<defs>
<clipPath id="clip0_47:21">
<rect width="53.76" height="53.76" fill="white" transform="translate(131.32 398.4)"/>
</clipPath>
<clipPath id="clip1_47:21">
<rect width="52.92" height="52.92" fill="white" transform="translate(41.1599 183.76)"/>
</clipPath>
</defs>
</svg>
