<svg width="519" height="504" viewBox="0 0 519 504" fill="none" xmlns="http://www.w3.org/2000/svg">
<circle cx="261.36" cy="260.36" r="213.36" fill="#1B669F"/>
<circle cx="259.5" cy="267.5" r="179.5" fill="white"/>
<circle cx="258.92" cy="268.64" r="111.72" fill="#BED558"/>
<circle cx="259.34" cy="268.22" r="101.22" fill="white"/>
<circle cx="158.2" cy="436.2" r="67.2" fill="#8DBDE2"/>
<circle cx="158.2" cy="436.2" r="59.64" fill="white"/>
<path d="M134.796 448.848C135.542 448.848 136.17 448.922 136.681 449.069C137.193 449.216 137.604 449.468 137.916 449.823C138.237 450.17 138.467 450.646 138.605 451.253C138.753 451.851 138.826 452.605 138.826 453.515C138.826 454.425 138.753 455.183 138.605 455.79C138.467 456.388 138.237 456.865 137.916 457.22C137.604 457.567 137.193 457.814 136.681 457.961C136.17 458.108 135.542 458.182 134.796 458.182C134.051 458.182 133.423 458.108 132.911 457.961C132.4 457.814 131.984 457.567 131.663 457.22C131.351 456.865 131.122 456.388 130.974 455.79C130.836 455.183 130.766 454.425 130.766 453.515C130.766 452.605 130.836 451.851 130.974 451.253C131.122 450.646 131.351 450.17 131.663 449.823C131.984 449.468 132.4 449.216 132.911 449.069C133.423 448.922 134.051 448.848 134.796 448.848ZM134.796 450.707C134.415 450.707 134.116 450.785 133.899 450.941C133.691 451.097 133.544 451.379 133.457 451.786C133.371 452.193 133.327 452.77 133.327 453.515C133.327 454.26 133.371 454.837 133.457 455.244C133.544 455.651 133.691 455.933 133.899 456.089C134.116 456.245 134.415 456.323 134.796 456.323C135.178 456.323 135.472 456.245 135.68 456.089C135.897 455.933 136.044 455.651 136.122 455.244C136.209 454.837 136.252 454.26 136.252 453.515C136.252 452.77 136.209 452.193 136.122 451.786C136.044 451.379 135.897 451.097 135.68 450.941C135.472 450.785 135.178 450.707 134.796 450.707ZM146.915 451.539L144.9 457.441C144.848 457.614 144.753 457.753 144.614 457.857C144.484 457.952 144.328 458 144.146 458H142.118C141.936 458 141.78 457.952 141.65 457.857C141.52 457.753 141.429 457.614 141.377 457.441L139.362 451.539H141.858L142.82 455.322C142.872 455.513 142.916 455.712 142.95 455.92C142.985 456.119 143.02 456.319 143.054 456.518H143.223C143.258 456.319 143.297 456.119 143.34 455.92C143.384 455.712 143.423 455.513 143.457 455.322L144.419 451.539H146.915ZM150.727 451.357C151.889 451.357 152.716 451.548 153.21 451.929C153.704 452.31 153.951 452.874 153.951 453.619C153.96 454.217 153.795 454.655 153.457 454.932C153.119 455.209 152.521 455.348 151.663 455.348H149.726C149.787 455.721 149.913 455.976 150.103 456.115C150.303 456.254 150.61 456.323 151.026 456.323C151.304 456.323 151.668 456.314 152.118 456.297C152.578 456.271 153.059 456.232 153.561 456.18L153.782 457.61C153.358 457.818 152.881 457.961 152.352 458.039C151.832 458.117 151.304 458.156 150.766 458.156C149.466 458.156 148.548 457.883 148.01 457.337C147.482 456.782 147.217 455.937 147.217 454.802C147.217 453.953 147.33 453.277 147.555 452.774C147.789 452.271 148.162 451.912 148.673 451.695C149.193 451.47 149.878 451.357 150.727 451.357ZM150.805 452.93C150.537 452.93 150.324 452.96 150.168 453.021C150.012 453.073 149.895 453.19 149.817 453.372C149.748 453.545 149.705 453.81 149.687 454.165H151C151.295 454.165 151.481 454.122 151.559 454.035C151.646 453.948 151.689 453.792 151.689 453.567C151.689 453.316 151.62 453.147 151.481 453.06C151.343 452.973 151.117 452.93 150.805 452.93ZM156.826 451.539L157.034 452.501C157.459 452.12 157.888 451.834 158.321 451.643C158.763 451.452 159.192 451.357 159.608 451.357H159.972L159.764 453.528H159.14C158.897 453.528 158.637 453.55 158.36 453.593C158.091 453.636 157.753 453.706 157.346 453.801V458H154.98V451.539H156.826ZM163.892 451.357C165.054 451.357 165.881 451.548 166.375 451.929C166.869 452.31 167.116 452.874 167.116 453.619C167.125 454.217 166.96 454.655 166.622 454.932C166.284 455.209 165.686 455.348 164.828 455.348H162.891C162.952 455.721 163.078 455.976 163.268 456.115C163.468 456.254 163.775 456.323 164.191 456.323C164.469 456.323 164.833 456.314 165.283 456.297C165.743 456.271 166.224 456.232 166.726 456.18L166.947 457.61C166.523 457.818 166.046 457.961 165.517 458.039C164.997 458.117 164.469 458.156 163.931 458.156C162.631 458.156 161.713 457.883 161.175 457.337C160.647 456.782 160.382 455.937 160.382 454.802C160.382 453.953 160.495 453.277 160.72 452.774C160.954 452.271 161.327 451.912 161.838 451.695C162.358 451.47 163.043 451.357 163.892 451.357ZM163.97 452.93C163.702 452.93 163.489 452.96 163.333 453.021C163.177 453.073 163.06 453.19 162.982 453.372C162.913 453.545 162.87 453.81 162.852 454.165H164.165C164.46 454.165 164.646 454.122 164.724 454.035C164.811 453.948 164.854 453.792 164.854 453.567C164.854 453.316 164.785 453.147 164.646 453.06C164.508 452.973 164.282 452.93 163.97 452.93ZM170.017 451.539L170.225 452.501C170.658 452.12 171.109 451.834 171.577 451.643C172.045 451.452 172.5 451.357 172.942 451.357C174.19 451.357 174.814 451.959 174.814 453.164V458H172.448V453.905C172.448 453.697 172.405 453.554 172.318 453.476C172.231 453.398 172.088 453.359 171.889 453.359C171.69 453.359 171.486 453.385 171.278 453.437C171.07 453.48 170.814 453.563 170.511 453.684V458H168.145V451.539H170.017ZM177.834 448.627C178.293 448.627 178.523 448.861 178.523 449.329V450.005C178.523 450.473 178.293 450.707 177.834 450.707H176.82C176.361 450.707 176.131 450.473 176.131 450.005V449.329C176.131 448.861 176.361 448.627 176.82 448.627H177.834ZM178.51 451.539V458H176.157V451.539H178.51ZM183.151 451.357C184.312 451.357 185.14 451.548 185.634 451.929C186.128 452.31 186.375 452.874 186.375 453.619C186.384 454.217 186.219 454.655 185.881 454.932C185.543 455.209 184.945 455.348 184.087 455.348H182.15C182.211 455.721 182.336 455.976 182.527 456.115C182.726 456.254 183.034 456.323 183.45 456.323C183.727 456.323 184.091 456.314 184.542 456.297C185.001 456.271 185.482 456.232 185.985 456.18L186.206 457.61C185.781 457.818 185.305 457.961 184.776 458.039C184.256 458.117 183.727 458.156 183.19 458.156C181.89 458.156 180.971 457.883 180.434 457.337C179.905 456.782 179.641 455.937 179.641 454.802C179.641 453.953 179.754 453.277 179.979 452.774C180.213 452.271 180.586 451.912 181.097 451.695C181.617 451.47 182.302 451.357 183.151 451.357ZM183.229 452.93C182.96 452.93 182.748 452.96 182.592 453.021C182.436 453.073 182.319 453.19 182.241 453.372C182.172 453.545 182.128 453.81 182.111 454.165H183.424C183.719 454.165 183.905 454.122 183.983 454.035C184.07 453.948 184.113 453.792 184.113 453.567C184.113 453.316 184.044 453.147 183.905 453.06C183.766 452.973 183.541 452.93 183.229 452.93ZM130.981 467.539V469.008H129.304V471.777C129.304 471.976 129.352 472.119 129.447 472.206C129.542 472.284 129.703 472.323 129.928 472.323H130.682L130.942 473.87C130.769 473.939 130.556 473.996 130.305 474.039C130.062 474.082 129.815 474.113 129.564 474.13C129.313 474.156 129.096 474.169 128.914 474.169C128.307 474.169 127.826 474.013 127.471 473.701C127.124 473.38 126.951 472.938 126.951 472.375L126.938 469.008H125.833V467.604L126.938 467.552V465.797H129.304V467.539H130.981ZM135.086 467.357C135.936 467.357 136.612 467.47 137.114 467.695C137.626 467.912 137.994 468.271 138.219 468.774C138.453 469.277 138.57 469.944 138.57 470.776C138.57 471.608 138.453 472.271 138.219 472.765C137.994 473.259 137.626 473.614 137.114 473.831C136.612 474.048 135.936 474.156 135.086 474.156C134.237 474.156 133.557 474.048 133.045 473.831C132.534 473.614 132.166 473.259 131.94 472.765C131.715 472.271 131.602 471.608 131.602 470.776C131.602 469.944 131.715 469.277 131.94 468.774C132.166 468.271 132.534 467.912 133.045 467.695C133.557 467.47 134.237 467.357 135.086 467.357ZM135.086 469.008C134.818 469.008 134.61 469.056 134.462 469.151C134.315 469.238 134.211 469.411 134.15 469.671C134.098 469.922 134.072 470.291 134.072 470.776C134.072 471.253 134.098 471.617 134.15 471.868C134.211 472.119 134.315 472.293 134.462 472.388C134.61 472.475 134.818 472.518 135.086 472.518C135.355 472.518 135.559 472.475 135.697 472.388C135.845 472.293 135.949 472.119 136.009 471.868C136.07 471.617 136.1 471.253 136.1 470.776C136.1 470.291 136.07 469.922 136.009 469.671C135.949 469.411 135.845 469.238 135.697 469.151C135.559 469.056 135.355 469.008 135.086 469.008ZM144.273 467.539V469.008H142.596V471.777C142.596 471.976 142.644 472.119 142.739 472.206C142.834 472.284 142.995 472.323 143.22 472.323H143.974L144.234 473.87C144.061 473.939 143.848 473.996 143.597 474.039C143.354 474.082 143.107 474.113 142.856 474.13C142.605 474.156 142.388 474.169 142.206 474.169C141.599 474.169 141.118 474.013 140.763 473.701C140.416 473.38 140.243 472.938 140.243 472.375L140.23 469.008H139.125V467.604L140.23 467.552V465.797H142.596V467.539H144.273ZM148.378 467.357C149.228 467.357 149.904 467.47 150.406 467.695C150.918 467.912 151.286 468.271 151.511 468.774C151.745 469.277 151.862 469.944 151.862 470.776C151.862 471.608 151.745 472.271 151.511 472.765C151.286 473.259 150.918 473.614 150.406 473.831C149.904 474.048 149.228 474.156 148.378 474.156C147.529 474.156 146.849 474.048 146.337 473.831C145.826 473.614 145.458 473.259 145.232 472.765C145.007 472.271 144.894 471.608 144.894 470.776C144.894 469.944 145.007 469.277 145.232 468.774C145.458 468.271 145.826 467.912 146.337 467.695C146.849 467.47 147.529 467.357 148.378 467.357ZM148.378 469.008C148.11 469.008 147.902 469.056 147.754 469.151C147.607 469.238 147.503 469.411 147.442 469.671C147.39 469.922 147.364 470.291 147.364 470.776C147.364 471.253 147.39 471.617 147.442 471.868C147.503 472.119 147.607 472.293 147.754 472.388C147.902 472.475 148.11 472.518 148.378 472.518C148.647 472.518 148.851 472.475 148.989 472.388C149.137 472.293 149.241 472.119 149.301 471.868C149.362 471.617 149.392 471.253 149.392 470.776C149.392 470.291 149.362 469.922 149.301 469.671C149.241 469.411 149.137 469.238 148.989 469.151C148.851 469.056 148.647 469.008 148.378 469.008ZM158.773 472.44V474H152.715V472.44L155.965 469.099H152.78V467.539H158.708V469.099L155.458 472.44H158.773ZM157.824 464.146L158.396 465.03L156.342 466.72H155.393L153.326 465.03L153.911 464.146L155.809 465.16H155.913L157.824 464.146ZM161.752 467.539L161.96 468.501C162.394 468.12 162.844 467.834 163.312 467.643C163.78 467.452 164.235 467.357 164.677 467.357C165.925 467.357 166.549 467.959 166.549 469.164V474H164.183V469.905C164.183 469.697 164.14 469.554 164.053 469.476C163.967 469.398 163.824 469.359 163.624 469.359C163.425 469.359 163.221 469.385 163.013 469.437C162.805 469.48 162.55 469.563 162.246 469.684V474H159.88V467.539H161.752ZM171.09 467.357C171.94 467.357 172.616 467.47 173.118 467.695C173.63 467.912 173.998 468.271 174.223 468.774C174.457 469.277 174.574 469.944 174.574 470.776C174.574 471.608 174.457 472.271 174.223 472.765C173.998 473.259 173.63 473.614 173.118 473.831C172.616 474.048 171.94 474.156 171.09 474.156C170.241 474.156 169.561 474.048 169.049 473.831C168.538 473.614 168.17 473.259 167.944 472.765C167.719 472.271 167.606 471.608 167.606 470.776C167.606 469.944 167.719 469.277 167.944 468.774C168.17 468.271 168.538 467.912 169.049 467.695C169.561 467.47 170.241 467.357 171.09 467.357ZM171.09 469.008C170.822 469.008 170.614 469.056 170.466 469.151C170.319 469.238 170.215 469.411 170.154 469.671C170.102 469.922 170.076 470.291 170.076 470.776C170.076 471.253 170.102 471.617 170.154 471.868C170.215 472.119 170.319 472.293 170.466 472.388C170.614 472.475 170.822 472.518 171.09 472.518C171.359 472.518 171.563 472.475 171.701 472.388C171.849 472.293 171.953 472.119 172.013 471.868C172.074 471.617 172.104 471.253 172.104 470.776C172.104 470.291 172.074 469.922 172.013 469.671C171.953 469.411 171.849 469.238 171.701 469.151C171.563 469.056 171.359 469.008 171.09 469.008ZM178.261 467.357C178.599 467.366 178.959 467.383 179.34 467.409C179.73 467.426 180.111 467.457 180.484 467.5C180.857 467.535 181.177 467.578 181.446 467.63L181.29 469.034C180.865 469.034 180.436 469.034 180.003 469.034C179.578 469.025 179.167 469.021 178.768 469.021C178.3 469.021 177.997 469.034 177.858 469.06C177.728 469.086 177.663 469.173 177.663 469.32C177.663 469.45 177.719 469.537 177.832 469.58C177.945 469.623 178.153 469.688 178.456 469.775L180.042 470.165C180.597 470.312 181.008 470.529 181.277 470.815C181.554 471.092 181.693 471.513 181.693 472.076C181.693 472.613 181.589 473.034 181.381 473.337C181.173 473.64 180.844 473.853 180.393 473.974C179.951 474.087 179.37 474.143 178.651 474.143C178.356 474.143 177.919 474.13 177.338 474.104C176.766 474.078 176.146 474.009 175.479 473.896L175.622 472.479C175.821 472.488 176.138 472.492 176.571 472.492C177.013 472.492 177.459 472.492 177.91 472.492C178.335 472.492 178.655 472.488 178.872 472.479C179.089 472.462 179.232 472.427 179.301 472.375C179.379 472.323 179.418 472.245 179.418 472.141C179.418 472.011 179.353 471.924 179.223 471.881C179.093 471.829 178.863 471.76 178.534 471.673L177.013 471.27C176.571 471.149 176.229 470.993 175.986 470.802C175.752 470.611 175.592 470.386 175.505 470.126C175.418 469.866 175.375 469.567 175.375 469.229C175.375 468.605 175.587 468.137 176.012 467.825C176.437 467.513 177.186 467.357 178.261 467.357ZM187.373 467.539V469.008H185.696V471.777C185.696 471.976 185.744 472.119 185.839 472.206C185.935 472.284 186.095 472.323 186.32 472.323H187.074L187.334 473.87C187.161 473.939 186.949 473.996 186.697 474.039C186.455 474.082 186.208 474.113 185.956 474.13C185.705 474.156 185.488 474.169 185.306 474.169C184.7 474.169 184.219 474.013 183.863 473.701C183.517 473.38 183.343 472.938 183.343 472.375L183.33 469.008H182.225V467.604L183.33 467.552V465.797H185.696V467.539H187.373ZM189.958 464.627C190.417 464.627 190.647 464.861 190.647 465.329V466.005C190.647 466.473 190.417 466.707 189.958 466.707H188.944C188.485 466.707 188.255 466.473 188.255 466.005V465.329C188.255 464.861 188.485 464.627 188.944 464.627H189.958ZM190.634 467.539V474H188.281V467.539H190.634Z" fill="#265375"/>
<path d="M158 416C155.723 416 153.875 417.846 153.875 420.125C153.875 421.919 155.027 423.429 156.625 423.998V428.375C156.625 429.135 157.24 429.75 158 429.75C158.76 429.75 159.375 429.135 159.375 428.375V423.998C160.973 423.43 162.125 421.919 162.125 420.125C162.125 417.846 160.277 416 158 416Z" fill="#BED558"/>
<path d="M173.125 407.75H170.375V405C170.375 398.925 165.45 394 159.375 394H156.625C150.55 394 145.625 398.925 145.625 405V407.75H142.875C139.838 407.75 137.375 410.213 137.375 413.25V432.5C137.375 435.539 139.838 438 142.875 438H173.125C176.162 438 178.625 435.539 178.625 432.5V413.25C178.625 410.213 176.162 407.75 173.125 407.75ZM148.375 405C148.375 400.451 152.076 396.75 156.625 396.75H159.375C163.924 396.75 167.625 400.451 167.625 405V407.75H164.875V405C164.875 401.967 162.407 399.5 159.375 399.5H156.625C153.593 399.5 151.125 401.967 151.125 405V407.75H148.375V405ZM162.125 407.75H153.875V405C153.875 403.481 155.105 402.25 156.625 402.25H159.375C160.895 402.25 162.125 403.481 162.125 405V407.75ZM175.875 432.5C175.875 434.016 174.642 435.25 173.125 435.25H142.875C141.358 435.25 140.125 434.016 140.125 432.5V413.25C140.125 411.734 141.358 410.5 142.875 410.5H173.125C174.642 410.5 175.875 411.734 175.875 413.25V432.5Z" fill="#265375"/>
<circle cx="67.2" cy="218.2" r="67.2" fill="#8DBDE2"/>
<circle cx="67.2001" cy="218.2" r="59.64" fill="white"/>
<path d="M52.1542 244.79V252.902C52.1542 253.474 51.8725 253.76 51.3092 253.76H50.2172C49.9572 253.76 49.7622 253.699 49.6322 253.578C49.5108 253.457 49.3852 253.279 49.2552 253.045L47.0582 249.223C46.9455 249.015 46.8372 248.785 46.7332 248.534C46.6378 248.274 46.5555 248.018 46.4862 247.767H46.3692C46.4038 248.018 46.4298 248.278 46.4472 248.547C46.4732 248.807 46.4862 249.058 46.4862 249.301V253.76H44.2112V245.648C44.2112 245.076 44.4972 244.79 45.0692 244.79H46.1482C46.3995 244.79 46.5858 244.851 46.7072 244.972C46.8372 245.093 46.9715 245.271 47.1102 245.505L49.2162 249.184C49.3375 249.392 49.4545 249.626 49.5672 249.886C49.6798 250.137 49.7882 250.397 49.8922 250.666H50.0092C49.9832 250.397 49.9615 250.137 49.9442 249.886C49.9268 249.626 49.9182 249.362 49.9182 249.093L49.9052 244.79H52.1542ZM55.7222 244.751C56.1989 244.751 56.6929 244.755 57.2042 244.764C57.7242 244.764 58.2269 244.777 58.7122 244.803C59.1976 244.82 59.6439 244.855 60.0512 244.907L59.9342 246.636H56.7492C56.3332 246.636 56.1252 246.822 56.1252 247.195V248.482H59.4532V250.133H56.1252V253.76H53.6812V246.688C53.6812 246.107 53.8676 245.639 54.2402 245.284C54.6216 244.929 55.1156 244.751 55.7222 244.751ZM64.7111 244.634C65.1618 244.634 65.5431 244.647 65.8551 244.673C66.1758 244.69 66.4661 244.725 66.7261 244.777C66.9861 244.82 67.2591 244.881 67.5451 244.959L67.3631 246.753C67.0685 246.744 66.7955 246.736 66.5441 246.727C66.2928 246.718 66.0241 246.714 65.7381 246.714C65.4521 246.705 65.1098 246.701 64.7111 246.701C64.3471 246.701 64.0655 246.775 63.8661 246.922C63.6668 247.069 63.5281 247.329 63.4501 247.702C63.3721 248.075 63.3331 248.599 63.3331 249.275C63.3331 249.951 63.3721 250.475 63.4501 250.848C63.5281 251.221 63.6668 251.481 63.8661 251.628C64.0655 251.775 64.3471 251.849 64.7111 251.849C65.3438 251.849 65.8681 251.845 66.2841 251.836C66.7088 251.819 67.1335 251.784 67.5581 251.732L67.7401 253.513C67.3068 253.66 66.8605 253.764 66.4011 253.825C65.9505 253.886 65.3871 253.916 64.7111 253.916C63.7491 253.916 62.9778 253.769 62.3971 253.474C61.8251 253.171 61.4091 252.681 61.1491 252.005C60.8978 251.329 60.7721 250.419 60.7721 249.275C60.7721 248.131 60.8978 247.221 61.1491 246.545C61.4091 245.869 61.8251 245.384 62.3971 245.089C62.9778 244.786 63.7491 244.634 64.7111 244.634ZM75.9037 247.299V248.768H74.2267V251.537C74.2267 251.736 74.2744 251.879 74.3697 251.966C74.4651 252.044 74.6254 252.083 74.8507 252.083H75.6047L75.8647 253.63C75.6914 253.699 75.4791 253.756 75.2277 253.799C74.9851 253.842 74.7381 253.873 74.4867 253.89C74.2354 253.916 74.0187 253.929 73.8367 253.929C73.2301 253.929 72.7491 253.773 72.3937 253.461C72.0471 253.14 71.8737 252.698 71.8737 252.135L71.8607 248.768H70.7557V247.364L71.8607 247.312V245.557H74.2267V247.299H75.9037ZM80.3472 247.117C80.9279 247.117 81.4175 247.195 81.8162 247.351C82.2235 247.507 82.5312 247.767 82.7392 248.131C82.9472 248.495 83.0512 248.998 83.0512 249.639V253.76H81.1662L80.9452 252.798C80.7112 253.075 80.4035 253.335 80.0222 253.578C79.6495 253.812 79.1815 253.929 78.6182 253.929C78.2195 253.929 77.8555 253.86 77.5262 253.721C77.2055 253.582 76.9455 253.379 76.7462 253.11C76.5555 252.841 76.4602 252.503 76.4602 252.096V251.446C76.4602 250.926 76.6422 250.523 77.0062 250.237C77.3702 249.942 77.8729 249.795 78.5142 249.795H80.6852V249.626C80.6765 249.357 80.6072 249.167 80.4772 249.054C80.3559 248.933 80.1305 248.872 79.8012 248.872C79.4632 248.872 79.0472 248.881 78.5532 248.898C78.0592 248.907 77.5435 248.928 77.0062 248.963L76.7982 247.442C77.1189 247.381 77.4915 247.329 77.9162 247.286C78.3495 247.234 78.7829 247.195 79.2162 247.169C79.6495 247.134 80.0265 247.117 80.3472 247.117ZM78.7612 251.758C78.7612 252.105 78.9779 252.278 79.4112 252.278C79.6019 252.287 79.8055 252.252 80.0222 252.174C80.2475 252.087 80.4685 251.975 80.6852 251.836V250.991H79.3332C79.1339 251 78.9865 251.052 78.8912 251.147C78.8045 251.234 78.7612 251.355 78.7612 251.511V251.758ZM87.3419 247.117C88.0786 247.117 88.6722 247.178 89.1229 247.299H91.2679L91.1509 248.209L90.4099 248.326C90.4879 248.56 90.5269 248.842 90.5269 249.171C90.5269 249.665 90.4229 250.064 90.2149 250.367C90.0156 250.662 89.6819 250.878 89.2139 251.017C88.7459 251.147 88.1176 251.212 87.3289 251.212C86.9389 251.212 86.5879 251.195 86.2759 251.16C86.1979 251.281 86.1806 251.424 86.2239 251.589C86.2672 251.745 86.4146 251.832 86.6659 251.849L89.0319 252.057C89.7426 252.118 90.2496 252.308 90.5529 252.629C90.8562 252.95 91.0079 253.422 91.0079 254.046C91.0079 254.627 90.8866 255.069 90.6439 255.372C90.4012 255.684 90.0156 255.896 89.4869 256.009C88.9582 256.122 88.2692 256.178 87.4199 256.178C86.4492 256.178 85.7039 256.117 85.1839 255.996C84.6726 255.875 84.3216 255.675 84.1309 255.398C83.9402 255.129 83.8449 254.765 83.8449 254.306C83.8449 253.994 83.9142 253.725 84.0529 253.5C84.2002 253.275 84.4689 253.08 84.8589 252.915C84.6596 252.716 84.5426 252.482 84.5079 252.213C84.4819 251.944 84.5252 251.689 84.6379 251.446C84.7506 251.203 84.9239 251.026 85.1579 250.913C84.7852 250.757 84.5166 250.536 84.3519 250.25C84.1959 249.964 84.1179 249.604 84.1179 249.171C84.1179 248.677 84.2219 248.283 84.4299 247.988C84.6466 247.685 84.9889 247.464 85.4569 247.325C85.9249 247.186 86.5532 247.117 87.3419 247.117ZM87.3289 248.469C86.9389 248.469 86.6702 248.517 86.5229 248.612C86.3842 248.707 86.3149 248.894 86.3149 249.171C86.3149 249.44 86.3842 249.626 86.5229 249.73C86.6702 249.825 86.9389 249.873 87.3289 249.873C87.7189 249.873 87.9832 249.825 88.1219 249.73C88.2692 249.626 88.3429 249.44 88.3429 249.171C88.3429 248.894 88.2692 248.707 88.1219 248.612C87.9832 248.517 87.7189 248.469 87.3289 248.469ZM86.0549 253.968C86.0549 254.202 86.1459 254.354 86.3279 254.423C86.5099 254.501 86.8609 254.54 87.3809 254.54C87.9442 254.54 88.3212 254.505 88.5119 254.436C88.7026 254.367 88.7979 254.228 88.7979 254.02C88.7979 253.821 88.7156 253.695 88.5509 253.643C88.3949 253.582 88.1306 253.535 87.7579 253.5L86.3929 253.383C86.2716 253.47 86.1849 253.556 86.1329 253.643C86.0809 253.721 86.0549 253.829 86.0549 253.968Z" fill="#265375"/>
<g clip-path="url(#clip0_47:21)">
<path d="M85.2598 188.358H49.9798C47.5433 188.358 45.5698 190.331 45.5698 192.768V228.048C45.5698 230.484 47.5433 232.458 49.9798 232.458H85.2598C87.6963 232.458 89.6698 230.484 89.6698 228.048V192.768C89.6698 190.331 87.6963 188.358 85.2598 188.358ZM85.2598 228.048H49.9798V192.768H85.2598V228.048ZM80.8498 197.178H69.8248C67.3883 197.178 65.4148 199.151 65.4148 201.588V206.604C64.1028 207.365 63.2098 208.776 63.2098 210.408C63.2098 212.844 65.1833 214.818 67.6198 214.818C70.0563 214.818 72.0298 212.844 72.0298 210.408C72.0298 208.776 71.1368 207.376 69.8248 206.604V201.588H76.4398V219.228H58.7998V201.588H63.2098V197.178H54.3898V223.638H80.8498V197.178Z" fill="#265375"/>
<circle cx="67.5" cy="210.5" r="4.5" fill="#BED558"/>
</g>
<circle cx="260.2" cy="67.2" r="67.2" fill="#8DBDE2"/>
<circle cx="260.2" cy="67.1999" r="59.64" fill="white"/>
<path d="M229.621 88.03V91.358H232.312V88.03H234.756V97H232.312V93.113H229.621V97H227.19V88.03H229.621ZM238.58 87.9V94.777C238.58 95.141 238.809 95.323 239.269 95.323H239.75L240.01 96.87C239.897 96.9393 239.732 96.9957 239.516 97.039C239.299 97.0823 239.074 97.1127 238.84 97.13C238.614 97.156 238.428 97.169 238.281 97.169C237.639 97.169 237.137 97.013 236.773 96.701C236.409 96.389 236.227 95.9513 236.227 95.388V87.9H238.58ZM244.271 90.357C244.851 90.357 245.341 90.435 245.74 90.591C246.147 90.747 246.455 91.007 246.663 91.371C246.871 91.735 246.975 92.2377 246.975 92.879V97H245.09L244.869 96.038C244.635 96.3153 244.327 96.5753 243.946 96.818C243.573 97.052 243.105 97.169 242.542 97.169C242.143 97.169 241.779 97.0997 241.45 96.961C241.129 96.8223 240.869 96.6187 240.67 96.35C240.479 96.0813 240.384 95.7433 240.384 95.336V94.686C240.384 94.166 240.566 93.763 240.93 93.477C241.294 93.1823 241.796 93.035 242.438 93.035H244.609V92.866C244.6 92.5973 244.531 92.4067 244.401 92.294C244.279 92.1727 244.054 92.112 243.725 92.112C243.387 92.112 242.971 92.1207 242.477 92.138C241.983 92.1467 241.467 92.1683 240.93 92.203L240.722 90.682C241.042 90.6213 241.415 90.5693 241.84 90.526C242.273 90.474 242.706 90.435 243.14 90.409C243.573 90.3743 243.95 90.357 244.271 90.357ZM242.685 94.998C242.685 95.3447 242.901 95.518 243.335 95.518C243.525 95.5267 243.729 95.492 243.946 95.414C244.171 95.3273 244.392 95.2147 244.609 95.076V94.231H243.257C243.057 94.2397 242.91 94.2917 242.815 94.387C242.728 94.4737 242.685 94.595 242.685 94.751V94.998ZM250.849 90.357C251.187 90.3657 251.547 90.383 251.928 90.409C252.318 90.4263 252.7 90.4567 253.072 90.5C253.445 90.5347 253.766 90.578 254.034 90.63L253.878 92.034C253.454 92.034 253.025 92.034 252.591 92.034C252.167 92.0253 251.755 92.021 251.356 92.021C250.888 92.021 250.585 92.034 250.446 92.06C250.316 92.086 250.251 92.1727 250.251 92.32C250.251 92.45 250.308 92.5367 250.42 92.58C250.533 92.6233 250.741 92.6883 251.044 92.775L252.63 93.165C253.185 93.3123 253.597 93.529 253.865 93.815C254.143 94.0923 254.281 94.5127 254.281 95.076C254.281 95.6133 254.177 96.0337 253.969 96.337C253.761 96.6403 253.432 96.8527 252.981 96.974C252.539 97.0867 251.959 97.143 251.239 97.143C250.945 97.143 250.507 97.13 249.926 97.104C249.354 97.078 248.735 97.0087 248.067 96.896L248.21 95.479C248.41 95.4877 248.726 95.492 249.159 95.492C249.601 95.492 250.048 95.492 250.498 95.492C250.923 95.492 251.244 95.4877 251.46 95.479C251.677 95.4617 251.82 95.427 251.889 95.375C251.967 95.323 252.006 95.245 252.006 95.141C252.006 95.011 251.941 94.9243 251.811 94.881C251.681 94.829 251.452 94.7597 251.122 94.673L249.601 94.27C249.159 94.1487 248.817 93.9927 248.574 93.802C248.34 93.6113 248.18 93.386 248.093 93.126C248.007 92.866 247.963 92.567 247.963 92.229C247.963 91.605 248.176 91.137 248.6 90.825C249.025 90.513 249.775 90.357 250.849 90.357ZM258.545 90.357C259.394 90.357 260.07 90.4697 260.573 90.695C261.084 90.9117 261.453 91.2713 261.678 91.774C261.912 92.2767 262.029 92.944 262.029 93.776C262.029 94.608 261.912 95.271 261.678 95.765C261.453 96.259 261.084 96.6143 260.573 96.831C260.07 97.0477 259.394 97.156 258.545 97.156C257.696 97.156 257.015 97.0477 256.504 96.831C255.993 96.6143 255.624 96.259 255.399 95.765C255.174 95.271 255.061 94.608 255.061 93.776C255.061 92.944 255.174 92.2767 255.399 91.774C255.624 91.2713 255.993 90.9117 256.504 90.695C257.015 90.4697 257.696 90.357 258.545 90.357ZM258.545 92.008C258.276 92.008 258.068 92.0557 257.921 92.151C257.774 92.2377 257.67 92.411 257.609 92.671C257.557 92.9223 257.531 93.2907 257.531 93.776C257.531 94.2527 257.557 94.6167 257.609 94.868C257.67 95.1193 257.774 95.2927 257.921 95.388C258.068 95.4747 258.276 95.518 258.545 95.518C258.814 95.518 259.017 95.4747 259.156 95.388C259.303 95.2927 259.407 95.1193 259.468 94.868C259.529 94.6167 259.559 94.2527 259.559 93.776C259.559 93.2907 259.529 92.9223 259.468 92.671C259.407 92.411 259.303 92.2377 259.156 92.151C259.017 92.0557 258.814 92.008 258.545 92.008ZM269.879 90.539L267.864 96.441C267.812 96.6143 267.716 96.753 267.578 96.857C267.448 96.9523 267.292 97 267.11 97H265.082C264.9 97 264.744 96.9523 264.614 96.857C264.484 96.753 264.393 96.6143 264.341 96.441L262.326 90.539H264.822L265.784 94.322C265.836 94.5127 265.879 94.712 265.914 94.92C265.948 95.1193 265.983 95.3187 266.018 95.518H266.187C266.221 95.3187 266.26 95.1193 266.304 94.92C266.347 94.712 266.386 94.5127 266.421 94.322L267.383 90.539H269.879ZM274.041 90.357C274.622 90.357 275.111 90.435 275.51 90.591C275.917 90.747 276.225 91.007 276.433 91.371C276.641 91.735 276.745 92.2377 276.745 92.879V97H274.86L274.639 96.038C274.405 96.3153 274.097 96.5753 273.716 96.818C273.343 97.052 272.875 97.169 272.312 97.169C271.913 97.169 271.549 97.0997 271.22 96.961C270.899 96.8223 270.639 96.6187 270.44 96.35C270.249 96.0813 270.154 95.7433 270.154 95.336V94.686C270.154 94.166 270.336 93.763 270.7 93.477C271.064 93.1823 271.567 93.035 272.208 93.035H274.379V92.866C274.37 92.5973 274.301 92.4067 274.171 92.294C274.05 92.1727 273.824 92.112 273.495 92.112C273.157 92.112 272.741 92.1207 272.247 92.138C271.753 92.1467 271.237 92.1683 270.7 92.203L270.492 90.682C270.813 90.6213 271.185 90.5693 271.61 90.526C272.043 90.474 272.477 90.435 272.91 90.409C273.343 90.3743 273.72 90.357 274.041 90.357ZM272.455 94.998C272.455 95.3447 272.672 95.518 273.105 95.518C273.296 95.5267 273.499 95.492 273.716 95.414C273.941 95.3273 274.162 95.2147 274.379 95.076V94.231H273.027C272.828 94.2397 272.68 94.2917 272.585 94.387C272.498 94.4737 272.455 94.595 272.455 94.751V94.998ZM279.879 90.539L280.087 91.501C280.52 91.1197 280.971 90.8337 281.439 90.643C281.907 90.4523 282.362 90.357 282.804 90.357C284.052 90.357 284.676 90.9593 284.676 92.164V97H282.31V92.905C282.31 92.697 282.266 92.554 282.18 92.476C282.093 92.398 281.95 92.359 281.751 92.359C281.551 92.359 281.348 92.385 281.14 92.437C280.932 92.4803 280.676 92.5627 280.373 92.684V97H278.007V90.539H279.879ZM287.696 87.627C288.155 87.627 288.385 87.861 288.385 88.329V89.005C288.385 89.473 288.155 89.707 287.696 89.707H286.682C286.222 89.707 285.993 89.473 285.993 89.005V88.329C285.993 87.861 286.222 87.627 286.682 87.627H287.696ZM288.372 90.539V97H286.019V90.539H288.372ZM293.013 90.357C294.174 90.357 295.002 90.5477 295.496 90.929C295.99 91.3103 296.237 91.8737 296.237 92.619C296.246 93.217 296.081 93.6547 295.743 93.932C295.405 94.2093 294.807 94.348 293.949 94.348H292.012C292.073 94.7207 292.198 94.9763 292.389 95.115C292.588 95.2537 292.896 95.323 293.312 95.323C293.589 95.323 293.953 95.3143 294.404 95.297C294.863 95.271 295.344 95.232 295.847 95.18L296.068 96.61C295.643 96.818 295.167 96.961 294.638 97.039C294.118 97.117 293.589 97.156 293.052 97.156C291.752 97.156 290.833 96.883 290.296 96.337C289.767 95.7823 289.503 94.9373 289.503 93.802C289.503 92.9527 289.616 92.2767 289.841 91.774C290.075 91.2713 290.448 90.9117 290.959 90.695C291.479 90.4697 292.164 90.357 293.013 90.357ZM293.091 91.93C292.822 91.93 292.61 91.9603 292.454 92.021C292.298 92.073 292.181 92.19 292.103 92.372C292.034 92.5453 291.99 92.8097 291.973 93.165H293.286C293.581 93.165 293.767 93.1217 293.845 93.035C293.932 92.9483 293.975 92.7923 293.975 92.567C293.975 92.3157 293.906 92.1467 293.767 92.06C293.628 91.9733 293.403 91.93 293.091 91.93Z" fill="#265375"/>
<path d="M279 38H241C238.243 38 236 40.243 236 43V69C236 71.757 238.243 74 241 74H279C281.757 74 284 71.757 284 69V43C284 40.243 281.757 38 279 38ZM274 40V72H246V40H274ZM238 69V43C238 41.346 239.346 40 241 40H244V72H241C239.346 72 238 70.654 238 69ZM282 69C282 70.654 280.654 72 279 72H276V40H279C280.654 40 282 41.346 282 43V69Z" fill="#265375"/>
<path d="M280 55H278V57H280V55Z" fill="#BED558"/>
<path d="M255.292 49.2933L249.292 55.2931L250.707 56.7073L256.706 50.7075L255.292 49.2933Z" fill="#265375"/>
<path d="M259.292 45.2932L257.293 47.2928L258.707 48.707L260.707 46.7074L259.292 45.2932Z" fill="#265375"/>
<path d="M269.292 55.2933L263.292 61.2931L264.706 62.7073L270.706 56.7075L269.292 55.2933Z" fill="#265375"/>
<path d="M261.292 63.2929L259.293 65.2926L260.707 66.7068L262.706 64.7071L261.292 63.2929Z" fill="#265375"/>
<path d="M267.292 47.2934L251.292 63.293L252.707 64.7072L268.706 48.7076L267.292 47.2934Z" fill="#BED558"/>
<circle cx="451.2" cy="221.2" r="67.2" fill="#8DBDE2"/>
<circle cx="451.2" cy="221.2" r="59.64" fill="white"/>
<path d="M430.962 241.72L428.838 249.388C428.79 249.572 428.694 249.72 428.55 249.832C428.414 249.944 428.25 250 428.058 250H426.054C425.854 250 425.682 249.944 425.538 249.832C425.402 249.72 425.314 249.572 425.274 249.388L423.138 241.72H425.454L426.726 247.372C426.758 247.524 426.786 247.684 426.81 247.852C426.842 248.012 426.874 248.164 426.906 248.308H427.194C427.218 248.164 427.246 248.012 427.278 247.852C427.31 247.684 427.342 247.524 427.374 247.372L428.646 241.72H430.962ZM436.029 243.868C437.181 243.868 437.757 244.424 437.757 245.536V250H435.573V246.22C435.573 246.028 435.533 245.896 435.453 245.824C435.373 245.752 435.241 245.716 435.057 245.716C434.873 245.716 434.685 245.74 434.493 245.788C434.301 245.828 434.065 245.904 433.785 246.016V250H431.601V241.6H433.785L433.797 243.508C433.797 243.74 433.785 243.968 433.761 244.192C433.737 244.416 433.709 244.62 433.677 244.804C434.061 244.492 434.453 244.26 434.853 244.108C435.253 243.948 435.645 243.868 436.029 243.868ZM441.949 243.868C442.733 243.868 443.357 243.972 443.821 244.18C444.293 244.38 444.633 244.712 444.841 245.176C445.057 245.64 445.165 246.256 445.165 247.024C445.165 247.792 445.057 248.404 444.841 248.86C444.633 249.316 444.293 249.644 443.821 249.844C443.357 250.044 442.733 250.144 441.949 250.144C441.165 250.144 440.537 250.044 440.065 249.844C439.593 249.644 439.253 249.316 439.045 248.86C438.837 248.404 438.733 247.792 438.733 247.024C438.733 246.256 438.837 245.64 439.045 245.176C439.253 244.712 439.593 244.38 440.065 244.18C440.537 243.972 441.165 243.868 441.949 243.868ZM441.949 245.392C441.701 245.392 441.509 245.436 441.373 245.524C441.237 245.604 441.141 245.764 441.085 246.004C441.037 246.236 441.013 246.576 441.013 247.024C441.013 247.464 441.037 247.8 441.085 248.032C441.141 248.264 441.237 248.424 441.373 248.512C441.509 248.592 441.701 248.632 441.949 248.632C442.197 248.632 442.385 248.592 442.513 248.512C442.649 248.424 442.745 248.264 442.801 248.032C442.857 247.8 442.885 247.464 442.885 247.024C442.885 246.576 442.857 246.236 442.801 246.004C442.745 245.764 442.649 245.604 442.513 245.524C442.385 245.436 442.197 245.392 441.949 245.392ZM448.22 243.868C448.572 243.868 448.908 243.912 449.228 244C449.556 244.08 449.848 244.212 450.104 244.396C450.096 244.188 450.088 243.976 450.08 243.76C450.072 243.544 450.068 243.328 450.068 243.112V241.6H452.24V250H450.512L450.332 249.04C450.124 249.36 449.84 249.624 449.48 249.832C449.12 250.04 448.66 250.144 448.1 250.144C447.324 250.144 446.772 249.868 446.444 249.316C446.116 248.764 445.952 247.976 445.952 246.952C445.952 246.152 446.036 245.528 446.204 245.08C446.38 244.632 446.636 244.32 446.972 244.144C447.308 243.96 447.724 243.868 448.22 243.868ZM448.196 246.94C448.196 247.356 448.224 247.668 448.28 247.876C448.336 248.076 448.424 248.212 448.544 248.284C448.664 248.348 448.82 248.38 449.012 248.38C449.244 248.38 449.436 248.356 449.588 248.308C449.74 248.252 449.9 248.176 450.068 248.08V245.548C449.908 245.492 449.752 245.444 449.6 245.404C449.448 245.364 449.264 245.344 449.048 245.344C448.848 245.344 448.684 245.38 448.556 245.452C448.428 245.524 448.336 245.676 448.28 245.908C448.224 246.132 448.196 246.476 448.196 246.94ZM456.48 243.868C457.552 243.868 458.316 244.044 458.772 244.396C459.228 244.748 459.456 245.268 459.456 245.956C459.464 246.508 459.312 246.912 459 247.168C458.688 247.424 458.136 247.552 457.344 247.552H455.556C455.612 247.896 455.728 248.132 455.904 248.26C456.088 248.388 456.372 248.452 456.756 248.452C457.012 248.452 457.348 248.444 457.764 248.428C458.188 248.404 458.632 248.368 459.096 248.32L459.3 249.64C458.908 249.832 458.468 249.964 457.98 250.036C457.5 250.108 457.012 250.144 456.516 250.144C455.316 250.144 454.468 249.892 453.972 249.388C453.484 248.876 453.24 248.096 453.24 247.048C453.24 246.264 453.344 245.64 453.552 245.176C453.768 244.712 454.112 244.38 454.584 244.18C455.064 243.972 455.696 243.868 456.48 243.868ZM456.552 245.32C456.304 245.32 456.108 245.348 455.964 245.404C455.82 245.452 455.712 245.56 455.64 245.728C455.576 245.888 455.536 246.132 455.52 246.46H456.732C457.004 246.46 457.176 246.42 457.248 246.34C457.328 246.26 457.368 246.116 457.368 245.908C457.368 245.676 457.304 245.52 457.176 245.44C457.048 245.36 456.84 245.32 456.552 245.32ZM462.134 244.036L462.326 244.924C462.726 244.572 463.142 244.308 463.574 244.132C464.006 243.956 464.426 243.868 464.834 243.868C465.986 243.868 466.562 244.424 466.562 245.536V250H464.378V246.22C464.378 246.028 464.338 245.896 464.258 245.824C464.178 245.752 464.046 245.716 463.862 245.716C463.678 245.716 463.49 245.74 463.298 245.788C463.106 245.828 462.87 245.904 462.59 246.016V250H460.406V244.036H462.134ZM469.35 241.348C469.774 241.348 469.986 241.564 469.986 241.996V242.62C469.986 243.052 469.774 243.268 469.35 243.268H468.414C467.99 243.268 467.778 243.052 467.778 242.62V241.996C467.778 241.564 467.99 241.348 468.414 241.348H469.35ZM469.974 244.036V250H467.802V244.036H469.974ZM474.258 243.868C475.33 243.868 476.094 244.044 476.55 244.396C477.006 244.748 477.234 245.268 477.234 245.956C477.242 246.508 477.09 246.912 476.778 247.168C476.466 247.424 475.914 247.552 475.122 247.552H473.334C473.39 247.896 473.506 248.132 473.682 248.26C473.866 248.388 474.15 248.452 474.534 248.452C474.79 248.452 475.126 248.444 475.542 248.428C475.966 248.404 476.41 248.368 476.874 248.32L477.078 249.64C476.686 249.832 476.246 249.964 475.758 250.036C475.278 250.108 474.79 250.144 474.294 250.144C473.094 250.144 472.246 249.892 471.75 249.388C471.262 248.876 471.018 248.096 471.018 247.048C471.018 246.264 471.122 245.64 471.33 245.176C471.546 244.712 471.89 244.38 472.362 244.18C472.842 243.972 473.474 243.868 474.258 243.868ZM474.33 245.32C474.082 245.32 473.886 245.348 473.742 245.404C473.598 245.452 473.49 245.56 473.418 245.728C473.354 245.888 473.314 246.132 473.298 246.46H474.51C474.782 246.46 474.954 246.42 475.026 246.34C475.106 246.26 475.146 246.116 475.146 245.908C475.146 245.676 475.082 245.52 474.954 245.44C474.826 245.36 474.618 245.32 474.33 245.32ZM432.3 257.868C432.652 257.868 432.988 257.912 433.308 258C433.636 258.08 433.928 258.212 434.184 258.396C434.176 258.188 434.168 257.976 434.16 257.76C434.152 257.544 434.148 257.328 434.148 257.112V255.6H436.32V264H434.592L434.412 263.04C434.204 263.36 433.92 263.624 433.56 263.832C433.2 264.04 432.74 264.144 432.18 264.144C431.404 264.144 430.852 263.868 430.524 263.316C430.196 262.764 430.032 261.976 430.032 260.952C430.032 260.152 430.116 259.528 430.284 259.08C430.46 258.632 430.716 258.32 431.052 258.144C431.388 257.96 431.804 257.868 432.3 257.868ZM432.276 260.94C432.276 261.356 432.304 261.668 432.36 261.876C432.416 262.076 432.504 262.212 432.624 262.284C432.744 262.348 432.9 262.38 433.092 262.38C433.324 262.38 433.516 262.356 433.668 262.308C433.82 262.252 433.98 262.176 434.148 262.08V259.548C433.988 259.492 433.832 259.444 433.68 259.404C433.528 259.364 433.344 259.344 433.128 259.344C432.928 259.344 432.764 259.38 432.636 259.452C432.508 259.524 432.416 259.676 432.36 259.908C432.304 260.132 432.276 260.476 432.276 260.94ZM440.548 257.868C441.332 257.868 441.956 257.972 442.42 258.18C442.892 258.38 443.232 258.712 443.44 259.176C443.656 259.64 443.764 260.256 443.764 261.024C443.764 261.792 443.656 262.404 443.44 262.86C443.232 263.316 442.892 263.644 442.42 263.844C441.956 264.044 441.332 264.144 440.548 264.144C439.764 264.144 439.136 264.044 438.664 263.844C438.192 263.644 437.852 263.316 437.644 262.86C437.436 262.404 437.332 261.792 437.332 261.024C437.332 260.256 437.436 259.64 437.644 259.176C437.852 258.712 438.192 258.38 438.664 258.18C439.136 257.972 439.764 257.868 440.548 257.868ZM440.548 259.392C440.3 259.392 440.108 259.436 439.972 259.524C439.836 259.604 439.74 259.764 439.684 260.004C439.636 260.236 439.612 260.576 439.612 261.024C439.612 261.464 439.636 261.8 439.684 262.032C439.74 262.264 439.836 262.424 439.972 262.512C440.108 262.592 440.3 262.632 440.548 262.632C440.796 262.632 440.984 262.592 441.112 262.512C441.248 262.424 441.344 262.264 441.4 262.032C441.456 261.8 441.484 261.464 441.484 261.024C441.484 260.576 441.456 260.236 441.4 260.004C441.344 259.764 441.248 259.604 441.112 259.524C440.984 259.436 440.796 259.392 440.548 259.392ZM449.458 258.036V261.816C449.45 262 449.49 262.132 449.578 262.212C449.666 262.292 449.81 262.332 450.01 262.332C450.178 262.332 450.346 262.312 450.514 262.272C450.69 262.224 450.902 262.148 451.15 262.044V258.036H453.346V264H451.63L451.438 263.136C451.038 263.48 450.638 263.74 450.238 263.916C449.846 264.084 449.438 264.168 449.014 264.168C447.854 264.168 447.274 263.612 447.274 262.5V258.036H449.458ZM456.28 258.036L456.472 258.924C456.864 258.572 457.26 258.308 457.66 258.132C458.068 257.956 458.464 257.868 458.848 257.868H459.184L458.992 259.872H458.416C458.192 259.872 457.952 259.892 457.696 259.932C457.448 259.972 457.136 260.036 456.76 260.124V264H454.576V258.036H456.28ZM461.589 258.036L461.781 258.924C462.181 258.572 462.597 258.308 463.029 258.132C463.461 257.956 463.881 257.868 464.289 257.868C465.441 257.868 466.017 258.424 466.017 259.536V264H463.833V260.22C463.833 260.028 463.793 259.896 463.713 259.824C463.633 259.752 463.501 259.716 463.317 259.716C463.133 259.716 462.945 259.74 462.753 259.788C462.561 259.828 462.325 259.904 462.045 260.016V264H459.861V258.036H461.589ZM468.937 258.036L469.837 261.588C469.869 261.756 469.897 261.928 469.921 262.104C469.953 262.272 469.981 262.444 470.005 262.62H470.125C470.181 262.444 470.229 262.264 470.269 262.08C470.309 261.888 470.345 261.724 470.377 261.588L471.265 258.036H473.593L471.589 263.94C471.485 264.252 471.341 264.572 471.157 264.9C470.973 265.228 470.733 265.52 470.437 265.776C470.149 266.04 469.797 266.232 469.381 266.352C468.965 266.472 468.477 266.484 467.917 266.388L467.761 265.188C468.233 265.076 468.609 264.928 468.889 264.744C469.169 264.568 469.389 264.32 469.549 264H469.165C468.997 264 468.849 263.956 468.721 263.868C468.601 263.772 468.517 263.644 468.469 263.484L466.621 258.036H468.937Z" fill="#265375"/>
<path d="M460.65 188.874C460.939 188.334 461.001 187.701 460.824 187.115C460.647 186.529 460.245 186.037 459.706 185.747L449.581 180.313C449.041 180.024 448.409 179.962 447.823 180.139C447.237 180.316 446.744 180.718 446.454 181.257L438.734 195.642C438.591 195.909 438.501 196.202 438.471 196.504C438.441 196.806 438.47 197.111 438.558 197.401C438.646 197.692 438.79 197.962 438.982 198.197C439.174 198.431 439.411 198.626 439.679 198.769L449.803 204.199C450.343 204.485 450.975 204.547 451.561 204.37C452.146 204.193 452.638 203.793 452.93 203.255L460.65 188.874ZM452.087 192.923C450.776 193.918 449.547 195.017 448.411 196.208C448.28 196.36 448.111 196.477 447.922 196.545C447.733 196.614 447.529 196.633 447.33 196.6C447.131 196.568 446.944 196.485 446.787 196.359C446.63 196.233 446.507 196.069 446.431 195.883C446.114 195.159 445.038 193.093 444.64 192.335C444.592 192.241 444.58 192.133 444.607 192.031C444.634 191.93 444.698 191.842 444.787 191.785C445.867 191.103 447.324 192.971 447.773 193.606C448.709 192.692 449.697 191.834 450.732 191.034C453.432 188.985 455.352 188.961 456.365 189.193C456.446 189.211 456.519 189.253 456.576 189.313C456.633 189.373 456.671 189.449 456.685 189.53C456.7 189.611 456.689 189.695 456.656 189.771C456.623 189.847 456.568 189.911 456.499 189.956C455.341 190.702 453.035 192.203 452.087 192.923Z" fill="#BED558"/>
<path d="M456.387 201.927L467.704 206.667L449.692 214.209L431.68 206.667L441.558 202.53" stroke="#265375" stroke-width="1.5" stroke-linecap="round" stroke-linejoin="round"/>
<path d="M453.517 208.268L445.868 205.065" stroke="#265375" stroke-width="1.5" stroke-linecap="round" stroke-linejoin="round"/>
<path d="M431.68 206.667V219.984C431.68 220.334 431.784 220.677 431.978 220.968C432.172 221.26 432.449 221.487 432.772 221.622L449.008 228.421C449.226 228.512 449.459 228.559 449.695 228.559C449.93 228.559 450.164 228.512 450.381 228.421L466.617 221.622C466.94 221.487 467.217 221.26 467.411 220.968C467.605 220.677 467.709 220.334 467.709 219.984V206.667" stroke="#265375" stroke-width="1.5" stroke-linecap="round" stroke-linejoin="round"/>
<path d="M449.692 214.209V228.559" stroke="#265375" stroke-width="1.5" stroke-linecap="round" stroke-linejoin="round"/>
<circle cx="361.2" cy="436.2" r="67.2" fill="#8DBDE2"/>
<circle cx="361.2" cy="436.2" r="59.64" fill="white"/>
<path d="M340.993 462.07L338.692 470.377C338.64 470.576 338.536 470.737 338.38 470.858C338.232 470.979 338.055 471.04 337.847 471.04H335.676C335.459 471.04 335.273 470.979 335.117 470.858C334.969 470.737 334.874 470.576 334.831 470.377L332.517 462.07H335.026L336.404 468.193C336.438 468.358 336.469 468.531 336.495 468.713C336.529 468.886 336.564 469.051 336.599 469.207H336.911C336.937 469.051 336.967 468.886 337.002 468.713C337.036 468.531 337.071 468.358 337.106 468.193L338.484 462.07H340.993ZM343.557 464.579L344.532 468.427C344.567 468.609 344.597 468.795 344.623 468.986C344.658 469.168 344.688 469.354 344.714 469.545H344.844C344.905 469.354 344.957 469.159 345 468.96C345.043 468.752 345.082 468.574 345.117 468.427L346.079 464.579H348.601L346.43 470.975C346.317 471.313 346.161 471.66 345.962 472.015C345.763 472.37 345.503 472.687 345.182 472.964C344.87 473.25 344.489 473.458 344.038 473.588C343.587 473.718 343.059 473.731 342.452 473.627L342.283 472.327C342.794 472.206 343.202 472.045 343.505 471.846C343.808 471.655 344.047 471.387 344.22 471.04H343.804C343.622 471.04 343.462 470.992 343.323 470.897C343.193 470.793 343.102 470.654 343.05 470.481L341.048 464.579H343.557ZM346.495 461.043L347.431 462.564L344.311 463.955L343.648 462.98L346.495 461.043ZM351.839 464.397C352.177 464.406 352.537 464.423 352.918 464.449C353.308 464.466 353.689 464.497 354.062 464.54C354.435 464.575 354.755 464.618 355.024 464.67L354.868 466.074C354.443 466.074 354.014 466.074 353.581 466.074C353.156 466.065 352.745 466.061 352.346 466.061C351.878 466.061 351.575 466.074 351.436 466.1C351.306 466.126 351.241 466.213 351.241 466.36C351.241 466.49 351.297 466.577 351.41 466.62C351.523 466.663 351.731 466.728 352.034 466.815L353.62 467.205C354.175 467.352 354.586 467.569 354.855 467.855C355.132 468.132 355.271 468.553 355.271 469.116C355.271 469.653 355.167 470.074 354.959 470.377C354.751 470.68 354.422 470.893 353.971 471.014C353.529 471.127 352.948 471.183 352.229 471.183C351.934 471.183 351.497 471.17 350.916 471.144C350.344 471.118 349.724 471.049 349.057 470.936L349.2 469.519C349.399 469.528 349.716 469.532 350.149 469.532C350.591 469.532 351.037 469.532 351.488 469.532C351.913 469.532 352.233 469.528 352.45 469.519C352.667 469.502 352.81 469.467 352.879 469.415C352.957 469.363 352.996 469.285 352.996 469.181C352.996 469.051 352.931 468.964 352.801 468.921C352.671 468.869 352.441 468.8 352.112 468.713L350.591 468.31C350.149 468.189 349.807 468.033 349.564 467.842C349.33 467.651 349.17 467.426 349.083 467.166C348.996 466.906 348.953 466.607 348.953 466.269C348.953 465.645 349.165 465.177 349.59 464.865C350.015 464.553 350.764 464.397 351.839 464.397ZM358.65 461.94V468.817C358.65 469.181 358.88 469.363 359.339 469.363H359.82L360.08 470.91C359.968 470.979 359.803 471.036 359.586 471.079C359.37 471.122 359.144 471.153 358.91 471.17C358.685 471.196 358.499 471.209 358.351 471.209C357.71 471.209 357.207 471.053 356.843 470.741C356.479 470.429 356.297 469.991 356.297 469.428V461.94H358.65ZM364.016 464.397C365.178 464.397 366.005 464.588 366.499 464.969C366.993 465.35 367.24 465.914 367.24 466.659C367.249 467.257 367.084 467.695 366.746 467.972C366.408 468.249 365.81 468.388 364.952 468.388H363.015C363.076 468.761 363.202 469.016 363.392 469.155C363.592 469.294 363.899 469.363 364.315 469.363C364.593 469.363 364.957 469.354 365.407 469.337C365.867 469.311 366.348 469.272 366.85 469.22L367.071 470.65C366.647 470.858 366.17 471.001 365.641 471.079C365.121 471.157 364.593 471.196 364.055 471.196C362.755 471.196 361.837 470.923 361.299 470.377C360.771 469.822 360.506 468.977 360.506 467.842C360.506 466.993 360.619 466.317 360.844 465.814C361.078 465.311 361.451 464.952 361.962 464.735C362.482 464.51 363.167 464.397 364.016 464.397ZM364.094 465.97C363.826 465.97 363.613 466 363.457 466.061C363.301 466.113 363.184 466.23 363.106 466.412C363.037 466.585 362.994 466.85 362.976 467.205H364.289C364.584 467.205 364.77 467.162 364.848 467.075C364.935 466.988 364.978 466.832 364.978 466.607C364.978 466.356 364.909 466.187 364.77 466.1C364.632 466.013 364.406 465.97 364.094 465.97ZM370.505 464.397C370.886 464.397 371.25 464.445 371.597 464.54C371.952 464.627 372.269 464.77 372.546 464.969C372.537 464.744 372.529 464.514 372.52 464.28C372.511 464.046 372.507 463.812 372.507 463.578V461.94H374.86V471.04H372.988L372.793 470C372.568 470.347 372.26 470.633 371.87 470.858C371.48 471.083 370.982 471.196 370.375 471.196C369.534 471.196 368.936 470.897 368.581 470.299C368.226 469.701 368.048 468.847 368.048 467.738C368.048 466.871 368.139 466.195 368.321 465.71C368.512 465.225 368.789 464.887 369.153 464.696C369.517 464.497 369.968 464.397 370.505 464.397ZM370.479 467.725C370.479 468.176 370.509 468.514 370.57 468.739C370.631 468.956 370.726 469.103 370.856 469.181C370.986 469.25 371.155 469.285 371.363 469.285C371.614 469.285 371.822 469.259 371.987 469.207C372.152 469.146 372.325 469.064 372.507 468.96V466.217C372.334 466.156 372.165 466.104 372 466.061C371.835 466.018 371.636 465.996 371.402 465.996C371.185 465.996 371.008 466.035 370.869 466.113C370.73 466.191 370.631 466.356 370.57 466.607C370.509 466.85 370.479 467.222 370.479 467.725ZM378.557 461.94V465.554C378.557 465.97 378.522 466.377 378.453 466.776H378.96L380.351 464.579H382.951L381.443 466.75C381.356 466.906 381.243 467.049 381.105 467.179C380.966 467.309 380.853 467.4 380.767 467.452V467.504C380.853 467.556 380.966 467.66 381.105 467.816C381.243 467.972 381.356 468.128 381.443 468.284L383.185 471.04H380.572L378.947 468.154H378.466C378.492 468.319 378.513 468.483 378.531 468.648C378.548 468.813 378.557 468.969 378.557 469.116V471.04H376.191V461.94H378.557ZM385.68 464.579L386.655 468.427C386.69 468.609 386.72 468.795 386.746 468.986C386.781 469.168 386.811 469.354 386.837 469.545H386.967C387.028 469.354 387.08 469.159 387.123 468.96C387.166 468.752 387.205 468.574 387.24 468.427L388.202 464.579H390.724L388.553 470.975C388.44 471.313 388.284 471.66 388.085 472.015C387.886 472.37 387.626 472.687 387.305 472.964C386.993 473.25 386.612 473.458 386.161 473.588C385.71 473.718 385.182 473.731 384.575 473.627L384.406 472.327C384.917 472.206 385.325 472.045 385.628 471.846C385.931 471.655 386.17 471.387 386.343 471.04H385.927C385.745 471.04 385.585 470.992 385.446 470.897C385.316 470.793 385.225 470.654 385.173 470.481L383.171 464.579H385.68Z" fill="#265375"/>
<path d="M385.56 451.32H383.88V440.4V438.72V412.68H375.48V438.72V440.4V451.32H374.64V440.4V438.72V430.32H366.24V438.72V440.4V451.32H365.4V440.4V438.72V421.08H357V438.72V440.4V451.32H356.16V440.4V438.72V426.12H347.76V438.72V440.4V451.32H346.92V440.4V438.72V434.52H338.52V438.72V440.4V451.32H336.84C336.376 451.32 336 451.696 336 452.16C336 452.625 336.376 453 336.84 453H338.52H346.92H347.76H356.16H357H365.4H366.24H374.64H375.48H383.88H385.56C386.025 453 386.4 452.625 386.4 452.16C386.4 451.696 386.025 451.32 385.56 451.32ZM340.2 436.2H345.24V438.72H340.2V436.2ZM340.2 451.32V440.4H345.24V451.32H340.2ZM349.44 427.8H354.48V438.72H349.44V427.8ZM349.44 451.32V440.4H354.48V451.32H349.44ZM358.68 422.76H363.72V438.72H358.68V422.76ZM358.68 451.32V440.4H363.72V451.32H358.68ZM367.92 432H372.96V438.72H367.92V432ZM367.92 451.32V440.4H372.96V451.32H367.92ZM377.16 414.36H382.2V438.72H377.16V414.36ZM377.16 451.32V440.4H382.2V451.32H377.16Z" fill="#265375"/>
<path d="M342.72 413.52H349.44C349.904 413.52 350.28 413.145 350.28 412.68C350.28 412.216 349.904 411.84 349.44 411.84H342.72C342.256 411.84 341.88 412.216 341.88 412.68C341.88 413.145 342.256 413.52 342.72 413.52Z" fill="#BED558"/>
<path d="M337.924 412.084C337.772 412.235 337.68 412.453 337.68 412.68C337.68 412.907 337.772 413.117 337.924 413.277C338.083 413.428 338.302 413.52 338.52 413.52C338.738 413.52 338.957 413.428 339.116 413.277C339.268 413.117 339.36 412.899 339.36 412.68C339.36 412.453 339.268 412.243 339.116 412.084C338.797 411.773 338.234 411.773 337.924 412.084Z" fill="#265375"/>
<path d="M341.88 408.48C341.88 408.016 341.504 407.64 341.04 407.64H338.52C338.056 407.64 337.68 408.016 337.68 408.48C337.68 408.945 338.056 409.32 338.52 409.32H341.04C341.504 409.32 341.88 408.945 341.88 408.48Z" fill="#BED558"/>
<path d="M349.44 407.64H347.76C347.296 407.64 346.92 408.016 346.92 408.48C346.92 408.945 347.296 409.32 347.76 409.32H349.44C349.904 409.32 350.28 408.945 350.28 408.48C350.28 408.016 349.904 407.64 349.44 407.64Z" fill="#265375"/>
<path d="M344.996 409.077C345.148 408.917 345.24 408.699 345.24 408.48C345.24 408.262 345.148 408.042 344.996 407.884C344.677 407.573 344.123 407.573 343.804 407.884C343.652 408.042 343.56 408.262 343.56 408.48C343.56 408.699 343.652 408.917 343.804 409.077C343.963 409.228 344.182 409.32 344.4 409.32C344.618 409.32 344.837 409.228 344.996 409.077Z" fill="#265375"/>
<path d="M213.063 221.313C214.152 221.313 215.28 221.326 216.445 221.351C217.623 221.364 218.681 221.421 219.618 221.522L219.447 224.068H214.545C213.962 224.068 213.671 224.34 213.671 224.885V226.519H218.763V228.932H213.671V230.965C213.671 231.51 213.962 231.782 214.545 231.782H219.447L219.618 234.328C218.681 234.429 217.623 234.486 216.445 234.499C215.28 234.524 214.152 234.537 213.063 234.537C212.189 234.537 211.48 234.277 210.935 233.758C210.39 233.239 210.118 232.561 210.118 231.725V224.125C210.118 223.289 210.39 222.611 210.935 222.092C211.48 221.573 212.189 221.313 213.063 221.313ZM224.67 221.18V226.462C224.67 227.07 224.619 227.665 224.518 228.248H225.259L227.292 225.037H231.092L228.888 228.21C228.761 228.438 228.596 228.647 228.394 228.837C228.191 229.027 228.026 229.16 227.9 229.236V229.312C228.026 229.388 228.191 229.54 228.394 229.768C228.596 229.996 228.761 230.224 228.888 230.452L231.434 234.48H227.615L225.24 230.262H224.537C224.575 230.503 224.606 230.743 224.632 230.984C224.657 231.225 224.67 231.453 224.67 231.668V234.48H221.212V221.18H224.67ZM236.723 224.771C237.965 224.771 238.953 224.936 239.687 225.265C240.435 225.582 240.973 226.107 241.302 226.842C241.644 227.577 241.815 228.552 241.815 229.768C241.815 230.984 241.644 231.953 241.302 232.675C240.973 233.397 240.435 233.916 239.687 234.233C238.953 234.55 237.965 234.708 236.723 234.708C235.482 234.708 234.488 234.55 233.74 234.233C232.993 233.916 232.455 233.397 232.125 232.675C231.796 231.953 231.631 230.984 231.631 229.768C231.631 228.552 231.796 227.577 232.125 226.842C232.455 226.107 232.993 225.582 233.74 225.265C234.488 224.936 235.482 224.771 236.723 224.771ZM236.723 227.184C236.331 227.184 236.027 227.254 235.811 227.393C235.596 227.52 235.444 227.773 235.355 228.153C235.279 228.52 235.241 229.059 235.241 229.768C235.241 230.465 235.279 230.997 235.355 231.364C235.444 231.731 235.596 231.985 235.811 232.124C236.027 232.251 236.331 232.314 236.723 232.314C237.116 232.314 237.414 232.251 237.616 232.124C237.832 231.985 237.984 231.731 238.072 231.364C238.161 230.997 238.205 230.465 238.205 229.768C238.205 229.059 238.161 228.52 238.072 228.153C237.984 227.773 237.832 227.52 237.616 227.393C237.414 227.254 237.116 227.184 236.723 227.184ZM246.843 221.18V231.231C246.843 231.763 247.178 232.029 247.85 232.029H248.553L248.933 234.29C248.768 234.391 248.527 234.474 248.211 234.537C247.894 234.6 247.565 234.645 247.223 234.67C246.893 234.708 246.621 234.727 246.406 234.727C245.468 234.727 244.734 234.499 244.202 234.043C243.67 233.587 243.404 232.947 243.404 232.124V221.18H246.843ZM254.666 224.771C255.907 224.771 256.895 224.936 257.63 225.265C258.377 225.582 258.916 226.107 259.245 226.842C259.587 227.577 259.758 228.552 259.758 229.768C259.758 230.984 259.587 231.953 259.245 232.675C258.916 233.397 258.377 233.916 257.63 234.233C256.895 234.55 255.907 234.708 254.666 234.708C253.425 234.708 252.43 234.55 251.683 234.233C250.936 233.916 250.397 233.397 250.068 232.675C249.739 231.953 249.574 230.984 249.574 229.768C249.574 228.552 249.739 227.577 250.068 226.842C250.397 226.107 250.936 225.582 251.683 225.265C252.43 224.936 253.425 224.771 254.666 224.771ZM254.666 227.184C254.273 227.184 253.969 227.254 253.754 227.393C253.539 227.52 253.387 227.773 253.298 228.153C253.222 228.52 253.184 229.059 253.184 229.768C253.184 230.465 253.222 230.997 253.298 231.364C253.387 231.731 253.539 231.985 253.754 232.124C253.969 232.251 254.273 232.314 254.666 232.314C255.059 232.314 255.356 232.251 255.559 232.124C255.774 231.985 255.926 231.731 256.015 231.364C256.104 230.997 256.148 230.465 256.148 229.768C256.148 229.059 256.104 228.52 256.015 228.153C255.926 227.773 255.774 227.52 255.559 227.393C255.356 227.254 255.059 227.184 254.666 227.184ZM265.754 224.771C266.831 224.771 267.698 224.86 268.357 225.037H271.492L271.321 226.367L270.238 226.538C270.352 226.88 270.409 227.292 270.409 227.773C270.409 228.495 270.257 229.078 269.953 229.521C269.662 229.952 269.174 230.268 268.49 230.471C267.806 230.661 266.888 230.756 265.735 230.756C265.165 230.756 264.652 230.731 264.196 230.68C264.082 230.857 264.057 231.066 264.12 231.307C264.183 231.535 264.399 231.662 264.766 231.687L268.224 231.991C269.263 232.08 270.004 232.358 270.447 232.827C270.89 233.296 271.112 233.986 271.112 234.898C271.112 235.747 270.935 236.393 270.58 236.836C270.225 237.292 269.662 237.602 268.889 237.767C268.116 237.932 267.109 238.014 265.868 238.014C264.449 238.014 263.36 237.925 262.6 237.748C261.853 237.571 261.34 237.279 261.061 236.874C260.782 236.481 260.643 235.949 260.643 235.278C260.643 234.822 260.744 234.429 260.947 234.1C261.162 233.771 261.555 233.486 262.125 233.245C261.834 232.954 261.663 232.612 261.612 232.219C261.574 231.826 261.637 231.453 261.802 231.098C261.967 230.743 262.22 230.484 262.562 230.319C262.017 230.091 261.625 229.768 261.384 229.35C261.156 228.932 261.042 228.406 261.042 227.773C261.042 227.051 261.194 226.475 261.498 226.044C261.815 225.601 262.315 225.278 262.999 225.075C263.683 224.872 264.601 224.771 265.754 224.771ZM265.735 226.747C265.165 226.747 264.772 226.817 264.557 226.956C264.354 227.095 264.253 227.368 264.253 227.773C264.253 228.166 264.354 228.438 264.557 228.59C264.772 228.729 265.165 228.799 265.735 228.799C266.305 228.799 266.691 228.729 266.894 228.59C267.109 228.438 267.217 228.166 267.217 227.773C267.217 227.368 267.109 227.095 266.894 226.956C266.691 226.817 266.305 226.747 265.735 226.747ZM263.873 234.784C263.873 235.126 264.006 235.348 264.272 235.449C264.538 235.563 265.051 235.62 265.811 235.62C266.634 235.62 267.185 235.569 267.464 235.468C267.743 235.367 267.882 235.164 267.882 234.86C267.882 234.569 267.762 234.385 267.521 234.309C267.293 234.22 266.907 234.151 266.362 234.1L264.367 233.929C264.19 234.056 264.063 234.182 263.987 234.309C263.911 234.423 263.873 234.581 263.873 234.784ZM275.135 220.781C275.807 220.781 276.142 221.123 276.142 221.807V222.795C276.142 223.479 275.807 223.821 275.135 223.821H273.653C272.982 223.821 272.646 223.479 272.646 222.795V221.807C272.646 221.123 272.982 220.781 273.653 220.781H275.135ZM276.123 225.037V234.48H272.684V225.037H276.123ZM282.717 224.771C283.261 224.771 283.882 224.815 284.579 224.904C285.288 224.993 285.915 225.164 286.46 225.417L286.118 227.564C284.978 227.551 284.04 227.545 283.306 227.545C282.584 227.545 282.083 227.697 281.805 228.001C281.539 228.292 281.406 228.875 281.406 229.749C281.406 230.623 281.539 231.212 281.805 231.516C282.083 231.807 282.584 231.953 283.306 231.953C283.622 231.953 284.053 231.947 284.598 231.934C285.155 231.921 285.719 231.883 286.289 231.82L286.612 233.986C286.067 234.252 285.446 234.436 284.75 234.537C284.066 234.651 283.375 234.708 282.679 234.708C281.488 234.708 280.532 234.55 279.81 234.233C279.088 233.904 278.568 233.378 278.252 232.656C277.935 231.934 277.777 230.965 277.777 229.749C277.777 228.533 277.935 227.564 278.252 226.842C278.581 226.107 279.107 225.582 279.829 225.265C280.551 224.936 281.513 224.771 282.717 224.771ZM291.448 221.18V226.462C291.448 227.07 291.397 227.665 291.296 228.248H292.037L294.07 225.037H297.87L295.666 228.21C295.539 228.438 295.375 228.647 295.172 228.837C294.969 229.027 294.805 229.16 294.678 229.236V229.312C294.805 229.388 294.969 229.54 295.172 229.768C295.375 229.996 295.539 230.224 295.666 230.452L298.212 234.48H294.393L292.018 230.262H291.315C291.353 230.503 291.385 230.743 291.41 230.984C291.435 231.225 291.448 231.453 291.448 231.668V234.48H287.99V221.18H291.448ZM303.521 224.771C305.218 224.771 306.428 225.05 307.15 225.607C307.872 226.164 308.233 226.988 308.233 228.077C308.245 228.951 308.005 229.591 307.511 229.996C307.017 230.401 306.143 230.604 304.889 230.604H302.058C302.146 231.149 302.33 231.522 302.609 231.725C302.9 231.928 303.35 232.029 303.958 232.029C304.363 232.029 304.895 232.016 305.554 231.991C306.225 231.953 306.928 231.896 307.663 231.82L307.986 233.91C307.365 234.214 306.668 234.423 305.896 234.537C305.136 234.651 304.363 234.708 303.578 234.708C301.678 234.708 300.335 234.309 299.55 233.511C298.777 232.7 298.391 231.465 298.391 229.806C298.391 228.565 298.555 227.577 298.885 226.842C299.227 226.107 299.771 225.582 300.519 225.265C301.279 224.936 302.279 224.771 303.521 224.771ZM303.635 227.07C303.242 227.07 302.932 227.114 302.704 227.203C302.476 227.279 302.305 227.45 302.191 227.716C302.089 227.969 302.026 228.356 302.001 228.875H303.92C304.35 228.875 304.623 228.812 304.737 228.685C304.863 228.558 304.927 228.33 304.927 228.001C304.927 227.634 304.825 227.387 304.623 227.26C304.42 227.133 304.091 227.07 303.635 227.07ZM305.934 219.869L307.302 222.092L302.742 224.125L301.773 222.7L305.934 219.869ZM194.477 247.771C195.034 247.771 195.566 247.841 196.073 247.98C196.592 248.107 197.055 248.316 197.46 248.607C197.447 248.278 197.435 247.942 197.422 247.6C197.409 247.258 197.403 246.916 197.403 246.574V244.18H200.842V257.48H198.106L197.821 255.96C197.492 256.467 197.042 256.885 196.472 257.214C195.902 257.543 195.174 257.708 194.287 257.708C193.058 257.708 192.184 257.271 191.665 256.397C191.146 255.523 190.886 254.275 190.886 252.654C190.886 251.387 191.019 250.399 191.285 249.69C191.564 248.981 191.969 248.487 192.501 248.208C193.033 247.917 193.692 247.771 194.477 247.771ZM194.439 252.635C194.439 253.294 194.483 253.788 194.572 254.117C194.661 254.434 194.8 254.649 194.99 254.763C195.18 254.864 195.427 254.915 195.731 254.915C196.098 254.915 196.402 254.877 196.643 254.801C196.884 254.712 197.137 254.592 197.403 254.44V250.431C197.15 250.342 196.903 250.266 196.662 250.203C196.421 250.14 196.13 250.108 195.788 250.108C195.471 250.108 195.212 250.165 195.009 250.279C194.806 250.393 194.661 250.634 194.572 251.001C194.483 251.356 194.439 251.9 194.439 252.635ZM205.314 243.781C205.985 243.781 206.321 244.123 206.321 244.807V245.795C206.321 246.479 205.985 246.821 205.314 246.821H203.832C203.161 246.821 202.825 246.479 202.825 245.795V244.807C202.825 244.123 203.161 243.781 203.832 243.781H205.314ZM206.302 248.037V257.48H202.863V248.037H206.302ZM212.743 247.771C213.82 247.771 214.688 247.86 215.346 248.037H218.481L218.31 249.367L217.227 249.538C217.341 249.88 217.398 250.292 217.398 250.773C217.398 251.495 217.246 252.078 216.942 252.521C216.651 252.952 216.163 253.268 215.479 253.471C214.795 253.661 213.877 253.756 212.724 253.756C212.154 253.756 211.641 253.731 211.185 253.68C211.071 253.857 211.046 254.066 211.109 254.307C211.173 254.535 211.388 254.662 211.755 254.687L215.213 254.991C216.252 255.08 216.993 255.358 217.436 255.827C217.88 256.296 218.101 256.986 218.101 257.898C218.101 258.747 217.924 259.393 217.569 259.836C217.215 260.292 216.651 260.602 215.878 260.767C215.106 260.932 214.099 261.014 212.857 261.014C211.439 261.014 210.349 260.925 209.589 260.748C208.842 260.571 208.329 260.279 208.05 259.874C207.772 259.481 207.632 258.949 207.632 258.278C207.632 257.822 207.734 257.429 207.936 257.1C208.152 256.771 208.544 256.486 209.114 256.245C208.823 255.954 208.652 255.612 208.601 255.219C208.563 254.826 208.627 254.453 208.791 254.098C208.956 253.743 209.209 253.484 209.551 253.319C209.007 253.091 208.614 252.768 208.373 252.35C208.145 251.932 208.031 251.406 208.031 250.773C208.031 250.051 208.183 249.475 208.487 249.044C208.804 248.601 209.304 248.278 209.988 248.075C210.672 247.872 211.591 247.771 212.743 247.771ZM212.724 249.747C212.154 249.747 211.762 249.817 211.546 249.956C211.344 250.095 211.242 250.368 211.242 250.773C211.242 251.166 211.344 251.438 211.546 251.59C211.762 251.729 212.154 251.799 212.724 251.799C213.294 251.799 213.681 251.729 213.883 251.59C214.099 251.438 214.206 251.166 214.206 250.773C214.206 250.368 214.099 250.095 213.883 249.956C213.681 249.817 213.294 249.747 212.724 249.747ZM210.862 257.784C210.862 258.126 210.995 258.348 211.261 258.449C211.527 258.563 212.04 258.62 212.8 258.62C213.624 258.62 214.175 258.569 214.453 258.468C214.732 258.367 214.871 258.164 214.871 257.86C214.871 257.569 214.751 257.385 214.51 257.309C214.282 257.22 213.896 257.151 213.351 257.1L211.356 256.929C211.179 257.056 211.052 257.182 210.976 257.309C210.9 257.423 210.862 257.581 210.862 257.784ZM222.125 243.781C222.796 243.781 223.132 244.123 223.132 244.807V245.795C223.132 246.479 222.796 246.821 222.125 246.821H220.643C219.971 246.821 219.636 246.479 219.636 245.795V244.807C219.636 244.123 219.971 243.781 220.643 243.781H222.125ZM223.113 248.037V257.48H219.674V248.037H223.113ZM231.948 248.037V250.184H229.497V254.231C229.497 254.522 229.566 254.731 229.706 254.858C229.845 254.972 230.079 255.029 230.409 255.029H231.511L231.891 257.29C231.637 257.391 231.327 257.474 230.96 257.537C230.605 257.6 230.244 257.645 229.877 257.67C229.509 257.708 229.193 257.727 228.927 257.727C228.04 257.727 227.337 257.499 226.818 257.043C226.311 256.574 226.058 255.928 226.058 255.105L226.039 250.184H224.424V248.132L226.039 248.056V245.491H229.497V248.037H231.948ZM238.442 247.771C239.291 247.771 240.006 247.885 240.589 248.113C241.184 248.341 241.634 248.721 241.938 249.253C242.242 249.785 242.394 250.52 242.394 251.457V257.48H239.639L239.316 256.074C238.974 256.479 238.524 256.859 237.967 257.214C237.422 257.556 236.738 257.727 235.915 257.727C235.332 257.727 234.8 257.626 234.319 257.423C233.85 257.22 233.47 256.923 233.179 256.53C232.9 256.137 232.761 255.643 232.761 255.048V254.098C232.761 253.338 233.027 252.749 233.559 252.331C234.091 251.9 234.826 251.685 235.763 251.685H238.936V251.438C238.923 251.045 238.822 250.767 238.632 250.602C238.455 250.425 238.125 250.336 237.644 250.336C237.15 250.336 236.542 250.349 235.82 250.374C235.098 250.387 234.344 250.418 233.559 250.469L233.255 248.246C233.724 248.157 234.268 248.081 234.889 248.018C235.522 247.942 236.156 247.885 236.789 247.847C237.422 247.796 237.973 247.771 238.442 247.771ZM236.124 254.554C236.124 255.061 236.441 255.314 237.074 255.314C237.353 255.327 237.65 255.276 237.967 255.162C238.296 255.035 238.619 254.871 238.936 254.668V253.433H236.96C236.669 253.446 236.453 253.522 236.314 253.661C236.187 253.788 236.124 253.965 236.124 254.193V254.554ZM240.209 242.755L241.577 244.978L237.017 247.011L236.048 245.586L240.209 242.755ZM247.696 244.18V254.231C247.696 254.763 248.032 255.029 248.703 255.029H249.406L249.786 257.29C249.621 257.391 249.381 257.474 249.064 257.537C248.747 257.6 248.418 257.645 248.076 257.67C247.747 257.708 247.474 257.727 247.259 257.727C246.322 257.727 245.587 257.499 245.055 257.043C244.523 256.587 244.257 255.947 244.257 255.124V244.18H247.696ZM253.505 248.037L253.809 249.443C254.443 248.886 255.101 248.468 255.785 248.189C256.469 247.91 257.134 247.771 257.78 247.771C259.604 247.771 260.516 248.651 260.516 250.412V257.48H257.058V251.495C257.058 251.191 256.995 250.982 256.868 250.868C256.742 250.754 256.533 250.697 256.241 250.697C255.95 250.697 255.652 250.735 255.348 250.811C255.044 250.874 254.671 250.995 254.227 251.172V257.48H250.769V248.037H253.505ZM267.172 247.771C268.87 247.771 270.079 248.05 270.801 248.607C271.523 249.164 271.884 249.988 271.884 251.077C271.897 251.951 271.656 252.591 271.162 252.996C270.668 253.401 269.794 253.604 268.54 253.604H265.709C265.798 254.149 265.982 254.522 266.26 254.725C266.552 254.928 267.001 255.029 267.609 255.029C268.015 255.029 268.547 255.016 269.205 254.991C269.877 254.953 270.58 254.896 271.314 254.82L271.637 256.91C271.017 257.214 270.32 257.423 269.547 257.537C268.787 257.651 268.015 257.708 267.229 257.708C265.329 257.708 263.987 257.309 263.201 256.511C262.429 255.7 262.042 254.465 262.042 252.806C262.042 251.565 262.207 250.577 262.536 249.842C262.878 249.107 263.423 248.582 264.17 248.265C264.93 247.936 265.931 247.771 267.172 247.771ZM267.286 250.07C266.894 250.07 266.583 250.114 266.355 250.203C266.127 250.279 265.956 250.45 265.842 250.716C265.741 250.969 265.678 251.356 265.652 251.875H267.571C268.002 251.875 268.274 251.812 268.388 251.685C268.515 251.558 268.578 251.33 268.578 251.001C268.578 250.634 268.477 250.387 268.274 250.26C268.072 250.133 267.742 250.07 267.286 250.07ZM287.095 248.037L284.15 256.663C284.074 256.916 283.935 257.119 283.732 257.271C283.542 257.41 283.314 257.48 283.048 257.48H280.084C279.818 257.48 279.59 257.41 279.4 257.271C279.21 257.119 279.077 256.916 279.001 256.663L276.056 248.037H279.704L281.11 253.566C281.186 253.845 281.249 254.136 281.3 254.44C281.351 254.731 281.401 255.023 281.452 255.314H281.699C281.75 255.023 281.807 254.731 281.87 254.44C281.933 254.136 281.99 253.845 282.041 253.566L283.447 248.037H287.095ZM292.647 247.771C293.889 247.771 294.877 247.936 295.611 248.265C296.359 248.582 296.897 249.107 297.226 249.842C297.568 250.577 297.739 251.552 297.739 252.768C297.739 253.984 297.568 254.953 297.226 255.675C296.897 256.397 296.359 256.916 295.611 257.233C294.877 257.55 293.889 257.708 292.647 257.708C291.406 257.708 290.412 257.55 289.664 257.233C288.917 256.916 288.379 256.397 288.049 255.675C287.72 254.953 287.555 253.984 287.555 252.768C287.555 251.552 287.72 250.577 288.049 249.842C288.379 249.107 288.917 248.582 289.664 248.265C290.412 247.936 291.406 247.771 292.647 247.771ZM292.647 250.184C292.255 250.184 291.951 250.254 291.735 250.393C291.52 250.52 291.368 250.773 291.279 251.153C291.203 251.52 291.165 252.059 291.165 252.768C291.165 253.465 291.203 253.997 291.279 254.364C291.368 254.731 291.52 254.985 291.735 255.124C291.951 255.251 292.255 255.314 292.647 255.314C293.04 255.314 293.338 255.251 293.54 255.124C293.756 254.985 293.908 254.731 293.996 254.364C294.085 253.997 294.129 253.465 294.129 252.768C294.129 252.059 294.085 251.52 293.996 251.153C293.908 250.773 293.756 250.52 293.54 250.393C293.338 250.254 293.04 250.184 292.647 250.184ZM302.766 244.18V254.231C302.766 254.763 303.102 255.029 303.773 255.029H304.476L304.856 257.29C304.692 257.391 304.451 257.474 304.134 257.537C303.818 257.6 303.488 257.645 303.146 257.67C302.817 257.708 302.545 257.727 302.329 257.727C301.392 257.727 300.657 257.499 300.125 257.043C299.593 256.587 299.327 255.947 299.327 255.124V244.18H302.766ZM305.16 244.123C305.515 244.123 305.762 244.193 305.901 244.332C306.041 244.471 306.11 244.731 306.11 245.111V246.118C306.11 246.84 306.028 247.435 305.863 247.904C305.711 248.36 305.496 248.803 305.217 249.234L304.134 248.892C304.236 248.537 304.299 248.189 304.324 247.847C304.362 247.505 304.388 247.15 304.4 246.783C303.843 246.783 303.577 246.492 303.602 245.909L303.621 245.111C303.647 244.731 303.723 244.471 303.849 244.332C303.989 244.193 304.236 244.123 304.59 244.123H305.16ZM312.911 247.771C314.203 247.771 315.115 248.151 315.647 248.911C316.179 249.671 316.445 250.919 316.445 252.654C316.445 253.338 316.375 253.984 316.236 254.592C316.109 255.2 315.868 255.738 315.514 256.207C315.172 256.676 314.678 257.043 314.032 257.309C313.398 257.575 312.575 257.708 311.562 257.708C311.22 257.708 310.814 257.689 310.346 257.651C309.89 257.626 309.415 257.581 308.921 257.518C308.439 257.467 307.983 257.391 307.553 257.29C307.122 257.189 306.767 257.075 306.489 256.948V244.18H309.928L309.966 247.011C309.966 247.391 309.947 247.771 309.909 248.151C309.871 248.531 309.801 248.898 309.7 249.253C310.118 248.848 310.599 248.499 311.144 248.208C311.701 247.917 312.29 247.771 312.911 247.771ZM311.486 250.412C311.182 250.412 310.909 250.456 310.669 250.545C310.428 250.634 310.181 250.741 309.928 250.868V255.2C310.194 255.251 310.466 255.289 310.745 255.314C311.036 255.339 311.283 255.346 311.486 255.333C311.84 255.308 312.119 255.225 312.322 255.086C312.524 254.934 312.67 254.668 312.759 254.288C312.847 253.908 312.892 253.37 312.892 252.673C312.892 252.065 312.847 251.596 312.759 251.267C312.683 250.938 312.543 250.716 312.341 250.602C312.138 250.475 311.853 250.412 311.486 250.412ZM320.618 248.037L322.043 253.661C322.093 253.927 322.138 254.199 322.176 254.478C322.226 254.744 322.271 255.016 322.309 255.295H322.499C322.587 255.016 322.663 254.731 322.727 254.44C322.79 254.136 322.847 253.876 322.898 253.661L324.304 248.037H327.99L324.817 257.385C324.652 257.879 324.424 258.386 324.133 258.905C323.841 259.424 323.461 259.887 322.993 260.292C322.537 260.71 321.979 261.014 321.321 261.204C320.662 261.394 319.889 261.413 319.003 261.261L318.756 259.361C319.503 259.184 320.098 258.949 320.542 258.658C320.985 258.379 321.333 257.987 321.587 257.48H320.979C320.713 257.48 320.478 257.41 320.276 257.271C320.086 257.119 319.953 256.916 319.877 256.663L316.951 248.037H320.618ZM211.527 270.771C213.224 270.771 214.434 271.05 215.156 271.607C215.878 272.164 216.239 272.988 216.239 274.077C216.251 274.951 216.011 275.591 215.517 275.996C215.023 276.401 214.149 276.604 212.895 276.604H210.064C210.152 277.149 210.336 277.522 210.615 277.725C210.906 277.928 211.356 278.029 211.964 278.029C212.369 278.029 212.901 278.016 213.56 277.991C214.231 277.953 214.934 277.896 215.669 277.82L215.992 279.91C215.371 280.214 214.674 280.423 213.902 280.537C213.142 280.651 212.369 280.708 211.584 280.708C209.684 280.708 208.341 280.309 207.556 279.511C206.783 278.7 206.397 277.465 206.397 275.806C206.397 274.565 206.561 273.577 206.891 272.842C207.233 272.107 207.777 271.582 208.525 271.265C209.285 270.936 210.285 270.771 211.527 270.771ZM211.641 273.07C211.248 273.07 210.938 273.114 210.71 273.203C210.482 273.279 210.311 273.45 210.197 273.716C210.095 273.969 210.032 274.356 210.007 274.875H211.926C212.356 274.875 212.629 274.812 212.743 274.685C212.869 274.558 212.933 274.33 212.933 274.001C212.933 273.634 212.831 273.387 212.629 273.26C212.426 273.133 212.097 273.07 211.641 273.07ZM221.2 267.18V277.231C221.2 277.763 221.536 278.029 222.207 278.029H222.91L223.29 280.29C223.125 280.391 222.885 280.474 222.568 280.537C222.251 280.6 221.922 280.645 221.58 280.67C221.251 280.708 220.978 280.727 220.763 280.727C219.826 280.727 219.091 280.499 218.559 280.043C218.027 279.587 217.761 278.947 217.761 278.124V267.18H221.2ZM226.8 266.781C227.472 266.781 227.807 267.123 227.807 267.807V268.795C227.807 269.479 227.472 269.821 226.8 269.821H225.318C224.647 269.821 224.311 269.479 224.311 268.795V267.807C224.311 267.123 224.647 266.781 225.318 266.781H226.8ZM227.788 271.037V280.48H224.349V271.037H227.788ZM232.52 271.037L232.805 272.424C233.362 271.867 233.907 271.455 234.439 271.189C234.983 270.91 235.598 270.771 236.282 270.771C237.574 270.771 238.391 271.265 238.733 272.253C239.252 271.759 239.771 271.392 240.291 271.151C240.81 270.898 241.386 270.771 242.02 270.771C243.806 270.771 244.699 271.651 244.699 273.412V280.48H241.26V274.495C241.26 274.204 241.196 274.001 241.07 273.887C240.956 273.76 240.753 273.697 240.462 273.697C240.246 273.697 240.025 273.729 239.797 273.792C239.581 273.855 239.29 273.982 238.923 274.172V280.48H235.598V274.495C235.598 274.204 235.528 274.001 235.389 273.887C235.262 273.76 235.053 273.697 234.762 273.697C234.546 273.697 234.331 273.729 234.116 273.792C233.9 273.843 233.609 273.957 233.242 274.134V280.48H229.803V271.037H232.52ZM249.103 266.781C249.774 266.781 250.11 267.123 250.11 267.807V268.795C250.11 269.479 249.774 269.821 249.103 269.821H247.621C246.95 269.821 246.614 269.479 246.614 268.795V267.807C246.614 267.123 246.95 266.781 247.621 266.781H249.103ZM250.091 271.037V280.48H246.652V271.037H250.091ZM254.841 271.037L255.145 272.443C255.779 271.886 256.437 271.468 257.121 271.189C257.805 270.91 258.47 270.771 259.116 270.771C260.94 270.771 261.852 271.651 261.852 273.412V280.48H258.394V274.495C258.394 274.191 258.331 273.982 258.204 273.868C258.078 273.754 257.869 273.697 257.577 273.697C257.286 273.697 256.988 273.735 256.684 273.811C256.38 273.874 256.007 273.995 255.563 274.172V280.48H252.105V271.037H254.841ZM267.14 271.037V277.022C267.127 277.313 267.191 277.522 267.33 277.649C267.469 277.776 267.697 277.839 268.014 277.839C268.28 277.839 268.546 277.807 268.812 277.744C269.091 277.668 269.426 277.548 269.819 277.383V271.037H273.296V280.48H270.579L270.275 279.112C269.642 279.657 269.008 280.068 268.375 280.347C267.754 280.613 267.108 280.746 266.437 280.746C264.6 280.746 263.682 279.866 263.682 278.105V271.037H267.14ZM277.751 266.629C278.422 266.629 278.758 266.971 278.758 267.655V268.643C278.758 269.327 278.422 269.669 277.751 269.669H276.269C275.598 269.669 275.262 269.327 275.262 268.643V267.655C275.262 266.971 275.598 266.629 276.269 266.629H277.751ZM278.777 271.037V279.682C278.777 280.303 278.663 280.904 278.435 281.487C278.22 282.07 277.903 282.589 277.485 283.045C277.067 283.514 276.567 283.881 275.984 284.147L274.084 282.627C274.553 282.146 274.876 281.671 275.053 281.202C275.243 280.746 275.338 280.239 275.338 279.682V271.037H278.777ZM284.192 271.037V277.022C284.179 277.313 284.243 277.522 284.382 277.649C284.521 277.776 284.749 277.839 285.066 277.839C285.332 277.839 285.598 277.807 285.864 277.744C286.143 277.668 286.478 277.548 286.871 277.383V271.037H290.348V280.48H287.631L287.327 279.112C286.694 279.657 286.06 280.068 285.427 280.347C284.806 280.613 284.16 280.746 283.489 280.746C281.652 280.746 280.734 279.866 280.734 278.105V271.037H284.192ZM287.897 265.85L289.265 268.073L284.705 270.106L283.736 268.681L287.897 265.85ZM296.874 270.771C297.418 270.771 298.039 270.815 298.736 270.904C299.445 270.993 300.072 271.164 300.617 271.417L300.275 273.564C299.135 273.551 298.197 273.545 297.463 273.545C296.741 273.545 296.24 273.697 295.962 274.001C295.696 274.292 295.563 274.875 295.563 275.749C295.563 276.623 295.696 277.212 295.962 277.516C296.24 277.807 296.741 277.953 297.463 277.953C297.779 277.953 298.21 277.947 298.755 277.934C299.312 277.921 299.876 277.883 300.446 277.82L300.769 279.986C300.224 280.252 299.603 280.436 298.907 280.537C298.223 280.651 297.532 280.708 296.836 280.708C295.645 280.708 294.689 280.55 293.967 280.233C293.245 279.904 292.725 279.378 292.409 278.656C292.092 277.934 291.934 276.965 291.934 275.749C291.934 274.533 292.092 273.564 292.409 272.842C292.738 272.107 293.264 271.582 293.986 271.265C294.708 270.936 295.67 270.771 296.874 270.771ZM306.805 270.771C308.502 270.771 309.712 271.05 310.434 271.607C311.156 272.164 311.517 272.988 311.517 274.077C311.53 274.951 311.289 275.591 310.795 275.996C310.301 276.401 309.427 276.604 308.173 276.604H305.342C305.431 277.149 305.614 277.522 305.893 277.725C306.184 277.928 306.634 278.029 307.242 278.029C307.647 278.029 308.179 278.016 308.838 277.991C309.509 277.953 310.212 277.896 310.947 277.82L311.27 279.91C310.649 280.214 309.953 280.423 309.18 280.537C308.42 280.651 307.647 280.708 306.862 280.708C304.962 280.708 303.619 280.309 302.834 279.511C302.061 278.7 301.675 277.465 301.675 275.806C301.675 274.565 301.84 273.577 302.169 272.842C302.511 272.107 303.056 271.582 303.803 271.265C304.563 270.936 305.564 270.771 306.805 270.771ZM306.919 273.07C306.526 273.07 306.216 273.114 305.988 273.203C305.76 273.279 305.589 273.45 305.475 273.716C305.374 273.969 305.31 274.356 305.285 274.875H307.204C307.635 274.875 307.907 274.812 308.021 274.685C308.148 274.558 308.211 274.33 308.211 274.001C308.211 273.634 308.11 273.387 307.907 273.26C307.704 273.133 307.375 273.07 306.919 273.07ZM188.194 294.037L188.46 295.386C188.802 294.943 189.296 294.569 189.942 294.265C190.6 293.961 191.303 293.809 192.051 293.809C193.254 293.809 194.115 294.246 194.635 295.12C195.154 295.994 195.414 297.242 195.414 298.863C195.414 300.142 195.274 301.137 194.996 301.846C194.73 302.543 194.331 303.037 193.799 303.328C193.279 303.607 192.627 303.746 191.842 303.746C191.272 303.746 190.721 303.676 190.189 303.537C189.669 303.398 189.207 303.176 188.802 302.872C188.827 303.201 188.846 303.543 188.859 303.898C188.871 304.253 188.878 304.595 188.878 304.924V306.995H185.42V294.037H188.194ZM190.607 296.336C190.227 296.336 189.91 296.393 189.657 296.507C189.403 296.621 189.144 296.76 188.878 296.925V301.086C189.131 301.162 189.378 301.238 189.619 301.314C189.872 301.377 190.17 301.409 190.512 301.409C190.828 301.409 191.088 301.352 191.291 301.238C191.493 301.124 191.639 300.89 191.728 300.535C191.816 300.168 191.861 299.617 191.861 298.882C191.861 298.16 191.816 297.622 191.728 297.267C191.639 296.9 191.5 296.653 191.31 296.526C191.132 296.399 190.898 296.336 190.607 296.336ZM201.785 293.771C203.026 293.771 204.014 293.936 204.749 294.265C205.496 294.582 206.035 295.107 206.364 295.842C206.706 296.577 206.877 297.552 206.877 298.768C206.877 299.984 206.706 300.953 206.364 301.675C206.035 302.397 205.496 302.916 204.749 303.233C204.014 303.55 203.026 303.708 201.785 303.708C200.544 303.708 199.549 303.55 198.802 303.233C198.055 302.916 197.516 302.397 197.187 301.675C196.858 300.953 196.693 299.984 196.693 298.768C196.693 297.552 196.858 296.577 197.187 295.842C197.516 295.107 198.055 294.582 198.802 294.265C199.549 293.936 200.544 293.771 201.785 293.771ZM201.785 296.184C201.392 296.184 201.088 296.254 200.873 296.393C200.658 296.52 200.506 296.773 200.417 297.153C200.341 297.52 200.303 298.059 200.303 298.768C200.303 299.465 200.341 299.997 200.417 300.364C200.506 300.731 200.658 300.985 200.873 301.124C201.088 301.251 201.392 301.314 201.785 301.314C202.178 301.314 202.475 301.251 202.678 301.124C202.893 300.985 203.045 300.731 203.134 300.364C203.223 299.997 203.267 299.465 203.267 298.768C203.267 298.059 203.223 297.52 203.134 297.153C203.045 296.773 202.893 296.52 202.678 296.393C202.475 296.254 202.178 296.184 201.785 296.184ZM211.847 294.037V300.022C211.834 300.313 211.898 300.522 212.037 300.649C212.176 300.776 212.404 300.839 212.721 300.839C212.987 300.839 213.253 300.807 213.519 300.744C213.798 300.668 214.133 300.548 214.526 300.383V294.037H218.003V303.48H215.286L214.982 302.112C214.349 302.657 213.715 303.068 213.082 303.347C212.461 303.613 211.815 303.746 211.144 303.746C209.307 303.746 208.389 302.866 208.389 301.105V294.037H211.847ZM228.481 301.2V303.48H219.627V301.2L224.377 296.317H219.722V294.037H228.386V296.317L223.636 301.2H228.481ZM227.094 289.078L227.93 290.37L224.928 292.84H223.541L220.52 290.37L221.375 289.078L224.149 290.56H224.301L227.094 289.078ZM232.626 289.781C233.298 289.781 233.633 290.123 233.633 290.807V291.795C233.633 292.479 233.298 292.821 232.626 292.821H231.144C230.473 292.821 230.137 292.479 230.137 291.795V290.807C230.137 290.123 230.473 289.781 231.144 289.781H232.626ZM233.614 294.037V303.48H230.175V294.037H233.614ZM242.45 294.037V296.184H239.999V300.231C239.999 300.522 240.068 300.731 240.208 300.858C240.347 300.972 240.581 301.029 240.911 301.029H242.013L242.393 303.29C242.139 303.391 241.829 303.474 241.462 303.537C241.107 303.6 240.746 303.645 240.379 303.67C240.011 303.708 239.695 303.727 239.429 303.727C238.542 303.727 237.839 303.499 237.32 303.043C236.813 302.574 236.56 301.928 236.56 301.105L236.541 296.184H234.926V294.132L236.541 294.056V291.491H239.999V294.037H242.45ZM246.227 289.781C246.898 289.781 247.234 290.123 247.234 290.807V291.795C247.234 292.479 246.898 292.821 246.227 292.821H244.745C244.074 292.821 243.738 292.479 243.738 291.795V290.807C243.738 290.123 244.074 289.781 244.745 289.781H246.227ZM247.215 294.037V303.48H243.776V294.037H247.215ZM253.998 293.771C255.696 293.771 256.905 294.05 257.627 294.607C258.349 295.164 258.71 295.988 258.71 297.077C258.723 297.951 258.482 298.591 257.988 298.996C257.494 299.401 256.62 299.604 255.366 299.604H252.535C252.624 300.149 252.808 300.522 253.086 300.725C253.378 300.928 253.827 301.029 254.435 301.029C254.841 301.029 255.373 301.016 256.031 300.991C256.703 300.953 257.406 300.896 258.14 300.82L258.463 302.91C257.843 303.214 257.146 303.423 256.373 303.537C255.613 303.651 254.841 303.708 254.055 303.708C252.155 303.708 250.813 303.309 250.027 302.511C249.255 301.7 248.868 300.465 248.868 298.806C248.868 297.565 249.033 296.577 249.362 295.842C249.704 295.107 250.249 294.582 250.996 294.265C251.756 293.936 252.757 293.771 253.998 293.771ZM254.112 296.07C253.72 296.07 253.409 296.114 253.181 296.203C252.953 296.279 252.782 296.45 252.668 296.716C252.567 296.969 252.504 297.356 252.478 297.875H254.397C254.828 297.875 255.1 297.812 255.214 297.685C255.341 297.558 255.404 297.33 255.404 297.001C255.404 296.634 255.303 296.387 255.1 296.26C254.898 296.133 254.568 296.07 254.112 296.07ZM267.033 294.037L267.299 295.386C267.641 294.943 268.135 294.569 268.781 294.265C269.439 293.961 270.142 293.809 270.89 293.809C272.093 293.809 272.954 294.246 273.474 295.12C273.993 295.994 274.253 297.242 274.253 298.863C274.253 300.142 274.113 301.137 273.835 301.846C273.569 302.543 273.17 303.037 272.638 303.328C272.118 303.607 271.466 303.746 270.681 303.746C270.111 303.746 269.56 303.676 269.028 303.537C268.508 303.398 268.046 303.176 267.641 302.872C267.666 303.201 267.685 303.543 267.698 303.898C267.71 304.253 267.717 304.595 267.717 304.924V306.995H264.259V294.037H267.033ZM269.446 296.336C269.066 296.336 268.749 296.393 268.496 296.507C268.242 296.621 267.983 296.76 267.717 296.925V301.086C267.97 301.162 268.217 301.238 268.458 301.314C268.711 301.377 269.009 301.409 269.351 301.409C269.667 301.409 269.927 301.352 270.13 301.238C270.332 301.124 270.478 300.89 270.567 300.535C270.655 300.168 270.7 299.617 270.7 298.882C270.7 298.16 270.655 297.622 270.567 297.267C270.478 296.9 270.339 296.653 270.149 296.526C269.971 296.399 269.737 296.336 269.446 296.336ZM281.118 293.771C281.967 293.771 282.682 293.885 283.265 294.113C283.86 294.341 284.31 294.721 284.614 295.253C284.918 295.785 285.07 296.52 285.07 297.457V303.48H282.315L281.992 302.074C281.65 302.479 281.2 302.859 280.643 303.214C280.098 303.556 279.414 303.727 278.591 303.727C278.008 303.727 277.476 303.626 276.995 303.423C276.526 303.22 276.146 302.923 275.855 302.53C275.576 302.137 275.437 301.643 275.437 301.048V300.098C275.437 299.338 275.703 298.749 276.235 298.331C276.767 297.9 277.502 297.685 278.439 297.685H281.612V297.438C281.599 297.045 281.498 296.767 281.308 296.602C281.131 296.425 280.801 296.336 280.32 296.336C279.826 296.336 279.218 296.349 278.496 296.374C277.774 296.387 277.02 296.418 276.235 296.469L275.931 294.246C276.4 294.157 276.944 294.081 277.565 294.018C278.198 293.942 278.832 293.885 279.465 293.847C280.098 293.796 280.649 293.771 281.118 293.771ZM278.8 300.554C278.8 301.061 279.117 301.314 279.75 301.314C280.029 301.327 280.326 301.276 280.643 301.162C280.972 301.035 281.295 300.871 281.612 300.668V299.433H279.636C279.345 299.446 279.129 299.522 278.99 299.661C278.863 299.788 278.8 299.965 278.8 300.193V300.554ZM289.688 294.037L289.954 295.386C290.296 294.943 290.79 294.569 291.436 294.265C292.095 293.961 292.798 293.809 293.545 293.809C294.748 293.809 295.61 294.246 296.129 295.12C296.648 295.994 296.908 297.242 296.908 298.863C296.908 300.142 296.769 301.137 296.49 301.846C296.224 302.543 295.825 303.037 295.293 303.328C294.774 303.607 294.121 303.746 293.336 303.746C292.766 303.746 292.215 303.676 291.683 303.537C291.164 303.398 290.701 303.176 290.296 302.872C290.321 303.201 290.34 303.543 290.353 303.898C290.366 304.253 290.372 304.595 290.372 304.924V306.995H286.914V294.037H289.688ZM292.101 296.336C291.721 296.336 291.404 296.393 291.151 296.507C290.898 296.621 290.638 296.76 290.372 296.925V301.086C290.625 301.162 290.872 301.238 291.113 301.314C291.366 301.377 291.664 301.409 292.006 301.409C292.323 301.409 292.582 301.352 292.785 301.238C292.988 301.124 293.133 300.89 293.222 300.535C293.311 300.168 293.355 299.617 293.355 298.882C293.355 298.16 293.311 297.622 293.222 297.267C293.133 296.9 292.994 296.653 292.804 296.526C292.627 296.399 292.392 296.336 292.101 296.336ZM301.056 289.781C301.727 289.781 302.063 290.123 302.063 290.807V291.795C302.063 292.479 301.727 292.821 301.056 292.821H299.574C298.903 292.821 298.567 292.479 298.567 291.795V290.807C298.567 290.123 298.903 289.781 299.574 289.781H301.056ZM302.044 294.037V303.48H298.605V294.037H302.044ZM308.827 293.771C310.525 293.771 311.734 294.05 312.456 294.607C313.178 295.164 313.539 295.988 313.539 297.077C313.552 297.951 313.311 298.591 312.817 298.996C312.323 299.401 311.449 299.604 310.195 299.604H307.364C307.453 300.149 307.637 300.522 307.915 300.725C308.207 300.928 308.656 301.029 309.264 301.029C309.67 301.029 310.202 301.016 310.86 300.991C311.532 300.953 312.235 300.896 312.969 300.82L313.292 302.91C312.672 303.214 311.975 303.423 311.202 303.537C310.442 303.651 309.67 303.708 308.884 303.708C306.984 303.708 305.642 303.309 304.856 302.511C304.084 301.7 303.697 300.465 303.697 298.806C303.697 297.565 303.862 296.577 304.191 295.842C304.533 295.107 305.078 294.582 305.825 294.265C306.585 293.936 307.586 293.771 308.827 293.771ZM308.941 296.07C308.549 296.07 308.238 296.114 308.01 296.203C307.782 296.279 307.611 296.45 307.497 296.716C307.396 296.969 307.333 297.356 307.307 297.875H309.226C309.657 297.875 309.929 297.812 310.043 297.685C310.17 297.558 310.233 297.33 310.233 297.001C310.233 296.634 310.132 296.387 309.929 296.26C309.727 296.133 309.397 296.07 308.941 296.07ZM317.741 294.037L318.045 295.443C318.665 294.886 319.292 294.468 319.926 294.189C320.572 293.91 321.199 293.771 321.807 293.771H322.339L322.035 296.944H321.123C320.768 296.944 320.388 296.976 319.983 297.039C319.59 297.102 319.096 297.204 318.501 297.343V303.48H315.043V294.037H317.741ZM328.562 293.771C329.411 293.771 330.127 293.885 330.709 294.113C331.305 294.341 331.754 294.721 332.058 295.253C332.362 295.785 332.514 296.52 332.514 297.457V303.48H329.759L329.436 302.074C329.094 302.479 328.645 302.859 328.087 303.214C327.543 303.556 326.859 303.727 326.035 303.727C325.453 303.727 324.921 303.626 324.439 303.423C323.971 303.22 323.591 302.923 323.299 302.53C323.021 302.137 322.881 301.643 322.881 301.048V300.098C322.881 299.338 323.147 298.749 323.679 298.331C324.211 297.9 324.946 297.685 325.883 297.685H329.056V297.438C329.044 297.045 328.942 296.767 328.752 296.602C328.575 296.425 328.246 296.336 327.764 296.336C327.27 296.336 326.662 296.349 325.94 296.374C325.218 296.387 324.465 296.418 323.679 296.469L323.375 294.246C323.844 294.157 324.389 294.081 325.009 294.018C325.643 293.942 326.276 293.885 326.909 293.847C327.543 293.796 328.094 293.771 328.562 293.771ZM326.244 300.554C326.244 301.061 326.561 301.314 327.194 301.314C327.473 301.327 327.771 301.276 328.087 301.162C328.417 301.035 328.74 300.871 329.056 300.668V299.433H327.08C326.789 299.446 326.574 299.522 326.434 299.661C326.308 299.788 326.244 299.965 326.244 300.193V300.554Z" fill="#265375"/>
<path d="M82.4305 316.647L68.2816 302.487L60.306 320.103" stroke="#FDFEFF" stroke-width="4"/>
<path d="M99.0439 375.385C82.985 356.855 71.4844 325.23 68.3313 305.825" stroke="white" stroke-width="4"/>
<path d="M163.488 106.389L173.453 89.0289L154.365 85.9394" stroke="#FDFEFF" stroke-width="4"/>
<path d="M110.864 140.114C124.508 118.135 152.34 98.0699 170.245 89.95" stroke="white" stroke-width="4"/>
<path d="M390.589 136.077L409.416 142.876L409.144 123.541" stroke="#FDFEFF" stroke-width="4"/>
<path d="M348.238 90.1089C372.253 99.7283 396.846 123.654 407.952 139.876" stroke="white" stroke-width="4"/>
<path d="M419.878 358.314L418.532 378.285L437.043 372.695" stroke="#FDFEFF" stroke-width="4"/>
<path d="M452.392 304.933C449.765 330.669 433.545 360.904 421.012 376.051" stroke="white" stroke-width="4"/>
<path d="M365 451H357.5V421.5H365V451Z" fill="#BED558" stroke="#BED558"/>
<defs>
<clipPath id="clip0_47:21">
<rect width="52.92" height="52.92" fill="white" transform="translate(41.1599 183.76)"/>
</clipPath>
</defs>
</svg>
