<svg width="519" height="504" viewBox="0 0 519 504" fill="none" xmlns="http://www.w3.org/2000/svg">
<circle cx="261.36" cy="260.36" r="213.36" fill="url(#paint0_angular)"/>
<circle cx="259.5" cy="267.501" r="179.5" fill="white"/>
<circle cx="258.92" cy="268.641" r="111.72" fill="#BED558"/>
<circle cx="259.34" cy="268.221" r="101.22" fill="white"/>
<circle cx="158.2" cy="436.201" r="67.2" fill="#8DBDE2"/>
<circle cx="158.2" cy="436.201" r="59.64" fill="white"/>
<path d="M133.416 462.071L131.115 470.378C131.063 470.577 130.959 470.737 130.803 470.859C130.656 470.98 130.478 471.041 130.27 471.041H128.099C127.882 471.041 127.696 470.98 127.54 470.859C127.393 470.737 127.297 470.577 127.254 470.378L124.94 462.071H127.449L128.827 468.194C128.862 468.358 128.892 468.532 128.918 468.714C128.953 468.887 128.987 469.052 129.022 469.208H129.334C129.36 469.052 129.39 468.887 129.425 468.714C129.46 468.532 129.494 468.358 129.529 468.194L130.907 462.071H133.416ZM136.876 464.398C138.037 464.398 138.865 464.588 139.359 464.97C139.853 465.351 140.1 465.914 140.1 466.66C140.109 467.258 139.944 467.695 139.606 467.973C139.268 468.25 138.67 468.389 137.812 468.389H135.875C135.936 468.761 136.061 469.017 136.252 469.156C136.451 469.294 136.759 469.364 137.175 469.364C137.452 469.364 137.816 469.355 138.267 469.338C138.726 469.312 139.207 469.273 139.71 469.221L139.931 470.651C139.506 470.859 139.03 471.002 138.501 471.08C137.981 471.158 137.452 471.197 136.915 471.197C135.615 471.197 134.696 470.924 134.159 470.378C133.63 469.823 133.366 468.978 133.366 467.843C133.366 466.993 133.479 466.317 133.704 465.815C133.938 465.312 134.311 464.952 134.822 464.736C135.342 464.51 136.027 464.398 136.876 464.398ZM136.954 465.971C136.685 465.971 136.473 466.001 136.317 466.062C136.161 466.114 136.044 466.231 135.966 466.413C135.897 466.586 135.853 466.85 135.836 467.206H137.149C137.444 467.206 137.63 467.162 137.708 467.076C137.795 466.989 137.838 466.833 137.838 466.608C137.838 466.356 137.769 466.187 137.63 466.101C137.491 466.014 137.266 465.971 136.954 465.971ZM142.975 464.58L143.183 465.542C143.607 465.16 144.036 464.874 144.47 464.684C144.912 464.493 145.341 464.398 145.757 464.398H146.121L145.913 466.569H145.289C145.046 466.569 144.786 466.59 144.509 466.634C144.24 466.677 143.902 466.746 143.495 466.842V471.041H141.129V464.58H142.975ZM148.583 461.668C149.043 461.668 149.272 461.902 149.272 462.37V463.046C149.272 463.514 149.043 463.748 148.583 463.748H147.569C147.11 463.748 146.88 463.514 146.88 463.046V462.37C146.88 461.902 147.11 461.668 147.569 461.668H148.583ZM149.259 464.58V471.041H146.906V464.58H149.259ZM157.671 461.564C158.139 461.564 158.373 461.798 158.373 462.266V462.942C158.373 463.41 158.139 463.644 157.671 463.644H156.683C156.215 463.644 155.981 463.41 155.981 462.942V462.266C155.981 461.798 156.215 461.564 156.683 461.564H157.671ZM153.485 461.655C153.719 461.655 154.018 461.668 154.382 461.694C154.746 461.711 155.066 461.75 155.344 461.811V463.267H154.33C154.052 463.267 153.862 463.327 153.758 463.449C153.654 463.561 153.602 463.765 153.602 464.06V464.58H158.36V471.041H155.981V466.049H153.602V471.041H151.236V466.049H150.144V464.645L151.236 464.58V463.735C151.236 463.119 151.4 462.621 151.73 462.24C152.068 461.85 152.653 461.655 153.485 461.655ZM162.106 461.941V465.555C162.106 465.971 162.071 466.378 162.002 466.777H162.509L163.9 464.58H166.5L164.992 466.751C164.905 466.907 164.793 467.05 164.654 467.18C164.515 467.31 164.403 467.401 164.316 467.453V467.505C164.403 467.557 164.515 467.661 164.654 467.817C164.793 467.973 164.905 468.129 164.992 468.285L166.734 471.041H164.121L162.496 468.155H162.015C162.041 468.319 162.063 468.484 162.08 468.649C162.097 468.813 162.106 468.969 162.106 469.117V471.041H159.74V461.941H162.106ZM170.945 464.398C171.526 464.398 172.016 464.476 172.414 464.632C172.822 464.788 173.129 465.048 173.337 465.412C173.545 465.776 173.649 466.278 173.649 466.92V471.041H171.764L171.543 470.079C171.309 470.356 171.002 470.616 170.62 470.859C170.248 471.093 169.78 471.21 169.216 471.21C168.818 471.21 168.454 471.14 168.124 471.002C167.804 470.863 167.544 470.659 167.344 470.391C167.154 470.122 167.058 469.784 167.058 469.377V468.727C167.058 468.207 167.24 467.804 167.604 467.518C167.968 467.223 168.471 467.076 169.112 467.076H171.283V466.907C171.275 466.638 171.205 466.447 171.075 466.335C170.954 466.213 170.729 466.153 170.399 466.153C170.061 466.153 169.645 466.161 169.151 466.179C168.657 466.187 168.142 466.209 167.604 466.244L167.396 464.723C167.717 464.662 168.09 464.61 168.514 464.567C168.948 464.515 169.381 464.476 169.814 464.45C170.248 464.415 170.625 464.398 170.945 464.398ZM169.359 469.039C169.359 469.385 169.576 469.559 170.009 469.559C170.2 469.567 170.404 469.533 170.62 469.455C170.846 469.368 171.067 469.255 171.283 469.117V468.272H169.931C169.732 468.28 169.585 468.332 169.489 468.428C169.403 468.514 169.359 468.636 169.359 468.792V469.039ZM172.154 460.966L173.09 462.487L169.97 463.878L169.307 462.903L172.154 460.966ZM178.044 464.398C178.417 464.398 178.841 464.428 179.318 464.489C179.803 464.549 180.232 464.666 180.605 464.84L180.371 466.309C179.591 466.3 178.95 466.296 178.447 466.296C177.953 466.296 177.611 466.4 177.42 466.608C177.238 466.807 177.147 467.206 177.147 467.804C177.147 468.402 177.238 468.805 177.42 469.013C177.611 469.212 177.953 469.312 178.447 469.312C178.664 469.312 178.958 469.307 179.331 469.299C179.712 469.29 180.098 469.264 180.488 469.221L180.709 470.703C180.336 470.885 179.912 471.01 179.435 471.08C178.967 471.158 178.495 471.197 178.018 471.197C177.203 471.197 176.549 471.088 176.055 470.872C175.561 470.646 175.206 470.287 174.989 469.793C174.772 469.299 174.664 468.636 174.664 467.804C174.664 466.972 174.772 466.309 174.989 465.815C175.214 465.312 175.574 464.952 176.068 464.736C176.562 464.51 177.221 464.398 178.044 464.398ZM183.381 461.668C183.84 461.668 184.07 461.902 184.07 462.37V463.046C184.07 463.514 183.84 463.748 183.381 463.748H182.367C181.908 463.748 181.678 463.514 181.678 463.046V462.37C181.678 461.902 181.908 461.668 182.367 461.668H183.381ZM184.057 464.58V471.041H181.704V464.58H184.057ZM189.023 464.398C189.604 464.398 190.094 464.476 190.492 464.632C190.9 464.788 191.207 465.048 191.415 465.412C191.623 465.776 191.727 466.278 191.727 466.92V471.041H189.842L189.621 470.079C189.387 470.356 189.08 470.616 188.698 470.859C188.326 471.093 187.858 471.21 187.294 471.21C186.896 471.21 186.532 471.14 186.202 471.002C185.882 470.863 185.622 470.659 185.422 470.391C185.232 470.122 185.136 469.784 185.136 469.377V468.727C185.136 468.207 185.318 467.804 185.682 467.518C186.046 467.223 186.549 467.076 187.19 467.076H189.361V466.907C189.353 466.638 189.283 466.447 189.153 466.335C189.032 466.213 188.807 466.153 188.477 466.153C188.139 466.153 187.723 466.161 187.229 466.179C186.735 466.187 186.22 466.209 185.682 466.244L185.474 464.723C185.795 464.662 186.168 464.61 186.592 464.567C187.026 464.515 187.459 464.476 187.892 464.45C188.326 464.415 188.703 464.398 189.023 464.398ZM187.437 469.039C187.437 469.385 187.654 469.559 188.087 469.559C188.278 469.567 188.482 469.533 188.698 469.455C188.924 469.368 189.145 469.255 189.361 469.117V468.272H188.009C187.81 468.28 187.663 468.332 187.567 468.428C187.481 468.514 187.437 468.636 187.437 468.792V469.039Z" fill="#265375"/>
<g clip-path="url(#clip0)">
<path d="M158.2 425.281C155.418 425.281 153.16 427.536 153.16 430.321C153.16 432.513 154.568 434.358 156.52 435.052V440.401C156.52 441.329 157.271 442.081 158.2 442.081C159.129 442.081 159.88 441.329 159.88 440.401V435.052C161.832 434.358 163.24 432.513 163.24 430.321C163.24 427.536 160.983 425.281 158.2 425.281Z" fill="#BED558"/>
<path d="M176.68 415.201H173.32V411.841C173.32 404.418 167.302 398.401 159.88 398.401H156.52C149.098 398.401 143.08 404.418 143.08 411.841V415.201H139.72C136.009 415.201 133 418.209 133 421.921V445.441C133 449.153 136.009 452.161 139.72 452.161H176.68C180.391 452.161 183.4 449.153 183.4 445.441V421.921C183.4 418.209 180.391 415.201 176.68 415.201ZM146.44 411.841C146.44 406.282 150.962 401.761 156.52 401.761H159.88C165.438 401.761 169.96 406.282 169.96 411.841V415.201H166.6V411.841C166.6 408.134 163.584 405.121 159.88 405.121H156.52C152.816 405.121 149.8 408.134 149.8 411.841V415.201H146.44V411.841ZM163.24 415.201H153.16V411.841C153.16 409.985 154.663 408.481 156.52 408.481H159.88C161.737 408.481 163.24 409.985 163.24 411.841V415.201ZM180.04 445.441C180.04 447.293 178.534 448.801 176.68 448.801H139.72C137.866 448.801 136.36 447.293 136.36 445.441V421.921C136.36 420.068 137.866 418.561 139.72 418.561H176.68C178.534 418.561 180.04 420.068 180.04 421.921V445.441Z" fill="#265375"/>
</g>
<circle cx="67.2" cy="218.201" r="67.2" fill="#8DBDE2"/>
<circle cx="67.2001" cy="218.201" r="59.64" fill="white"/>
<path d="M52.1542 244.791V252.903C52.1542 253.475 51.8725 253.761 51.3092 253.761H50.2172C49.9572 253.761 49.7622 253.7 49.6322 253.579C49.5108 253.457 49.3852 253.28 49.2552 253.046L47.0582 249.224C46.9455 249.016 46.8372 248.786 46.7332 248.535C46.6378 248.275 46.5555 248.019 46.4862 247.768H46.3692C46.4038 248.019 46.4298 248.279 46.4472 248.548C46.4732 248.808 46.4862 249.059 46.4862 249.302V253.761H44.2112V245.649C44.2112 245.077 44.4972 244.791 45.0692 244.791H46.1482C46.3995 244.791 46.5858 244.851 46.7072 244.973C46.8372 245.094 46.9715 245.272 47.1102 245.506L49.2162 249.185C49.3375 249.393 49.4545 249.627 49.5672 249.887C49.6798 250.138 49.7882 250.398 49.8922 250.667H50.0092C49.9832 250.398 49.9615 250.138 49.9442 249.887C49.9268 249.627 49.9182 249.362 49.9182 249.094L49.9052 244.791H52.1542ZM55.7222 244.752C56.1989 244.752 56.6929 244.756 57.2042 244.765C57.7242 244.765 58.2269 244.778 58.7122 244.804C59.1976 244.821 59.6439 244.856 60.0512 244.908L59.9342 246.637H56.7492C56.3332 246.637 56.1252 246.823 56.1252 247.196V248.483H59.4532V250.134H56.1252V253.761H53.6812V246.689C53.6812 246.108 53.8676 245.64 54.2402 245.285C54.6216 244.929 55.1156 244.752 55.7222 244.752ZM64.7111 244.635C65.1618 244.635 65.5431 244.648 65.8551 244.674C66.1758 244.691 66.4661 244.726 66.7261 244.778C66.9861 244.821 67.2591 244.882 67.5451 244.96L67.3631 246.754C67.0685 246.745 66.7955 246.736 66.5441 246.728C66.2928 246.719 66.0241 246.715 65.7381 246.715C65.4521 246.706 65.1098 246.702 64.7111 246.702C64.3471 246.702 64.0655 246.775 63.8661 246.923C63.6668 247.07 63.5281 247.33 63.4501 247.703C63.3721 248.075 63.3331 248.6 63.3331 249.276C63.3331 249.952 63.3721 250.476 63.4501 250.849C63.5281 251.221 63.6668 251.481 63.8661 251.629C64.0655 251.776 64.3471 251.85 64.7111 251.85C65.3438 251.85 65.8681 251.845 66.2841 251.837C66.7088 251.819 67.1335 251.785 67.5581 251.733L67.7401 253.514C67.3068 253.661 66.8605 253.765 66.4011 253.826C65.9505 253.886 65.3871 253.917 64.7111 253.917C63.7491 253.917 62.9778 253.769 62.3971 253.475C61.8251 253.171 61.4091 252.682 61.1491 252.006C60.8978 251.33 60.7721 250.42 60.7721 249.276C60.7721 248.132 60.8978 247.222 61.1491 246.546C61.4091 245.87 61.8251 245.384 62.3971 245.09C62.9778 244.786 63.7491 244.635 64.7111 244.635ZM75.9037 247.3V248.769H74.2267V251.538C74.2267 251.737 74.2744 251.88 74.3697 251.967C74.4651 252.045 74.6254 252.084 74.8507 252.084H75.6047L75.8647 253.631C75.6914 253.7 75.4791 253.756 75.2277 253.8C74.9851 253.843 74.7381 253.873 74.4867 253.891C74.2354 253.917 74.0187 253.93 73.8367 253.93C73.2301 253.93 72.7491 253.774 72.3937 253.462C72.0471 253.141 71.8737 252.699 71.8737 252.136L71.8607 248.769H70.7557V247.365L71.8607 247.313V245.558H74.2267V247.3H75.9037ZM80.3472 247.118C80.9279 247.118 81.4175 247.196 81.8162 247.352C82.2235 247.508 82.5312 247.768 82.7392 248.132C82.9472 248.496 83.0512 248.998 83.0512 249.64V253.761H81.1662L80.9452 252.799C80.7112 253.076 80.4035 253.336 80.0222 253.579C79.6495 253.813 79.1815 253.93 78.6182 253.93C78.2195 253.93 77.8555 253.86 77.5262 253.722C77.2055 253.583 76.9455 253.379 76.7462 253.111C76.5555 252.842 76.4602 252.504 76.4602 252.097V251.447C76.4602 250.927 76.6422 250.524 77.0062 250.238C77.3702 249.943 77.8729 249.796 78.5142 249.796H80.6852V249.627C80.6765 249.358 80.6072 249.167 80.4772 249.055C80.3559 248.933 80.1305 248.873 79.8012 248.873C79.4632 248.873 79.0472 248.881 78.5532 248.899C78.0592 248.907 77.5435 248.929 77.0062 248.964L76.7982 247.443C77.1189 247.382 77.4915 247.33 77.9162 247.287C78.3495 247.235 78.7829 247.196 79.2162 247.17C79.6495 247.135 80.0265 247.118 80.3472 247.118ZM78.7612 251.759C78.7612 252.105 78.9779 252.279 79.4112 252.279C79.6019 252.287 79.8055 252.253 80.0222 252.175C80.2475 252.088 80.4685 251.975 80.6852 251.837V250.992H79.3332C79.1339 251 78.9865 251.052 78.8912 251.148C78.8045 251.234 78.7612 251.356 78.7612 251.512V251.759ZM87.3419 247.118C88.0786 247.118 88.6722 247.178 89.1229 247.3H91.2679L91.1509 248.21L90.4099 248.327C90.4879 248.561 90.5269 248.842 90.5269 249.172C90.5269 249.666 90.4229 250.064 90.2149 250.368C90.0156 250.662 89.6819 250.879 89.2139 251.018C88.7459 251.148 88.1176 251.213 87.3289 251.213C86.9389 251.213 86.5879 251.195 86.2759 251.161C86.1979 251.282 86.1806 251.425 86.2239 251.59C86.2672 251.746 86.4146 251.832 86.6659 251.85L89.0319 252.058C89.7426 252.118 90.2496 252.309 90.5529 252.63C90.8562 252.95 91.0079 253.423 91.0079 254.047C91.0079 254.627 90.8866 255.069 90.6439 255.373C90.4012 255.685 90.0156 255.897 89.4869 256.01C88.9582 256.122 88.2692 256.179 87.4199 256.179C86.4492 256.179 85.7039 256.118 85.1839 255.997C84.6726 255.875 84.3216 255.676 84.1309 255.399C83.9402 255.13 83.8449 254.766 83.8449 254.307C83.8449 253.995 83.9142 253.726 84.0529 253.501C84.2002 253.275 84.4689 253.08 84.8589 252.916C84.6596 252.716 84.5426 252.482 84.5079 252.214C84.4819 251.945 84.5252 251.689 84.6379 251.447C84.7506 251.204 84.9239 251.026 85.1579 250.914C84.7852 250.758 84.5166 250.537 84.3519 250.251C84.1959 249.965 84.1179 249.605 84.1179 249.172C84.1179 248.678 84.2219 248.283 84.4299 247.989C84.6466 247.685 84.9889 247.464 85.4569 247.326C85.9249 247.187 86.5532 247.118 87.3419 247.118ZM87.3289 248.47C86.9389 248.47 86.6702 248.517 86.5229 248.613C86.3842 248.708 86.3149 248.894 86.3149 249.172C86.3149 249.44 86.3842 249.627 86.5229 249.731C86.6702 249.826 86.9389 249.874 87.3289 249.874C87.7189 249.874 87.9832 249.826 88.1219 249.731C88.2692 249.627 88.3429 249.44 88.3429 249.172C88.3429 248.894 88.2692 248.708 88.1219 248.613C87.9832 248.517 87.7189 248.47 87.3289 248.47ZM86.0549 253.969C86.0549 254.203 86.1459 254.354 86.3279 254.424C86.5099 254.502 86.8609 254.541 87.3809 254.541C87.9442 254.541 88.3212 254.506 88.5119 254.437C88.7026 254.367 88.7979 254.229 88.7979 254.021C88.7979 253.821 88.7156 253.696 88.5509 253.644C88.3949 253.583 88.1306 253.535 87.7579 253.501L86.3929 253.384C86.2716 253.47 86.1849 253.557 86.1329 253.644C86.0809 253.722 86.0549 253.83 86.0549 253.969Z" fill="#265375"/>
<g clip-path="url(#clip1)">
<path d="M85.2598 188.358H49.9798C47.5433 188.358 45.5698 190.332 45.5698 192.768V228.048C45.5698 230.485 47.5433 232.458 49.9798 232.458H85.2598C87.6963 232.458 89.6698 230.485 89.6698 228.048V192.768C89.6698 190.332 87.6963 188.358 85.2598 188.358ZM85.2598 228.048H49.9798V192.768H85.2598V228.048ZM80.8498 197.178H69.8248C67.3883 197.178 65.4148 199.152 65.4148 201.588V206.604C64.1028 207.365 63.2098 208.776 63.2098 210.408C63.2098 212.845 65.1833 214.818 67.6198 214.818C70.0563 214.818 72.0298 212.845 72.0298 210.408C72.0298 208.776 71.1368 207.376 69.8248 206.604V201.588H76.4398V219.228H58.7998V201.588H63.2098V197.178H54.3898V223.638H80.8498V197.178Z" fill="#265375"/>
</g>
<circle cx="260.2" cy="67.2005" r="67.2" fill="#8DBDE2"/>
<circle cx="260.2" cy="67.2005" r="59.64" fill="white"/>
<path d="M230.341 91.0705V94.3985H233.032V91.0705H235.476V100.041H233.032V96.1535H230.341V100.041H227.91V91.0705H230.341ZM239.3 90.9405V97.8175C239.3 98.1815 239.529 98.3635 239.989 98.3635H240.47L240.73 99.9105C240.617 99.9799 240.452 100.036 240.236 100.08C240.019 100.123 239.794 100.153 239.56 100.171C239.334 100.197 239.148 100.21 239.001 100.21C238.359 100.21 237.857 100.054 237.493 99.7415C237.129 99.4295 236.947 98.9919 236.947 98.4285V90.9405H239.3ZM244.991 93.3975C245.571 93.3975 246.061 93.4755 246.46 93.6315C246.867 93.7875 247.175 94.0475 247.383 94.4115C247.591 94.7755 247.695 95.2782 247.695 95.9195V100.041H245.81L245.589 99.0785C245.355 99.3559 245.047 99.6159 244.666 99.8585C244.293 100.093 243.825 100.21 243.262 100.21C242.863 100.21 242.499 100.14 242.17 100.002C241.849 99.8629 241.589 99.6592 241.39 99.3905C241.199 99.1219 241.104 98.7839 241.104 98.3765V97.7265C241.104 97.2065 241.286 96.8035 241.65 96.5175C242.014 96.2229 242.516 96.0755 243.158 96.0755H245.329V95.9065C245.32 95.6379 245.251 95.4472 245.121 95.3345C244.999 95.2132 244.774 95.1525 244.445 95.1525C244.107 95.1525 243.691 95.1612 243.197 95.1785C242.703 95.1872 242.187 95.2089 241.65 95.2435L241.442 93.7225C241.762 93.6619 242.135 93.6099 242.56 93.5665C242.993 93.5145 243.426 93.4755 243.86 93.4495C244.293 93.4149 244.67 93.3975 244.991 93.3975ZM243.405 98.0385C243.405 98.3852 243.621 98.5585 244.055 98.5585C244.245 98.5672 244.449 98.5325 244.666 98.4545C244.891 98.3679 245.112 98.2552 245.329 98.1165V97.2715H243.977C243.777 97.2802 243.63 97.3322 243.535 97.4275C243.448 97.5142 243.405 97.6355 243.405 97.7915V98.0385ZM251.569 93.3975C251.907 93.4062 252.267 93.4235 252.648 93.4495C253.038 93.4669 253.42 93.4972 253.792 93.5405C254.165 93.5752 254.486 93.6185 254.754 93.6705L254.598 95.0745C254.174 95.0745 253.745 95.0745 253.311 95.0745C252.887 95.0659 252.475 95.0615 252.076 95.0615C251.608 95.0615 251.305 95.0745 251.166 95.1005C251.036 95.1265 250.971 95.2132 250.971 95.3605C250.971 95.4905 251.028 95.5772 251.14 95.6205C251.253 95.6639 251.461 95.7289 251.764 95.8155L253.35 96.2055C253.905 96.3529 254.317 96.5695 254.585 96.8555C254.863 97.1329 255.001 97.5532 255.001 98.1165C255.001 98.6539 254.897 99.0742 254.689 99.3775C254.481 99.6809 254.152 99.8932 253.701 100.015C253.259 100.127 252.679 100.184 251.959 100.184C251.665 100.184 251.227 100.171 250.646 100.145C250.074 100.119 249.455 100.049 248.787 99.9365L248.93 98.5195C249.13 98.5282 249.446 98.5325 249.879 98.5325C250.321 98.5325 250.768 98.5325 251.218 98.5325C251.643 98.5325 251.964 98.5282 252.18 98.5195C252.397 98.5022 252.54 98.4675 252.609 98.4155C252.687 98.3635 252.726 98.2855 252.726 98.1815C252.726 98.0515 252.661 97.9649 252.531 97.9215C252.401 97.8695 252.172 97.8002 251.842 97.7135L250.321 97.3105C249.879 97.1892 249.537 97.0332 249.294 96.8425C249.06 96.6519 248.9 96.4265 248.813 96.1665C248.727 95.9065 248.683 95.6075 248.683 95.2695C248.683 94.6455 248.896 94.1775 249.32 93.8655C249.745 93.5535 250.495 93.3975 251.569 93.3975ZM259.265 93.3975C260.114 93.3975 260.79 93.5102 261.293 93.7355C261.804 93.9522 262.172 94.3119 262.398 94.8145C262.632 95.3172 262.749 95.9845 262.749 96.8165C262.749 97.6485 262.632 98.3115 262.398 98.8055C262.172 99.2995 261.804 99.6549 261.293 99.8715C260.79 100.088 260.114 100.197 259.265 100.197C258.415 100.197 257.735 100.088 257.224 99.8715C256.712 99.6549 256.344 99.2995 256.119 98.8055C255.893 98.3115 255.781 97.6485 255.781 96.8165C255.781 95.9845 255.893 95.3172 256.119 94.8145C256.344 94.3119 256.712 93.9522 257.224 93.7355C257.735 93.5102 258.415 93.3975 259.265 93.3975ZM259.265 95.0485C258.996 95.0485 258.788 95.0962 258.641 95.1915C258.493 95.2782 258.389 95.4515 258.329 95.7115C258.277 95.9629 258.251 96.3312 258.251 96.8165C258.251 97.2932 258.277 97.6572 258.329 97.9085C258.389 98.1599 258.493 98.3332 258.641 98.4285C258.788 98.5152 258.996 98.5585 259.265 98.5585C259.533 98.5585 259.737 98.5152 259.876 98.4285C260.023 98.3332 260.127 98.1599 260.188 97.9085C260.248 97.6572 260.279 97.2932 260.279 96.8165C260.279 96.3312 260.248 95.9629 260.188 95.7115C260.127 95.4515 260.023 95.2782 259.876 95.1915C259.737 95.0962 259.533 95.0485 259.265 95.0485ZM270.599 93.5795L268.584 99.4815C268.532 99.6549 268.436 99.7935 268.298 99.8975C268.168 99.9929 268.012 100.041 267.83 100.041H265.802C265.62 100.041 265.464 99.9929 265.334 99.8975C265.204 99.7935 265.113 99.6549 265.061 99.4815L263.046 93.5795H265.542L266.504 97.3625C266.556 97.5532 266.599 97.7525 266.634 97.9605C266.668 98.1599 266.703 98.3592 266.738 98.5585H266.907C266.941 98.3592 266.98 98.1599 267.024 97.9605C267.067 97.7525 267.106 97.5532 267.141 97.3625L268.103 93.5795H270.599ZM274.761 93.3975C275.342 93.3975 275.831 93.4755 276.23 93.6315C276.637 93.7875 276.945 94.0475 277.153 94.4115C277.361 94.7755 277.465 95.2782 277.465 95.9195V100.041H275.58L275.359 99.0785C275.125 99.3559 274.817 99.6159 274.436 99.8585C274.063 100.093 273.595 100.21 273.032 100.21C272.633 100.21 272.269 100.14 271.94 100.002C271.619 99.8629 271.359 99.6592 271.16 99.3905C270.969 99.1219 270.874 98.7839 270.874 98.3765V97.7265C270.874 97.2065 271.056 96.8035 271.42 96.5175C271.784 96.2229 272.287 96.0755 272.928 96.0755H275.099V95.9065C275.09 95.6379 275.021 95.4472 274.891 95.3345C274.77 95.2132 274.544 95.1525 274.215 95.1525C273.877 95.1525 273.461 95.1612 272.967 95.1785C272.473 95.1872 271.957 95.2089 271.42 95.2435L271.212 93.7225C271.533 93.6619 271.905 93.6099 272.33 93.5665C272.763 93.5145 273.197 93.4755 273.63 93.4495C274.063 93.4149 274.44 93.3975 274.761 93.3975ZM273.175 98.0385C273.175 98.3852 273.392 98.5585 273.825 98.5585C274.016 98.5672 274.219 98.5325 274.436 98.4545C274.661 98.3679 274.882 98.2552 275.099 98.1165V97.2715H273.747C273.548 97.2802 273.4 97.3322 273.305 97.4275C273.218 97.5142 273.175 97.6355 273.175 97.7915V98.0385ZM280.599 93.5795L280.807 94.5415C281.24 94.1602 281.691 93.8742 282.159 93.6835C282.627 93.4929 283.082 93.3975 283.524 93.3975C284.772 93.3975 285.396 93.9999 285.396 95.2045V100.041H283.03V95.9455C283.03 95.7375 282.986 95.5945 282.9 95.5165C282.813 95.4385 282.67 95.3995 282.471 95.3995C282.271 95.3995 282.068 95.4255 281.86 95.4775C281.652 95.5209 281.396 95.6032 281.093 95.7245V100.041H278.727V93.5795H280.599ZM288.416 90.6675C288.875 90.6675 289.105 90.9015 289.105 91.3695V92.0455C289.105 92.5135 288.875 92.7475 288.416 92.7475H287.402C286.942 92.7475 286.713 92.5135 286.713 92.0455V91.3695C286.713 90.9015 286.942 90.6675 287.402 90.6675H288.416ZM289.092 93.5795V100.041H286.739V93.5795H289.092ZM293.733 93.3975C294.894 93.3975 295.722 93.5882 296.216 93.9695C296.71 94.3509 296.957 94.9142 296.957 95.6595C296.966 96.2575 296.801 96.6952 296.463 96.9725C296.125 97.2499 295.527 97.3885 294.669 97.3885H292.732C292.793 97.7612 292.918 98.0169 293.109 98.1555C293.308 98.2942 293.616 98.3635 294.032 98.3635C294.309 98.3635 294.673 98.3549 295.124 98.3375C295.583 98.3115 296.064 98.2725 296.567 98.2205L296.788 99.6505C296.363 99.8585 295.887 100.002 295.358 100.08C294.838 100.158 294.309 100.197 293.772 100.197C292.472 100.197 291.553 99.9235 291.016 99.3775C290.487 98.8229 290.223 97.9779 290.223 96.8425C290.223 95.9932 290.336 95.3172 290.561 94.8145C290.795 94.3119 291.168 93.9522 291.679 93.7355C292.199 93.5102 292.884 93.3975 293.733 93.3975ZM293.811 94.9705C293.542 94.9705 293.33 95.0009 293.174 95.0615C293.018 95.1135 292.901 95.2305 292.823 95.4125C292.754 95.5859 292.71 95.8502 292.693 96.2055H294.006C294.301 96.2055 294.487 96.1622 294.565 96.0755C294.652 95.9889 294.695 95.8329 294.695 95.6075C294.695 95.3562 294.626 95.1872 294.487 95.1005C294.348 95.0139 294.123 94.9705 293.811 94.9705Z" fill="#265375"/>
<path d="M272.568 32.0405H246.605C245.012 32.0405 243.72 33.3321 243.72 34.9253V72.4281C243.72 74.0214 245.012 75.313 246.605 75.313H272.568C274.162 75.313 275.453 74.0214 275.453 72.4281V34.9253C275.453 33.3321 274.162 32.0405 272.568 32.0405Z" stroke="#265375" stroke-width="2" stroke-linecap="round" stroke-linejoin="round"/>
<path d="M256.702 69.5433H262.471" stroke="#BED558" stroke-width="2" stroke-linecap="round" stroke-linejoin="round"/>
<circle cx="451.2" cy="221.201" r="67.2" fill="#8DBDE2"/>
<circle cx="451.2" cy="221.201" r="59.64" fill="white"/>
<path d="M430.962 241.721L428.838 249.389C428.79 249.573 428.694 249.721 428.55 249.833C428.414 249.945 428.25 250.001 428.058 250.001H426.054C425.854 250.001 425.682 249.945 425.538 249.833C425.402 249.721 425.314 249.573 425.274 249.389L423.138 241.721H425.454L426.726 247.373C426.758 247.525 426.786 247.685 426.81 247.853C426.842 248.013 426.874 248.165 426.906 248.309H427.194C427.218 248.165 427.246 248.013 427.278 247.853C427.31 247.685 427.342 247.525 427.374 247.373L428.646 241.721H430.962ZM436.029 243.869C437.181 243.869 437.757 244.425 437.757 245.537V250.001H435.573V246.221C435.573 246.029 435.533 245.897 435.453 245.825C435.373 245.753 435.241 245.717 435.057 245.717C434.873 245.717 434.685 245.741 434.493 245.789C434.301 245.829 434.065 245.905 433.785 246.017V250.001H431.601V241.601H433.785L433.797 243.509C433.797 243.741 433.785 243.969 433.761 244.193C433.737 244.417 433.709 244.621 433.677 244.805C434.061 244.493 434.453 244.261 434.853 244.109C435.253 243.949 435.645 243.869 436.029 243.869ZM441.949 243.869C442.733 243.869 443.357 243.973 443.821 244.181C444.293 244.381 444.633 244.713 444.841 245.177C445.057 245.641 445.165 246.257 445.165 247.025C445.165 247.793 445.057 248.405 444.841 248.861C444.633 249.317 444.293 249.645 443.821 249.845C443.357 250.045 442.733 250.145 441.949 250.145C441.165 250.145 440.537 250.045 440.065 249.845C439.593 249.645 439.253 249.317 439.045 248.861C438.837 248.405 438.733 247.793 438.733 247.025C438.733 246.257 438.837 245.641 439.045 245.177C439.253 244.713 439.593 244.381 440.065 244.181C440.537 243.973 441.165 243.869 441.949 243.869ZM441.949 245.393C441.701 245.393 441.509 245.437 441.373 245.525C441.237 245.605 441.141 245.765 441.085 246.005C441.037 246.237 441.013 246.577 441.013 247.025C441.013 247.465 441.037 247.801 441.085 248.033C441.141 248.265 441.237 248.425 441.373 248.513C441.509 248.593 441.701 248.633 441.949 248.633C442.197 248.633 442.385 248.593 442.513 248.513C442.649 248.425 442.745 248.265 442.801 248.033C442.857 247.801 442.885 247.465 442.885 247.025C442.885 246.577 442.857 246.237 442.801 246.005C442.745 245.765 442.649 245.605 442.513 245.525C442.385 245.437 442.197 245.393 441.949 245.393ZM448.22 243.869C448.572 243.869 448.908 243.913 449.228 244.001C449.556 244.081 449.848 244.213 450.104 244.397C450.096 244.189 450.088 243.977 450.08 243.761C450.072 243.545 450.068 243.329 450.068 243.113V241.601H452.24V250.001H450.512L450.332 249.041C450.124 249.361 449.84 249.625 449.48 249.833C449.12 250.041 448.66 250.145 448.1 250.145C447.324 250.145 446.772 249.869 446.444 249.317C446.116 248.765 445.952 247.977 445.952 246.953C445.952 246.153 446.036 245.529 446.204 245.081C446.38 244.633 446.636 244.321 446.972 244.145C447.308 243.961 447.724 243.869 448.22 243.869ZM448.196 246.941C448.196 247.357 448.224 247.669 448.28 247.877C448.336 248.077 448.424 248.213 448.544 248.285C448.664 248.349 448.82 248.381 449.012 248.381C449.244 248.381 449.436 248.357 449.588 248.309C449.74 248.253 449.9 248.177 450.068 248.081V245.549C449.908 245.493 449.752 245.445 449.6 245.405C449.448 245.365 449.264 245.345 449.048 245.345C448.848 245.345 448.684 245.381 448.556 245.453C448.428 245.525 448.336 245.677 448.28 245.909C448.224 246.133 448.196 246.477 448.196 246.941ZM456.48 243.869C457.552 243.869 458.316 244.045 458.772 244.397C459.228 244.749 459.456 245.269 459.456 245.957C459.464 246.509 459.312 246.913 459 247.169C458.688 247.425 458.136 247.553 457.344 247.553H455.556C455.612 247.897 455.728 248.133 455.904 248.261C456.088 248.389 456.372 248.453 456.756 248.453C457.012 248.453 457.348 248.445 457.764 248.429C458.188 248.405 458.632 248.369 459.096 248.321L459.3 249.641C458.908 249.833 458.468 249.965 457.98 250.037C457.5 250.109 457.012 250.145 456.516 250.145C455.316 250.145 454.468 249.893 453.972 249.389C453.484 248.877 453.24 248.097 453.24 247.049C453.24 246.265 453.344 245.641 453.552 245.177C453.768 244.713 454.112 244.381 454.584 244.181C455.064 243.973 455.696 243.869 456.48 243.869ZM456.552 245.321C456.304 245.321 456.108 245.349 455.964 245.405C455.82 245.453 455.712 245.561 455.64 245.729C455.576 245.889 455.536 246.133 455.52 246.461H456.732C457.004 246.461 457.176 246.421 457.248 246.341C457.328 246.261 457.368 246.117 457.368 245.909C457.368 245.677 457.304 245.521 457.176 245.441C457.048 245.361 456.84 245.321 456.552 245.321ZM462.134 244.037L462.326 244.925C462.726 244.573 463.142 244.309 463.574 244.133C464.006 243.957 464.426 243.869 464.834 243.869C465.986 243.869 466.562 244.425 466.562 245.537V250.001H464.378V246.221C464.378 246.029 464.338 245.897 464.258 245.825C464.178 245.753 464.046 245.717 463.862 245.717C463.678 245.717 463.49 245.741 463.298 245.789C463.106 245.829 462.87 245.905 462.59 246.017V250.001H460.406V244.037H462.134ZM469.35 241.349C469.774 241.349 469.986 241.565 469.986 241.997V242.621C469.986 243.053 469.774 243.269 469.35 243.269H468.414C467.99 243.269 467.778 243.053 467.778 242.621V241.997C467.778 241.565 467.99 241.349 468.414 241.349H469.35ZM469.974 244.037V250.001H467.802V244.037H469.974ZM474.258 243.869C475.33 243.869 476.094 244.045 476.55 244.397C477.006 244.749 477.234 245.269 477.234 245.957C477.242 246.509 477.09 246.913 476.778 247.169C476.466 247.425 475.914 247.553 475.122 247.553H473.334C473.39 247.897 473.506 248.133 473.682 248.261C473.866 248.389 474.15 248.453 474.534 248.453C474.79 248.453 475.126 248.445 475.542 248.429C475.966 248.405 476.41 248.369 476.874 248.321L477.078 249.641C476.686 249.833 476.246 249.965 475.758 250.037C475.278 250.109 474.79 250.145 474.294 250.145C473.094 250.145 472.246 249.893 471.75 249.389C471.262 248.877 471.018 248.097 471.018 247.049C471.018 246.265 471.122 245.641 471.33 245.177C471.546 244.713 471.89 244.381 472.362 244.181C472.842 243.973 473.474 243.869 474.258 243.869ZM474.33 245.321C474.082 245.321 473.886 245.349 473.742 245.405C473.598 245.453 473.49 245.561 473.418 245.729C473.354 245.889 473.314 246.133 473.298 246.461H474.51C474.782 246.461 474.954 246.421 475.026 246.341C475.106 246.261 475.146 246.117 475.146 245.909C475.146 245.677 475.082 245.521 474.954 245.441C474.826 245.361 474.618 245.321 474.33 245.321ZM432.3 257.869C432.652 257.869 432.988 257.913 433.308 258.001C433.636 258.081 433.928 258.213 434.184 258.397C434.176 258.189 434.168 257.977 434.16 257.761C434.152 257.545 434.148 257.329 434.148 257.113V255.601H436.32V264.001H434.592L434.412 263.041C434.204 263.361 433.92 263.625 433.56 263.833C433.2 264.041 432.74 264.145 432.18 264.145C431.404 264.145 430.852 263.869 430.524 263.317C430.196 262.765 430.032 261.977 430.032 260.953C430.032 260.153 430.116 259.529 430.284 259.081C430.46 258.633 430.716 258.321 431.052 258.145C431.388 257.961 431.804 257.869 432.3 257.869ZM432.276 260.941C432.276 261.357 432.304 261.669 432.36 261.877C432.416 262.077 432.504 262.213 432.624 262.285C432.744 262.349 432.9 262.381 433.092 262.381C433.324 262.381 433.516 262.357 433.668 262.309C433.82 262.253 433.98 262.177 434.148 262.081V259.549C433.988 259.493 433.832 259.445 433.68 259.405C433.528 259.365 433.344 259.345 433.128 259.345C432.928 259.345 432.764 259.381 432.636 259.453C432.508 259.525 432.416 259.677 432.36 259.909C432.304 260.133 432.276 260.477 432.276 260.941ZM440.548 257.869C441.332 257.869 441.956 257.973 442.42 258.181C442.892 258.381 443.232 258.713 443.44 259.177C443.656 259.641 443.764 260.257 443.764 261.025C443.764 261.793 443.656 262.405 443.44 262.861C443.232 263.317 442.892 263.645 442.42 263.845C441.956 264.045 441.332 264.145 440.548 264.145C439.764 264.145 439.136 264.045 438.664 263.845C438.192 263.645 437.852 263.317 437.644 262.861C437.436 262.405 437.332 261.793 437.332 261.025C437.332 260.257 437.436 259.641 437.644 259.177C437.852 258.713 438.192 258.381 438.664 258.181C439.136 257.973 439.764 257.869 440.548 257.869ZM440.548 259.393C440.3 259.393 440.108 259.437 439.972 259.525C439.836 259.605 439.74 259.765 439.684 260.005C439.636 260.237 439.612 260.577 439.612 261.025C439.612 261.465 439.636 261.801 439.684 262.033C439.74 262.265 439.836 262.425 439.972 262.513C440.108 262.593 440.3 262.633 440.548 262.633C440.796 262.633 440.984 262.593 441.112 262.513C441.248 262.425 441.344 262.265 441.4 262.033C441.456 261.801 441.484 261.465 441.484 261.025C441.484 260.577 441.456 260.237 441.4 260.005C441.344 259.765 441.248 259.605 441.112 259.525C440.984 259.437 440.796 259.393 440.548 259.393ZM449.458 258.037V261.817C449.45 262.001 449.49 262.133 449.578 262.213C449.666 262.293 449.81 262.333 450.01 262.333C450.178 262.333 450.346 262.313 450.514 262.273C450.69 262.225 450.902 262.149 451.15 262.045V258.037H453.346V264.001H451.63L451.438 263.137C451.038 263.481 450.638 263.741 450.238 263.917C449.846 264.085 449.438 264.169 449.014 264.169C447.854 264.169 447.274 263.613 447.274 262.501V258.037H449.458ZM456.28 258.037L456.472 258.925C456.864 258.573 457.26 258.309 457.66 258.133C458.068 257.957 458.464 257.869 458.848 257.869H459.184L458.992 259.873H458.416C458.192 259.873 457.952 259.893 457.696 259.933C457.448 259.973 457.136 260.037 456.76 260.125V264.001H454.576V258.037H456.28ZM461.589 258.037L461.781 258.925C462.181 258.573 462.597 258.309 463.029 258.133C463.461 257.957 463.881 257.869 464.289 257.869C465.441 257.869 466.017 258.425 466.017 259.537V264.001H463.833V260.221C463.833 260.029 463.793 259.897 463.713 259.825C463.633 259.753 463.501 259.717 463.317 259.717C463.133 259.717 462.945 259.741 462.753 259.789C462.561 259.829 462.325 259.905 462.045 260.017V264.001H459.861V258.037H461.589ZM468.937 258.037L469.837 261.589C469.869 261.757 469.897 261.929 469.921 262.105C469.953 262.273 469.981 262.445 470.005 262.621H470.125C470.181 262.445 470.229 262.265 470.269 262.081C470.309 261.889 470.345 261.725 470.377 261.589L471.265 258.037H473.593L471.589 263.941C471.485 264.253 471.341 264.573 471.157 264.901C470.973 265.229 470.733 265.521 470.437 265.777C470.149 266.041 469.797 266.233 469.381 266.353C468.965 266.473 468.477 266.485 467.917 266.389L467.761 265.189C468.233 265.077 468.609 264.929 468.889 264.745C469.169 264.569 469.389 264.321 469.549 264.001H469.165C468.997 264.001 468.849 263.957 468.721 263.869C468.601 263.773 468.517 263.645 468.469 263.485L466.621 258.037H468.937Z" fill="#265375"/>
<path d="M460.65 188.874C460.939 188.334 461.001 187.702 460.824 187.116C460.647 186.529 460.245 186.037 459.706 185.747L449.581 180.313C449.041 180.025 448.409 179.963 447.823 180.139C447.237 180.316 446.744 180.718 446.454 181.257L438.734 195.642C438.591 195.909 438.501 196.202 438.471 196.504C438.441 196.806 438.47 197.111 438.558 197.402C438.646 197.692 438.79 197.962 438.982 198.197C439.174 198.432 439.411 198.626 439.679 198.77L449.803 204.199C450.343 204.486 450.975 204.547 451.561 204.371C452.146 204.194 452.638 203.793 452.93 203.256L460.65 188.874ZM452.087 192.923C450.776 193.918 449.547 195.017 448.411 196.208C448.28 196.361 448.111 196.477 447.922 196.546C447.733 196.614 447.529 196.633 447.33 196.601C447.131 196.568 446.944 196.485 446.787 196.359C446.63 196.234 446.507 196.07 446.431 195.883C446.114 195.159 445.038 193.094 444.64 192.335C444.592 192.242 444.58 192.134 444.607 192.032C444.634 191.93 444.698 191.842 444.787 191.786C445.867 191.104 447.324 192.972 447.773 193.606C448.709 192.693 449.697 191.834 450.732 191.035C453.432 188.985 455.352 188.962 456.365 189.194C456.446 189.212 456.519 189.254 456.576 189.314C456.633 189.374 456.671 189.449 456.685 189.531C456.7 189.612 456.689 189.696 456.656 189.772C456.623 189.847 456.568 189.912 456.499 189.956C455.341 190.702 453.035 192.203 452.087 192.923Z" fill="#BED558"/>
<path d="M456.387 201.928L467.704 206.667L449.692 214.21L431.68 206.667L441.558 202.53" stroke="#265375" stroke-width="1.5" stroke-linecap="round" stroke-linejoin="round"/>
<path d="M453.517 208.268L445.868 205.065" stroke="#265375" stroke-width="1.5" stroke-linecap="round" stroke-linejoin="round"/>
<path d="M431.68 206.667V219.985C431.68 220.335 431.784 220.677 431.978 220.969C432.172 221.26 432.449 221.488 432.772 221.623L449.008 228.422C449.226 228.513 449.459 228.56 449.695 228.56C449.93 228.56 450.164 228.513 450.381 228.422L466.617 221.623C466.94 221.488 467.217 221.26 467.411 220.969C467.605 220.677 467.709 220.335 467.709 219.985V206.667" stroke="#265375" stroke-width="1.5" stroke-linecap="round" stroke-linejoin="round"/>
<path d="M449.692 214.21V228.559" stroke="#265375" stroke-width="1.5" stroke-linecap="round" stroke-linejoin="round"/>
<circle cx="361.2" cy="436.201" r="67.2" fill="#8DBDE2"/>
<circle cx="361.2" cy="436.201" r="59.64" fill="white"/>
<path d="M340.993 462.071L338.692 470.378C338.64 470.577 338.536 470.737 338.38 470.859C338.232 470.98 338.055 471.041 337.847 471.041H335.676C335.459 471.041 335.273 470.98 335.117 470.859C334.969 470.737 334.874 470.577 334.831 470.378L332.517 462.071H335.026L336.404 468.194C336.438 468.358 336.469 468.532 336.495 468.714C336.529 468.887 336.564 469.052 336.599 469.208H336.911C336.937 469.052 336.967 468.887 337.002 468.714C337.036 468.532 337.071 468.358 337.106 468.194L338.484 462.071H340.993ZM343.557 464.58L344.532 468.428C344.567 468.61 344.597 468.796 344.623 468.987C344.658 469.169 344.688 469.355 344.714 469.546H344.844C344.905 469.355 344.957 469.16 345 468.961C345.043 468.753 345.082 468.575 345.117 468.428L346.079 464.58H348.601L346.43 470.976C346.317 471.314 346.161 471.66 345.962 472.016C345.763 472.371 345.503 472.687 345.182 472.965C344.87 473.251 344.489 473.459 344.038 473.589C343.587 473.719 343.059 473.732 342.452 473.628L342.283 472.328C342.794 472.206 343.202 472.046 343.505 471.847C343.808 471.656 344.047 471.387 344.22 471.041H343.804C343.622 471.041 343.462 470.993 343.323 470.898C343.193 470.794 343.102 470.655 343.05 470.482L341.048 464.58H343.557ZM346.495 461.044L347.431 462.565L344.311 463.956L343.648 462.981L346.495 461.044ZM351.839 464.398C352.177 464.406 352.537 464.424 352.918 464.45C353.308 464.467 353.689 464.497 354.062 464.541C354.435 464.575 354.755 464.619 355.024 464.671L354.868 466.075C354.443 466.075 354.014 466.075 353.581 466.075C353.156 466.066 352.745 466.062 352.346 466.062C351.878 466.062 351.575 466.075 351.436 466.101C351.306 466.127 351.241 466.213 351.241 466.361C351.241 466.491 351.297 466.577 351.41 466.621C351.523 466.664 351.731 466.729 352.034 466.816L353.62 467.206C354.175 467.353 354.586 467.57 354.855 467.856C355.132 468.133 355.271 468.553 355.271 469.117C355.271 469.654 355.167 470.074 354.959 470.378C354.751 470.681 354.422 470.893 353.971 471.015C353.529 471.127 352.948 471.184 352.229 471.184C351.934 471.184 351.497 471.171 350.916 471.145C350.344 471.119 349.724 471.049 349.057 470.937L349.2 469.52C349.399 469.528 349.716 469.533 350.149 469.533C350.591 469.533 351.037 469.533 351.488 469.533C351.913 469.533 352.233 469.528 352.45 469.52C352.667 469.502 352.81 469.468 352.879 469.416C352.957 469.364 352.996 469.286 352.996 469.182C352.996 469.052 352.931 468.965 352.801 468.922C352.671 468.87 352.441 468.8 352.112 468.714L350.591 468.311C350.149 468.189 349.807 468.033 349.564 467.843C349.33 467.652 349.17 467.427 349.083 467.167C348.996 466.907 348.953 466.608 348.953 466.27C348.953 465.646 349.165 465.178 349.59 464.866C350.015 464.554 350.764 464.398 351.839 464.398ZM358.65 461.941V468.818C358.65 469.182 358.88 469.364 359.339 469.364H359.82L360.08 470.911C359.968 470.98 359.803 471.036 359.586 471.08C359.37 471.123 359.144 471.153 358.91 471.171C358.685 471.197 358.499 471.21 358.351 471.21C357.71 471.21 357.207 471.054 356.843 470.742C356.479 470.43 356.297 469.992 356.297 469.429V461.941H358.65ZM364.016 464.398C365.178 464.398 366.005 464.588 366.499 464.97C366.993 465.351 367.24 465.914 367.24 466.66C367.249 467.258 367.084 467.695 366.746 467.973C366.408 468.25 365.81 468.389 364.952 468.389H363.015C363.076 468.761 363.202 469.017 363.392 469.156C363.592 469.294 363.899 469.364 364.315 469.364C364.593 469.364 364.957 469.355 365.407 469.338C365.867 469.312 366.348 469.273 366.85 469.221L367.071 470.651C366.647 470.859 366.17 471.002 365.641 471.08C365.121 471.158 364.593 471.197 364.055 471.197C362.755 471.197 361.837 470.924 361.299 470.378C360.771 469.823 360.506 468.978 360.506 467.843C360.506 466.993 360.619 466.317 360.844 465.815C361.078 465.312 361.451 464.952 361.962 464.736C362.482 464.51 363.167 464.398 364.016 464.398ZM364.094 465.971C363.826 465.971 363.613 466.001 363.457 466.062C363.301 466.114 363.184 466.231 363.106 466.413C363.037 466.586 362.994 466.85 362.976 467.206H364.289C364.584 467.206 364.77 467.162 364.848 467.076C364.935 466.989 364.978 466.833 364.978 466.608C364.978 466.356 364.909 466.187 364.77 466.101C364.632 466.014 364.406 465.971 364.094 465.971ZM370.505 464.398C370.886 464.398 371.25 464.445 371.597 464.541C371.952 464.627 372.269 464.77 372.546 464.97C372.537 464.744 372.529 464.515 372.52 464.281C372.511 464.047 372.507 463.813 372.507 463.579V461.941H374.86V471.041H372.988L372.793 470.001C372.568 470.347 372.26 470.633 371.87 470.859C371.48 471.084 370.982 471.197 370.375 471.197C369.534 471.197 368.936 470.898 368.581 470.3C368.226 469.702 368.048 468.848 368.048 467.739C368.048 466.872 368.139 466.196 368.321 465.711C368.512 465.225 368.789 464.887 369.153 464.697C369.517 464.497 369.968 464.398 370.505 464.398ZM370.479 467.726C370.479 468.176 370.509 468.514 370.57 468.74C370.631 468.956 370.726 469.104 370.856 469.182C370.986 469.251 371.155 469.286 371.363 469.286C371.614 469.286 371.822 469.26 371.987 469.208C372.152 469.147 372.325 469.065 372.507 468.961V466.218C372.334 466.157 372.165 466.105 372 466.062C371.835 466.018 371.636 465.997 371.402 465.997C371.185 465.997 371.008 466.036 370.869 466.114C370.73 466.192 370.631 466.356 370.57 466.608C370.509 466.85 370.479 467.223 370.479 467.726ZM378.557 461.941V465.555C378.557 465.971 378.522 466.378 378.453 466.777H378.96L380.351 464.58H382.951L381.443 466.751C381.356 466.907 381.243 467.05 381.105 467.18C380.966 467.31 380.853 467.401 380.767 467.453V467.505C380.853 467.557 380.966 467.661 381.105 467.817C381.243 467.973 381.356 468.129 381.443 468.285L383.185 471.041H380.572L378.947 468.155H378.466C378.492 468.319 378.513 468.484 378.531 468.649C378.548 468.813 378.557 468.969 378.557 469.117V471.041H376.191V461.941H378.557ZM385.68 464.58L386.655 468.428C386.69 468.61 386.72 468.796 386.746 468.987C386.781 469.169 386.811 469.355 386.837 469.546H386.967C387.028 469.355 387.08 469.16 387.123 468.961C387.166 468.753 387.205 468.575 387.24 468.428L388.202 464.58H390.724L388.553 470.976C388.44 471.314 388.284 471.66 388.085 472.016C387.886 472.371 387.626 472.687 387.305 472.965C386.993 473.251 386.612 473.459 386.161 473.589C385.71 473.719 385.182 473.732 384.575 473.628L384.406 472.328C384.917 472.206 385.325 472.046 385.628 471.847C385.931 471.656 386.17 471.387 386.343 471.041H385.927C385.745 471.041 385.585 470.993 385.446 470.898C385.316 470.794 385.225 470.655 385.173 470.482L383.171 464.58H385.68Z" fill="#265375"/>
<path d="M336.84 404.281H385.56C386.025 404.281 386.4 403.905 386.4 403.441C386.4 402.976 386.025 402.601 385.56 402.601H336.84C336.376 402.601 336 402.976 336 403.441C336 403.905 336.376 404.281 336.84 404.281Z" fill="#265375"/>
<path d="M385.56 451.321H383.88V440.401V438.721V412.681H375.48V438.721V440.401V451.321H374.64V440.401V438.721V430.321H366.24V438.721V440.401V451.321H365.4V440.401V438.721V421.081H357V438.721V440.401V451.321H356.16V440.401V438.721V426.121H347.76V438.721V440.401V451.321H346.92V440.401V438.721V434.521H338.52V438.721V440.401V451.321H336.84C336.376 451.321 336 451.696 336 452.161C336 452.625 336.376 453.001 336.84 453.001H338.52H346.92H347.76H356.16H357H365.4H366.24H374.64H375.48H383.88H385.56C386.025 453.001 386.4 452.625 386.4 452.161C386.4 451.696 386.025 451.321 385.56 451.321ZM340.2 436.201H345.24V438.721H340.2V436.201ZM340.2 451.321V440.401H345.24V451.321H340.2ZM349.44 427.801H354.48V438.721H349.44V427.801ZM349.44 451.321V440.401H354.48V451.321H349.44ZM358.68 422.761H363.72V438.721H358.68V422.761ZM358.68 451.321V440.401H363.72V451.321H358.68ZM367.92 432.001H372.96V438.721H367.92V432.001ZM367.92 451.321V440.401H372.96V451.321H367.92ZM377.16 414.361H382.2V438.721H377.16V414.361ZM377.16 451.321V440.401H382.2V451.321H377.16Z" fill="#265375"/>
<path d="M342.72 413.521H349.44C349.904 413.521 350.28 413.145 350.28 412.681C350.28 412.216 349.904 411.841 349.44 411.841H342.72C342.256 411.841 341.88 412.216 341.88 412.681C341.88 413.145 342.256 413.521 342.72 413.521Z" fill="#BED558"/>
<path d="M337.924 412.084C337.772 412.235 337.68 412.453 337.68 412.681C337.68 412.907 337.772 413.117 337.924 413.277C338.083 413.428 338.302 413.521 338.52 413.521C338.738 413.521 338.957 413.428 339.116 413.277C339.268 413.117 339.36 412.899 339.36 412.681C339.36 412.453 339.268 412.243 339.116 412.084C338.797 411.773 338.234 411.773 337.924 412.084Z" fill="#265375"/>
<path d="M341.88 408.481C341.88 408.016 341.504 407.641 341.04 407.641H338.52C338.056 407.641 337.68 408.016 337.68 408.481C337.68 408.945 338.056 409.321 338.52 409.321H341.04C341.504 409.321 341.88 408.945 341.88 408.481Z" fill="#BED558"/>
<path d="M349.44 407.641H347.76C347.296 407.641 346.92 408.016 346.92 408.481C346.92 408.945 347.296 409.321 347.76 409.321H349.44C349.904 409.321 350.28 408.945 350.28 408.481C350.28 408.016 349.904 407.641 349.44 407.641Z" fill="#265375"/>
<path d="M344.996 409.077C345.148 408.917 345.24 408.699 345.24 408.481C345.24 408.262 345.148 408.043 344.996 407.884C344.677 407.573 344.123 407.573 343.804 407.884C343.652 408.043 343.56 408.262 343.56 408.481C343.56 408.699 343.652 408.917 343.804 409.077C343.963 409.228 344.182 409.321 344.4 409.321C344.618 409.321 344.837 409.228 344.996 409.077Z" fill="#265375"/>
<path d="M213.063 221.314C214.152 221.314 215.28 221.326 216.445 221.352C217.623 221.364 218.681 221.421 219.618 221.523L219.447 224.069H214.545C213.962 224.069 213.671 224.341 213.671 224.886V226.52H218.763V228.933H213.671V230.966C213.671 231.51 213.962 231.783 214.545 231.783H219.447L219.618 234.329C218.681 234.43 217.623 234.487 216.445 234.5C215.28 234.525 214.152 234.538 213.063 234.538C212.189 234.538 211.48 234.278 210.935 233.759C210.39 233.239 210.118 232.562 210.118 231.726V224.126C210.118 223.29 210.39 222.612 210.935 222.093C211.48 221.573 212.189 221.314 213.063 221.314ZM224.67 221.181V226.463C224.67 227.071 224.619 227.666 224.518 228.249H225.259L227.292 225.038H231.092L228.888 228.211C228.761 228.439 228.596 228.648 228.394 228.838C228.191 229.028 228.026 229.161 227.9 229.237V229.313C228.026 229.389 228.191 229.541 228.394 229.769C228.596 229.997 228.761 230.225 228.888 230.453L231.434 234.481H227.615L225.24 230.263H224.537C224.575 230.503 224.606 230.744 224.632 230.985C224.657 231.225 224.67 231.453 224.67 231.669V234.481H221.212V221.181H224.67ZM236.723 224.772C237.965 224.772 238.953 224.936 239.687 225.266C240.435 225.582 240.973 226.108 241.302 226.843C241.644 227.577 241.815 228.553 241.815 229.769C241.815 230.985 241.644 231.954 241.302 232.676C240.973 233.398 240.435 233.917 239.687 234.234C238.953 234.55 237.965 234.709 236.723 234.709C235.482 234.709 234.488 234.55 233.74 234.234C232.993 233.917 232.455 233.398 232.125 232.676C231.796 231.954 231.631 230.985 231.631 229.769C231.631 228.553 231.796 227.577 232.125 226.843C232.455 226.108 232.993 225.582 233.74 225.266C234.488 224.936 235.482 224.772 236.723 224.772ZM236.723 227.185C236.331 227.185 236.027 227.254 235.811 227.394C235.596 227.52 235.444 227.774 235.355 228.154C235.279 228.521 235.241 229.059 235.241 229.769C235.241 230.465 235.279 230.997 235.355 231.365C235.444 231.732 235.596 231.985 235.811 232.125C236.027 232.251 236.331 232.315 236.723 232.315C237.116 232.315 237.414 232.251 237.616 232.125C237.832 231.985 237.984 231.732 238.072 231.365C238.161 230.997 238.205 230.465 238.205 229.769C238.205 229.059 238.161 228.521 238.072 228.154C237.984 227.774 237.832 227.52 237.616 227.394C237.414 227.254 237.116 227.185 236.723 227.185ZM246.843 221.181V231.232C246.843 231.764 247.178 232.03 247.85 232.03H248.553L248.933 234.291C248.768 234.392 248.527 234.474 248.211 234.538C247.894 234.601 247.565 234.645 247.223 234.671C246.893 234.709 246.621 234.728 246.406 234.728C245.468 234.728 244.734 234.5 244.202 234.044C243.67 233.588 243.404 232.948 243.404 232.125V221.181H246.843ZM254.666 224.772C255.907 224.772 256.895 224.936 257.63 225.266C258.377 225.582 258.916 226.108 259.245 226.843C259.587 227.577 259.758 228.553 259.758 229.769C259.758 230.985 259.587 231.954 259.245 232.676C258.916 233.398 258.377 233.917 257.63 234.234C256.895 234.55 255.907 234.709 254.666 234.709C253.425 234.709 252.43 234.55 251.683 234.234C250.936 233.917 250.397 233.398 250.068 232.676C249.739 231.954 249.574 230.985 249.574 229.769C249.574 228.553 249.739 227.577 250.068 226.843C250.397 226.108 250.936 225.582 251.683 225.266C252.43 224.936 253.425 224.772 254.666 224.772ZM254.666 227.185C254.273 227.185 253.969 227.254 253.754 227.394C253.539 227.52 253.387 227.774 253.298 228.154C253.222 228.521 253.184 229.059 253.184 229.769C253.184 230.465 253.222 230.997 253.298 231.365C253.387 231.732 253.539 231.985 253.754 232.125C253.969 232.251 254.273 232.315 254.666 232.315C255.059 232.315 255.356 232.251 255.559 232.125C255.774 231.985 255.926 231.732 256.015 231.365C256.104 230.997 256.148 230.465 256.148 229.769C256.148 229.059 256.104 228.521 256.015 228.154C255.926 227.774 255.774 227.52 255.559 227.394C255.356 227.254 255.059 227.185 254.666 227.185ZM265.754 224.772C266.831 224.772 267.698 224.86 268.357 225.038H271.492L271.321 226.368L270.238 226.539C270.352 226.881 270.409 227.292 270.409 227.774C270.409 228.496 270.257 229.078 269.953 229.522C269.662 229.952 269.174 230.269 268.49 230.472C267.806 230.662 266.888 230.757 265.735 230.757C265.165 230.757 264.652 230.731 264.196 230.681C264.082 230.858 264.057 231.067 264.12 231.308C264.183 231.536 264.399 231.662 264.766 231.688L268.224 231.992C269.263 232.08 270.004 232.359 270.447 232.828C270.89 233.296 271.112 233.987 271.112 234.899C271.112 235.747 270.935 236.393 270.58 236.837C270.225 237.293 269.662 237.603 268.889 237.768C268.116 237.932 267.109 238.015 265.868 238.015C264.449 238.015 263.36 237.926 262.6 237.749C261.853 237.571 261.34 237.28 261.061 236.875C260.782 236.482 260.643 235.95 260.643 235.279C260.643 234.823 260.744 234.43 260.947 234.101C261.162 233.771 261.555 233.486 262.125 233.246C261.834 232.954 261.663 232.612 261.612 232.22C261.574 231.827 261.637 231.453 261.802 231.099C261.967 230.744 262.22 230.484 262.562 230.32C262.017 230.092 261.625 229.769 261.384 229.351C261.156 228.933 261.042 228.407 261.042 227.774C261.042 227.052 261.194 226.475 261.498 226.045C261.815 225.601 262.315 225.278 262.999 225.076C263.683 224.873 264.601 224.772 265.754 224.772ZM265.735 226.748C265.165 226.748 264.772 226.817 264.557 226.957C264.354 227.096 264.253 227.368 264.253 227.774C264.253 228.166 264.354 228.439 264.557 228.591C264.772 228.73 265.165 228.8 265.735 228.8C266.305 228.8 266.691 228.73 266.894 228.591C267.109 228.439 267.217 228.166 267.217 227.774C267.217 227.368 267.109 227.096 266.894 226.957C266.691 226.817 266.305 226.748 265.735 226.748ZM263.873 234.785C263.873 235.127 264.006 235.348 264.272 235.45C264.538 235.564 265.051 235.621 265.811 235.621C266.634 235.621 267.185 235.57 267.464 235.469C267.743 235.367 267.882 235.165 267.882 234.861C267.882 234.569 267.762 234.386 267.521 234.31C267.293 234.221 266.907 234.151 266.362 234.101L264.367 233.93C264.19 234.056 264.063 234.183 263.987 234.31C263.911 234.424 263.873 234.582 263.873 234.785ZM275.135 220.782C275.807 220.782 276.142 221.124 276.142 221.808V222.796C276.142 223.48 275.807 223.822 275.135 223.822H273.653C272.982 223.822 272.646 223.48 272.646 222.796V221.808C272.646 221.124 272.982 220.782 273.653 220.782H275.135ZM276.123 225.038V234.481H272.684V225.038H276.123ZM282.717 224.772C283.261 224.772 283.882 224.816 284.579 224.905C285.288 224.993 285.915 225.164 286.46 225.418L286.118 227.565C284.978 227.552 284.04 227.546 283.306 227.546C282.584 227.546 282.083 227.698 281.805 228.002C281.539 228.293 281.406 228.876 281.406 229.75C281.406 230.624 281.539 231.213 281.805 231.517C282.083 231.808 282.584 231.954 283.306 231.954C283.622 231.954 284.053 231.947 284.598 231.935C285.155 231.922 285.719 231.884 286.289 231.821L286.612 233.987C286.067 234.253 285.446 234.436 284.75 234.538C284.066 234.652 283.375 234.709 282.679 234.709C281.488 234.709 280.532 234.55 279.81 234.234C279.088 233.904 278.568 233.379 278.252 232.657C277.935 231.935 277.777 230.966 277.777 229.75C277.777 228.534 277.935 227.565 278.252 226.843C278.581 226.108 279.107 225.582 279.829 225.266C280.551 224.936 281.513 224.772 282.717 224.772ZM291.448 221.181V226.463C291.448 227.071 291.397 227.666 291.296 228.249H292.037L294.07 225.038H297.87L295.666 228.211C295.539 228.439 295.375 228.648 295.172 228.838C294.969 229.028 294.805 229.161 294.678 229.237V229.313C294.805 229.389 294.969 229.541 295.172 229.769C295.375 229.997 295.539 230.225 295.666 230.453L298.212 234.481H294.393L292.018 230.263H291.315C291.353 230.503 291.385 230.744 291.41 230.985C291.435 231.225 291.448 231.453 291.448 231.669V234.481H287.99V221.181H291.448ZM303.521 224.772C305.218 224.772 306.428 225.05 307.15 225.608C307.872 226.165 308.233 226.988 308.233 228.078C308.245 228.952 308.005 229.591 307.511 229.997C307.017 230.402 306.143 230.605 304.889 230.605H302.058C302.146 231.149 302.33 231.523 302.609 231.726C302.9 231.928 303.35 232.03 303.958 232.03C304.363 232.03 304.895 232.017 305.554 231.992C306.225 231.954 306.928 231.897 307.663 231.821L307.986 233.911C307.365 234.215 306.668 234.424 305.896 234.538C305.136 234.652 304.363 234.709 303.578 234.709C301.678 234.709 300.335 234.31 299.55 233.512C298.777 232.701 298.391 231.466 298.391 229.807C298.391 228.565 298.555 227.577 298.885 226.843C299.227 226.108 299.771 225.582 300.519 225.266C301.279 224.936 302.279 224.772 303.521 224.772ZM303.635 227.071C303.242 227.071 302.932 227.115 302.704 227.204C302.476 227.28 302.305 227.451 302.191 227.717C302.089 227.97 302.026 228.356 302.001 228.876H303.92C304.35 228.876 304.623 228.812 304.737 228.686C304.863 228.559 304.927 228.331 304.927 228.002C304.927 227.634 304.825 227.387 304.623 227.261C304.42 227.134 304.091 227.071 303.635 227.071ZM305.934 219.87L307.302 222.093L302.742 224.126L301.773 222.701L305.934 219.87ZM194.477 247.772C195.034 247.772 195.566 247.841 196.073 247.981C196.592 248.107 197.055 248.316 197.46 248.608C197.447 248.278 197.435 247.943 197.422 247.601C197.409 247.259 197.403 246.917 197.403 246.575V244.181H200.842V257.481H198.106L197.821 255.961C197.492 256.467 197.042 256.885 196.472 257.215C195.902 257.544 195.174 257.709 194.287 257.709C193.058 257.709 192.184 257.272 191.665 256.398C191.146 255.524 190.886 254.276 190.886 252.655C190.886 251.388 191.019 250.4 191.285 249.691C191.564 248.981 191.969 248.487 192.501 248.209C193.033 247.917 193.692 247.772 194.477 247.772ZM194.439 252.636C194.439 253.294 194.483 253.788 194.572 254.118C194.661 254.434 194.8 254.65 194.99 254.764C195.18 254.865 195.427 254.916 195.731 254.916C196.098 254.916 196.402 254.878 196.643 254.802C196.884 254.713 197.137 254.593 197.403 254.441V250.432C197.15 250.343 196.903 250.267 196.662 250.204C196.421 250.14 196.13 250.109 195.788 250.109C195.471 250.109 195.212 250.166 195.009 250.28C194.806 250.394 194.661 250.634 194.572 251.002C194.483 251.356 194.439 251.901 194.439 252.636ZM205.314 243.782C205.985 243.782 206.321 244.124 206.321 244.808V245.796C206.321 246.48 205.985 246.822 205.314 246.822H203.832C203.161 246.822 202.825 246.48 202.825 245.796V244.808C202.825 244.124 203.161 243.782 203.832 243.782H205.314ZM206.302 248.038V257.481H202.863V248.038H206.302ZM212.743 247.772C213.82 247.772 214.688 247.86 215.346 248.038H218.481L218.31 249.368L217.227 249.539C217.341 249.881 217.398 250.292 217.398 250.774C217.398 251.496 217.246 252.078 216.942 252.522C216.651 252.952 216.163 253.269 215.479 253.472C214.795 253.662 213.877 253.757 212.724 253.757C212.154 253.757 211.641 253.731 211.185 253.681C211.071 253.858 211.046 254.067 211.109 254.308C211.173 254.536 211.388 254.662 211.755 254.688L215.213 254.992C216.252 255.08 216.993 255.359 217.436 255.828C217.88 256.296 218.101 256.987 218.101 257.899C218.101 258.747 217.924 259.393 217.569 259.837C217.215 260.293 216.651 260.603 215.878 260.768C215.106 260.932 214.099 261.015 212.857 261.015C211.439 261.015 210.349 260.926 209.589 260.749C208.842 260.571 208.329 260.28 208.05 259.875C207.772 259.482 207.632 258.95 207.632 258.279C207.632 257.823 207.734 257.43 207.936 257.101C208.152 256.771 208.544 256.486 209.114 256.246C208.823 255.954 208.652 255.612 208.601 255.22C208.563 254.827 208.627 254.453 208.791 254.099C208.956 253.744 209.209 253.484 209.551 253.32C209.007 253.092 208.614 252.769 208.373 252.351C208.145 251.933 208.031 251.407 208.031 250.774C208.031 250.052 208.183 249.475 208.487 249.045C208.804 248.601 209.304 248.278 209.988 248.076C210.672 247.873 211.591 247.772 212.743 247.772ZM212.724 249.748C212.154 249.748 211.762 249.817 211.546 249.957C211.344 250.096 211.242 250.368 211.242 250.774C211.242 251.166 211.344 251.439 211.546 251.591C211.762 251.73 212.154 251.8 212.724 251.8C213.294 251.8 213.681 251.73 213.883 251.591C214.099 251.439 214.206 251.166 214.206 250.774C214.206 250.368 214.099 250.096 213.883 249.957C213.681 249.817 213.294 249.748 212.724 249.748ZM210.862 257.785C210.862 258.127 210.995 258.348 211.261 258.45C211.527 258.564 212.04 258.621 212.8 258.621C213.624 258.621 214.175 258.57 214.453 258.469C214.732 258.367 214.871 258.165 214.871 257.861C214.871 257.569 214.751 257.386 214.51 257.31C214.282 257.221 213.896 257.151 213.351 257.101L211.356 256.93C211.179 257.056 211.052 257.183 210.976 257.31C210.9 257.424 210.862 257.582 210.862 257.785ZM222.125 243.782C222.796 243.782 223.132 244.124 223.132 244.808V245.796C223.132 246.48 222.796 246.822 222.125 246.822H220.643C219.971 246.822 219.636 246.48 219.636 245.796V244.808C219.636 244.124 219.971 243.782 220.643 243.782H222.125ZM223.113 248.038V257.481H219.674V248.038H223.113ZM231.948 248.038V250.185H229.497V254.232C229.497 254.523 229.566 254.732 229.706 254.859C229.845 254.973 230.079 255.03 230.409 255.03H231.511L231.891 257.291C231.637 257.392 231.327 257.474 230.96 257.538C230.605 257.601 230.244 257.645 229.877 257.671C229.509 257.709 229.193 257.728 228.927 257.728C228.04 257.728 227.337 257.5 226.818 257.044C226.311 256.575 226.058 255.929 226.058 255.106L226.039 250.185H224.424V248.133L226.039 248.057V245.492H229.497V248.038H231.948ZM238.442 247.772C239.291 247.772 240.006 247.886 240.589 248.114C241.184 248.342 241.634 248.722 241.938 249.254C242.242 249.786 242.394 250.52 242.394 251.458V257.481H239.639L239.316 256.075C238.974 256.48 238.524 256.86 237.967 257.215C237.422 257.557 236.738 257.728 235.915 257.728C235.332 257.728 234.8 257.626 234.319 257.424C233.85 257.221 233.47 256.923 233.179 256.531C232.9 256.138 232.761 255.644 232.761 255.049V254.099C232.761 253.339 233.027 252.75 233.559 252.332C234.091 251.901 234.826 251.686 235.763 251.686H238.936V251.439C238.923 251.046 238.822 250.767 238.632 250.603C238.455 250.425 238.125 250.337 237.644 250.337C237.15 250.337 236.542 250.349 235.82 250.375C235.098 250.387 234.344 250.419 233.559 250.47L233.255 248.247C233.724 248.158 234.268 248.082 234.889 248.019C235.522 247.943 236.156 247.886 236.789 247.848C237.422 247.797 237.973 247.772 238.442 247.772ZM236.124 254.555C236.124 255.061 236.441 255.315 237.074 255.315C237.353 255.327 237.65 255.277 237.967 255.163C238.296 255.036 238.619 254.871 238.936 254.669V253.434H236.96C236.669 253.446 236.453 253.522 236.314 253.662C236.187 253.788 236.124 253.966 236.124 254.194V254.555ZM240.209 242.756L241.577 244.979L237.017 247.012L236.048 245.587L240.209 242.756ZM247.696 244.181V254.232C247.696 254.764 248.032 255.03 248.703 255.03H249.406L249.786 257.291C249.621 257.392 249.381 257.474 249.064 257.538C248.747 257.601 248.418 257.645 248.076 257.671C247.747 257.709 247.474 257.728 247.259 257.728C246.322 257.728 245.587 257.5 245.055 257.044C244.523 256.588 244.257 255.948 244.257 255.125V244.181H247.696ZM253.505 248.038L253.809 249.444C254.443 248.886 255.101 248.468 255.785 248.19C256.469 247.911 257.134 247.772 257.78 247.772C259.604 247.772 260.516 248.652 260.516 250.413V257.481H257.058V251.496C257.058 251.192 256.995 250.983 256.868 250.869C256.742 250.755 256.533 250.698 256.241 250.698C255.95 250.698 255.652 250.736 255.348 250.812C255.044 250.875 254.671 250.995 254.227 251.173V257.481H250.769V248.038H253.505ZM267.172 247.772C268.87 247.772 270.079 248.05 270.801 248.608C271.523 249.165 271.884 249.988 271.884 251.078C271.897 251.952 271.656 252.591 271.162 252.997C270.668 253.402 269.794 253.605 268.54 253.605H265.709C265.798 254.149 265.982 254.523 266.26 254.726C266.552 254.928 267.001 255.03 267.609 255.03C268.015 255.03 268.547 255.017 269.205 254.992C269.877 254.954 270.58 254.897 271.314 254.821L271.637 256.911C271.017 257.215 270.32 257.424 269.547 257.538C268.787 257.652 268.015 257.709 267.229 257.709C265.329 257.709 263.987 257.31 263.201 256.512C262.429 255.701 262.042 254.466 262.042 252.807C262.042 251.565 262.207 250.577 262.536 249.843C262.878 249.108 263.423 248.582 264.17 248.266C264.93 247.936 265.931 247.772 267.172 247.772ZM267.286 250.071C266.894 250.071 266.583 250.115 266.355 250.204C266.127 250.28 265.956 250.451 265.842 250.717C265.741 250.97 265.678 251.356 265.652 251.876H267.571C268.002 251.876 268.274 251.812 268.388 251.686C268.515 251.559 268.578 251.331 268.578 251.002C268.578 250.634 268.477 250.387 268.274 250.261C268.072 250.134 267.742 250.071 267.286 250.071ZM287.095 248.038L284.15 256.664C284.074 256.917 283.935 257.12 283.732 257.272C283.542 257.411 283.314 257.481 283.048 257.481H280.084C279.818 257.481 279.59 257.411 279.4 257.272C279.21 257.12 279.077 256.917 279.001 256.664L276.056 248.038H279.704L281.11 253.567C281.186 253.845 281.249 254.137 281.3 254.441C281.351 254.732 281.401 255.023 281.452 255.315H281.699C281.75 255.023 281.807 254.732 281.87 254.441C281.933 254.137 281.99 253.845 282.041 253.567L283.447 248.038H287.095ZM292.647 247.772C293.889 247.772 294.877 247.936 295.611 248.266C296.359 248.582 296.897 249.108 297.226 249.843C297.568 250.577 297.739 251.553 297.739 252.769C297.739 253.985 297.568 254.954 297.226 255.676C296.897 256.398 296.359 256.917 295.611 257.234C294.877 257.55 293.889 257.709 292.647 257.709C291.406 257.709 290.412 257.55 289.664 257.234C288.917 256.917 288.379 256.398 288.049 255.676C287.72 254.954 287.555 253.985 287.555 252.769C287.555 251.553 287.72 250.577 288.049 249.843C288.379 249.108 288.917 248.582 289.664 248.266C290.412 247.936 291.406 247.772 292.647 247.772ZM292.647 250.185C292.255 250.185 291.951 250.254 291.735 250.394C291.52 250.52 291.368 250.774 291.279 251.154C291.203 251.521 291.165 252.059 291.165 252.769C291.165 253.465 291.203 253.997 291.279 254.365C291.368 254.732 291.52 254.985 291.735 255.125C291.951 255.251 292.255 255.315 292.647 255.315C293.04 255.315 293.338 255.251 293.54 255.125C293.756 254.985 293.908 254.732 293.996 254.365C294.085 253.997 294.129 253.465 294.129 252.769C294.129 252.059 294.085 251.521 293.996 251.154C293.908 250.774 293.756 250.52 293.54 250.394C293.338 250.254 293.04 250.185 292.647 250.185ZM302.766 244.181V254.232C302.766 254.764 303.102 255.03 303.773 255.03H304.476L304.856 257.291C304.692 257.392 304.451 257.474 304.134 257.538C303.818 257.601 303.488 257.645 303.146 257.671C302.817 257.709 302.545 257.728 302.329 257.728C301.392 257.728 300.657 257.5 300.125 257.044C299.593 256.588 299.327 255.948 299.327 255.125V244.181H302.766ZM305.16 244.124C305.515 244.124 305.762 244.193 305.901 244.333C306.041 244.472 306.11 244.732 306.11 245.112V246.119C306.11 246.841 306.028 247.436 305.863 247.905C305.711 248.361 305.496 248.804 305.217 249.235L304.134 248.893C304.236 248.538 304.299 248.19 304.324 247.848C304.362 247.506 304.388 247.151 304.4 246.784C303.843 246.784 303.577 246.492 303.602 245.91L303.621 245.112C303.647 244.732 303.723 244.472 303.849 244.333C303.989 244.193 304.236 244.124 304.59 244.124H305.16ZM312.911 247.772C314.203 247.772 315.115 248.152 315.647 248.912C316.179 249.672 316.445 250.919 316.445 252.655C316.445 253.339 316.375 253.985 316.236 254.593C316.109 255.201 315.868 255.739 315.514 256.208C315.172 256.676 314.678 257.044 314.032 257.31C313.398 257.576 312.575 257.709 311.562 257.709C311.22 257.709 310.814 257.69 310.346 257.652C309.89 257.626 309.415 257.582 308.921 257.519C308.439 257.468 307.983 257.392 307.553 257.291C307.122 257.189 306.767 257.075 306.489 256.949V244.181H309.928L309.966 247.012C309.966 247.392 309.947 247.772 309.909 248.152C309.871 248.532 309.801 248.899 309.7 249.254C310.118 248.848 310.599 248.5 311.144 248.209C311.701 247.917 312.29 247.772 312.911 247.772ZM311.486 250.413C311.182 250.413 310.909 250.457 310.669 250.546C310.428 250.634 310.181 250.742 309.928 250.869V255.201C310.194 255.251 310.466 255.289 310.745 255.315C311.036 255.34 311.283 255.346 311.486 255.334C311.84 255.308 312.119 255.226 312.322 255.087C312.524 254.935 312.67 254.669 312.759 254.289C312.847 253.909 312.892 253.37 312.892 252.674C312.892 252.066 312.847 251.597 312.759 251.268C312.683 250.938 312.543 250.717 312.341 250.603C312.138 250.476 311.853 250.413 311.486 250.413ZM320.618 248.038L322.043 253.662C322.093 253.928 322.138 254.2 322.176 254.479C322.226 254.745 322.271 255.017 322.309 255.296H322.499C322.587 255.017 322.663 254.732 322.727 254.441C322.79 254.137 322.847 253.877 322.898 253.662L324.304 248.038H327.99L324.817 257.386C324.652 257.88 324.424 258.386 324.133 258.906C323.841 259.425 323.461 259.887 322.993 260.293C322.537 260.711 321.979 261.015 321.321 261.205C320.662 261.395 319.889 261.414 319.003 261.262L318.756 259.362C319.503 259.184 320.098 258.95 320.542 258.659C320.985 258.38 321.333 257.987 321.587 257.481H320.979C320.713 257.481 320.478 257.411 320.276 257.272C320.086 257.12 319.953 256.917 319.877 256.664L316.951 248.038H320.618ZM211.527 270.772C213.224 270.772 214.434 271.05 215.156 271.608C215.878 272.165 216.239 272.988 216.239 274.078C216.251 274.952 216.011 275.591 215.517 275.997C215.023 276.402 214.149 276.605 212.895 276.605H210.064C210.152 277.149 210.336 277.523 210.615 277.726C210.906 277.928 211.356 278.03 211.964 278.03C212.369 278.03 212.901 278.017 213.56 277.992C214.231 277.954 214.934 277.897 215.669 277.821L215.992 279.911C215.371 280.215 214.674 280.424 213.902 280.538C213.142 280.652 212.369 280.709 211.584 280.709C209.684 280.709 208.341 280.31 207.556 279.512C206.783 278.701 206.397 277.466 206.397 275.807C206.397 274.565 206.561 273.577 206.891 272.843C207.233 272.108 207.777 271.582 208.525 271.266C209.285 270.936 210.285 270.772 211.527 270.772ZM211.641 273.071C211.248 273.071 210.938 273.115 210.71 273.204C210.482 273.28 210.311 273.451 210.197 273.717C210.095 273.97 210.032 274.356 210.007 274.876H211.926C212.356 274.876 212.629 274.812 212.743 274.686C212.869 274.559 212.933 274.331 212.933 274.002C212.933 273.634 212.831 273.387 212.629 273.261C212.426 273.134 212.097 273.071 211.641 273.071ZM221.2 267.181V277.232C221.2 277.764 221.536 278.03 222.207 278.03H222.91L223.29 280.291C223.125 280.392 222.885 280.474 222.568 280.538C222.251 280.601 221.922 280.645 221.58 280.671C221.251 280.709 220.978 280.728 220.763 280.728C219.826 280.728 219.091 280.5 218.559 280.044C218.027 279.588 217.761 278.948 217.761 278.125V267.181H221.2ZM226.8 266.782C227.472 266.782 227.807 267.124 227.807 267.808V268.796C227.807 269.48 227.472 269.822 226.8 269.822H225.318C224.647 269.822 224.311 269.48 224.311 268.796V267.808C224.311 267.124 224.647 266.782 225.318 266.782H226.8ZM227.788 271.038V280.481H224.349V271.038H227.788ZM232.52 271.038L232.805 272.425C233.362 271.867 233.907 271.456 234.439 271.19C234.983 270.911 235.598 270.772 236.282 270.772C237.574 270.772 238.391 271.266 238.733 272.254C239.252 271.76 239.771 271.392 240.291 271.152C240.81 270.898 241.386 270.772 242.02 270.772C243.806 270.772 244.699 271.652 244.699 273.413V280.481H241.26V274.496C241.26 274.204 241.196 274.002 241.07 273.888C240.956 273.761 240.753 273.698 240.462 273.698C240.246 273.698 240.025 273.729 239.797 273.793C239.581 273.856 239.29 273.983 238.923 274.173V280.481H235.598V274.496C235.598 274.204 235.528 274.002 235.389 273.888C235.262 273.761 235.053 273.698 234.762 273.698C234.546 273.698 234.331 273.729 234.116 273.793C233.9 273.843 233.609 273.957 233.242 274.135V280.481H229.803V271.038H232.52ZM249.103 266.782C249.774 266.782 250.11 267.124 250.11 267.808V268.796C250.11 269.48 249.774 269.822 249.103 269.822H247.621C246.95 269.822 246.614 269.48 246.614 268.796V267.808C246.614 267.124 246.95 266.782 247.621 266.782H249.103ZM250.091 271.038V280.481H246.652V271.038H250.091ZM254.841 271.038L255.145 272.444C255.779 271.886 256.437 271.468 257.121 271.19C257.805 270.911 258.47 270.772 259.116 270.772C260.94 270.772 261.852 271.652 261.852 273.413V280.481H258.394V274.496C258.394 274.192 258.331 273.983 258.204 273.869C258.078 273.755 257.869 273.698 257.577 273.698C257.286 273.698 256.988 273.736 256.684 273.812C256.38 273.875 256.007 273.995 255.563 274.173V280.481H252.105V271.038H254.841ZM267.14 271.038V277.023C267.127 277.314 267.191 277.523 267.33 277.65C267.469 277.776 267.697 277.84 268.014 277.84C268.28 277.84 268.546 277.808 268.812 277.745C269.091 277.669 269.426 277.548 269.819 277.384V271.038H273.296V280.481H270.579L270.275 279.113C269.642 279.657 269.008 280.069 268.375 280.348C267.754 280.614 267.108 280.747 266.437 280.747C264.6 280.747 263.682 279.866 263.682 278.106V271.038H267.14ZM277.751 266.63C278.422 266.63 278.758 266.972 278.758 267.656V268.644C278.758 269.328 278.422 269.67 277.751 269.67H276.269C275.598 269.67 275.262 269.328 275.262 268.644V267.656C275.262 266.972 275.598 266.63 276.269 266.63H277.751ZM278.777 271.038V279.683C278.777 280.303 278.663 280.905 278.435 281.488C278.22 282.07 277.903 282.59 277.485 283.046C277.067 283.514 276.567 283.882 275.984 284.148L274.084 282.628C274.553 282.146 274.876 281.671 275.053 281.203C275.243 280.747 275.338 280.24 275.338 279.683V271.038H278.777ZM284.192 271.038V277.023C284.179 277.314 284.243 277.523 284.382 277.65C284.521 277.776 284.749 277.84 285.066 277.84C285.332 277.84 285.598 277.808 285.864 277.745C286.143 277.669 286.478 277.548 286.871 277.384V271.038H290.348V280.481H287.631L287.327 279.113C286.694 279.657 286.06 280.069 285.427 280.348C284.806 280.614 284.16 280.747 283.489 280.747C281.652 280.747 280.734 279.866 280.734 278.106V271.038H284.192ZM287.897 265.851L289.265 268.074L284.705 270.107L283.736 268.682L287.897 265.851ZM296.874 270.772C297.418 270.772 298.039 270.816 298.736 270.905C299.445 270.993 300.072 271.164 300.617 271.418L300.275 273.565C299.135 273.552 298.197 273.546 297.463 273.546C296.741 273.546 296.24 273.698 295.962 274.002C295.696 274.293 295.563 274.876 295.563 275.75C295.563 276.624 295.696 277.213 295.962 277.517C296.24 277.808 296.741 277.954 297.463 277.954C297.779 277.954 298.21 277.947 298.755 277.935C299.312 277.922 299.876 277.884 300.446 277.821L300.769 279.987C300.224 280.253 299.603 280.436 298.907 280.538C298.223 280.652 297.532 280.709 296.836 280.709C295.645 280.709 294.689 280.55 293.967 280.234C293.245 279.904 292.725 279.379 292.409 278.657C292.092 277.935 291.934 276.966 291.934 275.75C291.934 274.534 292.092 273.565 292.409 272.843C292.738 272.108 293.264 271.582 293.986 271.266C294.708 270.936 295.67 270.772 296.874 270.772ZM306.805 270.772C308.502 270.772 309.712 271.05 310.434 271.608C311.156 272.165 311.517 272.988 311.517 274.078C311.53 274.952 311.289 275.591 310.795 275.997C310.301 276.402 309.427 276.605 308.173 276.605H305.342C305.431 277.149 305.614 277.523 305.893 277.726C306.184 277.928 306.634 278.03 307.242 278.03C307.647 278.03 308.179 278.017 308.838 277.992C309.509 277.954 310.212 277.897 310.947 277.821L311.27 279.911C310.649 280.215 309.953 280.424 309.18 280.538C308.42 280.652 307.647 280.709 306.862 280.709C304.962 280.709 303.619 280.31 302.834 279.512C302.061 278.701 301.675 277.466 301.675 275.807C301.675 274.565 301.84 273.577 302.169 272.843C302.511 272.108 303.056 271.582 303.803 271.266C304.563 270.936 305.564 270.772 306.805 270.772ZM306.919 273.071C306.526 273.071 306.216 273.115 305.988 273.204C305.76 273.28 305.589 273.451 305.475 273.717C305.374 273.97 305.31 274.356 305.285 274.876H307.204C307.635 274.876 307.907 274.812 308.021 274.686C308.148 274.559 308.211 274.331 308.211 274.002C308.211 273.634 308.11 273.387 307.907 273.261C307.704 273.134 307.375 273.071 306.919 273.071ZM188.194 294.038L188.46 295.387C188.802 294.943 189.296 294.57 189.942 294.266C190.6 293.962 191.303 293.81 192.051 293.81C193.254 293.81 194.115 294.247 194.635 295.121C195.154 295.995 195.414 297.242 195.414 298.864C195.414 300.143 195.274 301.137 194.996 301.847C194.73 302.543 194.331 303.037 193.799 303.329C193.279 303.607 192.627 303.747 191.842 303.747C191.272 303.747 190.721 303.677 190.189 303.538C189.669 303.398 189.207 303.177 188.802 302.873C188.827 303.202 188.846 303.544 188.859 303.899C188.871 304.253 188.878 304.595 188.878 304.925V306.996H185.42V294.038H188.194ZM190.607 296.337C190.227 296.337 189.91 296.394 189.657 296.508C189.403 296.622 189.144 296.761 188.878 296.926V301.087C189.131 301.163 189.378 301.239 189.619 301.315C189.872 301.378 190.17 301.41 190.512 301.41C190.828 301.41 191.088 301.353 191.291 301.239C191.493 301.125 191.639 300.89 191.728 300.536C191.816 300.168 191.861 299.617 191.861 298.883C191.861 298.161 191.816 297.622 191.728 297.268C191.639 296.9 191.5 296.653 191.31 296.527C191.132 296.4 190.898 296.337 190.607 296.337ZM201.785 293.772C203.026 293.772 204.014 293.936 204.749 294.266C205.496 294.582 206.035 295.108 206.364 295.843C206.706 296.577 206.877 297.553 206.877 298.769C206.877 299.985 206.706 300.954 206.364 301.676C206.035 302.398 205.496 302.917 204.749 303.234C204.014 303.55 203.026 303.709 201.785 303.709C200.544 303.709 199.549 303.55 198.802 303.234C198.055 302.917 197.516 302.398 197.187 301.676C196.858 300.954 196.693 299.985 196.693 298.769C196.693 297.553 196.858 296.577 197.187 295.843C197.516 295.108 198.055 294.582 198.802 294.266C199.549 293.936 200.544 293.772 201.785 293.772ZM201.785 296.185C201.392 296.185 201.088 296.254 200.873 296.394C200.658 296.52 200.506 296.774 200.417 297.154C200.341 297.521 200.303 298.059 200.303 298.769C200.303 299.465 200.341 299.997 200.417 300.365C200.506 300.732 200.658 300.985 200.873 301.125C201.088 301.251 201.392 301.315 201.785 301.315C202.178 301.315 202.475 301.251 202.678 301.125C202.893 300.985 203.045 300.732 203.134 300.365C203.223 299.997 203.267 299.465 203.267 298.769C203.267 298.059 203.223 297.521 203.134 297.154C203.045 296.774 202.893 296.52 202.678 296.394C202.475 296.254 202.178 296.185 201.785 296.185ZM211.847 294.038V300.023C211.834 300.314 211.898 300.523 212.037 300.65C212.176 300.776 212.404 300.84 212.721 300.84C212.987 300.84 213.253 300.808 213.519 300.745C213.798 300.669 214.133 300.548 214.526 300.384V294.038H218.003V303.481H215.286L214.982 302.113C214.349 302.657 213.715 303.069 213.082 303.348C212.461 303.614 211.815 303.747 211.144 303.747C209.307 303.747 208.389 302.866 208.389 301.106V294.038H211.847ZM228.481 301.201V303.481H219.627V301.201L224.377 296.318H219.722V294.038H228.386V296.318L223.636 301.201H228.481ZM227.094 289.079L227.93 290.371L224.928 292.841H223.541L220.52 290.371L221.375 289.079L224.149 290.561H224.301L227.094 289.079ZM232.626 289.782C233.298 289.782 233.633 290.124 233.633 290.808V291.796C233.633 292.48 233.298 292.822 232.626 292.822H231.144C230.473 292.822 230.137 292.48 230.137 291.796V290.808C230.137 290.124 230.473 289.782 231.144 289.782H232.626ZM233.614 294.038V303.481H230.175V294.038H233.614ZM242.45 294.038V296.185H239.999V300.232C239.999 300.523 240.068 300.732 240.208 300.859C240.347 300.973 240.581 301.03 240.911 301.03H242.013L242.393 303.291C242.139 303.392 241.829 303.474 241.462 303.538C241.107 303.601 240.746 303.645 240.379 303.671C240.011 303.709 239.695 303.728 239.429 303.728C238.542 303.728 237.839 303.5 237.32 303.044C236.813 302.575 236.56 301.929 236.56 301.106L236.541 296.185H234.926V294.133L236.541 294.057V291.492H239.999V294.038H242.45ZM246.227 289.782C246.898 289.782 247.234 290.124 247.234 290.808V291.796C247.234 292.48 246.898 292.822 246.227 292.822H244.745C244.074 292.822 243.738 292.48 243.738 291.796V290.808C243.738 290.124 244.074 289.782 244.745 289.782H246.227ZM247.215 294.038V303.481H243.776V294.038H247.215ZM253.998 293.772C255.696 293.772 256.905 294.05 257.627 294.608C258.349 295.165 258.71 295.988 258.71 297.078C258.723 297.952 258.482 298.591 257.988 298.997C257.494 299.402 256.62 299.605 255.366 299.605H252.535C252.624 300.149 252.808 300.523 253.086 300.726C253.378 300.928 253.827 301.03 254.435 301.03C254.841 301.03 255.373 301.017 256.031 300.992C256.703 300.954 257.406 300.897 258.14 300.821L258.463 302.911C257.843 303.215 257.146 303.424 256.373 303.538C255.613 303.652 254.841 303.709 254.055 303.709C252.155 303.709 250.813 303.31 250.027 302.512C249.255 301.701 248.868 300.466 248.868 298.807C248.868 297.565 249.033 296.577 249.362 295.843C249.704 295.108 250.249 294.582 250.996 294.266C251.756 293.936 252.757 293.772 253.998 293.772ZM254.112 296.071C253.72 296.071 253.409 296.115 253.181 296.204C252.953 296.28 252.782 296.451 252.668 296.717C252.567 296.97 252.504 297.356 252.478 297.876H254.397C254.828 297.876 255.1 297.812 255.214 297.686C255.341 297.559 255.404 297.331 255.404 297.002C255.404 296.634 255.303 296.387 255.1 296.261C254.898 296.134 254.568 296.071 254.112 296.071ZM267.033 294.038L267.299 295.387C267.641 294.943 268.135 294.57 268.781 294.266C269.439 293.962 270.142 293.81 270.89 293.81C272.093 293.81 272.954 294.247 273.474 295.121C273.993 295.995 274.253 297.242 274.253 298.864C274.253 300.143 274.113 301.137 273.835 301.847C273.569 302.543 273.17 303.037 272.638 303.329C272.118 303.607 271.466 303.747 270.681 303.747C270.111 303.747 269.56 303.677 269.028 303.538C268.508 303.398 268.046 303.177 267.641 302.873C267.666 303.202 267.685 303.544 267.698 303.899C267.71 304.253 267.717 304.595 267.717 304.925V306.996H264.259V294.038H267.033ZM269.446 296.337C269.066 296.337 268.749 296.394 268.496 296.508C268.242 296.622 267.983 296.761 267.717 296.926V301.087C267.97 301.163 268.217 301.239 268.458 301.315C268.711 301.378 269.009 301.41 269.351 301.41C269.667 301.41 269.927 301.353 270.13 301.239C270.332 301.125 270.478 300.89 270.567 300.536C270.655 300.168 270.7 299.617 270.7 298.883C270.7 298.161 270.655 297.622 270.567 297.268C270.478 296.9 270.339 296.653 270.149 296.527C269.971 296.4 269.737 296.337 269.446 296.337ZM281.118 293.772C281.967 293.772 282.682 293.886 283.265 294.114C283.86 294.342 284.31 294.722 284.614 295.254C284.918 295.786 285.07 296.52 285.07 297.458V303.481H282.315L281.992 302.075C281.65 302.48 281.2 302.86 280.643 303.215C280.098 303.557 279.414 303.728 278.591 303.728C278.008 303.728 277.476 303.626 276.995 303.424C276.526 303.221 276.146 302.923 275.855 302.531C275.576 302.138 275.437 301.644 275.437 301.049V300.099C275.437 299.339 275.703 298.75 276.235 298.332C276.767 297.901 277.502 297.686 278.439 297.686H281.612V297.439C281.599 297.046 281.498 296.767 281.308 296.603C281.131 296.425 280.801 296.337 280.32 296.337C279.826 296.337 279.218 296.349 278.496 296.375C277.774 296.387 277.02 296.419 276.235 296.47L275.931 294.247C276.4 294.158 276.944 294.082 277.565 294.019C278.198 293.943 278.832 293.886 279.465 293.848C280.098 293.797 280.649 293.772 281.118 293.772ZM278.8 300.555C278.8 301.061 279.117 301.315 279.75 301.315C280.029 301.327 280.326 301.277 280.643 301.163C280.972 301.036 281.295 300.871 281.612 300.669V299.434H279.636C279.345 299.446 279.129 299.522 278.99 299.662C278.863 299.788 278.8 299.966 278.8 300.194V300.555ZM289.688 294.038L289.954 295.387C290.296 294.943 290.79 294.57 291.436 294.266C292.095 293.962 292.798 293.81 293.545 293.81C294.748 293.81 295.61 294.247 296.129 295.121C296.648 295.995 296.908 297.242 296.908 298.864C296.908 300.143 296.769 301.137 296.49 301.847C296.224 302.543 295.825 303.037 295.293 303.329C294.774 303.607 294.121 303.747 293.336 303.747C292.766 303.747 292.215 303.677 291.683 303.538C291.164 303.398 290.701 303.177 290.296 302.873C290.321 303.202 290.34 303.544 290.353 303.899C290.366 304.253 290.372 304.595 290.372 304.925V306.996H286.914V294.038H289.688ZM292.101 296.337C291.721 296.337 291.404 296.394 291.151 296.508C290.898 296.622 290.638 296.761 290.372 296.926V301.087C290.625 301.163 290.872 301.239 291.113 301.315C291.366 301.378 291.664 301.41 292.006 301.41C292.323 301.41 292.582 301.353 292.785 301.239C292.988 301.125 293.133 300.89 293.222 300.536C293.311 300.168 293.355 299.617 293.355 298.883C293.355 298.161 293.311 297.622 293.222 297.268C293.133 296.9 292.994 296.653 292.804 296.527C292.627 296.4 292.392 296.337 292.101 296.337ZM301.056 289.782C301.727 289.782 302.063 290.124 302.063 290.808V291.796C302.063 292.48 301.727 292.822 301.056 292.822H299.574C298.903 292.822 298.567 292.48 298.567 291.796V290.808C298.567 290.124 298.903 289.782 299.574 289.782H301.056ZM302.044 294.038V303.481H298.605V294.038H302.044ZM308.827 293.772C310.525 293.772 311.734 294.05 312.456 294.608C313.178 295.165 313.539 295.988 313.539 297.078C313.552 297.952 313.311 298.591 312.817 298.997C312.323 299.402 311.449 299.605 310.195 299.605H307.364C307.453 300.149 307.637 300.523 307.915 300.726C308.207 300.928 308.656 301.03 309.264 301.03C309.67 301.03 310.202 301.017 310.86 300.992C311.532 300.954 312.235 300.897 312.969 300.821L313.292 302.911C312.672 303.215 311.975 303.424 311.202 303.538C310.442 303.652 309.67 303.709 308.884 303.709C306.984 303.709 305.642 303.31 304.856 302.512C304.084 301.701 303.697 300.466 303.697 298.807C303.697 297.565 303.862 296.577 304.191 295.843C304.533 295.108 305.078 294.582 305.825 294.266C306.585 293.936 307.586 293.772 308.827 293.772ZM308.941 296.071C308.549 296.071 308.238 296.115 308.01 296.204C307.782 296.28 307.611 296.451 307.497 296.717C307.396 296.97 307.333 297.356 307.307 297.876H309.226C309.657 297.876 309.929 297.812 310.043 297.686C310.17 297.559 310.233 297.331 310.233 297.002C310.233 296.634 310.132 296.387 309.929 296.261C309.727 296.134 309.397 296.071 308.941 296.071ZM317.741 294.038L318.045 295.444C318.665 294.886 319.292 294.468 319.926 294.19C320.572 293.911 321.199 293.772 321.807 293.772H322.339L322.035 296.945H321.123C320.768 296.945 320.388 296.976 319.983 297.04C319.59 297.103 319.096 297.204 318.501 297.344V303.481H315.043V294.038H317.741ZM328.562 293.772C329.411 293.772 330.127 293.886 330.709 294.114C331.305 294.342 331.754 294.722 332.058 295.254C332.362 295.786 332.514 296.52 332.514 297.458V303.481H329.759L329.436 302.075C329.094 302.48 328.645 302.86 328.087 303.215C327.543 303.557 326.859 303.728 326.035 303.728C325.453 303.728 324.921 303.626 324.439 303.424C323.971 303.221 323.591 302.923 323.299 302.531C323.021 302.138 322.881 301.644 322.881 301.049V300.099C322.881 299.339 323.147 298.75 323.679 298.332C324.211 297.901 324.946 297.686 325.883 297.686H329.056V297.439C329.044 297.046 328.942 296.767 328.752 296.603C328.575 296.425 328.246 296.337 327.764 296.337C327.27 296.337 326.662 296.349 325.94 296.375C325.218 296.387 324.465 296.419 323.679 296.47L323.375 294.247C323.844 294.158 324.389 294.082 325.009 294.019C325.643 293.943 326.276 293.886 326.909 293.848C327.543 293.797 328.094 293.772 328.562 293.772ZM326.244 300.555C326.244 301.061 326.561 301.315 327.194 301.315C327.473 301.327 327.771 301.277 328.087 301.163C328.417 301.036 328.74 300.871 329.056 300.669V299.434H327.08C326.789 299.446 326.574 299.522 326.434 299.662C326.308 299.788 326.244 299.966 326.244 300.194V300.555Z" fill="#265375"/>
<path d="M82.0841 313.276L68.6527 298.434L59.8158 315.633" stroke="#FDFEFF" stroke-width="5"/>
<path d="M97.897 373.746C81.2091 353.978 70.7271 321.307 68.5374 301.77" stroke="white" stroke-width="5"/>
<path d="M163.488 106.39L173.453 89.0294L154.365 85.9399" stroke="#FDFEFF" stroke-width="5"/>
<path d="M110.864 140.115C124.508 118.135 152.34 98.0705 170.245 89.9506" stroke="white" stroke-width="5"/>
<path d="M390.589 136.078L409.416 142.877L409.144 123.542" stroke="#FDFEFF" stroke-width="5"/>
<path d="M348.238 90.1094C372.253 99.7288 396.846 123.654 407.952 139.877" stroke="white" stroke-width="5"/>
<path d="M419.878 358.314L418.532 378.286L437.043 372.695" stroke="#FDFEFF" stroke-width="5"/>
<path d="M452.392 304.933C449.765 330.669 433.545 360.905 421.012 376.052" stroke="white" stroke-width="5"/>
<defs>
<radialGradient id="paint0_angular" cx="0" cy="0" r="1" gradientUnits="userSpaceOnUse" gradientTransform="translate(261.36 260.36) rotate(62.7257) scale(136.563)">
<stop offset="0.0815747" stop-color="#1B669F"/>
<stop offset="0.281786" stop-color="#124E7C"/>
<stop offset="0.4375" stop-color="#215074"/>
<stop offset="0.572144" stop-color="#4986B5"/>
<stop offset="0.734375" stop-color="#53AAEC"/>
<stop offset="0.880132" stop-color="#3A90D1"/>
</radialGradient>
<clipPath id="clip0">
<rect width="53.76" height="53.76" fill="white" transform="translate(131.32 398.401)"/>
</clipPath>
<clipPath id="clip1">
<rect width="52.92" height="52.92" fill="white" transform="translate(41.1599 183.761)"/>
</clipPath>
</defs>
</svg>
