<svg width="432" height="397" viewBox="0 0 432 397" fill="none" xmlns="http://www.w3.org/2000/svg">
<path d="M321.636 316.885L303.731 313.364V305.469L310.737 301.422V300.917L323.47 308.263L321.685 309.294L321.688 309.296L321.636 309.326V316.885ZM298.91 281.332L287.496 274.739L298.91 266.831V281.332Z" fill="#516E8A"/>
<path d="M347.093 214.805L395.264 242.637V294.093L347.091 321.891L298.91 294.093V242.637L347.093 214.805Z" fill="#DFB173"/>
<path d="M323.47 308.263L310.737 300.917V288.167L310.688 288.14L310.692 288.137L298.921 281.338L298.946 251.642L298.954 251.647V261.676L346.515 279.124L347.086 279.453V279.45L347.087 279.45L347.088 294.62L323.47 308.263Z" fill="#C0924D"/>
<path d="M346.516 279.124L298.954 261.676V251.647L346.516 279.124Z" fill="#A5804B"/>
<path d="M348.12 278.86L395.263 251.621V257.292L348.12 278.86Z" fill="#BD9969"/>
<path d="M347.093 202.441L402.269 234.32V247.574L347.093 279.453L291.904 247.574V234.32L347.093 202.441Z" fill="#DFB173"/>
<path d="M402.22 234.292L373.017 217.419L402.224 234.29L402.22 234.292ZM291.954 234.29L347.086 202.442L347.09 202.444L291.955 234.291" fill="#FBE4C0"/>
<path d="M347.086 266.139L291.954 234.29L347.09 202.444L373.017 217.419L402.22 234.292L347.086 266.139ZM330.388 241.281L328.805 242.194L332.625 244.401L363.809 226.388L359.989 224.181L335.226 238.486L345.384 219.017L315.401 235.777L330.388 241.281Z" fill="#F3CC94"/>
<path d="M332.625 244.401L328.806 242.194L330.388 241.28L333.225 242.322L335.226 238.486L359.989 224.181L363.809 226.388L332.625 244.401Z" fill="#C0924D"/>
<path d="M347.086 279.453L346.515 279.124L346.534 279.131L347.086 279.45V279.453Z" fill="#B88744"/>
<path d="M298.91 251.621L291.904 247.574L298.91 251.621V251.621Z" fill="#CAA875"/>
<path d="M298.947 251.642L298.91 251.621V251.62L298.947 251.642V251.642Z" fill="#C0924D"/>
<path d="M298.955 251.647L298.946 251.641V251.641L298.955 251.646V251.647Z" fill="#B88744"/>
<path d="M346.535 279.131L346.516 279.124L298.954 251.646V251.646L346.535 279.131Z" fill="#AF8343"/>
<path d="M347.086 279.45L346.535 279.131L298.954 251.646L298.946 251.642L298.91 251.621L291.904 247.574V234.32L347.086 266.139V279.45Z" fill="#C0924D"/>
<path d="M385.243 279.949C385.243 286.339 380.067 294.254 373.682 297.631C367.296 301.008 362.12 298.566 362.12 292.178C362.12 285.788 367.296 277.872 373.682 274.495C380.067 271.118 385.243 273.561 385.243 279.949Z" fill="white"/>
<path d="M376.509 277.16L371.478 289.292L368.496 286.465L364.192 290.531L371.491 296.444L386.234 269.548L376.509 277.16Z" fill="#80CC2A"/>
<path d="M330.388 241.281L315.4 235.776L345.383 219.017L335.226 238.486L330.388 241.281Z" fill="#CDAD83"/>
<path d="M333.225 242.322L330.388 241.28L335.226 238.486L333.225 242.322Z" fill="#A47F4C"/>
<path d="M359.463 232.55L333.152 247.817V213.267L359.463 198V232.55Z" fill="white"/>
<path d="M339.173 217.451L335.422 219.629V215.875L339.173 213.697V217.451Z" fill="#80CC2A"/>
<path d="M357.706 205.295L340.349 215.367V214.216L357.706 204.144V205.295Z" fill="#D3D4D3"/>
<path d="M339.173 222.808L335.422 224.984V221.231L339.173 219.054V222.808Z" fill="#80CC2A"/>
<path d="M357.706 210.651L340.349 220.723V219.572L357.706 209.5V210.651Z" fill="#D3D4D3"/>
<path d="M339.173 228.163L335.422 230.34V226.586L339.173 224.409V228.163Z" fill="#80CC2A"/>
<path d="M357.706 216.007L340.349 226.079V224.928L357.706 214.855V216.007Z" fill="#D3D4D3"/>
<path d="M339.173 233.519L335.422 235.696V231.942L339.173 229.765V233.519Z" fill="#80CC2A"/>
<path d="M357.706 221.363L340.349 231.435V230.284L357.706 220.211V221.363Z" fill="#D3D4D3"/>
<path d="M339.173 238.874L335.422 241.052V237.298L339.173 235.12V238.874Z" fill="#E21E26"/>
<path d="M357.706 226.718L340.349 236.79V235.639L357.706 225.567V226.718Z" fill="#D3D4D3"/>
<path d="M376.822 396.896L277.394 377.342L328.642 340.912V369.099L376.822 396.896Z" fill="#516E8A"/>
<path d="M376.824 289.81L424.995 317.642V369.099L376.822 396.896L328.642 369.099V317.642L376.824 289.81Z" fill="#DFB173"/>
<path d="M376.822 396.896L328.642 369.099L328.677 326.647L328.685 326.651V336.681L376.253 354.131L376.818 354.457V354.454H376.819L376.822 396.896Z" fill="#C0924D"/>
<path d="M376.253 354.131L328.685 336.681V326.651L376.253 354.131Z" fill="#A5804B"/>
<path d="M377.842 353.87L424.995 326.627V332.296L377.842 353.87Z" fill="#BD9969"/>
<path d="M376.825 277.446L432 309.326V322.579L376.825 354.458L321.636 322.579V309.326L376.825 277.446Z" fill="#DFB173"/>
<path d="M431.951 309.297L400.061 290.872L431.955 309.294L431.951 309.297Z" fill="#FBE4C0"/>
<path d="M321.688 309.296L321.686 309.294L323.471 308.263L323.473 308.265L321.688 309.296Z" fill="#F1D9B4"/>
<path d="M347.088 294.623V294.62L364.005 284.848C364.003 284.85 364.003 284.851 364.002 284.853L347.088 294.623Z" fill="#F3CC94"/>
<path d="M323.473 308.265L323.471 308.263L347.088 294.62V294.623L323.473 308.265Z" fill="#EAC388"/>
<path d="M364.002 284.853C364.003 284.851 364.003 284.85 364.004 284.848L376.255 277.771L376.253 277.777L364.002 284.853Z" fill="#FBE4C0"/>
<path d="M376.252 277.777L376.255 277.771L376.818 277.446L376.821 277.448L376.252 277.777Z" fill="#D6D979"/>
<path d="M376.818 341.144L321.688 309.296L323.473 308.265L347.089 294.623L364.002 284.853L376.253 277.777L376.821 277.448L400.062 290.872L431.951 309.297L376.818 341.144ZM360.209 316.234L358.537 317.199L362.357 319.405L393.541 301.392L389.721 299.186L365.062 313.43L375.213 293.973L345.23 310.733L360.209 316.234Z" fill="#F3CC94"/>
<path d="M362.356 319.405L358.537 317.199L360.208 316.234L363.054 317.279L365.062 313.43L389.721 299.186L393.54 301.392L362.356 319.405Z" fill="#C0924D"/>
<path d="M328.642 326.627L321.636 322.579L328.642 326.626V326.627Z" fill="#CAA875"/>
<path d="M328.678 326.647L328.642 326.626V326.625L328.678 326.646V326.647Z" fill="#C0924D"/>
<path d="M376.818 354.458L376.253 354.131L376.271 354.138L376.818 354.454V354.458ZM328.685 326.651L328.677 326.647V326.646L328.685 326.651V326.651Z" fill="#B88744"/>
<path d="M376.271 354.138L376.253 354.131L328.685 326.651V326.651L376.271 354.138Z" fill="#AF8343"/>
<path d="M376.818 354.454L376.271 354.138L328.685 326.651L328.678 326.646L328.642 326.626L321.636 322.579V309.326L376.818 341.144V354.454Z" fill="#C0924D"/>
<path d="M414.974 354.955C414.974 361.344 409.797 369.259 403.413 372.636C397.027 376.013 391.851 373.571 391.851 367.182C391.851 360.793 397.027 352.877 403.413 349.5C409.797 346.123 414.974 348.565 414.974 354.955Z" fill="white"/>
<path d="M406.241 352.165L401.209 364.298L398.227 361.471L393.923 365.537L401.222 371.45L415.966 344.554L406.241 352.165Z" fill="#80CC2A"/>
<path d="M360.209 316.234L345.23 310.733L375.214 293.973L365.062 313.43L360.209 316.234Z" fill="#CDAD83"/>
<path d="M363.054 317.279L360.208 316.234L365.062 313.43L363.054 317.279Z" fill="#A47F4C"/>
<path d="M389.194 307.554L362.883 322.822V288.272L389.194 273.005V307.554Z" fill="white"/>
<path d="M368.904 292.456L365.153 294.634V290.88L368.904 288.703V292.456Z" fill="#80CC2A"/>
<path d="M387.437 280.3L370.08 290.372V289.222L387.437 279.149V280.3Z" fill="#D3D4D3"/>
<path d="M368.904 297.812L365.153 299.989V296.236L368.904 294.059V297.812Z" fill="#80CC2A"/>
<path d="M387.437 285.656L370.08 295.728V294.577L387.437 284.505V285.656Z" fill="#D3D4D3"/>
<path d="M368.904 303.167L365.153 305.346V301.59L368.904 299.413V303.167Z" fill="#E21E26"/>
<path d="M387.437 291.011L370.08 301.084V299.933L387.437 289.861V291.011Z" fill="#D3D4D3"/>
<path d="M368.904 308.524L365.153 310.7V306.946L368.904 304.769V308.524Z" fill="#E21E26"/>
<path d="M387.437 296.367L370.08 306.439V305.289L387.437 295.216V296.367Z" fill="#D3D4D3"/>
<path d="M368.904 313.879L365.153 316.057V312.302L368.904 310.125V313.879Z" fill="#E21E26"/>
<path d="M387.437 301.723L370.08 311.796V310.644L387.437 300.572V301.723Z" fill="#D3D4D3"/>
<path d="M255.557 375.721L150 352.998L207.378 313.342V347.942L255.557 375.721Z" fill="#516E8A"/>
<path d="M255.56 268.652L303.731 296.484V347.942L255.557 375.721L207.378 347.942V296.484L255.56 268.652Z" fill="#DFB173"/>
<path d="M255.557 375.721L207.378 347.942L207.414 305.49L207.422 305.494V315.523L254.989 332.972L255.554 333.299V333.295L255.555 333.296L255.557 375.721Z" fill="#C0924D"/>
<path d="M254.989 332.972L207.421 315.523V305.494L254.989 332.972Z" fill="#A5804B"/>
<path d="M256.578 332.712L303.732 305.469V311.139L256.578 332.712Z" fill="#BD9969"/>
<path d="M255.561 256.289L310.737 288.167V301.422L255.561 333.299L200.373 301.422V288.167L255.561 256.289Z" fill="#DFB173"/>
<path d="M287.495 274.739L281.834 271.468L287.496 274.739L287.495 274.739Z" fill="#FBE4C0"/>
<path d="M298.91 281.335L287.495 274.739L287.496 274.739L298.91 281.332V281.335Z" fill="#F1D9B4"/>
<path d="M298.922 281.341L298.91 281.334V281.332L298.922 281.338V281.341Z" fill="#F3CC94"/>
<path d="M310.688 288.14L298.921 281.341V281.338L310.692 288.137L310.688 288.14Z" fill="#EAC388"/>
<path d="M200.421 288.137L255.554 256.289L255.557 256.29L200.423 288.138" fill="#FBE4C0"/>
<path d="M255.554 319.987L200.421 288.137L255.557 256.29L281.834 271.468L287.495 274.739L298.91 281.335L298.921 281.341L310.688 288.14L255.554 319.987ZM238.789 295.166L237.273 296.041L241.093 298.248L272.276 280.235L268.457 278.029L243.661 292.351L253.805 272.909L223.822 289.669L238.789 295.166Z" fill="#F3CC94"/>
<path d="M241.093 298.248L237.273 296.041L238.79 295.166L241.646 296.215L243.661 292.351L268.457 278.029L272.276 280.235L241.093 298.248Z" fill="#C0924D"/>
<path d="M255.554 333.299L254.989 332.972L255.007 332.979L255.554 333.295V333.299Z" fill="#B88744"/>
<path d="M207.379 305.469L200.373 301.422L207.379 305.469V305.469Z" fill="#CAA875"/>
<path d="M207.415 305.49L207.378 305.469V305.468L207.415 305.489V305.49Z" fill="#C0924D"/>
<path d="M207.423 305.494L207.414 305.489V305.488L207.423 305.493V305.494Z" fill="#B88744"/>
<path d="M255.007 332.979L254.989 332.972L207.421 305.494V305.493L255.007 332.979Z" fill="#AF8343"/>
<path d="M255.555 333.295L255.007 332.979L207.422 305.494L207.414 305.489L207.379 305.469L200.373 301.422V288.167L255.555 319.987V333.295Z" fill="#C0924D"/>
<path d="M293.71 333.796C293.71 340.187 288.535 348.103 282.149 351.479C275.764 354.856 270.587 352.415 270.587 346.024C270.587 339.636 275.764 331.719 282.149 328.343C288.535 324.965 293.71 327.407 293.71 333.796Z" fill="white"/>
<path d="M291.107 333.18L285.495 333.492L282.589 338.447L279.346 336.739L273.994 342.224L279.633 343.488L276.557 348.737L279.982 348.102L282.879 344.217L286.003 344.916L289.314 341.989L285.887 340.183L291.107 333.18Z" fill="#E21E26"/>
<path d="M238.79 295.166L223.822 289.669L253.805 272.908L243.661 292.351L238.79 295.166Z" fill="#CDAD83"/>
<path d="M241.646 296.214L238.79 295.166L243.661 292.351L241.646 296.214Z" fill="#A47F4C"/>
<path d="M267.93 286.397L241.619 301.664V267.115L267.93 251.847V286.397Z" fill="white"/>
<path d="M247.641 271.298L243.889 273.477V269.721L247.641 267.544V271.298Z" fill="#E21E26"/>
<path d="M266.174 259.142L248.816 269.215V268.064L266.174 257.991V259.142Z" fill="#D3D4D3"/>
<path d="M247.641 276.654L243.889 278.83V275.079L247.641 272.9V276.654Z" fill="#80CC2A"/>
<path d="M266.174 264.498L248.816 274.571V273.419L266.174 263.347V264.498Z" fill="#D3D4D3"/>
<path d="M247.641 282.009L243.889 284.187V280.433L247.641 278.255V282.009Z" fill="#80CC2A"/>
<path d="M266.174 269.853L248.816 279.927V278.776L266.174 268.703V269.853Z" fill="#D3D4D3"/>
<path d="M247.641 287.366L243.889 289.543V285.789L247.641 283.612V287.366Z" fill="#80CC2A"/>
<path d="M266.174 275.209L248.816 285.282V284.13L266.174 274.058V275.209Z" fill="#D3D4D3"/>
<path d="M247.641 292.722L243.889 294.9V291.145L247.641 288.968V292.722Z" fill="#E21E26"/>
<path d="M266.174 280.566L248.816 290.637V289.487L266.174 279.414V280.566Z" fill="#D3D4D3"/>
<path d="M192.999 171.625L192.483 171.624C190.278 159.273 180.956 147.242 164.521 137.753C126.718 115.928 65.6187 115.818 28.0515 137.507C11.8718 146.848 2.70344 158.708 0.518736 170.929L0.000488281 170.928V176.698H0.00279385C0.0120071 191.007 9.50861 205.347 28.4776 216.298C66.2809 238.124 127.381 238.235 164.948 216.545C183.657 205.744 192.998 191.574 192.997 177.372H192.999V171.625Z" fill="#E9EAEC"/>
<path d="M192.999 169.665H192.93C192.079 156.024 182.609 142.502 164.521 132.059C126.718 110.234 65.6187 110.124 28.0515 131.813C10.3263 142.047 1.01164 155.302 0.081099 168.744H0.000488281V171.01H0.00279385C0.0154621 185.318 9.51091 199.654 28.4776 210.604C66.2809 232.43 127.381 232.541 164.948 210.851C183.465 200.161 192.801 186.169 192.99 172.115L192.999 172.113V169.665Z" fill="#6F92D3"/>
<path d="M164.949 208.909C127.381 230.598 66.2812 230.488 28.4779 208.662C-9.32538 186.836 -9.51658 151.56 28.0518 129.87C65.619 108.181 126.718 108.291 164.523 130.118C202.325 151.943 202.517 187.219 164.949 208.909Z" fill="#A0BBE6"/>
<path d="M163.659 207.115C126.8 228.394 66.8512 228.287 29.7608 206.871C-7.33073 185.457 -7.51729 150.847 29.3416 129.566C66.2006 108.285 126.149 108.394 163.24 129.808C200.33 151.221 200.518 185.833 163.659 207.115Z" fill="#265375"/>
<path d="M109.01 144.768L65.7593 169.74V162.118L109.01 137.146V144.768Z" fill="#3C3B5B"/>
<path d="M40.1387 147.326V154.946L65.7597 169.74V162.118L40.1387 147.326Z" fill="#29283B"/>
<path d="M110.064 136.537L64.7061 162.726V104.491L110.064 78.3033V136.537Z" fill="#C6C7E3"/>
<path d="M39.1372 147.964L64.7064 162.726V104.491L48.005 42.7238L39.1372 37.6035V147.964Z" fill="#ADAECC"/>
<path d="M93.3626 16.5351L48.0044 42.7239L64.7058 104.491L110.064 78.3033L93.3626 16.5351Z" fill="#DCDEF2"/>
<path d="M50.3262 43.6821L92.1165 19.5536L107.742 77.3451L65.9519 101.472L50.3262 43.6821Z" fill="#2B2B48"/>
<path d="M52.937 44.7601L90.715 22.9499L105.13 76.2661L67.3547 98.0774L52.937 44.7601Z" fill="#4A5AB2"/>
<path d="M52.937 44.7601L90.715 22.9499L92.583 29.8622L54.8073 51.6724L52.937 44.7601Z" fill="#506ABC"/>
<path d="M91.0869 53.8789L87.7079 41.1347L64.5986 54.4766L67.9776 67.2209L91.0869 53.8789Z" fill="#BED558"/>
<path d="M95.8212 71.7354L92.4422 58.9911L69.333 72.3319L72.712 85.0774L95.8212 71.7354Z" fill="#BED558"/>
<path d="M39.1372 37.6036L84.4954 11.416L93.3632 16.5351L48.005 42.7239L39.1372 37.6036Z" fill="#ECEDF8"/>
<path d="M130.337 198.384C121.313 198.384 112.27 196.388 105.362 192.4C91.6058 184.458 91.5356 171.619 105.207 163.727C112.014 159.796 120.947 157.832 129.897 157.832C138.922 157.832 147.965 159.828 154.871 163.816C168.629 171.758 168.699 184.597 155.027 192.489C148.219 196.42 139.287 198.384 130.337 198.384Z" fill="#CBD4EA"/>
<path d="M145.135 168.153C145.191 170.699 146.168 175.995 145.665 177.637C145.163 179.28 140.142 179.136 138.212 178.053C136.284 176.973 132.439 173.534 132.1 173.554C131.762 173.573 125.828 170.761 124.953 168.772C124.077 166.782 126.724 165.53 126.724 165.53L133.477 166.257L137.442 165.78L145.135 168.153Z" fill="#34334E"/>
<path d="M123.948 173.566L121.448 175.254C121.448 175.254 113.77 173.862 112.431 174.21C111.092 174.558 110.99 178.825 110.99 178.825C110.99 178.825 116.481 182.837 119.238 183.532C121.995 184.227 127.147 186.742 129.664 186.177C132.181 185.612 131.931 184.181 131.931 184.181C131.931 184.181 131.863 178.324 131.516 176.73C131.171 175.135 123.948 173.566 123.948 173.566Z" fill="#34334E"/>
<path d="M145.135 166.349C145.191 168.894 146.168 174.191 145.665 175.833C145.163 177.474 140.142 177.33 138.212 176.25C136.284 175.167 132.439 171.731 132.1 171.75C131.762 171.768 125.828 168.957 124.953 166.967C124.077 164.978 126.724 163.725 126.724 163.725L133.477 164.452L137.442 163.977L145.135 166.349Z" fill="#A0616A"/>
<path d="M123.948 171.762L121.448 173.449C121.448 173.449 113.77 172.058 112.431 172.406C111.092 172.754 110.99 177.021 110.99 177.021C110.99 177.021 116.481 181.032 119.238 181.727C121.995 182.423 127.147 184.938 129.664 184.372C132.181 183.806 131.931 182.377 131.931 182.377C131.931 182.377 131.863 176.519 131.516 174.925C131.171 173.33 123.948 171.762 123.948 171.762Z" fill="#A0616A"/>
<path d="M148.314 90.3128C150.998 93.5766 150.834 101.694 149.506 109.837C148.177 117.98 147.077 133.956 146.98 138.294C146.882 142.632 138.01 141.938 135.976 140.523C133.944 139.108 132.109 136.663 131.704 135.495C131.298 134.329 131.698 103.048 132.558 101.726C133.418 100.404 148.314 90.3128 148.314 90.3128Z" fill="#A47F4C"/>
<path d="M147.064 135.431C147.064 135.431 147.257 166.315 145.724 169.289C144.191 172.263 136.015 169.982 135.378 168.083C134.742 166.185 132.512 136.289 132.733 133.394C132.953 130.499 147.064 135.431 147.064 135.431Z" fill="#A47F4C"/>
<path d="M137.077 169.776C136.129 166.396 133.715 121.752 133.612 119.853L134.374 119.813C134.399 120.276 136.886 166.271 137.81 169.571L137.077 169.776Z" fill="#BC965E"/>
<path d="M142.978 99.7001C142.978 99.7001 144.627 106.403 143.574 110.369C142.523 114.335 137.368 117.851 136.954 119.573C136.541 121.295 135.252 139.713 134.303 142.485C133.354 145.258 125.827 147.377 123.212 146.164C120.595 144.95 119.352 142.472 119.229 141.799C119.107 141.127 117.907 121.741 117.648 117.071C117.153 108.136 117.893 97.3461 118.035 96.829C118.175 96.3108 142.978 99.7001 142.978 99.7001Z" fill="#A47F4C"/>
<path d="M131 108.111C130.621 111.498 130.37 115.184 130.594 115.691C130.799 116.157 132.889 117.169 134.778 117.872C137.338 116.359 140.08 114.607 140.339 114.231C140.599 113.798 141.342 109.806 141.951 106.042C140.651 106.43 137.258 107.31 131 108.111ZM134.856 118.745L134.681 118.682C133.664 118.309 130.313 117.018 129.869 116.01C129.437 115.029 130.11 108.926 130.248 107.712L130.284 107.405L130.593 107.364C138.863 106.326 142.276 105.108 142.31 105.098L142.941 104.866L142.836 105.531C142.523 107.499 141.464 113.976 140.996 114.673C140.527 115.372 136.301 117.893 135.017 118.65L134.856 118.745Z" fill="#BC965E"/>
<path d="M147.172 113.458L147.095 113.453C146.638 113.393 144.561 112.321 144.202 111.505C143.883 110.779 144.672 105.086 145.026 102.672L145.062 102.434L145.29 102.356C145.322 102.344 148.514 101.229 149.966 98.8063L150.644 99.2117C149.263 101.518 146.581 102.705 145.775 103.019C145.241 106.696 144.785 110.705 144.931 111.199C145.106 111.597 146.454 112.381 147.018 112.609C147.501 111.813 149.186 108.917 149.498 107.962L150.25 108.207C149.869 109.372 147.678 113.096 147.513 113.301C147.462 113.362 147.355 113.458 147.172 113.458Z" fill="#BC965E"/>
<path d="M132.422 131.633C132.813 134.075 133.955 139.516 134.44 142.003C134.925 144.489 135.249 152.292 135.129 157.65C135.01 163.008 134.823 173.302 133.08 175.707C131.833 177.43 121.881 176.745 121.448 173.449C121.265 172.052 118.635 136.734 118.635 136.734L132.422 131.633Z" fill="#A47F4C"/>
<path d="M122.878 174.553C122.865 174.305 121.611 149.489 120.415 135.968C119.218 122.421 119.876 97.0202 119.882 96.7645L120.645 96.7852C120.639 97.0397 119.981 122.397 121.175 135.901C122.372 149.436 123.627 174.266 123.64 174.515L122.878 174.553Z" fill="#BC965E"/>
<path d="M117.714 100.215C119.31 104.402 128.981 104.78 135.718 103.72C142.454 102.66 150.614 98.8822 150.227 94.8238C150.195 94.4967 149.984 87.7019 149.571 87.4912C144.858 85.0842 117.521 96.2253 117.521 96.2253L117.714 100.215Z" fill="#34334E"/>
<path d="M117.714 95.5494C119.31 99.7357 128.981 100.115 135.718 99.0551C142.454 97.9944 150.614 94.2158 150.227 90.1573C150.195 89.8302 149.984 83.0355 149.571 82.8247C144.858 80.4177 117.521 91.5589 117.521 91.5589L117.714 95.5494Z" fill="#6059B2"/>
<path d="M136.768 35.2783C136.768 35.2783 141.136 32.5834 146.356 35.2069C150.76 37.4204 150.432 43.0912 150.51 46.651C150.587 50.2096 148.716 70.7392 148.707 73.8164C148.698 76.8925 150.873 87.7043 151.098 92.8257C151.325 97.9483 143.742 100.606 137.827 101.783C131.913 102.958 117.117 104.089 116.503 97.4186C115.888 90.7481 116.141 77.9889 116.275 74.9612C116.407 71.9334 112.83 51.1736 114.188 48.4395C115.545 45.7055 125.729 38.7944 125.729 38.7944L136.768 35.2783Z" fill="#D8DAF1"/>
<path d="M125.397 39.5694L125.386 39.5671C125.133 39.5175 125.198 39.5371 125.099 39.2952C124.962 38.9624 124.9 38.5743 124.803 38.2265C124.47 37.0219 124.137 35.8172 123.803 34.6126C123.803 34.6126 120.784 35.6882 119.588 34.8487C118.394 34.0103 116.013 27.075 116.013 27.075C116.013 27.075 113.693 21.2268 113.453 15.8635C113.214 10.5014 127.311 10.9206 129.798 12.1713C132.283 13.4208 135.24 23.1018 134.876 26.3229C134.514 29.5453 135.95 31.4582 135.95 31.4582C136.544 32.2344 137.139 33.0118 137.735 33.7891C138.162 34.3454 138.843 34.9143 138.037 35.4476C137.37 35.8875 136.71 36.3493 135.964 36.6453C135.116 36.9816 131.465 38.534 130.33 38.7735C129.034 39.0465 127.727 39.2711 126.413 39.4427C126.125 39.4807 125.685 39.62 125.397 39.5694Z" fill="#F8A27E"/>
<path d="M119.983 23.5325C120.317 23.0304 120.584 22.4119 121.886 23.0039C123.187 23.5947 124.986 27.6612 124.986 27.6612C124.986 27.6612 126.09 29.0501 126.83 29.3104C127.569 29.5719 131.934 29.8701 131.934 29.8701L134.59 28.7553C134.59 28.7553 137.083 22.5755 137.367 20.0833C137.651 17.5911 137.27 8.61273 130.535 6.9958C124.091 4.09361 117.679 8.25805 115.074 10.2769C112.469 12.2946 112.881 14.2651 112.851 14.8098C112.821 15.3557 114.096 17.6395 114.428 18.1646C114.759 18.6898 115.904 21.8879 115.904 21.8879L118.716 26.8044L120.389 26.4693L119.983 23.5325Z" fill="#C83C2B"/>
<path d="M120.87 23.7469C121.075 23.3507 121.922 22.7138 122.576 23.0628C123.229 23.4106 123.495 27.7454 122.89 28.6633C122.284 29.5789 121.101 28.2868 121.117 28.1727C121.133 28.0587 120.87 23.7469 120.87 23.7469Z" fill="#F8A27E"/>
<path d="M117.952 69.3489C117.508 70.5098 110.786 80.5224 107.631 81.3631C104.477 82.2038 102.479 78.8732 102.294 77.7353C102.11 76.5986 106.677 65.3492 108.27 63.6298C109.867 61.9104 120.374 63.0217 117.952 69.3489Z" fill="#F8A27E"/>
<path d="M93.349 57.0954C93.349 57.0954 97.7794 60.7139 98.5061 61.8207C99.2328 62.9274 101.04 66.0876 101.04 66.0876C101.04 66.0876 105.201 70.2762 106.843 71.5672C108.485 72.8594 107.974 81.7226 105.155 81.1778C102.337 80.6331 100.163 76.3454 97.7207 72.6152C95.2769 68.8861 92.9804 65.6327 92.9804 65.6327L91.0341 65.3782C91.0341 65.3782 89.0464 65.4899 88.4037 64.8012C87.7623 64.1125 88.2563 62.1524 88.2563 62.1524L88.7066 60.4894L89.7673 58.9266L90.9708 57.7715L87.7657 55.5418C87.7657 55.5418 86.7661 55.0766 86.6555 54.7219C86.545 54.3648 87.5446 54.0136 87.5446 54.0136L92.7559 56.4632L93.349 57.0954Z" fill="#F8A27E"/>
<path d="M120.961 45.1479C125.96 47.8912 125.661 52.9826 124.146 56.9167C122.631 60.8496 119.917 67.7976 117.136 70.9267C115.588 72.6645 106.604 67.3508 107.025 65.1534C107.445 62.9549 112.984 50.4547 114.188 48.4393C117.156 43.4664 120.961 45.1479 120.961 45.1479Z" fill="#ECEDF8"/>
<path d="M306.879 88.0744L317.296 82.0611C319.616 80.7211 321.496 77.4638 321.496 74.7851V62.7584C321.496 60.0798 319.616 58.9931 317.296 60.3331L306.879 66.3465C304.56 67.6865 302.679 70.9438 302.679 73.6224V77.4558L297.591 80.3931C294.769 82.0224 292.476 85.9971 292.476 89.2531V103.602C292.476 106.858 294.769 108.185 297.591 106.556L321.528 92.7358C322.887 91.9518 324.167 90.6024 325.135 88.9358L337.991 66.7638C338.951 65.1091 339.501 63.2624 339.501 61.7011V37.7438C339.501 34.4878 337.208 33.1611 334.387 34.7891L287.283 61.9851C284.463 63.6144 282.168 67.5891 282.168 70.8451V122.342C282.168 125.598 284.463 126.925 287.283 125.297L324.585 103.76C325.955 102.969 327.288 101.55 328.243 99.8704L347.965 65.1984C348.907 63.5478 349.423 61.7811 349.423 60.2278V20.5584C349.423 17.3024 347.129 15.9758 344.308 17.6038L277.987 55.8944C275.167 57.5238 272.872 61.4984 272.872 64.7558V139.166C272.872 142.422 275.167 143.749 277.987 142.121L328.148 113.161C329.519 112.369 330.853 110.95 331.808 109.268L357.409 64.1958C358.348 62.5438 358.864 60.7811 358.864 59.2304V3.65044C358.864 0.394437 356.569 -0.93223 353.749 0.69577L268.115 50.1371C265.293 51.7664 263 55.7411 263 58.9984V156.546C263 159.802 265.293 161.129 268.115 159.5L353.893 109.976C356.635 108.393 358.864 104.53 358.864 101.365V91.6864C358.864 89.3504 357.655 87.9651 355.784 88.1558C353.913 88.3504 351.784 90.0731 350.36 92.5598L337.805 114.457L268.115 154.693C267.588 154.997 267.16 154.75 267.16 154.144V56.5958C267.16 55.9878 267.588 55.2478 268.115 54.9451L353.749 5.50378C354.275 5.19978 354.703 5.44643 354.703 6.0531V61.6318C354.703 61.9224 354.607 62.2504 354.432 62.5584L328.829 107.632C328.652 107.942 328.403 108.206 328.148 108.353L277.987 137.314C277.461 137.617 277.033 137.372 277.033 136.765V62.3531C277.033 61.7451 277.461 61.0051 277.987 60.7024L344.308 22.4118C344.835 22.1078 345.263 22.3531 345.263 22.9611V62.6304C345.263 62.9198 345.165 63.2491 344.991 63.5584L325.267 98.2318C325.091 98.5424 324.841 98.8051 324.585 98.9531L287.283 120.489C286.757 120.793 286.329 120.548 286.329 119.94V68.4438C286.329 67.8358 286.757 67.0958 287.283 66.7918L334.387 39.5971C334.913 39.2931 335.341 39.5385 335.341 40.1465V64.1038C335.341 64.3931 335.239 64.7371 335.059 65.0465L322.203 87.2184C322.021 87.5291 321.781 87.7824 321.528 87.9278L297.591 101.749C297.064 102.053 296.637 101.806 296.637 101.2V86.8518C296.637 86.2438 297.064 85.5038 297.591 85.1998L302.679 82.2624V85.6491C302.679 88.3278 304.56 89.4131 306.879 88.0744Z" fill="#DDE2C4" fill-opacity="0.38"/>
<path d="M320.935 95.9465L331.351 89.9332C333.671 88.5932 335.551 85.3358 335.551 82.6572V70.6292C335.551 67.9518 333.671 66.8652 331.351 68.2052L320.935 74.2185C318.615 75.5585 316.735 78.8145 316.735 81.4945V85.3278L311.645 88.2652C308.825 89.8945 306.531 93.8692 306.531 97.1252V111.475C306.531 114.731 308.825 116.057 311.645 114.428L335.584 100.608C336.943 99.8238 338.223 98.4745 339.189 96.8078L352.045 74.6358C353.007 72.9812 353.557 71.1345 353.557 69.5732V45.6158C353.557 42.3598 351.264 41.0332 348.443 42.6625L301.339 69.8572C298.517 71.4865 296.224 75.4612 296.224 78.7172V130.215C296.224 133.471 298.517 134.797 301.339 133.169L338.641 111.632C340.011 110.841 341.343 109.423 342.299 107.743L362.021 73.0705C362.961 71.4198 363.479 69.6532 363.479 68.0998V28.4305C363.479 25.1745 361.185 23.8479 358.364 25.4759L292.043 63.7678C289.221 65.3958 286.928 69.3705 286.928 72.6265V147.039C286.928 150.295 289.221 151.622 292.043 149.993L342.204 121.033C343.573 120.241 344.908 118.823 345.863 117.14L371.465 72.0678C372.403 70.4158 372.919 68.6532 372.919 67.1025V11.5225C372.919 8.2665 370.625 6.93985 367.804 8.56918L282.169 58.0092C279.349 59.6385 277.055 63.6132 277.055 66.8705V164.419C277.055 167.675 279.349 169.001 282.169 167.372L367.949 117.848C370.689 116.265 372.919 112.403 372.919 109.237V99.5585C372.919 97.2225 371.711 95.8372 369.84 96.0292C367.969 96.2225 365.839 97.9452 364.416 100.432L351.86 122.329L282.169 162.565C281.644 162.869 281.216 162.623 281.216 162.016V64.4678C281.216 63.8598 281.644 63.1198 282.169 62.8172L367.804 13.3759C368.331 13.0719 368.759 13.3172 368.759 13.9252V69.5038C368.759 69.7932 368.663 70.1225 368.487 70.4292L342.884 115.504C342.707 115.815 342.459 116.078 342.204 116.225L292.043 145.187C291.516 145.489 291.089 145.244 291.089 144.637V70.2252C291.089 69.6172 291.516 68.8772 292.043 68.5745L358.364 30.2838C358.889 29.9798 359.317 30.2252 359.317 30.8332V70.5025C359.317 70.7918 359.221 71.1212 359.045 71.4305L339.321 106.104C339.145 106.415 338.897 106.677 338.641 106.825L301.339 128.361C300.812 128.665 300.385 128.42 300.385 127.812V76.3145C300.385 75.7079 300.812 74.9678 301.339 74.6652L348.443 47.4692C348.968 47.1652 349.396 47.4105 349.396 48.0185V71.9759C349.396 72.2652 349.293 72.6092 349.115 72.9185L336.257 95.0905C336.076 95.4012 335.837 95.6545 335.584 95.8012L311.645 109.621C311.12 109.925 310.692 109.68 310.692 109.072V94.7238C310.692 94.1158 311.12 93.3758 311.645 93.0732L316.735 90.1345V93.5212C316.735 96.1998 318.615 97.2865 320.935 95.9465" fill="#BED558"/>
<path d="M370.081 8.37045C369.471 8.37045 368.78 8.58245 368.053 9.00111L282.42 58.4425C279.737 59.9918 277.555 63.7718 277.555 66.8704V164.417C277.555 165.806 277.999 166.829 278.805 167.294C279.611 167.76 280.716 167.633 281.92 166.938L367.699 117.414C370.301 115.912 372.419 112.244 372.419 109.238V99.5584C372.419 98.4251 372.104 97.5184 371.537 97.0038C371.111 96.6198 370.556 96.4611 369.889 96.5251C368.169 96.7038 366.192 98.3345 364.849 100.681L352.228 122.694L352.111 122.762L282.42 162.997C282.011 163.234 281.583 163.26 281.245 163.065C280.909 162.87 280.716 162.489 280.716 162.016V64.4678C280.716 63.6758 281.233 62.7798 281.92 62.3838L367.553 12.9425C367.963 12.7065 368.392 12.6811 368.728 12.8758C369.065 13.0705 369.259 13.4531 369.259 13.9251V69.5038C369.259 69.8785 369.139 70.2958 368.923 70.6771L343.32 115.75C343.097 116.142 342.788 116.465 342.453 116.658L292.293 145.618C291.883 145.856 291.453 145.878 291.119 145.686C290.781 145.492 290.589 145.109 290.589 144.636V70.2251C290.589 69.4331 291.107 68.5371 291.793 68.1411L358.113 29.8504C358.523 29.6144 358.949 29.5891 359.289 29.7838C359.625 29.9784 359.819 30.3611 359.819 30.8331V70.5024C359.819 70.8744 359.699 71.2918 359.483 71.6771L339.757 106.352C339.532 106.744 339.224 107.066 338.891 107.258L301.589 128.794C301.18 129.03 300.751 129.056 300.413 128.861C300.077 128.666 299.884 128.285 299.884 127.812V76.3145C299.884 75.5251 300.403 74.6291 301.089 74.2318L348.193 47.0358C348.603 46.8011 349.029 46.7758 349.368 46.9691C349.704 47.1624 349.896 47.5464 349.896 48.0184V71.9758C349.896 72.3571 349.771 72.7811 349.547 73.1691L336.691 95.3411C336.464 95.7291 336.159 96.0451 335.833 96.2331L311.896 110.054C311.488 110.29 311.059 110.316 310.72 110.121C310.384 109.926 310.192 109.544 310.192 109.072V94.7238C310.192 93.9318 310.711 93.0358 311.396 92.6398L317.235 89.2691V93.5211C317.235 94.6318 317.583 95.4425 318.215 95.8078C318.848 96.1731 319.724 96.0691 320.684 95.5131L331.101 89.4998C333.279 88.2424 335.051 85.1731 335.051 82.6584V70.6291C335.051 69.5198 334.704 68.7078 334.071 68.3438C333.44 67.9798 332.563 68.0824 331.601 68.6371L321.184 74.6518C319.007 75.9104 317.235 78.9784 317.235 81.4931V85.6158L311.896 88.6984C309.215 90.2464 307.032 94.0264 307.032 97.1251V111.474C307.032 112.864 307.476 113.885 308.281 114.35C309.087 114.816 310.193 114.689 311.396 113.994L335.333 100.174C336.616 99.4345 337.832 98.1491 338.757 96.5571L351.613 74.3851C352.532 72.8038 353.057 71.0505 353.057 69.5745V45.6158C353.057 44.2264 352.613 43.2051 351.807 42.7398C351 42.2745 349.895 42.3998 348.693 43.0944L301.589 70.2904C298.907 71.8384 296.724 75.6198 296.724 78.7171V130.214C296.724 131.604 297.168 132.625 297.973 133.09C298.781 133.554 299.885 133.429 301.089 132.736L338.391 111.2C339.684 110.452 340.951 109.102 341.864 107.494L361.587 72.8238C362.484 71.2478 362.979 69.5704 362.979 68.0998V28.4305C362.979 27.0411 362.535 26.0198 361.728 25.5544C360.923 25.0891 359.816 25.2158 358.613 25.9091L292.293 64.1998C289.611 65.7478 287.428 69.5291 287.428 72.6264V147.038C287.428 148.428 287.872 149.45 288.679 149.916C289.484 150.38 290.591 150.254 291.793 149.56L341.953 120.6C343.249 119.852 344.515 118.501 345.429 116.893L371.031 71.8224C371.925 70.2438 372.419 68.5678 372.419 67.1024V11.5224C372.419 10.1331 371.975 9.11179 371.168 8.64645C370.849 8.46245 370.483 8.37045 370.081 8.37045ZM279.889 168.572C279.316 168.572 278.781 168.434 278.305 168.16C277.177 167.509 276.555 166.18 276.555 164.417V66.8704C276.555 63.4531 278.961 59.2838 281.92 57.5771L367.553 8.13579C369.079 7.25579 370.54 7.12913 371.668 7.7798C372.797 8.4318 373.419 9.7611 373.419 11.5224V67.1024C373.419 68.7384 372.88 70.5905 371.9 72.3145L346.299 117.386C345.3 119.145 343.899 120.632 342.453 121.466L292.293 150.426C290.769 151.305 289.307 151.433 288.179 150.781C287.049 150.13 286.428 148.8 286.428 147.038V72.6264C286.428 69.2104 288.835 65.0411 291.793 63.3344L358.113 25.0438C359.64 24.1625 361.104 24.0384 362.228 24.6891C363.357 25.3398 363.979 26.6691 363.979 28.4305V68.0998C363.979 69.7411 363.437 71.5944 362.456 73.3184L342.733 107.99C341.735 109.745 340.333 111.232 338.891 112.065L301.589 133.602C300.063 134.482 298.603 134.609 297.473 133.957C296.345 133.305 295.724 131.976 295.724 130.214V78.7171C295.724 75.3011 298.131 71.1318 301.089 69.4238L348.193 42.2291C349.715 41.3491 351.177 41.2211 352.307 41.8731C353.436 42.5251 354.057 43.8544 354.057 45.6158V69.5745C354.057 71.2225 353.483 73.1584 352.479 74.8864L339.621 97.0584C338.611 98.7998 337.265 100.214 335.833 101.041L311.896 114.861C310.371 115.741 308.911 115.869 307.781 115.216C306.653 114.565 306.032 113.236 306.032 111.474V97.1251C306.032 93.7091 308.437 89.5398 311.396 87.8318L316.235 85.0398V81.4931C316.235 78.6598 318.231 75.2024 320.684 73.7864L331.101 67.7718C332.383 67.0318 333.615 66.9251 334.571 67.4771C335.525 68.0291 336.051 69.1478 336.051 70.6291V82.6584C336.051 85.4918 334.055 88.9491 331.601 90.3651L321.184 96.3798C319.903 97.1211 318.671 97.2251 317.715 96.6745C316.761 96.1238 316.235 95.0038 316.235 93.5211V90.9998L311.896 93.5051C311.528 93.7184 311.192 94.2984 311.192 94.7238V109.072C311.192 109.192 311.219 109.249 311.229 109.261C311.227 109.254 311.291 109.249 311.396 109.188L335.333 95.3678C335.509 95.2664 335.689 95.0731 335.827 94.8384L348.681 72.6678C348.816 72.4358 348.896 72.1771 348.896 71.9758V48.0184C348.896 47.8984 348.869 47.8398 348.859 47.8291C348.863 47.8358 348.797 47.8411 348.693 47.9025L301.589 75.0971C301.22 75.3104 300.884 75.8905 300.884 76.3145V127.812C300.884 127.932 300.912 127.99 300.923 128.001C300.92 127.994 300.984 127.989 301.089 127.929L338.391 106.392C338.569 106.29 338.755 106.089 338.888 105.856L358.611 71.1838C358.743 70.9518 358.819 70.7024 358.819 70.5024V30.8331C358.819 30.7131 358.791 30.6558 358.78 30.6438C358.783 30.6505 358.719 30.6558 358.613 30.7171L292.293 69.0065C291.917 69.2238 291.589 69.7931 291.589 70.2251V144.636C291.589 144.757 291.616 144.814 291.627 144.826C291.624 144.818 291.688 144.813 291.793 144.753L341.953 115.793C342.132 115.689 342.319 115.489 342.449 115.257L368.052 70.1838C368.183 69.9531 368.259 69.7051 368.259 69.5038V13.9251C368.259 13.8051 368.231 13.7464 368.22 13.7358C368.223 13.7438 368.159 13.7478 368.053 13.8091L282.42 63.2491C282.045 63.4664 281.716 64.0358 281.716 64.4678V162.016C281.716 162.136 281.743 162.194 281.753 162.205C281.749 162.197 281.815 162.192 281.92 162.132L351.493 121.964L363.983 100.184C365.479 97.5678 367.757 95.7424 369.787 95.5304C370.739 95.4371 371.571 95.6878 372.207 96.2624C372.999 96.9784 373.419 98.1184 373.419 99.5584V109.238C373.419 112.562 371.077 116.618 368.199 118.281L282.42 167.805C281.537 168.314 280.677 168.572 279.889 168.572Z" fill="white" fill-opacity="0.74"/>
<path d="M282.895 195.244C283.343 195.502 283.343 195.922 282.895 196.181C282.447 196.44 281.72 196.44 281.272 196.181C280.823 195.922 280.823 195.502 281.272 195.244C281.72 194.985 282.447 194.985 282.895 195.244Z" fill="#1A1613"/>
<path d="M287.139 192.793C287.587 193.052 287.587 193.472 287.139 193.73C286.691 193.989 285.964 193.989 285.515 193.73C285.067 193.472 285.067 193.052 285.515 192.793C285.964 192.534 286.691 192.534 287.139 192.793Z" fill="#1A1613"/>
<path d="M291.383 190.344C291.831 190.603 291.831 191.021 291.383 191.28C290.935 191.54 290.208 191.54 289.759 191.28C289.311 191.021 289.311 190.603 289.759 190.344C290.208 190.084 290.935 190.084 291.383 190.344Z" fill="#1A1613"/>
<path d="M295.626 187.893C296.074 188.152 296.074 188.572 295.626 188.83C295.178 189.089 294.452 189.089 294.003 188.83C293.555 188.572 293.555 188.152 294.003 187.893C294.452 187.634 295.178 187.634 295.626 187.893Z" fill="#1A1613"/>
<path d="M299.871 185.442C300.319 185.701 300.319 186.121 299.871 186.38C299.421 186.638 298.695 186.638 298.247 186.38C297.799 186.121 297.799 185.701 298.247 185.442C298.695 185.184 299.421 185.184 299.871 185.442Z" fill="#1A1613"/>
<path d="M304.115 182.993C304.563 183.252 304.563 183.67 304.115 183.929C303.665 184.189 302.939 184.189 302.491 183.929C302.043 183.67 302.043 183.252 302.491 182.993C302.939 182.734 303.665 182.734 304.115 182.993Z" fill="#1A1613"/>
<path d="M308.358 180.542C308.806 180.801 308.806 181.221 308.358 181.48C307.909 181.738 307.182 181.738 306.734 181.48C306.286 181.221 306.286 180.801 306.734 180.542C307.182 180.284 307.909 180.284 308.358 180.542Z" fill="#1A1613"/>
<path d="M312.601 178.092C313.051 178.35 313.051 178.77 312.601 179.029C312.153 179.288 311.427 179.288 310.979 179.029C310.531 178.77 310.531 178.35 310.979 178.092C311.427 177.833 312.153 177.833 312.601 178.092Z" fill="#1A1613"/>
<path d="M316.845 175.642C317.293 175.901 317.293 176.32 316.845 176.58C316.397 176.838 315.671 176.838 315.223 176.58C314.775 176.32 314.775 175.901 315.223 175.642C315.671 175.384 316.397 175.384 316.845 175.642Z" fill="#1A1613"/>
<path d="M321.09 173.192C321.538 173.45 321.538 173.87 321.09 174.129C320.642 174.388 319.915 174.388 319.467 174.129C319.019 173.87 319.019 173.45 319.467 173.192C319.915 172.933 320.642 172.933 321.09 173.192Z" fill="#1A1613"/>
<path d="M325.333 170.741C325.781 171 325.781 171.42 325.333 171.678C324.885 171.937 324.159 171.937 323.711 171.678C323.263 171.42 323.263 171 323.711 170.741C324.159 170.482 324.885 170.482 325.333 170.741Z" fill="#1A1613"/>
<path d="M329.577 168.292C330.025 168.55 330.025 168.969 329.577 169.229C329.129 169.488 328.403 169.488 327.955 169.229C327.507 168.969 327.507 168.55 327.955 168.292C328.403 168.033 329.129 168.033 329.577 168.292Z" fill="#BED558"/>
<path d="M333.821 165.841C334.269 166.1 334.269 166.52 333.821 166.778C333.373 167.037 332.647 167.037 332.199 166.778C331.749 166.52 331.749 166.1 332.199 165.841C332.647 165.582 333.373 165.582 333.821 165.841Z" fill="#BED558"/>
<path d="M338.065 163.39C338.513 163.649 338.513 164.069 338.065 164.328C337.617 164.586 336.89 164.586 336.442 164.328C335.993 164.069 335.993 163.649 336.442 163.39C336.89 163.132 337.617 163.132 338.065 163.39Z" fill="#BED558"/>
<path d="M342.309 160.941C342.757 161.2 342.757 161.619 342.309 161.879C341.861 162.137 341.134 162.137 340.685 161.879C340.237 161.619 340.237 161.2 340.685 160.941C341.134 160.683 341.861 160.683 342.309 160.941Z" fill="#BED558"/>
<path d="M274.371 195.218C274.819 195.477 274.819 195.896 274.371 196.154C273.921 196.414 273.195 196.414 272.747 196.154C272.299 195.896 272.299 195.477 272.747 195.218C273.195 194.96 273.921 194.96 274.371 195.218Z" fill="#1A1613"/>
<path d="M278.613 192.768C279.063 193.026 279.063 193.447 278.613 193.705C278.165 193.964 277.439 193.964 276.991 193.705C276.543 193.447 276.543 193.026 276.991 192.768C277.439 192.509 278.165 192.509 278.613 192.768Z" fill="#1A1613"/>
<path d="M282.857 190.317C283.305 190.576 283.305 190.996 282.857 191.254C282.409 191.513 281.682 191.513 281.234 191.254C280.786 190.996 280.786 190.576 281.234 190.317C281.682 190.058 282.409 190.058 282.857 190.317Z" fill="#1A1613"/>
<path d="M287.101 187.868C287.549 188.126 287.549 188.545 287.101 188.805C286.653 189.064 285.927 189.064 285.479 188.805C285.031 188.545 285.031 188.126 285.479 187.868C285.927 187.609 286.653 187.609 287.101 187.868Z" fill="#1A1613"/>
<path d="M291.345 185.417C291.793 185.676 291.793 186.096 291.345 186.354C290.897 186.613 290.171 186.613 289.723 186.354C289.275 186.096 289.275 185.676 289.723 185.417C290.171 185.158 290.897 185.158 291.345 185.417Z" fill="#1A1613"/>
<path d="M295.59 182.966C296.038 183.225 296.038 183.645 295.59 183.904C295.142 184.162 294.415 184.162 293.967 183.904C293.519 183.645 293.519 183.225 293.967 182.966C294.415 182.708 295.142 182.708 295.59 182.966Z" fill="#1A1613"/>
<path d="M299.833 180.517C300.281 180.776 300.281 181.194 299.833 181.454C299.385 181.713 298.659 181.713 298.211 181.454C297.763 181.194 297.763 180.776 298.211 180.517C298.659 180.258 299.385 180.258 299.833 180.517Z" fill="#1A1613"/>
<path d="M304.077 178.066C304.525 178.325 304.525 178.745 304.077 179.004C303.629 179.262 302.903 179.262 302.455 179.004C302.005 178.745 302.005 178.325 302.455 178.066C302.903 177.808 303.629 177.808 304.077 178.066Z" fill="#1A1613"/>
<path d="M308.321 175.616C308.769 175.874 308.769 176.294 308.321 176.553C307.873 176.812 307.147 176.812 306.697 176.553C306.249 176.294 306.249 175.874 306.697 175.616C307.147 175.357 307.873 175.357 308.321 175.616Z" fill="#1A1613"/>
<path d="M312.565 173.167C313.013 173.425 313.013 173.844 312.565 174.104C312.117 174.363 311.391 174.363 310.941 174.104C310.493 173.844 310.493 173.425 310.941 173.167C311.391 172.908 312.117 172.908 312.565 173.167Z" fill="#1A1613"/>
<path d="M316.809 170.716C317.257 170.974 317.257 171.395 316.809 171.653C316.361 171.912 315.634 171.912 315.185 171.653C314.737 171.395 314.737 170.974 315.185 170.716C315.634 170.457 316.361 170.457 316.809 170.716Z" fill="#1A1613"/>
<path d="M321.053 168.265C321.501 168.524 321.501 168.944 321.053 169.202C320.604 169.461 319.877 169.461 319.429 169.202C318.981 168.944 318.981 168.524 319.429 168.265C319.877 168.006 320.604 168.006 321.053 168.265Z" fill="#1A1613"/>
<path d="M325.297 165.816C325.745 166.074 325.745 166.493 325.297 166.753C324.848 167.012 324.121 167.012 323.673 166.753C323.225 166.493 323.225 166.074 323.673 165.816C324.121 165.557 324.848 165.557 325.297 165.816Z" fill="#1A1613"/>
<path d="M329.541 163.365C329.989 163.624 329.989 164.044 329.541 164.302C329.092 164.561 328.365 164.561 327.917 164.302C327.469 164.044 327.469 163.624 327.917 163.365C328.365 163.106 329.092 163.106 329.541 163.365Z" fill="#BED558"/>
<path d="M333.784 160.914C334.233 161.173 334.233 161.593 333.784 161.852C333.336 162.11 332.609 162.11 332.161 161.852C331.713 161.593 331.713 161.173 332.161 160.914C332.609 160.656 333.336 160.656 333.784 160.914Z" fill="#BED558"/>
<path d="M338.028 158.465C338.476 158.724 338.476 159.144 338.028 159.402C337.58 159.661 336.853 159.661 336.405 159.402C335.957 159.144 335.957 158.724 336.405 158.465C336.853 158.206 337.58 158.206 338.028 158.465Z" fill="#BED558"/>
<path d="M270.126 192.768C270.574 193.026 270.574 193.447 270.126 193.705C269.677 193.964 268.951 193.964 268.503 193.705C268.055 193.447 268.055 193.026 268.503 192.768C268.951 192.509 269.677 192.509 270.126 192.768Z" fill="#1A1613"/>
<path d="M274.371 190.317C274.819 190.576 274.819 190.996 274.371 191.254C273.921 191.513 273.195 191.513 272.747 191.254C272.299 190.996 272.299 190.576 272.747 190.317C273.195 190.058 273.921 190.058 274.371 190.317Z" fill="#1A1613"/>
<path d="M278.615 187.868C279.063 188.126 279.063 188.545 278.615 188.805C278.165 189.064 277.439 189.064 276.991 188.805C276.543 188.545 276.543 188.126 276.991 187.868C277.439 187.609 278.165 187.609 278.615 187.868Z" fill="#1A1613"/>
<path d="M282.857 185.417C283.306 185.676 283.306 186.096 282.857 186.354C282.409 186.613 281.682 186.613 281.234 186.354C280.786 186.096 280.786 185.676 281.234 185.417C281.682 185.158 282.409 185.158 282.857 185.417Z" fill="#1A1613"/>
<path d="M287.101 182.966C287.549 183.225 287.549 183.645 287.101 183.904C286.653 184.162 285.927 184.162 285.479 183.904C285.031 183.645 285.031 183.225 285.479 182.966C285.927 182.708 286.653 182.708 287.101 182.966Z" fill="#1A1613"/>
<path d="M291.345 180.517C291.793 180.776 291.793 181.194 291.345 181.454C290.897 181.713 290.171 181.713 289.723 181.454C289.275 181.194 289.275 180.776 289.723 180.517C290.171 180.258 290.897 180.258 291.345 180.517Z" fill="#1A1613"/>
<path d="M295.59 178.066C296.038 178.325 296.038 178.745 295.59 179.004C295.142 179.262 294.415 179.262 293.967 179.004C293.519 178.745 293.519 178.325 293.967 178.066C294.415 177.808 295.142 177.808 295.59 178.066Z" fill="#1A1613"/>
<path d="M299.833 175.616C300.281 175.876 300.281 176.294 299.833 176.553C299.385 176.812 298.659 176.812 298.211 176.553C297.763 176.294 297.763 175.876 298.211 175.616C298.659 175.357 299.385 175.357 299.833 175.616Z" fill="#1A1613"/>
<path d="M304.077 173.167C304.525 173.425 304.525 173.844 304.077 174.104C303.629 174.363 302.903 174.363 302.455 174.104C302.005 173.844 302.005 173.425 302.455 173.167C302.903 172.908 303.629 172.908 304.077 173.167Z" fill="#1A1613"/>
<path d="M308.321 170.716C308.769 170.974 308.769 171.395 308.321 171.653C307.873 171.912 307.146 171.912 306.697 171.653C306.249 171.395 306.249 170.974 306.698 170.716C307.146 170.457 307.873 170.457 308.321 170.716" fill="#1A1613"/>
<path d="M312.565 168.265C313.013 168.524 313.013 168.944 312.565 169.202C312.117 169.461 311.391 169.461 310.941 169.202C310.493 168.944 310.493 168.524 310.941 168.265C311.391 168.006 312.117 168.006 312.565 168.265Z" fill="#1A1613"/>
<path d="M316.809 165.816C317.257 166.074 317.257 166.493 316.809 166.753C316.361 167.012 315.634 167.012 315.185 166.753C314.737 166.493 314.737 166.074 315.185 165.816C315.634 165.557 316.361 165.557 316.809 165.816Z" fill="#1A1613"/>
<path d="M321.053 163.365C321.501 163.624 321.501 164.044 321.053 164.302C320.604 164.561 319.877 164.561 319.429 164.302C318.981 164.044 318.981 163.624 319.429 163.365C319.877 163.106 320.604 163.106 321.053 163.365Z" fill="#1A1613"/>
<path d="M325.297 160.914C325.745 161.173 325.745 161.593 325.297 161.852C324.848 162.11 324.121 162.11 323.673 161.852C323.225 161.593 323.225 161.173 323.673 160.914C324.121 160.656 324.848 160.656 325.297 160.914Z" fill="#1A1613"/>
<path d="M329.541 158.465C329.989 158.724 329.989 159.144 329.541 159.402C329.092 159.661 328.365 159.661 327.917 159.402C327.469 159.144 327.469 158.724 327.917 158.465C328.365 158.206 329.092 158.206 329.541 158.465Z" fill="#BED558"/>
<path d="M333.784 156.014C334.233 156.273 334.233 156.693 333.784 156.952C333.336 157.21 332.609 157.21 332.161 156.952C331.713 156.693 331.713 156.273 332.161 156.014C332.609 155.756 333.336 155.756 333.784 156.014Z" fill="#BED558"/>
<path d="M270.126 187.868C270.574 188.126 270.574 188.545 270.126 188.805C269.677 189.064 268.951 189.064 268.503 188.805C268.055 188.545 268.055 188.126 268.503 187.868C268.951 187.609 269.677 187.609 270.126 187.868Z" fill="#1A1613"/>
<path d="M274.371 185.417C274.819 185.676 274.819 186.096 274.371 186.354C273.921 186.613 273.195 186.613 272.747 186.354C272.299 186.096 272.299 185.676 272.747 185.417C273.195 185.158 273.921 185.158 274.371 185.417Z" fill="#1A1613"/>
<path d="M278.615 182.966C279.063 183.225 279.063 183.645 278.615 183.904C278.165 184.162 277.439 184.162 276.991 183.904C276.543 183.645 276.543 183.225 276.991 182.966C277.439 182.708 278.165 182.708 278.615 182.966Z" fill="#1A1613"/>
<path d="M282.857 180.517C283.306 180.776 283.306 181.194 282.857 181.454C282.409 181.713 281.682 181.713 281.234 181.454C280.786 181.194 280.786 180.776 281.234 180.517C281.682 180.258 282.409 180.258 282.857 180.517Z" fill="#1A1613"/>
<path d="M287.101 178.066C287.549 178.325 287.549 178.745 287.101 179.004C286.653 179.262 285.927 179.262 285.479 179.004C285.031 178.745 285.031 178.325 285.479 178.066C285.927 177.808 286.653 177.808 287.101 178.066Z" fill="#1A1613"/>
<path d="M291.345 175.616C291.793 175.876 291.793 176.294 291.345 176.553C290.897 176.812 290.171 176.812 289.723 176.553C289.275 176.294 289.275 175.876 289.723 175.616C290.171 175.357 290.897 175.357 291.345 175.616Z" fill="#1A1613"/>
<path d="M295.59 173.167C296.038 173.425 296.038 173.844 295.59 174.104C295.142 174.363 294.415 174.363 293.967 174.104C293.519 173.844 293.519 173.425 293.967 173.167C294.415 172.908 295.142 172.908 295.59 173.167Z" fill="#1A1613"/>
<path d="M299.833 170.716C300.281 170.974 300.281 171.395 299.833 171.653C299.385 171.912 298.659 171.912 298.211 171.653C297.763 171.395 297.763 170.974 298.211 170.716C298.659 170.457 299.385 170.457 299.833 170.716Z" fill="#1A1613"/>
<path d="M304.077 168.265C304.525 168.524 304.525 168.944 304.077 169.202C303.629 169.461 302.903 169.461 302.455 169.202C302.007 168.944 302.007 168.524 302.455 168.265C302.903 168.006 303.629 168.006 304.077 168.265Z" fill="#1A1613"/>
<path d="M308.321 165.816C308.769 166.074 308.769 166.493 308.321 166.753C307.873 167.012 307.147 167.012 306.699 166.753C306.249 166.493 306.249 166.074 306.699 165.816C307.147 165.557 307.873 165.557 308.321 165.816Z" fill="#1A1613"/>
<path d="M312.565 163.365C313.013 163.624 313.013 164.044 312.565 164.302C312.117 164.561 311.391 164.561 310.941 164.302C310.493 164.044 310.493 163.624 310.941 163.365C311.391 163.106 312.117 163.106 312.565 163.365Z" fill="#1A1613"/>
<path d="M316.809 160.914C317.257 161.173 317.257 161.593 316.809 161.852C316.361 162.11 315.634 162.11 315.185 161.852C314.737 161.593 314.737 161.173 315.185 160.914C315.634 160.656 316.361 160.656 316.809 160.914Z" fill="#1A1613"/>
<path d="M321.053 158.465C321.501 158.724 321.501 159.144 321.053 159.402C320.604 159.661 319.877 159.661 319.429 159.402C318.981 159.144 318.981 158.724 319.429 158.465C319.877 158.206 320.604 158.206 321.053 158.465Z" fill="#1A1613"/>
<path d="M325.297 156.014C325.745 156.273 325.745 156.693 325.297 156.952C324.848 157.21 324.121 157.21 323.673 156.952C323.225 156.693 323.225 156.273 323.673 156.014C324.121 155.756 324.848 155.756 325.297 156.014Z" fill="#1A1613"/>
<path d="M329.541 153.564C329.989 153.824 329.989 154.242 329.541 154.501C329.092 154.76 328.365 154.76 327.917 154.501C327.469 154.242 327.469 153.824 327.917 153.564C328.365 153.305 329.092 153.305 329.541 153.564Z" fill="#BED558"/>
<path d="M344.959 158.514C345.407 158.256 346.133 158.254 346.581 158.513C347.031 158.77 347.032 159.19 346.585 159.45C346.137 159.709 345.411 159.71 344.961 159.452C344.513 159.193 344.512 158.773 344.959 158.514" fill="#BED558"/>
<path d="M350.831 156.061C351.28 156.32 351.28 156.74 350.831 156.998C350.383 157.257 349.656 157.257 349.208 156.998C348.76 156.74 348.76 156.32 349.208 156.061C349.656 155.802 350.383 155.802 350.831 156.061Z" fill="#BED558"/>
<path d="M355.075 153.61C355.523 153.869 355.523 154.289 355.075 154.548C354.627 154.806 353.9 154.806 353.452 154.548C353.004 154.289 353.004 153.869 353.452 153.61C353.9 153.352 354.627 153.352 355.075 153.61Z" fill="#BED558"/>
<path d="M359.319 151.161C359.767 151.42 359.767 151.838 359.319 152.097C358.871 152.357 358.144 152.357 357.696 152.097C357.248 151.838 357.248 151.42 357.696 151.161C358.144 150.902 358.871 150.902 359.319 151.161Z" fill="#BED558"/>
<path d="M363.563 148.71C364.011 148.969 364.011 149.389 363.563 149.648C363.115 149.906 362.388 149.906 361.94 149.648C361.492 149.389 361.492 148.969 361.94 148.71C362.388 148.452 363.115 148.452 363.563 148.71Z" fill="#BED558"/>
<path d="M367.807 146.26C368.255 146.518 368.255 146.938 367.807 147.197C367.359 147.456 366.632 147.456 366.184 147.197C365.736 146.938 365.736 146.518 366.184 146.26C366.632 146.001 367.359 146.001 367.807 146.26Z" fill="#BED558"/>
<path d="M340.678 156.039C341.125 155.779 341.852 155.779 342.301 156.037C342.75 156.295 342.752 156.715 342.304 156.975C341.857 157.233 341.13 157.235 340.681 156.976C340.232 156.717 340.23 156.297 340.678 156.039Z" fill="#BED558"/>
<path d="M346.55 153.585C346.998 153.844 346.998 154.264 346.55 154.523C346.102 154.781 345.376 154.781 344.928 154.523C344.478 154.264 344.478 153.844 344.928 153.585C345.376 153.327 346.102 153.327 346.55 153.585Z" fill="#BED558"/>
<path d="M350.794 151.135C351.242 151.393 351.242 151.813 350.794 152.072C350.346 152.331 349.62 152.331 349.17 152.072C348.722 151.813 348.722 151.393 349.17 151.135C349.62 150.876 350.346 150.876 350.794 151.135Z" fill="#BED558"/>
<path d="M355.039 148.685C355.487 148.944 355.487 149.362 355.039 149.621C354.591 149.881 353.864 149.881 353.415 149.621C352.967 149.362 352.967 148.944 353.415 148.685C353.864 148.426 354.591 148.426 355.039 148.685Z" fill="#BED558"/>
<path d="M359.283 146.234C359.731 146.493 359.731 146.913 359.283 147.172C358.835 147.43 358.107 147.43 357.659 147.172C357.211 146.913 357.211 146.493 357.659 146.234C358.107 145.976 358.835 145.976 359.283 146.234Z" fill="#BED558"/>
<path d="M363.526 143.784C363.974 144.042 363.974 144.462 363.526 144.721C363.077 144.98 362.35 144.98 361.902 144.721C361.454 144.462 361.454 144.042 361.902 143.784C362.35 143.525 363.077 143.525 363.526 143.784Z" fill="#BED558"/>
<path d="M367.769 141.334C368.219 141.593 368.219 142.012 367.769 142.272C367.321 142.53 366.595 142.53 366.147 142.272C365.699 142.012 365.699 141.593 366.147 141.334C366.595 141.076 367.321 141.076 367.769 141.334Z" fill="#BED558"/>
<path d="M336.435 153.588C336.881 153.329 337.608 153.328 338.057 153.587C338.507 153.845 338.508 154.264 338.06 154.524C337.613 154.783 336.887 154.784 336.437 154.525C335.988 154.267 335.987 153.848 336.435 153.588Z" fill="#BED558"/>
<path d="M342.307 151.135C342.755 151.393 342.755 151.813 342.307 152.072C341.859 152.331 341.132 152.331 340.684 152.072C340.235 151.813 340.235 151.393 340.684 151.135C341.132 150.876 341.859 150.876 342.307 151.135Z" fill="#BED558"/>
<path d="M346.55 148.685C346.998 148.944 346.998 149.362 346.55 149.621C346.102 149.881 345.376 149.881 344.928 149.621C344.478 149.362 344.478 148.944 344.928 148.685C345.376 148.426 346.102 148.426 346.55 148.685Z" fill="#BED558"/>
<path d="M350.794 146.234C351.242 146.493 351.242 146.913 350.794 147.172C350.346 147.43 349.62 147.43 349.17 147.172C348.722 146.913 348.722 146.493 349.17 146.234C349.62 145.976 350.346 145.976 350.794 146.234Z" fill="#BED558"/>
<path d="M355.039 143.784C355.487 144.042 355.487 144.462 355.039 144.721C354.591 144.98 353.864 144.98 353.415 144.721C352.967 144.462 352.967 144.042 353.415 143.784C353.864 143.525 354.591 143.525 355.039 143.784Z" fill="#BED558"/>
<path d="M359.283 141.334C359.731 141.593 359.731 142.012 359.283 142.272C358.835 142.53 358.108 142.53 357.659 142.272C357.211 142.012 357.211 141.593 357.659 141.334C358.108 141.076 358.835 141.076 359.283 141.334Z" fill="#BED558"/>
<path d="M363.526 138.884C363.974 139.142 363.974 139.562 363.526 139.821C363.077 140.08 362.35 140.08 361.902 139.821C361.454 139.562 361.454 139.142 361.902 138.884C362.35 138.625 363.077 138.625 363.526 138.884Z" fill="#BED558"/>
<path d="M332.191 151.138C332.637 150.878 333.364 150.878 333.813 151.136C334.263 151.394 334.264 151.814 333.816 152.073C333.369 152.333 332.643 152.333 332.193 152.076C331.744 151.817 331.743 151.397 332.191 151.138Z" fill="#BED558"/>
<path d="M338.063 148.685C338.511 148.944 338.511 149.362 338.063 149.621C337.615 149.881 336.888 149.881 336.44 149.621C335.992 149.362 335.992 148.944 336.44 148.685C336.888 148.426 337.615 148.426 338.063 148.685Z" fill="#BED558"/>
<path d="M342.307 146.234C342.755 146.493 342.755 146.913 342.307 147.172C341.859 147.43 341.132 147.43 340.684 147.172C340.235 146.913 340.235 146.493 340.684 146.234C341.132 145.976 341.859 145.976 342.307 146.234Z" fill="#BED558"/>
<path d="M346.55 143.784C346.998 144.042 346.998 144.462 346.55 144.721C346.102 144.98 345.376 144.98 344.928 144.721C344.478 144.462 344.478 144.042 344.928 143.784C345.376 143.525 346.102 143.525 346.55 143.784Z" fill="#BED558"/>
<path d="M350.794 141.334C351.242 141.593 351.242 142.012 350.794 142.272C350.346 142.53 349.62 142.53 349.17 142.272C348.722 142.012 348.722 141.593 349.17 141.334C349.62 141.076 350.346 141.076 350.794 141.334Z" fill="#BED558"/>
<path d="M355.039 138.884C355.487 139.142 355.487 139.562 355.039 139.821C354.591 140.08 353.864 140.08 353.415 139.821C352.967 139.562 352.967 139.142 353.415 138.884C353.864 138.625 354.591 138.625 355.039 138.884Z" fill="#BED558"/>
</svg>
