<svg width="186" height="63" viewBox="0 0 186 63" fill="none" xmlns="http://www.w3.org/2000/svg">
<path d="M12.894 1.10376C17.5088 1.10376 22.2946 1.16088 27.2512 1.27512C32.2079 1.33224 36.7372 1.56071 40.8393 1.96056L40.2411 11.471H17.5943C14.7456 11.471 13.3213 12.9276 13.3213 15.8407V25.0942H37.0791V34.3476H13.3213V46.0001C13.3213 48.9132 14.7456 50.3698 17.5943 50.3698H40.2411L40.8393 59.8802C36.7372 60.28 32.2079 60.5086 27.2512 60.5657C22.2946 60.6228 17.5088 60.6514 12.894 60.6514C9.13376 60.6514 6.08571 59.5946 3.74981 57.4812C1.41391 55.3106 0.245972 52.4261 0.245972 48.8275V13.0133C0.245972 9.41472 1.41391 6.53015 3.74981 4.3596C6.08571 2.18904 9.13376 1.10376 12.894 1.10376Z" fill="white"/>
<path d="M77.5369 0.856812L70.9213 23.7183C70.8041 24.1652 70.5695 24.5297 70.2176 24.8119C69.8657 25.0706 69.4669 25.2 69.0211 25.2H64.0946C63.6255 25.2 63.2149 25.0706 62.863 24.8119C62.5346 24.5297 62.3117 24.1652 62.1944 23.7183L55.5789 0.856812H61.1036L65.5374 18.4263C65.6313 18.8732 65.725 19.3318 65.8189 19.8022C65.9128 20.2491 66.0065 20.6959 66.1004 21.1428H67.0153C67.1796 20.2255 67.3789 19.3083 67.6136 18.391L72.0122 0.856812H77.5369ZM86.8123 7.31305C88.994 7.31305 90.7418 7.61882 92.0555 8.23033C93.3692 8.81834 94.3076 9.79441 94.8706 11.1586C95.4571 12.4992 95.7503 14.2868 95.7503 16.5211C95.7503 18.7555 95.4571 20.5431 94.8706 21.8837C94.3076 23.2008 93.3692 24.1533 92.0555 24.7414C90.7418 25.3294 88.994 25.6234 86.8123 25.6234C84.6305 25.6234 82.8828 25.3294 81.5691 24.7414C80.2554 24.1533 79.3053 23.2008 78.7188 21.8837C78.1557 20.5431 77.8742 18.7555 77.8742 16.5211C77.8742 14.2868 78.1557 12.4992 78.7188 11.1586C79.3053 9.79441 80.2554 8.81834 81.5691 8.23033C82.8828 7.61882 84.6305 7.31305 86.8123 7.31305ZM86.8123 11.088C85.8974 11.088 85.1819 11.2409 84.6657 11.5467C84.1731 11.8524 83.8212 12.4051 83.6101 13.2048C83.3989 13.981 83.2934 15.0864 83.2934 16.5211C83.2934 17.9323 83.3989 19.026 83.6101 19.8022C83.8212 20.5783 84.1731 21.1193 84.6657 21.4251C85.1819 21.7073 85.8974 21.8484 86.8123 21.8484C87.7272 21.8484 88.431 21.7073 88.9236 21.4251C89.4398 21.1193 89.8034 20.5783 90.0145 19.8022C90.2256 19.026 90.3312 17.9323 90.3312 16.5211C90.3312 15.0864 90.2256 13.981 90.0145 13.2048C89.8034 12.4051 89.4398 11.8524 88.9236 11.5467C88.431 11.2409 87.7272 11.088 86.8123 11.088ZM110.878 7.77169V11.1939H106.022V19.6258C106.022 20.2608 106.162 20.7195 106.444 21.0017C106.725 21.2604 107.218 21.3898 107.922 21.3898H110.174L110.737 24.9178C110.291 25.0825 109.764 25.2117 109.154 25.3059C108.544 25.4 107.934 25.4705 107.324 25.5175C106.737 25.5645 106.233 25.5881 105.811 25.5881C104.239 25.5881 103.007 25.1765 102.116 24.3533C101.248 23.5066 100.814 22.3188 100.814 20.79V11.1939H97.7874V7.94809L100.814 7.80697V2.93833H106.022V7.77169H110.878ZM121.898 7.31305C124.83 7.31305 126.93 7.81873 128.197 8.83009C129.486 9.84146 130.132 11.3232 130.132 13.2754C130.155 14.8513 129.756 16.0389 128.936 16.8387C128.114 17.6384 126.695 18.0382 124.677 18.0382H118.484C118.625 19.4024 119.012 20.3197 119.645 20.79C120.302 21.2604 121.311 21.4956 122.672 21.4956C123.469 21.4956 124.455 21.4721 125.628 21.4251C126.824 21.3545 128.021 21.2487 129.217 21.1075L129.71 24.318C128.677 24.8119 127.458 25.153 126.05 25.3411C124.666 25.5293 123.34 25.6234 122.073 25.6234C118.742 25.6234 116.385 24.8942 115 23.436C113.64 21.9778 112.959 19.6728 112.959 16.5211C112.959 14.2397 113.253 12.4287 113.839 11.088C114.449 9.74737 115.411 8.78306 116.725 8.19505C118.039 7.60705 119.763 7.31305 121.898 7.31305ZM122.073 10.9822C121.182 10.9822 120.467 11.088 119.927 11.2997C119.411 11.5114 119.036 11.923 118.801 12.5345C118.566 13.1225 118.426 13.981 118.379 15.1099H123.27C124.044 15.1099 124.537 14.9453 124.748 14.616C124.982 14.2868 125.1 13.8046 125.1 13.1695C125.1 12.3463 124.865 11.7819 124.396 11.4761C123.927 11.1468 123.153 10.9822 122.073 10.9822Z" fill="white"/>
<path d="M65.1995 38.7098C66.3105 38.7098 67.5195 38.7753 68.8265 38.9063C70.1336 39.0156 71.4079 39.2449 72.6496 39.5943L72.3228 42.9358C71.3644 42.8921 70.2316 42.8593 68.9246 42.8375C67.6394 42.8157 66.3868 42.8048 65.1668 42.8048C64.3609 42.8048 63.7074 42.8485 63.2063 42.9358C62.7271 43.0231 62.3786 43.2197 62.1607 43.5255C61.9646 43.8094 61.8666 44.2899 61.8666 44.9669C61.8666 45.7532 62.0409 46.321 62.3894 46.6704C62.7598 47.0198 63.3806 47.3256 64.2519 47.5877L68.5978 48.9964C70.3841 49.6298 71.6258 50.4706 72.3228 51.5189C73.0417 52.5454 73.4011 53.9104 73.4011 55.6139C73.4011 57.3392 73.1289 58.6824 72.5842 59.6434C72.0397 60.5825 71.1465 61.2377 69.9048 61.609C68.685 61.9803 67.0512 62.1659 65.0035 62.1659C64.2629 62.1659 63.2063 62.1114 61.8339 62.0021C60.4615 61.9148 58.9041 61.6745 57.1613 61.2814L57.4554 57.7433C59.3942 57.8088 60.9409 57.8526 62.0953 57.8744C63.2717 57.8962 64.2411 57.9071 65.0035 57.9071C66.3105 57.9071 67.2037 57.7761 67.6829 57.514C68.1622 57.2301 68.4017 56.6185 68.4017 55.6794C68.4017 54.8714 68.2276 54.3035 67.8789 53.9759C67.5522 53.6483 66.9967 53.3644 66.2125 53.1242L61.6379 51.5517C59.8953 50.9402 58.6644 50.1212 57.9455 49.0947C57.2485 48.0682 56.8999 46.7032 56.8999 44.9997C56.8999 43.2744 57.1722 41.964 57.7168 41.0685C58.2832 40.1512 59.1764 39.5288 60.3962 39.2012C61.6161 38.8736 63.2172 38.7098 65.1995 38.7098ZM81.47 38.808L81.4373 56.564C81.4373 57.656 82.0799 58.202 83.3652 58.202H84.6722L85.2277 61.478C84.9446 61.6308 84.5633 61.751 84.0841 61.8383C83.6049 61.9256 83.1147 61.9912 82.6137 62.0349C82.1126 62.0786 81.6987 62.1004 81.372 62.1004C79.9125 62.1004 78.7579 61.7291 77.9084 60.9866C77.0805 60.2221 76.6667 59.152 76.6667 57.7761V38.808H81.47ZM94.97 45.1307C96.9958 45.1307 98.6187 45.4146 99.8386 45.9825C101.058 46.5284 101.93 47.4349 102.453 48.7016C102.997 49.9464 103.27 51.6062 103.27 53.6811C103.27 55.7559 102.997 57.4157 102.453 58.6606C101.93 59.8837 101.058 60.7682 99.8386 61.3142C98.6187 61.8601 96.9958 62.1332 94.97 62.1332C92.9441 62.1332 91.3211 61.8601 90.1013 61.3142C88.8813 60.7682 87.9991 59.8837 87.4546 58.6606C86.9317 57.4157 86.6703 55.7559 86.6703 53.6811C86.6703 51.6062 86.9317 49.9464 87.4546 48.7016C87.9991 47.4349 88.8813 46.5284 90.1013 45.9825C91.3211 45.4146 92.9441 45.1307 94.97 45.1307ZM94.97 48.636C94.1204 48.636 93.4559 48.778 92.9767 49.0619C92.5193 49.3458 92.1925 49.8591 91.9965 50.6016C91.8004 51.3224 91.7024 52.3489 91.7024 53.6811C91.7024 54.9915 91.8004 56.007 91.9965 56.7278C92.1925 57.4485 92.5193 57.9508 92.9767 58.2347C93.4559 58.4968 94.1204 58.6278 94.97 58.6278C95.8195 58.6278 96.473 58.4968 96.9305 58.2347C97.4097 57.9508 97.7474 57.4485 97.9434 56.7278C98.1395 56.007 98.2375 54.9915 98.2375 53.6811C98.2375 52.3489 98.1395 51.3224 97.9434 50.6016C97.7474 49.8591 97.4097 49.3458 96.9305 49.0619C96.473 48.778 95.8195 48.636 94.97 48.636ZM122.55 45.5566L117.224 60.5934C116.962 61.3579 116.44 61.74 115.655 61.74H111.473C110.667 61.74 110.144 61.3579 109.904 60.5934L104.578 45.5566H109.676L112.649 55.6794C112.78 56.1599 112.9 56.6513 113.009 57.1536C113.118 57.656 113.226 58.1364 113.335 58.5951H113.76C113.869 58.1146 113.989 57.6341 114.12 57.1536C114.25 56.6513 114.381 56.1599 114.512 55.6794L117.453 45.5566H122.55ZM133.058 45.1307C135.084 45.1307 136.642 45.5566 137.73 46.4084C138.82 47.2601 139.364 48.7998 139.364 51.0275V61.74H135.541L135.018 59.1848C134.43 59.8618 133.636 60.517 132.633 61.1504C131.631 61.7838 130.401 62.1004 128.941 62.1004C127.482 62.1004 126.251 61.7182 125.249 60.9538C124.247 60.1894 123.746 59.0537 123.746 57.5468V55.876C123.746 54.5874 124.181 53.5828 125.053 52.8621C125.925 52.1414 127.122 51.781 128.647 51.781H134.528V51.0275C134.507 50.2413 134.311 49.6844 133.94 49.3568C133.592 49.0074 132.927 48.8326 131.947 48.8326C131.097 48.8326 130.052 48.8654 128.81 48.9309C127.568 48.9746 126.294 49.0401 124.987 49.1274L124.563 45.917C125.325 45.7859 126.207 45.6658 127.209 45.5566C128.233 45.4256 129.257 45.3273 130.28 45.2618C131.305 45.1744 132.231 45.1307 133.058 45.1307ZM130.444 58.5951C131.032 58.5951 131.685 58.464 132.404 58.202C133.146 57.9181 133.853 57.5358 134.528 57.0554V54.5001H130.15C129.562 54.5219 129.137 54.6748 128.875 54.9587C128.637 55.2426 128.516 55.6249 128.516 56.1053V56.8916C128.516 58.0272 129.159 58.5951 130.444 58.5951ZM158.752 45.5566L154.537 51.1913C154.341 51.5189 154.091 51.8247 153.786 52.1086C153.48 52.3925 153.23 52.589 153.034 52.6983V52.7966C153.23 52.9276 153.48 53.1679 153.786 53.5173C154.091 53.8449 154.341 54.1834 154.537 54.5328L159.308 61.74H153.916L149.342 54.2052H147.773C147.839 54.6421 147.883 55.068 147.904 55.4829C147.948 55.8978 147.969 56.2909 147.969 56.6622V61.74H143.166V38.808H147.969V48.2757C147.991 49.3022 147.925 50.2958 147.773 51.2568H149.342L153.361 45.5566H158.752ZM164.979 38.4149C165.938 38.4149 166.417 38.8954 166.417 39.8564V41.6254C166.417 42.5864 165.938 43.0668 164.979 43.0668H162.888C161.931 43.0668 161.451 42.5864 161.451 41.6254V39.8564C161.451 38.8954 161.931 38.4149 162.888 38.4149H164.979ZM166.319 45.5566V61.74H161.549V45.5566H166.319ZM178.945 45.1307C180.97 45.1307 182.528 45.5566 183.617 46.4084C184.707 47.2601 185.251 48.7998 185.251 51.0275V61.74H181.428L180.905 59.1848C180.317 59.8618 179.521 60.517 178.52 61.1504C177.518 61.7838 176.287 62.1004 174.827 62.1004C173.368 62.1004 172.137 61.7182 171.135 60.9538C170.133 60.1894 169.632 59.0537 169.632 57.5468V55.876C169.632 54.5874 170.068 53.5828 170.939 52.8621C171.81 52.1414 173.009 51.781 174.533 51.781H180.415V51.0275C180.394 50.2413 180.198 49.6844 179.827 49.3568C179.479 49.0074 178.814 48.8326 177.834 48.8326C176.984 48.8326 175.938 48.8654 174.697 48.9309C173.455 48.9746 172.181 49.0401 170.874 49.1274L170.449 45.917C171.212 45.7859 172.094 45.6658 173.096 45.5566C174.12 45.4256 175.143 45.3273 176.167 45.2618C177.191 45.1744 178.116 45.1307 178.945 45.1307ZM176.331 58.5951C176.919 58.5951 177.572 58.464 178.291 58.202C179.031 57.9181 179.74 57.5358 180.415 57.0554V54.5001H176.036C175.448 54.5219 175.023 54.6748 174.762 54.9587C174.522 55.2426 174.403 55.6249 174.403 56.1053V56.8916C174.403 58.0272 175.045 58.5951 176.331 58.5951Z" fill="white"/>
<path d="M50.2703 1.26001H46.5V61.74H50.2703V1.26001Z" fill="white"/>
</svg>