<svg width="159" height="69" viewBox="0 0 159 69" fill="none" xmlns="http://www.w3.org/2000/svg">
<path d="M12.3705 0.875999C16.0425 0.875999 19.8505 0.921331 23.7945 1.012C27.7385 1.05733 31.3425 1.23866 34.6065 1.556L34.1305 9.104H16.1105C13.8438 9.104 12.7105 10.26 12.7105 12.572V19.916H31.6145V27.26H12.7105V36.508C12.7105 38.82 13.8438 39.976 16.1105 39.976H34.1305L34.6065 47.524C31.3425 47.8413 27.7385 48.0227 23.7945 48.068C19.8505 48.1133 16.0425 48.136 12.3705 48.136C9.37851 48.136 6.95318 47.2973 5.09451 45.62C3.23584 43.8973 2.30651 41.608 2.30651 38.752V10.328C2.30651 7.472 3.23584 5.18266 5.09451 3.46C6.95318 1.73733 9.37851 0.875999 12.3705 0.875999Z" fill="#BED558"/>
<path d="M47.6455 12.0361L47.6005 36.4261C47.6005 37.9261 48.4855 38.6761 50.2555 38.6761H52.0555L52.8205 43.1761C52.4305 43.3861 51.9055 43.5511 51.2455 43.6711C50.5855 43.7911 49.9105 43.8811 49.2205 43.9411C48.5305 44.0011 47.9605 44.0311 47.5105 44.0311C45.5005 44.0311 43.9105 43.5211 42.7405 42.5011C41.6005 41.4511 41.0305 39.9811 41.0305 38.0911V12.0361H47.6455ZM66.1922 20.7211C69.9422 20.7211 72.6272 21.3661 74.2472 22.6561C75.8972 23.9461 76.7222 25.8361 76.7222 28.3261C76.7522 30.3361 76.2422 31.8511 75.1922 32.8711C74.1422 33.8911 72.3272 34.4011 69.7472 34.4011H61.8272C62.0072 36.1411 62.5022 37.3111 63.3122 37.9111C64.1522 38.5111 65.4422 38.8111 67.1822 38.8111C68.2022 38.8111 69.4622 38.7811 70.9622 38.7211C72.4922 38.6311 74.0222 38.4961 75.5522 38.3161L76.1822 42.4111C74.8622 43.0411 73.3022 43.4761 71.5022 43.7161C69.7322 43.9561 68.0372 44.0761 66.4172 44.0761C62.1572 44.0761 59.1422 43.1461 57.3722 41.2861C55.6322 39.4261 54.7622 36.4861 54.7622 32.4661C54.7622 29.5561 55.1372 27.2461 55.8872 25.5361C56.6672 23.8261 57.8972 22.5961 59.5772 21.8461C61.2572 21.0961 63.4622 20.7211 66.1922 20.7211ZM66.4172 25.4011C65.2772 25.4011 64.3622 25.5361 63.6722 25.8061C63.0122 26.0761 62.5322 26.6011 62.2322 27.3811C61.9322 28.1311 61.7522 29.2261 61.6922 30.6661H67.9472C68.9372 30.6661 69.5672 30.4561 69.8372 30.0361C70.1372 29.6161 70.2872 29.0011 70.2872 28.1911C70.2872 27.1411 69.9872 26.4211 69.3872 26.0311C68.7872 25.6111 67.7972 25.4011 66.4172 25.4011ZM91.4125 20.7211C92.5825 20.7211 93.9475 20.8261 95.5075 21.0361C97.0675 21.2161 98.4475 21.5611 99.6475 22.0711L98.9275 26.2561C97.7275 26.1961 96.5725 26.1661 95.4625 26.1661C94.3825 26.1361 93.4075 26.1211 92.5376 26.1211C91.1875 26.1211 90.1225 26.3011 89.3425 26.6611C88.5625 27.0211 87.9925 27.6661 87.6325 28.5961C87.3025 29.4961 87.1375 30.7561 87.1375 32.3761C87.1375 34.0561 87.3025 35.3611 87.6325 36.2911C87.9925 37.1911 88.5625 37.8211 89.3425 38.1811C90.1225 38.5411 91.1875 38.7211 92.5376 38.7211C93.2575 38.7211 94.2625 38.7061 95.5526 38.6761C96.8425 38.6161 98.1175 38.4961 99.3775 38.3161L100.008 42.5461C98.8075 43.0861 97.4425 43.4761 95.9125 43.7161C94.3825 43.9561 92.8675 44.0761 91.3675 44.0761C88.6375 44.0761 86.4475 43.7011 84.7975 42.9511C83.1475 42.2011 81.9625 40.9711 81.2425 39.2611C80.5225 37.5511 80.1625 35.2561 80.1625 32.3761C80.1625 29.5261 80.5225 27.2611 81.2425 25.5811C81.9925 23.8711 83.1925 22.6411 84.8425 21.8911C86.4925 21.1111 88.6825 20.7211 91.4125 20.7211ZM118.809 21.3061V25.6711H112.599V36.4261C112.599 37.2361 112.779 37.8211 113.139 38.1811C113.499 38.5111 114.129 38.6761 115.029 38.6761H117.909L118.629 43.1761C118.059 43.3861 117.384 43.5511 116.604 43.6711C115.824 43.7911 115.044 43.8811 114.264 43.9411C113.514 44.0011 112.869 44.0311 112.329 44.0311C110.319 44.0311 108.744 43.5061 107.604 42.4561C106.494 41.3761 105.939 39.8611 105.939 37.9111V25.6711H102.069V21.5311L105.939 21.3511V15.1411H112.599V21.3061H118.809ZM127.321 11.4961C128.641 11.4961 129.301 12.1561 129.301 13.4761V15.9061C129.301 17.2261 128.641 17.8861 127.321 17.8861H124.441C123.121 17.8861 122.461 17.2261 122.461 15.9061V13.4761C122.461 12.1561 123.121 11.4961 124.441 11.4961H127.321ZM129.166 21.3061V43.5361H122.596V21.3061H129.166ZM145.338 20.7211C149.088 20.7211 151.773 21.3661 153.393 22.6561C155.043 23.9461 155.868 25.8361 155.868 28.3261C155.898 30.3361 155.388 31.8511 154.338 32.8711C153.288 33.8911 151.473 34.4011 148.893 34.4011H140.973C141.153 36.1411 141.648 37.3111 142.458 37.9111C143.298 38.5111 144.588 38.8111 146.328 38.8111C147.348 38.8111 148.608 38.7811 150.108 38.7211C151.638 38.6311 153.168 38.4961 154.698 38.3161L155.328 42.4111C154.008 43.0411 152.448 43.4761 150.648 43.7161C148.878 43.9561 147.183 44.0761 145.563 44.0761C141.303 44.0761 138.288 43.1461 136.518 41.2861C134.778 39.4261 133.908 36.4861 133.908 32.4661C133.908 29.5561 134.283 27.2461 135.033 25.5361C135.813 23.8261 137.043 22.5961 138.723 21.8461C140.403 21.0961 142.608 20.7211 145.338 20.7211ZM145.563 25.4011C144.423 25.4011 143.508 25.5361 142.818 25.8061C142.158 26.0761 141.678 26.6011 141.378 27.3811C141.078 28.1311 140.898 29.2261 140.838 30.6661H147.093C148.083 30.6661 148.713 30.4561 148.983 30.0361C149.283 29.6161 149.433 29.0011 149.433 28.1911C149.433 27.1411 149.133 26.4211 148.533 26.0311C147.933 25.6111 146.943 25.4011 145.563 25.4011Z" fill="white"/>
<path d="M7.32 51.0821C8.37333 51.0821 9.46 51.0955 10.58 51.1221C11.7133 51.1355 12.74 51.1955 13.66 51.3021L13.5 53.5021H8.5C7.76667 53.5021 7.4 53.8421 7.4 54.5221V56.9221H12.76V59.0821H7.4V64.9421H4.36V53.9021C4.36 53.0355 4.63333 52.3488 5.18 51.8421C5.72667 51.3355 6.44 51.0821 7.32 51.0821ZM17.9789 55.0621V61.5621C17.9789 61.9755 18.0656 62.2688 18.2389 62.4421C18.4122 62.6155 18.7056 62.7021 19.1189 62.7021C19.4789 62.7021 19.8456 62.6421 20.2189 62.5221C20.5922 62.4021 21.0389 62.2021 21.5589 61.9221V55.0621H24.5189V64.9421H22.1989L21.9389 63.5021C21.2456 64.0755 20.5656 64.5021 19.8989 64.7821C19.2322 65.0621 18.5456 65.2021 17.8389 65.2021C15.9722 65.2021 15.0389 64.2888 15.0389 62.4621V55.0621H17.9789ZM33.5544 55.0621V57.0021H30.7944V61.7821C30.7944 62.1421 30.8744 62.4021 31.0344 62.5621C31.1944 62.7088 31.4744 62.7821 31.8744 62.7821H33.1544L33.4744 64.7821C33.221 64.8755 32.921 64.9488 32.5744 65.0021C32.2277 65.0555 31.881 65.0955 31.5344 65.1221C31.201 65.1488 30.9144 65.1621 30.6744 65.1621C29.781 65.1621 29.081 64.9288 28.5744 64.4621C28.081 63.9821 27.8344 63.3088 27.8344 62.4421V57.0021H26.1144V55.1621L27.8344 55.0821V52.3221H30.7944V55.0621H33.5544ZM38.0375 55.0621V61.5621C38.0375 61.9755 38.1242 62.2688 38.2975 62.4421C38.4708 62.6155 38.7642 62.7021 39.1775 62.7021C39.5375 62.7021 39.9042 62.6421 40.2775 62.5221C40.6508 62.4021 41.0975 62.2021 41.6175 61.9221V55.0621H44.5775V64.9421H42.2575L41.9975 63.5021C41.3042 64.0755 40.6242 64.5021 39.9575 64.7821C39.2908 65.0621 38.6042 65.2021 37.8975 65.2021C36.0308 65.2021 35.0975 64.2888 35.0975 62.4621V55.0621H38.0375ZM49.313 55.0621L49.593 56.5621C50.953 55.3888 52.293 54.8021 53.613 54.8021H54.133L53.853 57.5221H53.033C52.6063 57.5221 52.153 57.5821 51.673 57.7021C51.2063 57.8221 50.633 58.0021 49.953 58.2421V64.9421H47.013V55.0621H49.313ZM60.0323 54.8021C61.699 54.8021 62.8923 55.0888 63.6123 55.6621C64.3457 56.2355 64.7123 57.0755 64.7123 58.1821C64.7257 59.0755 64.499 59.7488 64.0323 60.2021C63.5657 60.6555 62.759 60.8821 61.6123 60.8821H58.0923C58.1723 61.6555 58.3923 62.1755 58.7523 62.4421C59.1257 62.7088 59.699 62.8421 60.4723 62.8421C60.9257 62.8421 61.4857 62.8288 62.1523 62.8021C62.8323 62.7621 63.5123 62.7021 64.1923 62.6221L64.4723 64.4421C63.8857 64.7221 63.1923 64.9155 62.3923 65.0221C61.6057 65.1288 60.8523 65.1821 60.1323 65.1821C58.239 65.1821 56.899 64.7688 56.1123 63.9421C55.339 63.1155 54.9523 61.8088 54.9523 60.0221C54.9523 58.7288 55.119 57.7021 55.4523 56.9421C55.799 56.1821 56.3457 55.6355 57.0923 55.3021C57.839 54.9688 58.819 54.8021 60.0323 54.8021ZM60.1323 56.8821C59.6257 56.8821 59.219 56.9421 58.9123 57.0621C58.619 57.1821 58.4057 57.4155 58.2723 57.7621C58.139 58.0955 58.059 58.5821 58.0323 59.2221H60.8123C61.2523 59.2221 61.5323 59.1288 61.6523 58.9421C61.7857 58.7555 61.8523 58.4821 61.8523 58.1221C61.8523 57.6555 61.719 57.3355 61.4523 57.1621C61.1857 56.9755 60.7457 56.8821 60.1323 56.8821ZM75.6773 54.8021C76.9173 54.8021 77.9107 54.9755 78.6573 55.3221C79.404 55.6555 79.9373 56.2088 80.2573 56.9821C80.5907 57.7421 80.7573 58.7555 80.7573 60.0221C80.7573 61.2888 80.5907 62.3021 80.2573 63.0621C79.9373 63.8088 79.404 64.3488 78.6573 64.6821C77.9107 65.0155 76.9173 65.1821 75.6773 65.1821C74.4373 65.1821 73.444 65.0155 72.6973 64.6821C71.9507 64.3488 71.4107 63.8088 71.0773 63.0621C70.7573 62.3021 70.5973 61.2888 70.5973 60.0221C70.5973 58.7555 70.7573 57.7421 71.0773 56.9821C71.4107 56.2088 71.9507 55.6555 72.6973 55.3221C73.444 54.9755 74.4373 54.8021 75.6773 54.8021ZM75.6773 56.9421C75.1573 56.9421 74.7507 57.0288 74.4573 57.2021C74.1773 57.3755 73.9773 57.6888 73.8573 58.1421C73.7373 58.5821 73.6773 59.2088 73.6773 60.0221C73.6773 60.8221 73.7373 61.4421 73.8573 61.8821C73.9773 62.3221 74.1773 62.6288 74.4573 62.8021C74.7507 62.9621 75.1573 63.0421 75.6773 63.0421C76.1973 63.0421 76.5973 62.9621 76.8773 62.8021C77.1707 62.6288 77.3773 62.3221 77.4973 61.8821C77.6173 61.4421 77.6773 60.8221 77.6773 60.0221C77.6773 59.2088 77.6173 58.5821 77.4973 58.1421C77.3773 57.6888 77.1707 57.3755 76.8773 57.2021C76.5973 57.0288 76.1973 56.9421 75.6773 56.9421ZM89.3352 55.0621V57.0021H86.5752V64.9421H83.6152V57.0021H81.8952V55.1621L83.6152 55.0821V53.5821C83.6152 52.6621 83.8552 51.9221 84.3352 51.3621C84.8285 50.8021 85.6752 50.5221 86.8752 50.5221C87.1152 50.5221 87.4285 50.5355 87.8152 50.5621C88.2152 50.5755 88.6152 50.5955 89.0152 50.6221C89.4285 50.6488 89.7818 50.6888 90.0752 50.7421L89.8152 52.6221H87.9352C87.4285 52.6221 87.0752 52.7288 86.8752 52.9421C86.6752 53.1421 86.5752 53.4821 86.5752 53.9621V55.0621H89.3352ZM105.777 51.1421L102.017 64.1021C101.95 64.3555 101.817 64.5621 101.617 64.7221C101.417 64.8688 101.19 64.9421 100.937 64.9421H98.1367C97.8701 64.9421 97.6367 64.8688 97.4367 64.7221C97.2501 64.5621 97.1234 64.3555 97.0567 64.1021L93.2967 51.1421H96.4367L98.9567 61.1021C99.0101 61.3555 99.0634 61.6155 99.1167 61.8821C99.1701 62.1355 99.2234 62.3888 99.2767 62.6421H99.7967C99.8901 62.1221 100.003 61.6021 100.137 61.0821L102.637 51.1421H105.777ZM111.048 54.8021C112.288 54.8021 113.282 54.9755 114.028 55.3221C114.775 55.6555 115.308 56.2088 115.628 56.9821C115.962 57.7421 116.128 58.7555 116.128 60.0221C116.128 61.2888 115.962 62.3021 115.628 63.0621C115.308 63.8088 114.775 64.3488 114.028 64.6821C113.282 65.0155 112.288 65.1821 111.048 65.1821C109.808 65.1821 108.815 65.0155 108.068 64.6821C107.322 64.3488 106.782 63.8088 106.448 63.0621C106.128 62.3021 105.968 61.2888 105.968 60.0221C105.968 58.7555 106.128 57.7421 106.448 56.9821C106.782 56.2088 107.322 55.6555 108.068 55.3221C108.815 54.9755 109.808 54.8021 111.048 54.8021ZM111.048 56.9421C110.528 56.9421 110.122 57.0288 109.828 57.2021C109.548 57.3755 109.348 57.6888 109.228 58.1421C109.108 58.5821 109.048 59.2088 109.048 60.0221C109.048 60.8221 109.108 61.4421 109.228 61.8821C109.348 62.3221 109.548 62.6288 109.828 62.8021C110.122 62.9621 110.528 63.0421 111.048 63.0421C111.568 63.0421 111.968 62.9621 112.248 62.8021C112.542 62.6288 112.748 62.3221 112.868 61.8821C112.988 61.4421 113.048 60.8221 113.048 60.0221C113.048 59.2088 112.988 58.5821 112.868 58.1421C112.748 57.6888 112.542 57.3755 112.248 57.2021C111.968 57.0288 111.568 56.9421 111.048 56.9421ZM124.726 55.0621V57.0021H121.966V61.7821C121.966 62.1421 122.046 62.4021 122.206 62.5621C122.366 62.7088 122.646 62.7821 123.046 62.7821H124.326L124.646 64.7821C124.393 64.8755 124.093 64.9488 123.746 65.0021C123.4 65.0555 123.053 65.0955 122.706 65.1221C122.373 65.1488 122.086 65.1621 121.846 65.1621C120.953 65.1621 120.253 64.9288 119.746 64.4621C119.253 63.9821 119.006 63.3088 119.006 62.4421V57.0021H117.286V55.1621L119.006 55.0821V52.3221H121.966V55.0621H124.726ZM128.509 50.7021C129.096 50.7021 129.389 50.9955 129.389 51.5821V52.6621C129.389 53.2488 129.096 53.5421 128.509 53.5421H127.229C126.643 53.5421 126.349 53.2488 126.349 52.6621V51.5821C126.349 50.9955 126.643 50.7021 127.229 50.7021H128.509ZM129.329 55.0621V64.9421H126.409V55.0621H129.329ZM134.217 55.0621L134.477 56.5621C135.89 55.3888 137.303 54.8021 138.717 54.8021C140.583 54.8021 141.517 55.7155 141.517 57.5421V64.9421H138.557V58.4621C138.557 58.0221 138.477 57.7221 138.317 57.5621C138.157 57.3888 137.883 57.3021 137.497 57.3021C137.097 57.3021 136.69 57.3755 136.277 57.5221C135.863 57.6555 135.37 57.8688 134.797 58.1621V64.9421H131.857V55.0621H134.217ZM148.248 54.8021C149.288 54.8021 150.135 54.8888 150.788 55.0621H154.028L153.868 56.3021L152.628 56.4821C152.802 56.8688 152.888 57.3555 152.888 57.9421C152.888 58.6888 152.735 59.2955 152.428 59.7621C152.135 60.2155 151.648 60.5488 150.968 60.7621C150.288 60.9621 149.375 61.0621 148.228 61.0621C147.548 61.0621 146.955 61.0288 146.448 60.9621C146.288 61.1888 146.242 61.4488 146.308 61.7421C146.388 62.0221 146.648 62.1821 147.088 62.2221L150.728 62.6421C151.755 62.7488 152.482 63.0421 152.908 63.5221C153.348 63.9888 153.568 64.6755 153.568 65.5821C153.568 66.4355 153.395 67.0888 153.048 67.5421C152.702 68.0088 152.142 68.3288 151.368 68.5021C150.608 68.6755 149.602 68.7621 148.348 68.7621C146.962 68.7621 145.888 68.6688 145.128 68.4821C144.382 68.3088 143.862 68.0088 143.568 67.5821C143.275 67.1555 143.128 66.5821 143.128 65.8621C143.128 65.3555 143.242 64.9288 143.468 64.5821C143.708 64.2355 144.128 63.9288 144.728 63.6621C144.395 63.3688 144.195 63.0221 144.128 62.6221C144.062 62.2088 144.108 61.8155 144.268 61.4421C144.428 61.0688 144.682 60.7821 145.028 60.5821C144.495 60.3421 144.115 60.0088 143.888 59.5821C143.675 59.1421 143.568 58.5955 143.568 57.9421C143.568 57.1955 143.715 56.5955 144.008 56.1421C144.302 55.6755 144.788 55.3355 145.468 55.1221C146.162 54.9088 147.088 54.8021 148.248 54.8021ZM148.228 56.6021C147.495 56.6021 146.988 56.7021 146.708 56.9021C146.428 57.0888 146.288 57.4355 146.288 57.9421C146.288 58.4355 146.428 58.7821 146.708 58.9821C146.988 59.1821 147.495 59.2821 148.228 59.2821C148.962 59.2821 149.462 59.1821 149.728 58.9821C150.008 58.7821 150.148 58.4355 150.148 57.9421C150.148 57.4355 150.008 57.0888 149.728 56.9021C149.462 56.7021 148.962 56.6021 148.228 56.6021ZM145.928 65.4821C145.928 65.9621 146.088 66.2688 146.408 66.4021C146.742 66.5488 147.375 66.6221 148.308 66.6221C149.282 66.6221 149.935 66.5488 150.268 66.4021C150.602 66.2688 150.768 65.9755 150.768 65.5221C150.768 65.1621 150.648 64.9288 150.408 64.8221C150.182 64.7021 149.762 64.6021 149.148 64.5221L146.628 64.2421C146.375 64.4421 146.195 64.6288 146.088 64.8021C145.982 64.9755 145.928 65.2021 145.928 65.4821Z" fill="white"/>
</svg>
