<svg width="438" height="438" viewBox="0 0 438 438" fill="none" xmlns="http://www.w3.org/2000/svg">
<path d="M331.021 175.73C330.292 175.729 329.57 175.871 328.896 176.149C328.223 176.428 327.611 176.836 327.095 177.352C326.58 177.867 326.171 178.479 325.893 179.153C325.615 179.826 325.472 180.548 325.474 181.277V229.972C325.474 231.444 326.058 232.854 327.098 233.895C328.139 234.935 329.55 235.519 331.021 235.519C332.492 235.519 333.903 234.935 334.943 233.895C335.983 232.854 336.568 231.444 336.568 229.972V181.277C336.569 180.548 336.427 179.826 336.148 179.153C335.87 178.479 335.461 177.867 334.946 177.352C334.431 176.836 333.819 176.428 333.145 176.149C332.471 175.871 331.75 175.729 331.021 175.73Z" fill="#265375"/>
<path d="M112.506 229.941V181.245C112.506 179.774 111.921 178.363 110.881 177.323C109.841 176.283 108.43 175.698 106.959 175.698C105.487 175.698 104.077 176.283 103.036 177.323C101.996 178.363 101.412 179.774 101.412 181.245V229.941C101.412 231.412 101.996 232.823 103.036 233.863C104.077 234.903 105.487 235.488 106.959 235.488C108.43 235.488 109.841 234.903 110.881 233.863C111.921 232.823 112.506 231.412 112.506 229.941Z" fill="#265375"/>
<path d="M408.583 265.7H406.466C410.806 260.97 413.641 255.058 414.614 248.714C415.587 242.37 414.652 235.88 411.929 230.068C412.137 229.526 412.255 228.954 412.278 228.374V181.372C412.27 173.655 409.199 166.256 403.741 160.8C398.284 155.344 390.884 152.277 383.167 152.271H381.049C385.336 147.527 388.154 141.641 389.163 135.327C390.171 129.013 389.326 122.542 386.731 116.699C384.135 110.855 379.9 105.89 374.539 102.405C369.178 98.9204 362.921 97.0656 356.527 97.0656C350.133 97.0656 343.876 98.9204 338.515 102.405C333.154 105.89 328.919 110.855 326.324 116.699C323.728 122.542 322.883 129.013 323.891 135.327C324.9 141.641 327.718 147.527 332.005 152.271H329.888C322.172 152.28 314.775 155.349 309.32 160.804C303.864 166.26 300.795 173.657 300.787 181.372V220.286L289.64 179.731C289.317 178.559 288.618 177.525 287.65 176.788C286.683 176.052 285.5 175.654 284.283 175.656H274.788V134.593C274.782 126.877 271.714 119.478 266.258 114.022C260.802 108.566 253.403 105.498 245.687 105.492H243.57C247.854 100.749 250.671 94.8651 251.679 88.5533C252.686 82.2415 251.841 75.773 249.246 69.9318C246.651 64.0906 242.417 59.1275 237.058 55.6442C231.699 52.1609 225.445 50.3069 219.053 50.3069C212.661 50.3069 206.407 52.1609 201.048 55.6442C195.688 59.1275 191.455 64.0906 188.86 69.9318C186.265 75.773 185.42 82.2415 186.427 88.5533C187.435 94.8651 190.251 100.749 194.536 105.492H192.419C184.703 105.501 177.306 108.569 171.851 114.025C166.395 119.481 163.326 126.878 163.318 134.593V175.656H153.791C152.575 175.658 151.394 176.057 150.427 176.793C149.46 177.529 148.76 178.561 148.434 179.731L137.213 220.487V181.372C137.202 173.656 134.131 166.259 128.673 160.804C123.216 155.348 115.818 152.28 108.102 152.271H105.984C110.269 147.528 113.086 141.644 114.093 135.333C115.101 129.021 114.256 122.552 111.661 116.711C109.065 110.87 104.832 105.907 99.4727 102.423C94.1135 98.9402 87.8591 97.0862 81.4674 97.0862C75.0757 97.0862 68.8212 98.9402 63.4621 102.423C58.103 105.907 53.8693 110.87 51.2742 116.711C48.6792 122.552 47.8342 129.021 48.8417 135.333C49.8492 141.644 52.6659 147.528 56.9503 152.271H54.8332C47.1159 152.277 39.7162 155.344 34.2583 160.8C28.8004 166.256 25.7302 173.655 25.7218 181.372V229.94C25.7505 230.133 25.7893 230.324 25.8383 230.512C23.2615 236.296 22.4288 242.707 23.4423 248.957C24.4559 255.208 27.2716 261.026 31.5441 265.7H29.4269C21.7115 265.708 14.3145 268.777 8.85887 274.232C3.40324 279.688 0.334578 287.085 0.326172 294.801V353.944C0.388654 355.375 1.00093 356.726 2.03536 357.716C3.06978 358.707 4.44651 359.259 5.87849 359.259C7.31048 359.259 8.68721 358.707 9.72163 357.716C10.7561 356.726 11.3683 355.375 11.4308 353.944V294.801C11.4308 290.028 13.3268 285.45 16.7018 282.075C20.0767 278.7 24.6541 276.804 29.4269 276.804H82.7165C87.4894 276.804 92.0668 278.7 95.4417 282.075C98.8166 285.45 100.713 290.028 100.713 294.801V353.944C100.713 354.061 100.776 354.166 100.787 354.283C100.816 354.676 100.894 355.063 101.02 355.437C101.093 355.756 101.196 356.068 101.327 356.368C101.499 356.683 101.701 356.981 101.93 357.258C102.127 357.546 102.354 357.812 102.608 358.052C102.869 358.263 103.149 358.45 103.444 358.613C103.777 358.823 104.132 358.997 104.502 359.131C104.619 359.131 104.704 359.258 104.82 359.29C105.065 359.329 105.313 359.346 105.561 359.343C105.804 359.41 106.052 359.459 106.302 359.491C106.429 359.491 106.535 359.428 106.662 359.417C107.047 359.385 107.426 359.31 107.795 359.195C108.114 359.116 108.425 359.01 108.726 358.877C109.047 358.705 109.348 358.499 109.626 358.263C109.902 358.068 110.161 357.848 110.399 357.607C110.62 357.337 110.815 357.046 110.981 356.739C111.184 356.431 111.351 356.101 111.479 355.754C111.479 355.627 111.616 355.543 111.648 355.416L158.067 186.75H280.038L326.384 355.416C326.384 355.5 326.5 355.532 326.521 355.627C326.84 356.625 327.444 357.508 328.257 358.168C328.416 358.295 328.564 358.38 328.723 358.486C329.602 359.113 330.649 359.464 331.73 359.491C332.23 359.492 332.729 359.424 333.212 359.29C333.328 359.29 333.413 359.174 333.529 359.131C333.9 358.997 334.255 358.823 334.588 358.613C334.881 358.448 335.16 358.26 335.424 358.052C335.676 357.803 335.906 357.534 336.112 357.247C336.334 356.977 336.529 356.686 336.694 356.379C336.832 356.073 336.938 355.754 337.012 355.426C337.137 355.06 337.215 354.679 337.245 354.294C337.245 354.166 337.319 354.061 337.319 353.944V294.801C337.319 290.028 339.215 285.45 342.59 282.075C345.965 278.7 350.542 276.804 355.315 276.804H408.605C413.377 276.804 417.955 278.7 421.33 282.075C424.705 285.45 426.601 290.028 426.601 294.801V353.944C426.663 355.375 427.275 356.726 428.31 357.716C429.344 358.707 430.721 359.259 432.153 359.259C433.585 359.259 434.962 358.707 435.996 357.716C437.031 356.726 437.643 355.375 437.705 353.944V294.801C437.697 287.081 434.625 279.681 429.165 274.225C423.705 268.769 416.303 265.703 408.583 265.7ZM59.5333 130.337C59.5312 125.997 60.8165 121.753 63.2265 118.143C65.6365 114.533 69.0631 111.718 73.0728 110.056C77.0825 108.393 81.4951 107.957 85.7527 108.803C90.0102 109.648 93.9214 111.737 96.9914 114.806C100.062 117.874 102.153 121.785 103 126.042C103.848 130.299 103.414 134.712 101.753 138.722C100.093 142.733 97.2799 146.161 93.6709 148.572C90.0619 150.984 85.8187 152.271 81.478 152.271C75.6623 152.263 70.0871 149.95 65.9738 145.838C61.8605 141.727 59.5445 136.153 59.5333 130.337ZM34.1271 243.745C34.1292 239.404 35.4182 235.162 37.8313 231.555C40.2443 227.947 43.673 225.136 47.6836 223.477C51.6943 221.818 56.1068 221.385 60.3633 222.234C64.6197 223.083 68.5289 225.175 71.5964 228.245C74.6639 231.316 76.7521 235.227 77.5968 239.484C78.4415 243.742 78.0047 248.154 76.3419 252.163C74.679 256.172 71.8647 259.598 68.2547 262.007C64.6448 264.417 60.4014 265.702 56.0611 265.7C50.2428 265.691 44.6654 263.375 40.5532 259.259C36.441 255.142 34.1299 249.563 34.1271 243.745ZM82.7059 265.7H80.5888C84.5546 261.325 87.2667 255.961 88.4389 250.174C89.6111 244.386 89.2 238.39 87.249 232.817C85.2981 227.243 81.8795 222.3 77.3537 218.507C72.8279 214.714 67.3626 212.213 61.5341 211.267V181.277C61.4716 179.846 60.8593 178.495 59.8249 177.505C58.7904 176.515 57.4137 175.962 55.9817 175.962C54.5497 175.962 53.173 176.515 52.1386 177.505C51.1042 178.495 50.4919 179.846 50.4294 181.277V211.277C45.5177 212.124 40.8647 214.083 36.8265 217.004V181.372C36.8265 176.599 38.7225 172.022 42.0974 168.647C45.4723 165.272 50.0497 163.376 54.8226 163.376H108.112C112.885 163.376 117.462 165.272 120.837 168.647C124.212 172.022 126.108 176.599 126.108 181.372V258.173C126.134 258.697 126.237 259.215 126.415 259.708L111.786 312.85V294.801C111.777 287.089 108.711 279.695 103.26 274.24C97.8092 268.785 90.4177 265.714 82.7059 265.7ZM197.108 83.5476C197.108 79.2051 198.397 74.9602 200.81 71.3503C203.224 67.7403 206.654 64.9277 210.667 63.2683C214.68 61.6089 219.095 61.1775 223.354 62.0285C227.612 62.8795 231.522 64.9748 234.589 68.0491C237.656 71.1235 239.741 75.0386 240.582 79.2989C241.423 83.5592 240.981 87.9732 239.312 91.9821C237.643 95.9911 234.822 99.4147 231.206 101.82C227.59 104.225 223.342 105.503 219 105.492C213.191 105.473 207.626 103.153 203.523 99.0399C199.42 94.9272 197.114 89.3568 197.108 83.5476ZM174.391 134.593C174.391 129.82 176.287 125.243 179.662 121.868C183.037 118.493 187.614 116.597 192.387 116.597H245.676C250.449 116.597 255.027 118.493 258.402 121.868C261.777 125.243 263.673 129.82 263.673 134.593V175.656H250.07V134.498C250.007 133.067 249.395 131.716 248.36 130.726C247.326 129.735 245.949 129.183 244.517 129.183C243.085 129.183 241.709 129.735 240.674 130.726C239.64 131.716 239.027 133.067 238.965 134.498V175.656H199.098V134.498C199.036 133.067 198.424 131.716 197.389 130.726C196.355 129.735 194.978 129.183 193.546 129.183C192.114 129.183 190.737 129.735 189.703 130.726C188.668 131.716 188.056 133.067 187.994 134.498V175.656H174.391V134.593ZM359.983 243.745C359.986 239.405 361.274 235.164 363.686 231.557C366.098 227.95 369.526 225.139 373.535 223.479C377.545 221.819 381.956 221.386 386.212 222.233C390.468 223.08 394.377 225.17 397.445 228.238C400.514 231.306 402.603 235.215 403.451 239.471C404.298 243.727 403.864 248.139 402.204 252.148C400.545 256.158 397.734 259.585 394.126 261.997C390.519 264.409 386.278 265.698 381.939 265.7C376.117 265.697 370.534 263.383 366.417 259.266C362.3 255.149 359.986 249.567 359.983 243.745ZM334.577 130.337C334.575 125.996 335.861 121.752 338.271 118.142C340.682 114.531 344.109 111.717 348.119 110.055C352.129 108.392 356.543 107.957 360.8 108.803C365.058 109.65 368.969 111.74 372.039 114.81C375.109 117.879 377.199 121.79 378.045 126.048C378.892 130.306 378.456 134.719 376.794 138.73C375.132 142.74 372.317 146.167 368.707 148.578C365.097 150.988 360.852 152.274 356.511 152.271C350.697 152.263 345.122 149.949 341.011 145.838C336.899 141.726 334.586 136.152 334.577 130.337ZM326.182 294.801V312.797L311.574 259.634C311.734 259.166 311.83 258.678 311.86 258.184V181.372C311.86 176.599 313.756 172.022 317.131 168.647C320.506 165.272 325.083 163.376 329.856 163.376H383.145C387.918 163.376 392.496 165.272 395.871 168.647C399.246 172.022 401.142 176.599 401.142 181.372V216.994C397.099 214.076 392.442 212.12 387.528 211.277V181.277C387.466 179.846 386.853 178.495 385.819 177.505C384.784 176.515 383.408 175.962 381.976 175.962C380.544 175.962 379.167 176.515 378.133 177.505C377.098 178.495 376.486 179.846 376.423 181.277V211.267C370.595 212.213 365.13 214.714 360.604 218.507C356.078 222.3 352.659 227.243 350.708 232.817C348.757 238.39 348.346 244.386 349.519 250.174C350.691 255.961 353.403 261.325 357.369 265.7H355.251C347.542 265.717 340.153 268.789 334.704 274.244C329.255 279.698 326.191 287.091 326.182 294.801Z" fill="#265375"/>
<path d="M407.43 289.148C406.701 289.148 405.978 289.292 405.305 289.571C404.631 289.85 404.019 290.26 403.504 290.776C402.989 291.292 402.58 291.905 402.302 292.579C402.024 293.254 401.881 293.976 401.883 294.705V353.987C401.883 355.458 402.467 356.869 403.508 357.909C404.548 358.949 405.959 359.534 407.43 359.534C408.901 359.534 410.312 358.949 411.352 357.909C412.392 356.869 412.977 355.458 412.977 353.987V294.705C412.978 293.976 412.836 293.254 412.558 292.579C412.28 291.905 411.871 291.292 411.356 290.776C410.841 290.26 410.229 289.85 409.555 289.571C408.881 289.292 408.159 289.148 407.43 289.148Z" fill="#265375"/>
<path d="M356.437 289.148C355.708 289.148 354.986 289.292 354.312 289.571C353.638 289.85 353.026 290.26 352.511 290.776C351.996 291.292 351.587 291.905 351.309 292.579C351.031 293.254 350.889 293.976 350.89 294.705V353.987C350.89 355.458 351.475 356.869 352.515 357.909C353.555 358.949 354.966 359.534 356.437 359.534C357.908 359.534 359.319 358.949 360.36 357.909C361.4 356.869 361.984 355.458 361.984 353.987V294.705C361.986 293.976 361.843 293.254 361.565 292.579C361.287 291.905 360.879 291.292 360.363 290.776C359.848 290.26 359.236 289.85 358.562 289.571C357.889 289.292 357.167 289.148 356.437 289.148Z" fill="#265375"/>
<path d="M81.5417 289.148C80.8123 289.148 80.0901 289.292 79.4165 289.571C78.7428 289.85 78.1308 290.26 77.6156 290.776C77.1004 291.292 76.692 291.905 76.4138 292.579C76.1357 293.254 75.9932 293.976 75.9946 294.705V353.987C75.9946 355.458 76.5791 356.869 77.6193 357.909C78.6596 358.949 80.0705 359.534 81.5417 359.534C83.0128 359.534 84.4237 358.949 85.464 357.909C86.5043 356.869 87.0887 355.458 87.0887 353.987V294.705C87.0901 293.976 86.9476 293.254 86.6695 292.579C86.3914 291.905 85.983 291.292 85.4678 290.776C84.9525 290.26 84.3406 289.85 83.6669 289.571C82.9932 289.292 82.271 289.148 81.5417 289.148Z" fill="#265375"/>
<path d="M30.5705 289.148C29.8411 289.148 29.119 289.292 28.4453 289.571C27.7716 289.85 27.1596 290.26 26.6444 290.776C26.1292 291.292 25.7208 291.905 25.4426 292.579C25.1645 293.254 25.0221 293.976 25.0234 294.705V353.987C25.0234 355.458 25.6079 356.869 26.6481 357.909C27.6884 358.949 29.0993 359.534 30.5705 359.534C32.0416 359.534 33.4525 358.949 34.4928 357.909C35.5331 356.869 36.1175 355.458 36.1175 353.987V294.705C36.1189 293.976 35.9764 293.254 35.6983 292.579C35.4202 291.905 35.0118 291.292 34.4966 290.776C33.9813 290.26 33.3694 289.85 32.6957 289.571C32.022 289.292 31.2998 289.148 30.5705 289.148Z" fill="#265375"/>
</svg>
