<svg width="412" height="412" viewBox="0 0 412 412" fill="none" xmlns="http://www.w3.org/2000/svg">
<path fill-rule="evenodd" clip-rule="evenodd" d="M405.133 13.735H353.043L341.322 2.01364C338.637 -0.671214 334.297 -0.671214 331.612 2.01364L319.891 13.735H6.86835C3.07797 13.735 0.00171659 16.8112 0.00171659 20.6016V103.001C0.00171659 106.792 3.07797 109.868 6.86835 109.868H295.267C299.058 109.868 302.134 106.792 302.134 103.001V75.5347C302.134 71.7443 299.058 68.6681 295.267 68.6681C291.477 68.6681 288.401 71.7443 288.401 75.5347V96.1346H260.934V89.268C260.934 85.4776 257.858 82.4014 254.067 82.4014C250.277 82.4014 247.201 85.4776 247.201 89.268V96.1346H219.734V89.268C219.734 85.4776 216.658 82.4014 212.867 82.4014C209.077 82.4014 206.001 85.4776 206.001 89.268V96.1346H178.534V75.5347C178.534 71.7443 175.458 68.6681 171.668 68.6681C167.877 68.6681 164.801 71.7443 164.801 75.5347V96.1346H137.334V89.268C137.334 85.4776 134.258 82.4014 130.468 82.4014C126.677 82.4014 123.601 85.4776 123.601 89.268V96.1346H96.1346V89.268C96.1346 85.4776 93.0584 82.4014 89.268 82.4014C85.4776 82.4014 82.4014 85.4776 82.4014 89.268V96.1346H54.9348V75.5347C54.9348 71.7443 51.8586 68.6681 48.0682 68.6681C44.2778 68.6681 41.2015 71.7443 41.2015 75.5347V96.1346H13.735V27.4683H322.734C324.553 27.4683 326.304 26.7473 327.588 25.4563L336.467 16.5778L345.346 25.4563C346.63 26.7473 348.381 27.4683 350.2 27.4683H398.267V96.1346H322.734C318.943 96.1346 315.867 99.2109 315.867 103.001C315.867 106.792 318.943 109.868 322.734 109.868H405.133C408.924 109.868 412 106.792 412 103.001V20.6016C412 16.8112 408.924 13.735 405.133 13.735ZM370.8 61.8015C370.8 54.2276 364.641 48.0682 357.067 48.0682C349.493 48.0682 343.334 54.2276 343.334 61.8015C343.334 69.3754 349.493 75.5347 357.067 75.5347C364.641 75.5347 370.8 69.3754 370.8 61.8015ZM54.9348 343.334C54.9348 350.908 61.0942 357.067 68.6681 357.067C76.242 357.067 82.4014 350.908 82.4014 343.334C82.4014 335.76 76.242 329.6 68.6681 329.6C61.0942 329.6 54.9348 335.76 54.9348 343.334ZM348.188 125.613C345.503 122.928 341.164 122.928 338.479 125.613L68.6681 395.424L16.5778 343.334L82.4014 277.51L91.2799 286.389C92.6189 287.728 94.3768 288.401 96.1346 288.401C97.8925 288.401 99.6504 287.728 100.989 286.389C103.674 283.704 103.674 279.364 100.989 276.679L92.1108 267.801L109.868 250.043L118.746 258.922C120.085 260.261 121.843 260.934 123.601 260.934C125.359 260.934 127.117 260.261 128.456 258.922C131.141 256.237 131.141 251.897 128.456 249.213L119.577 240.334L137.334 222.577L159.946 245.189C161.285 246.528 163.043 247.201 164.801 247.201C166.559 247.201 168.317 246.528 169.656 245.189C172.341 242.504 172.341 238.164 169.656 235.479L147.044 212.867L164.801 195.11L173.68 203.989C175.019 205.328 176.776 206.001 178.534 206.001C180.292 206.001 182.05 205.328 183.389 203.989C186.074 201.304 186.074 196.964 183.389 194.279L174.51 185.401L192.268 167.644L201.146 176.522C202.485 177.861 204.243 178.534 206.001 178.534C207.759 178.534 209.517 177.861 210.856 176.522C213.54 173.838 213.54 169.498 210.856 166.813L201.977 157.934L219.734 140.177L242.346 162.789C245.031 165.474 249.371 165.474 252.055 162.789C254.74 160.104 254.74 155.765 252.055 153.08L224.589 125.613C221.904 122.928 217.564 122.928 214.879 125.613L2.01364 338.479C-0.671214 341.164 -0.671214 345.503 2.01364 348.188L63.8134 409.988C65.1524 411.327 66.9102 412 68.6681 412C70.426 412 72.1838 411.327 73.5228 409.988L348.188 135.323C350.873 132.638 350.873 128.298 348.188 125.613ZM412 309V391.4C412 395.19 408.924 398.267 405.133 398.267H116.735C112.944 398.267 109.868 395.19 109.868 391.4C109.868 387.61 112.944 384.533 116.735 384.533H398.267V315.867H370.8V336.467C370.8 340.257 367.724 343.334 363.934 343.334C360.143 343.334 357.067 340.257 357.067 336.467V315.867H329.6V322.734C329.6 326.524 326.524 329.6 322.734 329.6C318.943 329.6 315.867 326.524 315.867 322.734V315.867H288.401V322.734C288.401 326.524 285.324 329.6 281.534 329.6C277.743 329.6 274.667 326.524 274.667 322.734V315.867H247.201V336.467C247.201 340.257 244.124 343.334 240.334 343.334C236.544 343.334 233.467 340.257 233.467 336.467V315.867H206.001V322.734C206.001 326.524 202.925 329.6 199.134 329.6C195.344 329.6 192.268 326.524 192.268 322.734V309C192.268 305.21 195.344 302.134 199.134 302.134H405.133C408.924 302.134 412 305.21 412 309Z" fill="#265375"/>
</svg>
