<svg width="437" height="437" viewBox="0 0 437 437" fill="none" xmlns="http://www.w3.org/2000/svg">
<path d="M370.591 436.859H64.8885C60.8707 436.859 57.6099 433.598 57.6099 429.581C57.6099 425.563 60.8707 422.302 64.8885 422.302H363.313V36.534C363.313 32.5162 366.574 29.2554 370.591 29.2554C374.609 29.2554 377.87 32.5162 377.87 36.534V429.581C377.87 433.598 374.609 436.859 370.591 436.859Z" fill="#265375"/>
<path d="M341.477 407.741H35.7738C31.7559 407.741 28.4951 404.48 28.4951 400.463V94.7598C28.4951 90.742 31.7559 87.4811 35.7738 87.4811C39.7916 87.4811 43.0524 90.742 43.0524 94.7598V393.184H334.198V14.6947H152.232C148.214 14.6947 144.953 11.4339 144.953 7.41609C144.953 3.39828 148.214 0.137451 152.232 0.137451H341.477C345.494 0.137451 348.755 3.39828 348.755 7.41609V400.463C348.755 404.48 345.494 407.741 341.477 407.741Z" fill="#265375"/>
<path d="M123.114 102.041H36.0763C33.1357 102.041 30.4863 100.265 29.3654 97.5427C28.2299 94.835 28.8559 91.7052 30.923 89.6235L117.961 2.27982C120.043 0.169018 123.187 -0.42783 125.895 0.693081C128.617 1.81399 130.393 4.47797 130.393 7.41854V94.7622C130.393 98.78 127.132 102.041 123.114 102.041ZM53.6178 87.4836H115.836V25.0329L53.6178 87.4836Z" fill="#265375"/>
<path d="M79.4456 203.943H195.904C199.922 203.943 203.183 200.682 203.183 196.664C203.183 192.646 199.922 189.385 195.904 189.385H79.4456C75.4278 189.385 72.167 192.646 72.167 196.664C72.167 200.682 75.4278 203.943 79.4456 203.943Z" fill="#265375"/>
<path d="M79.4456 233.057H152.232C156.25 233.057 159.511 229.796 159.511 225.778C159.511 221.761 156.25 218.5 152.232 218.5H79.4456C75.4278 218.5 72.167 221.761 72.167 225.778C72.167 229.796 75.4278 233.057 79.4456 233.057Z" fill="#265375"/>
<path d="M181.347 233.057H297.805C301.823 233.057 305.083 229.796 305.083 225.778C305.083 221.761 301.823 218.5 297.805 218.5H181.347C177.329 218.5 174.068 221.761 174.068 225.778C174.068 229.796 177.329 233.057 181.347 233.057Z" fill="#265375"/>
<path d="M79.4456 291.286H181.347C185.364 291.286 188.625 288.025 188.625 284.008C188.625 279.99 185.364 276.729 181.347 276.729H79.4456C75.4278 276.729 72.167 279.99 72.167 284.008C72.167 288.025 75.4278 291.286 79.4456 291.286Z" fill="#265375"/>
<path d="M79.4456 262.172H225.018C229.036 262.172 232.297 258.911 232.297 254.893C232.297 250.875 229.036 247.614 225.018 247.614H79.4456C75.4278 247.614 72.167 250.875 72.167 254.893C72.167 258.911 75.4278 262.172 79.4456 262.172Z" fill="#265375"/>
<path d="M254.133 262.172H297.805C301.823 262.172 305.084 258.911 305.084 254.893C305.084 250.875 301.823 247.614 297.805 247.614H254.133C250.115 247.614 246.854 250.875 246.854 254.893C246.854 258.911 250.115 262.172 254.133 262.172Z" fill="#265375"/>
<path d="M225.018 203.943H297.805C301.823 203.943 305.083 200.682 305.083 196.664C305.083 192.646 301.823 189.385 297.805 189.385H225.018C221.001 189.385 217.74 192.646 217.74 196.664C217.74 200.682 221.001 203.943 225.018 203.943Z" fill="#265375"/>
<path d="M108.56 145.713H297.805C301.823 145.713 305.084 142.452 305.084 138.435C305.084 134.417 301.823 131.156 297.805 131.156H108.56C104.543 131.156 101.282 134.417 101.282 138.435C101.282 142.452 104.543 145.713 108.56 145.713Z" fill="#265375"/>
<path d="M79.4456 174.828H297.805C301.823 174.828 305.083 171.567 305.083 167.549C305.083 163.532 301.823 160.271 297.805 160.271H79.4456C75.4278 160.271 72.167 163.532 72.167 167.549C72.167 171.567 75.4278 174.828 79.4456 174.828Z" fill="#265375"/>
</svg>
