<svg width="422" height="422" viewBox="0 0 422 422" fill="none" xmlns="http://www.w3.org/2000/svg">
<path d="M108.903 204.193C63.8652 204.193 27.2261 240.832 27.2261 285.871C27.2261 330.909 63.8652 367.548 108.903 367.548C153.942 367.548 190.581 330.909 190.581 285.871C190.581 240.832 153.942 204.193 108.903 204.193ZM176.621 279.064H115.71V218.153C147.816 221.352 173.422 246.958 176.621 279.064ZM40.839 285.871C40.839 250.641 67.7517 221.577 102.097 218.153V353.595C67.7517 350.165 40.839 321.101 40.839 285.871ZM115.71 353.588V292.677H176.621C173.422 324.783 147.816 350.389 115.71 353.588Z" fill="#265375"/>
<path d="M319.59 195.624L333.346 201.729C337.014 203.363 340.914 204.193 344.937 204.193C352.56 204.193 359.727 201.219 365.118 195.828L374.355 186.592C378.745 182.201 381.161 176.368 381.161 170.161C381.161 163.953 378.745 158.113 374.355 153.73L363.559 142.935C354.786 134.162 339.471 134.162 330.698 142.935L326.349 147.284C324.763 148.87 322.653 149.742 320.407 149.742H319.399C317.153 149.742 315.043 148.87 313.457 147.284L308.754 142.581C307.161 140.988 306.29 138.878 306.29 136.632C306.29 134.066 307.44 131.67 309.441 130.071L313.355 126.947C317.514 123.618 319.903 118.65 319.903 113.313C319.903 108.712 318.045 104.22 314.791 100.973L302.301 88.4835C293.528 79.7099 278.213 79.7099 269.44 88.4835L260.204 97.7198C254.813 103.111 251.838 110.278 251.838 118.057C251.838 121.937 252.614 125.722 254.146 129.295C266.86 158.957 290.104 182.515 319.59 195.624ZM269.828 107.344L279.064 98.1078C280.888 96.2905 283.298 95.2899 285.871 95.2899C288.443 95.2899 290.853 96.2905 292.677 98.1078L305.167 110.598C305.875 111.312 306.29 112.306 306.29 113.313C306.29 114.491 305.766 115.58 304.854 116.308L300.947 119.432C295.686 123.639 292.677 129.908 292.677 136.632C292.677 142.513 294.964 148.047 299.123 152.199L303.826 156.902C307.985 161.067 313.518 163.354 319.399 163.354H320.407C326.287 163.354 331.821 161.067 335.973 156.909L340.322 152.559C343.964 148.932 350.294 148.932 353.935 152.559L364.73 163.354C366.548 165.179 367.548 167.588 367.548 170.161C367.548 172.734 366.548 175.143 364.73 176.967L355.494 186.204C351.192 190.505 344.447 191.771 338.879 189.287L325.123 183.182C298.782 171.475 278.016 150.429 266.663 123.938C265.86 122.073 265.451 120.093 265.451 117.901C265.451 113.912 267.01 110.169 269.828 107.344Z" fill="#265375"/>
<path d="M349.082 231.419H401.581C412.839 231.419 422 222.258 422 211V74.871C422 63.6131 412.839 54.4516 401.581 54.4516H326.71V0H58.4402L0 58.4402V394.774H168.099L208.938 422H401.581C412.839 422 422 412.839 422 401.581V374.355C422 363.097 412.839 353.935 401.581 353.935H326.71V245.407L349.082 231.419ZM408.387 74.871V211C408.387 214.757 405.338 217.806 401.581 217.806H345.176L299.484 246.36V217.806H224.613C220.856 217.806 217.806 214.757 217.806 211V74.871C217.806 71.1138 220.856 68.0645 224.613 68.0645H401.581C405.338 68.0645 408.387 71.1138 408.387 74.871ZM54.4516 23.2372V54.4516H23.2372L54.4516 23.2372ZM217.806 394.774H326.71V408.387H217.806V394.774ZM340.323 367.548H353.935V408.387H340.323V367.548ZM326.71 381.161H217.806V367.548H326.71V381.161ZM204.194 402.479L182.433 387.968L204.194 373.456V402.479ZM408.387 374.355V401.581C408.387 405.338 405.338 408.387 401.581 408.387H367.548V367.548H401.581C405.338 367.548 408.387 370.598 408.387 374.355ZM313.097 353.935H208.938L168.099 381.161H13.6129V68.0645H68.0645V13.6129H313.097V54.4516H224.613C213.355 54.4516 204.194 63.6131 204.194 74.871V211C204.194 222.258 213.355 231.419 224.613 231.419H285.871V270.931L313.097 253.915V353.935Z" fill="#265375"/>
<path d="M170.162 81.6774H156.549V163.355H142.936V68.0645H129.323V163.355H115.71V122.516H102.097V163.355H88.4841V95.2903H74.8712V163.355H61.2583V108.903H47.6454V163.355H27.2261V176.968H190.581V163.355H170.162V81.6774Z" fill="#265375"/>
</svg>
