<svg width="831" height="717" viewBox="0 0 831 717" fill="none" xmlns="http://www.w3.org/2000/svg">
<mask id="mask0_68:3731" style="mask-type:alpha" maskUnits="userSpaceOnUse" x="0" y="0" width="831" height="717">
<rect width="831" height="717" fill="#C4C4C4"/>
</mask>
<g mask="url(#mask0_68:3731)">
<path d="M951.529 343.327C955.42 347.218 955.42 353.545 951.532 357.433C947.644 361.321 941.317 361.321 937.426 357.43C933.541 353.545 933.541 347.218 937.429 343.33C941.317 339.442 947.644 339.442 951.529 343.327ZM702.262 165.501L755.295 165.501L755.295 207.122L796.091 247.918C792.806 252.647 793.244 259.175 797.461 263.391C802.196 268.126 809.874 268.126 814.609 263.391C819.343 258.657 819.343 250.978 814.609 246.244C810.392 242.027 803.861 241.585 799.136 244.874L759.6 205.338L759.6 168.546L933.014 341.96C928.91 347.544 929.336 355.43 934.381 360.475C939.95 366.044 949.008 366.047 954.577 360.478C960.143 354.912 960.143 345.851 954.574 340.282C949.529 335.237 941.64 334.814 936.059 338.915L860.027 262.883L900.275 262.886L1013.12 375.729L1013.12 431.964L1102.79 521.634C1099.53 526.332 1099.96 532.823 1104.15 537.01C1108.86 541.717 1116.49 541.717 1121.2 537.007C1125.91 532.3 1125.91 524.663 1121.2 519.956C1117.02 515.77 1110.53 515.328 1105.83 518.589L1017.42 430.18L1017.42 380.034L1080.19 442.804C1076.9 447.529 1077.35 454.06 1081.56 458.274C1086.3 463.011 1093.97 463.008 1098.71 458.274C1103.44 453.539 1103.44 445.864 1098.71 441.126C1094.49 436.912 1087.96 436.471 1083.24 439.759L902.056 258.578L855.722 258.578L758.34 161.196L704.047 161.196L587.675 44.8245L472.512 44.8184L470.728 49.1238L585.891 49.1297L702.262 165.501Z" fill="black" fill-opacity="0.03"/>
<path d="M886.284 548.061C882.396 551.949 876.069 551.949 872.181 548.061C868.293 544.173 868.293 537.846 872.181 533.958C876.069 530.07 882.396 530.07 886.284 533.958C890.172 537.846 890.172 544.173 886.284 548.061ZM662.952 210.455L662.952 306.747L712.014 355.809L756.345 355.809L803.931 403.395C800.643 408.12 801.084 414.651 805.301 418.868C810.036 423.603 817.711 423.6 822.446 418.865C827.18 414.131 827.183 406.455 822.449 401.72C818.232 397.503 811.701 397.062 806.976 400.35L758.13 351.504L713.799 351.504L667.257 304.963L667.257 211.716L696.919 211.716L825.472 340.269L825.475 369.343L877.08 420.948L877.08 526.94C874.169 527.384 871.371 528.678 869.136 530.913C863.568 536.482 863.568 545.537 869.136 551.106C874.702 556.671 883.76 556.674 889.329 551.106C894.898 545.537 894.895 536.479 889.329 530.913C887.094 528.678 884.296 527.384 881.385 526.94L881.388 419.166L829.781 367.559L829.777 341.53L871.079 341.533L966.43 436.884L966.427 538.306C964.095 538.726 961.86 539.828 960.057 541.631C955.35 546.338 955.347 553.971 960.057 558.681C964.764 563.388 972.4 563.388 977.108 558.681C981.818 553.971 981.815 546.338 977.108 541.631C975.302 539.825 973.064 538.726 970.732 538.306L970.735 441.189L1040.83 511.281L1040.83 567.992L1145.46 672.629C1142.21 677.324 1142.65 683.818 1146.83 688.004C1151.54 692.712 1159.18 692.712 1163.88 688.004C1168.59 683.294 1168.59 675.661 1163.88 670.954C1159.7 666.768 1153.21 666.323 1148.51 669.584L1045.13 566.207L1045.13 515.586L1113.8 584.256L1167.08 584.256C1167.5 586.589 1168.6 588.823 1170.4 590.626C1175.11 595.336 1182.74 595.336 1187.45 590.626C1192.16 585.919 1192.16 578.289 1187.45 573.579C1182.74 568.871 1175.11 568.868 1170.4 573.575C1168.6 575.381 1167.5 577.616 1167.08 579.951L1115.59 579.951L1045.13 509.497L1044.5 508.866L970.735 435.099L970.732 434.512L970.147 434.512L872.863 337.227L828.517 337.224L698.703 207.41L665.997 207.41L536.865 78.2785L496.166 78.2755L494.382 82.5808L535.081 82.5838L662.952 210.455Z" fill="black" fill-opacity="0.03"/>
<path d="M422.469 62.2457L422.472 85.1267C420.116 85.5468 417.866 86.652 416.045 88.4728C411.314 93.2042 411.317 100.886 416.048 105.617C420.786 110.355 428.464 110.355 433.196 105.624C437.933 100.886 437.933 93.2073 433.196 88.4697C431.381 86.6551 429.125 85.5498 426.778 85.1266L426.775 66.5509L476.583 116.359L479.628 119.404L479.631 161.393L573.401 255.164L617.787 255.164C618.21 257.518 619.315 259.768 621.133 261.585C625.868 266.32 633.543 266.323 638.281 261.585C643.015 256.851 643.015 249.172 638.281 244.438C633.546 239.703 625.868 239.703 621.133 244.438C619.315 246.255 618.207 248.508 617.787 250.859L575.185 250.859L483.936 159.609L483.933 123.709L555.154 194.931L603.352 194.931C603.772 197.281 604.88 199.534 606.698 201.352C611.433 206.087 619.108 206.09 623.846 201.352C628.58 196.618 628.58 188.939 623.846 184.204C619.108 179.467 611.433 179.47 606.698 184.204C604.88 186.022 603.775 188.272 603.352 190.626L556.939 190.626L486.977 120.664L536.256 120.668C536.676 123.018 537.784 125.271 539.602 127.089C544.337 131.823 552.015 131.823 556.75 127.089C561.487 122.351 561.484 114.676 556.75 109.941C552.015 105.207 544.34 105.203 539.602 109.941C537.784 111.759 536.679 114.009 536.256 116.362L482.672 116.359L374.104 7.79118L374.104 -33.9882L369.8 -32.2035L369.799 9.57537L422.469 62.2457Z" fill="black" fill-opacity="0.03"/>
<path d="M332.809 -21.2099L332.809 20.9409L387.879 76.0105L387.882 122.196L549.948 284.262L549.948 318.996L596.173 365.221L596.173 424.069L723.591 551.487L762.088 551.487L779.939 569.338C776.657 574.063 777.098 580.594 781.312 584.808C786.047 589.542 793.725 589.542 798.457 584.811C803.195 580.073 803.194 572.394 798.46 567.66C794.246 563.446 787.715 563.005 782.984 566.293L763.872 547.181L725.375 547.181L600.478 422.285L600.478 369.526L622.035 391.082L680.496 391.079L687.401 397.985L687.401 447.406L733.215 493.22C729.927 497.945 730.368 504.476 734.582 508.69C739.317 513.425 746.995 513.425 751.73 508.69C756.464 503.956 756.464 496.277 751.73 491.542C747.516 487.329 740.985 486.887 736.26 490.175L691.707 445.622L691.707 402.29L817.885 528.469C814.6 533.197 815.041 539.728 819.255 543.942C823.99 548.676 831.669 548.676 836.403 543.942C841.138 539.207 841.138 531.528 836.403 526.794C832.189 522.58 825.658 522.139 820.93 525.424L682.28 386.774L623.819 386.777L554.253 317.212L554.257 282.481L392.187 120.411L392.184 74.2263L337.114 19.1567L337.114 -22.9941L299.771 -60.3374L299.771 -98.524L295.466 -96.7398L295.466 -58.5532L332.809 -21.2099Z" fill="black" fill-opacity="0.03"/>
<path d="M527.405 306.433C531.293 310.322 531.293 316.648 527.405 320.537C523.52 324.422 517.19 324.425 513.302 320.536C509.414 316.648 509.417 310.318 513.302 306.433C517.19 302.545 523.517 302.545 527.405 306.433ZM308.521 -4.87517L308.521 71.7295L430.294 193.502L430.294 274.528L538.174 382.408C534.892 387.133 535.33 393.667 539.544 397.881C544.279 402.616 551.961 402.613 556.692 397.881C561.43 393.144 561.43 385.465 556.695 380.73C552.481 376.516 545.95 376.075 541.219 379.363L437.644 275.789L479.612 275.789L508.89 305.066C504.789 310.647 505.212 318.536 510.257 323.581C515.826 329.15 524.884 329.147 530.45 323.581C536.018 318.012 536.018 308.958 530.45 303.389C525.405 298.344 517.519 297.917 511.935 302.022L481.396 271.483L434.599 271.483L434.599 191.718L312.827 69.9453L312.827 -6.65936L206.183 -113.303L206.183 -152.872L201.878 -151.088L201.878 -111.519L308.521 -4.87517Z" fill="black" fill-opacity="0.03"/>
<path d="M253.47 -50.128L253.467 59.6426L396.361 202.537L396.361 263.942L459.809 327.391C456.524 332.119 456.965 338.65 461.179 342.864C465.914 347.598 473.593 347.598 478.327 342.864C483.062 338.129 483.061 330.451 478.327 325.716C474.113 321.502 467.582 321.061 462.854 324.346L400.666 262.158L400.666 200.752L257.772 57.8584L257.775 -51.9121L197.222 -112.465L192.917 -110.681L253.47 -50.128Z" fill="black" fill-opacity="0.03"/>
<path d="M1061.48 195.655C1065.36 199.543 1065.37 205.873 1061.48 209.761C1057.59 213.649 1051.26 213.646 1047.37 209.758C1043.48 205.87 1043.48 199.543 1047.37 195.655C1051.26 191.767 1057.59 191.767 1061.48 195.655ZM503.689 -18.3543L536.596 14.5528C533.311 19.2813 533.753 25.8122 537.967 30.0261C542.701 34.7606 550.38 34.7605 555.114 30.026C559.849 25.2915 559.849 17.6128 555.114 12.8783C550.901 8.66442 544.37 8.22291 539.641 11.5081L510.412 -17.721L561.088 -17.721L611.551 32.7419C608.263 37.4673 608.704 43.9982 612.921 48.2151C617.653 52.9465 625.331 52.9465 630.066 48.212C634.8 43.4775 634.8 35.7988 630.069 31.0673C625.852 26.8504 619.321 26.409 614.596 29.6972L562.872 -22.0262L506.104 -22.0292L470.31 -57.8227L544.424 -57.8227L647.631 45.3836L709.715 45.3866L856.826 192.497C853.501 197.229 853.924 203.79 858.154 208.019C862.888 212.754 870.57 212.757 875.304 208.022C880.039 203.288 880.036 195.606 875.301 190.872C871.106 186.676 864.605 186.216 859.88 189.462L770.503 100.085L794.522 100.082C794.949 102.432 796.054 104.688 797.869 106.503C802.606 111.24 810.282 111.237 815.016 106.503C819.751 101.768 819.757 94.0896 815.019 89.3521C810.285 84.6176 802.606 84.6237 797.872 89.3582C796.057 91.1728 794.949 93.4259 794.525 95.7795L766.198 95.7795L711.499 41.0813L649.415 41.0783L550.514 -57.8227L627.076 -57.8228L660.333 -24.5655L660.333 -3.90414L669.574 5.33659C666.289 10.065 666.73 16.5959 670.944 20.8097C675.679 25.5443 683.357 25.5442 688.092 20.8097C692.826 16.0752 692.826 8.39648 688.092 3.66196C683.878 -0.551904 677.347 -0.993348 672.619 2.29189L664.638 -5.68833L664.638 -26.3497L633.165 -57.8227L675.712 -57.8228L866.347 132.812L866.35 154.859L1072.59 361.101C1069.31 365.829 1069.75 372.36 1073.96 376.574C1078.7 381.309 1086.37 381.312 1091.11 376.574C1095.84 371.84 1095.84 364.164 1091.11 359.429C1086.89 355.216 1080.36 354.774 1075.64 358.056L870.655 153.075L870.652 134.073L981.485 134.073L981.485 198.243L1038.19 254.947C1034.9 259.676 1035.35 266.207 1039.56 270.418C1044.29 275.155 1051.97 275.152 1056.7 270.417C1061.44 265.683 1061.44 258.007 1056.7 253.27C1052.49 249.059 1045.96 248.614 1041.23 251.903L985.791 196.459L985.791 137.117L1042.96 194.288C1038.86 199.869 1039.28 207.758 1044.33 212.803C1049.9 218.371 1058.96 218.371 1064.52 212.806C1070.09 207.237 1070.09 198.179 1064.52 192.61C1059.48 187.565 1051.59 187.139 1046.01 191.243L984.53 129.767L869.392 129.767L677.496 -62.128L375.358 -62.128L373.574 -57.8228L464.221 -57.8228L503.689 -18.3543Z" fill="black" fill-opacity="0.03"/>
<path d="M760.462 -38.0961C764.35 -34.208 764.35 -27.8812 760.462 -23.9931C756.574 -20.105 750.247 -20.105 746.359 -23.9931C742.471 -27.8812 742.471 -34.2081 746.359 -38.0962C750.247 -41.9843 756.574 -41.9842 760.462 -38.0961ZM689.307 -92.1031L741.947 -39.4633C737.846 -33.8824 738.269 -25.9934 743.314 -20.9484C748.88 -15.3827 757.938 -15.3796 763.506 -20.9484C769.075 -26.5172 769.072 -35.5751 763.506 -41.1408C758.461 -46.1859 750.572 -46.6092 744.991 -42.508L693.612 -93.8874L693.609 -121.451L798.734 -16.3266L798.734 38.6303L856.236 96.1326C852.951 100.861 853.392 107.392 857.606 111.606C862.34 116.34 870.019 116.34 874.754 111.606C879.491 106.868 879.488 99.1925 874.754 94.458C870.54 90.2442 864.009 89.8027 859.281 93.0879L803.039 36.8462L803.039 -18.1107L692.349 -128.801L333.199 -128.798L331.414 -124.493L689.304 -124.496L689.307 -92.1031Z" fill="black" fill-opacity="0.03"/>
<path d="M683.538 248.639C687.426 244.751 693.752 244.751 697.641 248.639C701.532 252.53 701.532 258.857 697.644 262.745C693.752 266.636 687.426 266.636 683.534 262.745C679.646 258.857 679.646 252.53 683.538 248.639ZM785.986 339.341C790.723 334.603 790.72 326.927 785.986 322.193C781.251 317.458 773.575 317.455 768.838 322.193C767.023 324.008 765.915 326.261 765.492 328.614L733.029 328.614L692.739 288.324L692.742 269.76C695.649 269.319 698.453 268.025 700.688 265.79C706.254 260.224 706.254 251.163 700.685 245.594C695.12 240.029 686.059 240.029 680.493 245.594C674.924 251.163 674.924 260.224 680.49 265.79C682.725 268.025 685.529 269.319 688.436 269.76L688.433 290.108L731.245 332.919L765.492 332.919C765.918 335.27 767.02 337.523 768.838 339.341C773.572 344.075 781.251 344.075 785.986 339.341" fill="black" fill-opacity="0.03"/>
<path d="M719.766 406.413C724.501 411.147 732.18 411.147 736.917 406.41C741.649 401.678 741.652 393.996 736.917 389.262C732.7 385.045 726.166 384.606 721.444 387.892L662.063 328.511L632.883 328.511L607.426 303.054C610.711 298.326 610.27 291.795 606.056 287.581C601.321 282.846 593.643 282.846 588.908 287.581C584.174 292.315 584.174 299.994 588.908 304.729C593.122 308.943 599.653 309.384 604.378 306.096L631.098 332.816L660.279 332.816L718.399 390.936C715.111 395.662 715.549 402.196 719.766 406.413Z" fill="black" fill-opacity="0.03"/>
<path d="M769.462 137.017C774.196 132.283 774.196 124.604 769.462 119.869C764.727 115.135 757.049 115.135 752.314 119.869C750.496 121.687 749.388 123.94 748.968 126.291L723.435 126.291L684.441 87.2972C687.727 82.5688 687.285 76.0378 683.071 71.824C678.334 67.0864 670.658 67.0895 665.924 71.824C661.189 76.5585 661.186 84.2342 665.924 88.9717C670.137 93.1856 676.668 93.6271 681.397 90.3419L721.651 130.596L748.968 130.596C749.391 132.949 750.499 135.203 752.314 137.017C757.048 141.752 764.724 141.755 769.462 137.017" fill="black" fill-opacity="0.03"/>
<path d="M444.166 -89.491C440.278 -85.6029 433.951 -85.6029 430.063 -89.491C426.175 -93.379 426.175 -99.706 430.063 -103.594C433.951 -107.482 440.278 -107.482 444.166 -103.594C448.054 -99.7059 448.054 -93.3791 444.166 -89.491ZM638.862 -87.9686C643.597 -92.7031 643.597 -100.382 638.862 -105.116C634.125 -109.854 626.446 -109.854 621.712 -105.119C619.894 -103.302 618.792 -101.049 618.368 -98.6951L451.181 -98.6981C450.739 -101.606 449.445 -104.404 447.211 -106.639C441.642 -112.207 432.587 -112.208 427.018 -106.639C421.452 -101.073 421.449 -92.015 427.018 -86.4463C432.587 -80.8775 441.645 -80.8806 447.211 -86.4463C449.445 -88.6811 450.742 -91.4822 451.184 -94.3899L618.368 -94.3899C618.789 -92.0394 619.897 -89.7863 621.715 -87.9686C626.449 -83.2341 634.128 -83.2341 638.862 -87.9686Z" fill="black" fill-opacity="0.03"/>
<path d="M304.716 240.351C299.978 245.089 299.978 252.768 304.713 257.502C309.45 262.24 317.129 262.24 321.866 257.502C326.601 252.768 326.601 245.089 321.863 240.352C320.049 238.537 317.796 237.429 315.445 237.008L315.445 189.742C317.799 189.325 320.046 188.217 321.863 186.399C326.598 181.665 326.598 173.986 321.866 169.255C317.129 164.517 309.45 164.517 304.716 169.252C299.981 173.986 299.981 181.665 304.719 186.402C306.533 188.217 308.786 189.325 311.14 189.742L311.14 237.008C308.786 237.432 306.53 238.537 304.716 240.351" fill="black" fill-opacity="0.03"/>
<path d="M937.206 738.352L860.066 661.211L860.066 595.452L946.855 682.241C943.594 686.939 944.036 693.427 948.225 697.617C952.932 702.324 960.562 702.324 965.273 697.614C969.98 692.907 969.983 685.273 965.276 680.566C961.089 676.38 954.598 675.935 949.9 679.196L863.111 592.407L927.588 592.41L959.953 624.775C956.696 629.47 957.134 635.961 961.32 640.148C966.028 644.855 973.664 644.855 978.371 640.148C983.081 635.438 983.081 627.802 978.374 623.095C974.187 618.908 967.696 618.47 962.998 621.731L929.372 588.105L855.761 588.102L855.761 662.995L934.162 741.396C930.904 746.091 931.345 752.58 935.532 756.766C940.242 761.476 947.875 761.479 952.582 756.772C957.289 752.065 957.289 744.429 952.579 739.719C948.393 735.532 941.907 735.094 937.206 738.352Z" fill="black" fill-opacity="0.03"/>
</g>
</svg>
