<svg width="151" height="50" viewBox="0 0 151 50" fill="none" xmlns="http://www.w3.org/2000/svg">
<path d="M12.2598 0.875999C15.9318 0.875999 19.7398 0.921331 23.6838 1.012C27.6278 1.05733 31.2318 1.23866 34.4958 1.556L34.0198 9.104H15.9998C13.7331 9.104 12.5998 10.26 12.5998 12.572V19.916H31.5038V27.26H12.5998V36.508C12.5998 38.82 13.7331 39.976 15.9998 39.976H34.0198L34.4958 47.524C31.2318 47.8413 27.6278 48.0227 23.6838 48.068C19.7398 48.1133 15.9318 48.136 12.2598 48.136C9.26775 48.136 6.84242 47.2973 4.98375 45.62C3.12508 43.8973 2.19575 41.608 2.19575 38.752V10.328C2.19575 7.472 3.12508 5.18266 4.98375 3.46C6.84242 1.73733 9.26775 0.875999 12.2598 0.875999Z" fill="#BED558"/>
<path d="M63.696 0.679998L58.432 18.824C58.3387 19.1787 58.152 19.468 57.872 19.692C57.592 19.8973 57.2747 20 56.92 20H53C52.6267 20 52.3 19.8973 52.02 19.692C51.7587 19.468 51.5813 19.1787 51.488 18.824L46.224 0.679998H50.62L54.148 14.624C54.2227 14.9787 54.2973 15.3427 54.372 15.716C54.4467 16.0707 54.5213 16.4253 54.596 16.78H55.324C55.4547 16.052 55.6133 15.324 55.8 14.596L59.3 0.679998H63.696ZM71.0764 5.804C72.8124 5.804 74.2031 6.04667 75.2484 6.532C76.2937 6.99867 77.0404 7.77333 77.4884 8.856C77.9551 9.92 78.1884 11.3387 78.1884 13.112C78.1884 14.8853 77.9551 16.304 77.4884 17.368C77.0404 18.4133 76.2937 19.1693 75.2484 19.636C74.2031 20.1027 72.8124 20.336 71.0764 20.336C69.3404 20.336 67.9497 20.1027 66.9044 19.636C65.8591 19.1693 65.1031 18.4133 64.6364 17.368C64.1884 16.304 63.9644 14.8853 63.9644 13.112C63.9644 11.3387 64.1884 9.92 64.6364 8.856C65.1031 7.77333 65.8591 6.99867 66.9044 6.532C67.9497 6.04667 69.3404 5.804 71.0764 5.804ZM71.0764 8.8C70.3484 8.8 69.7791 8.92133 69.3684 9.164C68.9764 9.40667 68.6964 9.84533 68.5284 10.48C68.3604 11.096 68.2764 11.9733 68.2764 13.112C68.2764 14.232 68.3604 15.1 68.5284 15.716C68.6964 16.332 68.9764 16.7613 69.3684 17.004C69.7791 17.228 70.3484 17.34 71.0764 17.34C71.8044 17.34 72.3644 17.228 72.7564 17.004C73.1671 16.7613 73.4564 16.332 73.6244 15.716C73.7924 15.1 73.8764 14.232 73.8764 13.112C73.8764 11.9733 73.7924 11.096 73.6244 10.48C73.4564 9.84533 73.1671 9.40667 72.7564 9.164C72.3644 8.92133 71.8044 8.8 71.0764 8.8ZM90.2253 6.168V8.884H86.3613V15.576C86.3613 16.08 86.4733 16.444 86.6973 16.668C86.9213 16.8733 87.3133 16.976 87.8733 16.976H89.6653L90.1133 19.776C89.7587 19.9067 89.3387 20.0093 88.8533 20.084C88.368 20.1587 87.8827 20.2147 87.3973 20.252C86.9307 20.2893 86.5293 20.308 86.1933 20.308C84.9427 20.308 83.9627 19.9813 83.2533 19.328C82.5627 18.656 82.2173 17.7133 82.2173 16.5V8.884H79.8093V6.308L82.2173 6.196V2.332H86.3613V6.168H90.2253ZM98.9937 5.804C101.327 5.804 102.998 6.20533 104.006 7.008C105.032 7.81067 105.546 8.98667 105.546 10.536C105.564 11.7867 105.247 12.7293 104.594 13.364C103.94 13.9987 102.811 14.316 101.206 14.316H96.2777C96.3897 15.3987 96.6977 16.1267 97.2017 16.5C97.7244 16.8733 98.5271 17.06 99.6097 17.06C100.244 17.06 101.028 17.0413 101.962 17.004C102.914 16.948 103.866 16.864 104.818 16.752L105.21 19.3C104.388 19.692 103.418 19.9627 102.298 20.112C101.196 20.2613 100.142 20.336 99.1337 20.336C96.4831 20.336 94.6071 19.7573 93.5057 18.6C92.4231 17.4427 91.8817 15.6133 91.8817 13.112C91.8817 11.3013 92.1151 9.864 92.5817 8.8C93.0671 7.736 93.8324 6.97067 94.8777 6.504C95.9231 6.03733 97.2951 5.804 98.9937 5.804ZM99.1337 8.716C98.4244 8.716 97.8551 8.8 97.4257 8.968C97.0151 9.136 96.7164 9.46267 96.5297 9.948C96.3431 10.4147 96.2311 11.096 96.1937 11.992H100.086C100.702 11.992 101.094 11.8613 101.262 11.6C101.448 11.3387 101.542 10.956 101.542 10.452C101.542 9.79867 101.355 9.35067 100.982 9.108C100.608 8.84667 99.9924 8.716 99.1337 8.716Z" fill="black"/>
<path d="M53.8792 30.722C54.7632 30.722 55.7252 30.774 56.7652 30.878C57.8052 30.9647 58.8192 31.1467 59.8072 31.424L59.5472 34.076C58.7846 34.0413 57.8832 34.0153 56.8432 33.998C55.8206 33.9807 54.8239 33.972 53.8532 33.972C53.2119 33.972 52.6919 34.0067 52.2932 34.076C51.9119 34.1453 51.6346 34.3013 51.4612 34.544C51.3052 34.7693 51.2272 35.1507 51.2272 35.688C51.2272 36.312 51.3659 36.7627 51.6432 37.04C51.9379 37.3173 52.4319 37.56 53.1252 37.768L56.5832 38.886C58.0046 39.3887 58.9926 40.056 59.5472 40.888C60.1192 41.7027 60.4052 42.786 60.4052 44.138C60.4052 45.5073 60.1886 46.5733 59.7552 47.336C59.3219 48.0813 58.6112 48.6013 57.6232 48.896C56.6526 49.1907 55.3526 49.338 53.7232 49.338C53.1339 49.338 52.2932 49.2947 51.2012 49.208C50.1092 49.1387 48.8699 48.948 47.4832 48.636L47.7172 45.828C49.2599 45.88 50.4906 45.9147 51.4092 45.932C52.3452 45.9493 53.1166 45.958 53.7232 45.958C54.7632 45.958 55.4739 45.854 55.8552 45.646C56.2366 45.4207 56.4272 44.9353 56.4272 44.19C56.4272 43.5487 56.2886 43.098 56.0112 42.838C55.7512 42.578 55.3092 42.3527 54.6852 42.162L51.0452 40.914C49.6586 40.4287 48.6792 39.7787 48.1072 38.964C47.5526 38.1493 47.2752 37.066 47.2752 35.714C47.2752 34.3447 47.4919 33.3047 47.9252 32.594C48.3759 31.866 49.0866 31.372 50.0572 31.112C51.0279 30.852 52.3019 30.722 53.8792 30.722ZM66.8256 30.8L66.7996 44.892C66.7996 45.7587 67.3109 46.192 68.3336 46.192H69.3736L69.8156 48.792C69.5903 48.9133 69.2869 49.0087 68.9056 49.078C68.5243 49.1473 68.1343 49.1993 67.7356 49.234C67.3369 49.2687 67.0076 49.286 66.7476 49.286C65.5863 49.286 64.6676 48.9913 63.9916 48.402C63.3329 47.7953 63.0036 46.946 63.0036 45.854V30.8H66.8256ZM77.5675 35.818C79.1795 35.818 80.4708 36.0433 81.4415 36.494C82.4121 36.9273 83.1055 37.6467 83.5215 38.652C83.9548 39.64 84.1715 40.9573 84.1715 42.604C84.1715 44.2507 83.9548 45.568 83.5215 46.556C83.1055 47.5267 82.4121 48.2287 81.4415 48.662C80.4708 49.0953 79.1795 49.312 77.5675 49.312C75.9555 49.312 74.6641 49.0953 73.6935 48.662C72.7228 48.2287 72.0208 47.5267 71.5875 46.556C71.1715 45.568 70.9635 44.2507 70.9635 42.604C70.9635 40.9573 71.1715 39.64 71.5875 38.652C72.0208 37.6467 72.7228 36.9273 73.6935 36.494C74.6641 36.0433 75.9555 35.818 77.5675 35.818ZM77.5675 38.6C76.8915 38.6 76.3628 38.7127 75.9815 38.938C75.6175 39.1633 75.3575 39.5707 75.2015 40.16C75.0455 40.732 74.9675 41.5467 74.9675 42.604C74.9675 43.644 75.0455 44.45 75.2015 45.022C75.3575 45.594 75.6175 45.9927 75.9815 46.218C76.3628 46.426 76.8915 46.53 77.5675 46.53C78.2435 46.53 78.7635 46.426 79.1275 46.218C79.5088 45.9927 79.7775 45.594 79.9335 45.022C80.0895 44.45 80.1675 43.644 80.1675 42.604C80.1675 41.5467 80.0895 40.732 79.9335 40.16C79.7775 39.5707 79.5088 39.1633 79.1275 38.938C78.7635 38.7127 78.2435 38.6 77.5675 38.6ZM99.5129 36.156L95.2749 48.09C95.0669 48.6967 94.6509 49 94.0269 49H90.6989C90.0575 49 89.6415 48.6967 89.4509 48.09L85.2129 36.156H89.2689L91.6349 44.19C91.7389 44.5713 91.8342 44.9613 91.9209 45.36C92.0075 45.7587 92.0942 46.14 92.1809 46.504H92.5189C92.6055 46.1227 92.7009 45.7413 92.8049 45.36C92.9089 44.9613 93.0129 44.5713 93.1169 44.19L95.4569 36.156H99.5129ZM107.874 35.818C109.486 35.818 110.726 36.156 111.592 36.832C112.459 37.508 112.892 38.73 112.892 40.498V49H109.85L109.434 46.972C108.966 47.5093 108.334 48.0293 107.536 48.532C106.739 49.0347 105.76 49.286 104.598 49.286C103.437 49.286 102.458 48.9827 101.66 48.376C100.863 47.7693 100.464 46.868 100.464 45.672V44.346C100.464 43.3233 100.811 42.526 101.504 41.954C102.198 41.382 103.151 41.096 104.364 41.096H109.044V40.498C109.027 39.874 108.871 39.432 108.576 39.172C108.299 38.8947 107.77 38.756 106.99 38.756C106.314 38.756 105.482 38.782 104.494 38.834C103.506 38.8687 102.492 38.9207 101.452 38.99L101.114 36.442C101.721 36.338 102.423 36.2427 103.22 36.156C104.035 36.052 104.85 35.974 105.664 35.922C106.479 35.8527 107.216 35.818 107.874 35.818ZM105.794 46.504C106.262 46.504 106.782 46.4 107.354 46.192C107.944 45.9667 108.507 45.6633 109.044 45.282V43.254H105.56C105.092 43.2713 104.754 43.3927 104.546 43.618C104.356 43.8433 104.26 44.1467 104.26 44.528V45.152C104.26 46.0533 104.772 46.504 105.794 46.504ZM128.319 36.156L124.965 40.628C124.809 40.888 124.61 41.1307 124.367 41.356C124.124 41.5813 123.925 41.7373 123.769 41.824V41.902C123.925 42.006 124.124 42.1967 124.367 42.474C124.61 42.734 124.809 43.0027 124.965 43.28L128.761 49H124.471L120.831 43.02H119.583C119.635 43.3667 119.67 43.7047 119.687 44.034C119.722 44.3633 119.739 44.6753 119.739 44.97V49H115.917V30.8H119.739V38.314C119.756 39.1287 119.704 39.9173 119.583 40.68H120.831L124.029 36.156H128.319ZM133.274 30.488C134.037 30.488 134.418 30.8693 134.418 31.632V33.036C134.418 33.7987 134.037 34.18 133.274 34.18H131.61C130.848 34.18 130.466 33.7987 130.466 33.036V31.632C130.466 30.8693 130.848 30.488 131.61 30.488H133.274ZM134.34 36.156V49H130.544V36.156H134.34ZM144.386 35.818C145.998 35.818 147.237 36.156 148.104 36.832C148.971 37.508 149.404 38.73 149.404 40.498V49H146.362L145.946 46.972C145.478 47.5093 144.845 48.0293 144.048 48.532C143.251 49.0347 142.271 49.286 141.11 49.286C139.949 49.286 138.969 48.9827 138.172 48.376C137.375 47.7693 136.976 46.868 136.976 45.672V44.346C136.976 43.3233 137.323 42.526 138.016 41.954C138.709 41.382 139.663 41.096 140.876 41.096H145.556V40.498C145.539 39.874 145.383 39.432 145.088 39.172C144.811 38.8947 144.282 38.756 143.502 38.756C142.826 38.756 141.994 38.782 141.006 38.834C140.018 38.8687 139.004 38.9207 137.964 38.99L137.626 36.442C138.233 36.338 138.935 36.2427 139.732 36.156C140.547 36.052 141.361 35.974 142.176 35.922C142.991 35.8527 143.727 35.818 144.386 35.818ZM142.306 46.504C142.774 46.504 143.294 46.4 143.866 46.192C144.455 45.9667 145.019 45.6633 145.556 45.282V43.254H142.072C141.604 43.2713 141.266 43.3927 141.058 43.618C140.867 43.8433 140.772 44.1467 140.772 44.528V45.152C140.772 46.0533 141.283 46.504 142.306 46.504Z" fill="#265375"/>
<rect x="39" y="1" width="3" height="48" fill="black"/>
</svg>
